<svg xmlns="http://www.w3.org/2000/svg" width="382" height="319" viewBox="0 0 382 319">
  <g id="img4" transform="translate(-1048.912 -5265)">
    <rect id="Rectángulo_304492" data-name="Rectángulo 304492" width="382" height="319" rx="20" transform="translate(1048.912 5265)" fill="#fff"/>
    <rect id="Rectángulo_302907" data-name="Rectángulo 302907" width="134" height="40" rx="10" transform="translate(1144.62 5327.044)" fill="#feca2e"/>
    <rect id="Rectángulo_302909" data-name="Rectángulo 302909" width="92" height="40" rx="10" transform="translate(1165.62 5469.044)" fill="#feca2e"/>
    <rect id="Rectángulo_302910" data-name="Rectángulo 302910" width="111" height="40" rx="20" transform="translate(1299.62 5469.044)" fill="#feca2e"/>
    <rect id="Rectángulo_302908" data-name="Rectángulo 302908" width="252" height="40" rx="10" transform="translate(1085.62 5398.044)" fill="#feca2e"/>
    <path id="Trazado_684082" data-name="Trazado 684082" d="M-36.312-3.349H-41.5L-43.247,0h-1.767l6.952-12.8h1.45L-34.08,0h-1.626Zm-4.456-1.38h4.21L-37.622-10.7Zm16.831.018a7.545,7.545,0,0,1-.782,2.61,4.442,4.442,0,0,1-1.5,1.736,3.44,3.44,0,0,1-1.986.549A3.167,3.167,0,0,1-30.74-.932l-.853,4.588h-1.591L-30.9-9.51l1.441-.009-.176,1.063a3.608,3.608,0,0,1,2.821-1.23,2.653,2.653,0,0,1,2.136,1.011,4.448,4.448,0,0,1,.809,2.689,9.464,9.464,0,0,1-.044,1.09Zm-1.564-.18.044-.737a3.34,3.34,0,0,0-.488-1.962,1.715,1.715,0,0,0-1.411-.715A2.821,2.821,0,0,0-29.738-7l-.8,4.556a1.99,1.99,0,0,0,1.925,1.3A2.5,2.5,0,0,0-26.6-2.069,5.374,5.374,0,0,0-25.5-4.891Zm11.452.18a7.545,7.545,0,0,1-.782,2.61,4.442,4.442,0,0,1-1.5,1.736,3.44,3.44,0,0,1-1.986.549A3.167,3.167,0,0,1-20.852-.932L-21.7,3.656H-23.3L-21.01-9.51l1.441-.009-.176,1.063a3.608,3.608,0,0,1,2.821-1.23,2.653,2.653,0,0,1,2.136,1.011,4.448,4.448,0,0,1,.809,2.689,9.465,9.465,0,0,1-.044,1.09Zm-1.564-.18.044-.737a3.34,3.34,0,0,0-.488-1.962,1.715,1.715,0,0,0-1.411-.715A2.821,2.821,0,0,0-19.85-7l-.8,4.556a1.99,1.99,0,0,0,1.925,1.3,2.5,2.5,0,0,0,2.017-.926A5.374,5.374,0,0,0-15.614-4.891ZM-11.052,0h-1.582L-10.3-13.5h1.591Zm4.324,0H-8.31l1.652-9.51h1.582Zm1.31-12.981a.87.87,0,0,1,.672.242.9.9,0,0,1,.268.681.955.955,0,0,1-.268.677.962.962,0,0,1-.672.281.876.876,0,0,1-.677-.237.86.86,0,0,1-.255-.668,1,1,0,0,1,.264-.686A.93.93,0,0,1-5.418-12.981ZM-.11-1.143a2.413,2.413,0,0,0,1.538-.5,2.362,2.362,0,0,0,.9-1.349L3.828-3a3.391,3.391,0,0,1-.716,1.635A4,4,0,0,1,1.639-.211,4,4,0,0,1-.18.176a3.394,3.394,0,0,1-2.008-.62A3.469,3.469,0,0,1-3.4-2.123a5.593,5.593,0,0,1-.264-2.421l.044-.439a6.306,6.306,0,0,1,.8-2.452A4.624,4.624,0,0,1-1.165-9.119a4.1,4.1,0,0,1,2.25-.567,3.214,3.214,0,0,1,2.391,1,3.465,3.465,0,0,1,.9,2.452L2.887-6.24a2.283,2.283,0,0,0-.519-1.507,1.808,1.808,0,0,0-1.354-.611,2.536,2.536,0,0,0-2.061.923A4.834,4.834,0,0,0-2.07-4.781l-.026.229a7.623,7.623,0,0,0-.018,1.16,2.65,2.65,0,0,0,.58,1.626A1.863,1.863,0,0,0-.11-1.143ZM10.92,0a2.13,2.13,0,0,1-.062-.5l.026-.5A3.9,3.9,0,0,1,8.108.176a2.841,2.841,0,0,1-2.043-.8,2.407,2.407,0,0,1-.716-1.947,2.927,2.927,0,0,1,1.323-2.36,5.631,5.631,0,0,1,3.248-.848l1.661.009.105-.756a1.738,1.738,0,0,0-.33-1.349A1.591,1.591,0,0,0,10.1-8.385a2.453,2.453,0,0,0-1.446.4,1.7,1.7,0,0,0-.769,1.1l-1.6.009a2.55,2.55,0,0,1,.65-1.481,3.784,3.784,0,0,1,1.468-1,4.742,4.742,0,0,1,1.854-.338,3.153,3.153,0,0,1,2.312.9,2.794,2.794,0,0,1,.694,2.3l-.773,4.711-.044.677a3.318,3.318,0,0,0,.105.958L12.538,0Zm-2.5-1.23A2.774,2.774,0,0,0,9.87-1.6a3.661,3.661,0,0,0,1.173-1.059l.343-1.96-1.2-.009a4.561,4.561,0,0,0-2.3.475A1.748,1.748,0,0,0,6.974-2.8a1.361,1.361,0,0,0,.312,1.112A1.486,1.486,0,0,0,8.424-1.23ZM18.892-11.812l-.4,2.3h1.731L20-8.253H18.277l-.993,5.915a2.062,2.062,0,0,0-.009.422.67.67,0,0,0,.747.686,4.556,4.556,0,0,0,.773-.088L18.672.009a4.328,4.328,0,0,1-1.16.158,1.661,1.661,0,0,1-1.424-.7,2.7,2.7,0,0,1-.369-1.833l.967-5.889H15.007l.22-1.257h1.679l.4-2.3ZM22.206,0H20.624l1.652-9.51h1.582Zm1.31-12.981a.87.87,0,0,1,.672.242.9.9,0,0,1,.268.681.955.955,0,0,1-.268.677.962.962,0,0,1-.672.281.876.876,0,0,1-.677-.237.86.86,0,0,1-.255-.668,1,1,0,0,1,.264-.686A.93.93,0,0,1,23.515-12.981Zm6.574,3.3a3.428,3.428,0,0,1,2.048.65A3.7,3.7,0,0,1,33.4-7.291a5.4,5.4,0,0,1,.277,2.43l-.018.193a6.4,6.4,0,0,1-.826,2.509A4.848,4.848,0,0,1,31.126-.413a4.158,4.158,0,0,1-2.294.589,3.434,3.434,0,0,1-2.043-.65A3.611,3.611,0,0,1,25.537-2.2a5.547,5.547,0,0,1-.281-2.4,6.48,6.48,0,0,1,.8-2.654,4.96,4.96,0,0,1,1.718-1.824A4.109,4.109,0,0,1,30.089-9.686Zm-3.234,5.1a5.4,5.4,0,0,0,0,1.151,2.821,2.821,0,0,0,.62,1.652,1.86,1.86,0,0,0,1.419.642,2.534,2.534,0,0,0,1.459-.391,3.284,3.284,0,0,0,1.125-1.261,5.311,5.311,0,0,0,.589-1.872,8.431,8.431,0,0,0,.026-1.362,2.927,2.927,0,0,0-.642-1.679,1.9,1.9,0,0,0-1.424-.65,2.592,2.592,0,0,0-2.092.967,4.776,4.776,0,0,0-1.063,2.6ZM38.008-9.519l-.229,1.2A3.749,3.749,0,0,1,40.7-9.686a2.359,2.359,0,0,1,1.986.932,3.619,3.619,0,0,1,.475,2.522L42.122,0H40.531l1.046-6.251a3.332,3.332,0,0,0,.009-.8,1.314,1.314,0,0,0-1.45-1.255,2.994,2.994,0,0,0-2.514,1.528L36.444,0H34.853l1.652-9.51Z" transform="translate(1211.62 5353.044)" fill="#12263f"/>
    <path id="Trazado_684083" data-name="Trazado 684083" d="M-22.346,0l2.224-12.8,3.322.009a4.613,4.613,0,0,1,2.694.782,4.314,4.314,0,0,1,1.622,2.158,6.707,6.707,0,0,1,.29,3.081l-.088.642a7.236,7.236,0,0,1-2.171,4.46A6.313,6.313,0,0,1-18.936,0Zm3.63-11.417-1.74,10.028,1.626.009a4.569,4.569,0,0,0,3.16-1.16,5.507,5.507,0,0,0,1.683-3.182,10.352,10.352,0,0,0,.211-2.751,3.35,3.35,0,0,0-.905-2.131,2.931,2.931,0,0,0-2.074-.8ZM-5.137-8.06l-.747-.079a2.722,2.722,0,0,0-2.408,1.38L-9.461,0h-1.591L-9.4-9.51l1.538-.009L-8.1-8.411A2.843,2.843,0,0,1-5.717-9.7a2.918,2.918,0,0,1,.756.132ZM-3.335,0H-4.917l1.652-9.51h1.582Zm1.31-12.981a.87.87,0,0,1,.672.242.9.9,0,0,1,.268.681.955.955,0,0,1-.268.677.962.962,0,0,1-.672.281.876.876,0,0,1-.677-.237.86.86,0,0,1-.255-.668,1,1,0,0,1,.264-.686A.93.93,0,0,1-2.026-12.981ZM2.72-2.224,6.148-9.51H7.827L3.037,0H1.824L-.04-9.51H1.525Zm9.2,2.4a3.429,3.429,0,0,1-2.777-1.31A4.507,4.507,0,0,1,8.3-4.395l.044-.378a6.327,6.327,0,0,1,.839-2.584,4.882,4.882,0,0,1,1.683-1.762,3.927,3.927,0,0,1,2.145-.567,3.024,3.024,0,0,1,2.3.976,4.012,4.012,0,0,1,.914,2.549,7.448,7.448,0,0,1-.035,1.143l-.1.729H9.883a3.212,3.212,0,0,0,.426,2.2,2.019,2.019,0,0,0,1.745.94,3.383,3.383,0,0,0,2.6-1.266l.914.773A4.183,4.183,0,0,1,14.027-.294,4.371,4.371,0,0,1,11.922.176Zm1.011-8.534a2.324,2.324,0,0,0-1.718.668A4.748,4.748,0,0,0,10.05-5.625l4.623.009.035-.141A2.6,2.6,0,0,0,14.353-7.6,1.674,1.674,0,0,0,12.933-8.358Zm10.125.3-.747-.079A2.722,2.722,0,0,0,19.9-6.759L18.734,0H17.143L18.8-9.51l1.538-.009L20.1-8.411A2.843,2.843,0,0,1,22.478-9.7a2.918,2.918,0,0,1,.756.132Z" transform="translate(1211.62 5495.044)" fill="#12263f"/>
    <path id="Trazado_684084" data-name="Trazado 684084" d="M-25.576,0l2.224-12.8,3.322.009a4.613,4.613,0,0,1,2.694.782,4.314,4.314,0,0,1,1.622,2.158,6.707,6.707,0,0,1,.29,3.081l-.088.642a7.236,7.236,0,0,1-2.171,4.46A6.313,6.313,0,0,1-22.166,0Zm3.63-11.417-1.74,10.028,1.626.009A4.569,4.569,0,0,0-18.9-2.54a5.507,5.507,0,0,0,1.683-3.182,10.352,10.352,0,0,0,.211-2.751,3.35,3.35,0,0,0-.905-2.131,2.931,2.931,0,0,0-2.074-.8ZM-10.169.176a3.429,3.429,0,0,1-2.777-1.31,4.507,4.507,0,0,1-.844-3.261l.044-.378a6.327,6.327,0,0,1,.839-2.584,4.882,4.882,0,0,1,1.683-1.762,3.927,3.927,0,0,1,2.145-.567,3.024,3.024,0,0,1,2.3.976,4.012,4.012,0,0,1,.914,2.549A7.448,7.448,0,0,1-5.9-5.019l-.1.729h-6.214a3.212,3.212,0,0,0,.426,2.2,2.019,2.019,0,0,0,1.745.94,3.383,3.383,0,0,0,2.6-1.266l.914.773A4.183,4.183,0,0,1-8.064-.294,4.371,4.371,0,0,1-10.169.176Zm1.011-8.534a2.324,2.324,0,0,0-1.718.668,4.748,4.748,0,0,0-1.165,2.065l4.623.009.035-.141A2.6,2.6,0,0,0-7.739-7.6,1.674,1.674,0,0,0-9.158-8.358Zm7.55,6.135L1.819-9.51H3.5L-1.292,0H-2.5L-4.368-9.51H-2.8ZM5.2,0H3.621L5.273-9.51H6.855Zm1.31-12.981a.87.87,0,0,1,.672.242.9.9,0,0,1,.268.681.955.955,0,0,1-.268.677.962.962,0,0,1-.672.281.876.876,0,0,1-.677-.237.86.86,0,0,1-.255-.668,1,1,0,0,1,.264-.686A.93.93,0,0,1,6.513-12.981ZM11.821-1.143a2.413,2.413,0,0,0,1.538-.5,2.362,2.362,0,0,0,.9-1.349L15.759-3a3.391,3.391,0,0,1-.716,1.635A4,4,0,0,1,13.57-.211a4,4,0,0,1-1.819.387,3.394,3.394,0,0,1-2.008-.62A3.469,3.469,0,0,1,8.534-2.123a5.593,5.593,0,0,1-.264-2.421l.044-.439a6.306,6.306,0,0,1,.8-2.452,4.624,4.624,0,0,1,1.652-1.683,4.1,4.1,0,0,1,2.25-.567,3.214,3.214,0,0,1,2.391,1,3.465,3.465,0,0,1,.9,2.452L14.818-6.24A2.283,2.283,0,0,0,14.3-7.748a1.808,1.808,0,0,0-1.354-.611,2.536,2.536,0,0,0-2.061.923A4.834,4.834,0,0,0,9.861-4.781l-.026.229a7.623,7.623,0,0,0-.018,1.16,2.65,2.65,0,0,0,.58,1.626A1.863,1.863,0,0,0,11.821-1.143ZM21.146.176a3.429,3.429,0,0,1-2.777-1.31,4.507,4.507,0,0,1-.844-3.261l.044-.378a6.327,6.327,0,0,1,.839-2.584,4.882,4.882,0,0,1,1.683-1.762,3.927,3.927,0,0,1,2.145-.567,3.024,3.024,0,0,1,2.3.976,4.012,4.012,0,0,1,.914,2.549,7.448,7.448,0,0,1-.035,1.143l-.1.729H19.107a3.212,3.212,0,0,0,.426,2.2,2.019,2.019,0,0,0,1.745.94,3.383,3.383,0,0,0,2.6-1.266l.914.773A4.183,4.183,0,0,1,23.251-.294,4.371,4.371,0,0,1,21.146.176Zm1.011-8.534a2.324,2.324,0,0,0-1.718.668,4.748,4.748,0,0,0-1.165,2.065l4.623.009.035-.141A2.6,2.6,0,0,0,23.577-7.6,1.674,1.674,0,0,0,22.157-8.358Z" transform="translate(1355.62 5495.044)" fill="#12263f"/>
    <path id="Trazado_684081" data-name="Trazado 684081" d="M-103.777-3.946l-.035,1.547.6-1.512,3.823-8.886h1.4l1.011,9,.088,1.459.554-1.767,3.27-8.692h1.7L-96.385,0h-1.5L-99-9.4l-.035-.879-.369,1.02L-103.478,0h-1.5l-1-12.8h1.608ZM-90.127,0h-1.582l1.652-9.51h1.582Zm1.31-12.981a.87.87,0,0,1,.672.242.9.9,0,0,1,.268.681.955.955,0,0,1-.268.677.962.962,0,0,1-.672.281.876.876,0,0,1-.677-.237.86.86,0,0,1-.255-.668,1,1,0,0,1,.264-.686A.93.93,0,0,1-88.818-12.981Zm4.447,3.463-.229,1.2a3.749,3.749,0,0,1,2.918-1.371,2.359,2.359,0,0,1,1.986.932,3.619,3.619,0,0,1,.475,2.522L-80.257,0h-1.591L-80.8-6.251a3.332,3.332,0,0,0,.009-.8,1.314,1.314,0,0,0-1.45-1.255,2.994,2.994,0,0,0-2.514,1.528L-85.935,0h-1.591l1.652-9.51Zm7.022,4.746a7.4,7.4,0,0,1,.8-2.619A4.534,4.534,0,0,1-75.01-9.141,3.517,3.517,0,0,1-73-9.694a2.971,2.971,0,0,1,2.443,1.16l.914-4.966h1.591L-70.387,0h-1.45l.167-1.02a3.506,3.506,0,0,1-2.777,1.2,2.627,2.627,0,0,1-2.1-1.033,4.5,4.5,0,0,1-.844-2.676A8.547,8.547,0,0,1-77.348-4.772Zm1.529.909a3.3,3.3,0,0,0,.448,1.949,1.617,1.617,0,0,0,1.389.711A2.874,2.874,0,0,0-71.53-2.591l.756-4.389A1.973,1.973,0,0,0-72.69-8.314a2.411,2.411,0,0,0-1.657.566,3.663,3.663,0,0,0-1.09,1.659A6.842,6.842,0,0,0-75.819-3.864Zm13.228-5.822a3.428,3.428,0,0,1,2.048.65,3.7,3.7,0,0,1,1.261,1.745,5.4,5.4,0,0,1,.277,2.43l-.018.193a6.4,6.4,0,0,1-.826,2.509A4.848,4.848,0,0,1-61.554-.413a4.158,4.158,0,0,1-2.294.589,3.434,3.434,0,0,1-2.043-.65A3.611,3.611,0,0,1-67.144-2.2a5.547,5.547,0,0,1-.281-2.4,6.48,6.48,0,0,1,.8-2.654,4.96,4.96,0,0,1,1.718-1.824A4.109,4.109,0,0,1-62.591-9.686Zm-3.234,5.1a5.4,5.4,0,0,0,0,1.151,2.821,2.821,0,0,0,.62,1.652,1.86,1.86,0,0,0,1.419.642,2.534,2.534,0,0,0,1.459-.391A3.284,3.284,0,0,0-61.2-2.795a5.311,5.311,0,0,0,.589-1.872,8.431,8.431,0,0,0,.026-1.362,2.927,2.927,0,0,0-.642-1.679,1.9,1.9,0,0,0-1.424-.65,2.592,2.592,0,0,0-2.092.967,4.776,4.776,0,0,0-1.063,2.6ZM-49.293-2.25l3.032-7.26h1.644L-48.951,0h-1.292l-.984-7.189L-54.655,0h-1.292l-1.028-9.51h1.521l.58,7.084L-51.5-9.51h1.283Zm10.564-.325q.132-.984-1.081-1.389l-1.652-.483q-2.092-.721-2.021-2.391A2.634,2.634,0,0,1-42.337-8.9a4.085,4.085,0,0,1,2.553-.787,3.406,3.406,0,0,1,2.342.839,2.659,2.659,0,0,1,.866,2.14l-1.582-.009a1.484,1.484,0,0,0-.448-1.16,1.774,1.774,0,0,0-1.239-.466,2.316,2.316,0,0,0-1.424.4A1.48,1.48,0,0,0-41.911-6.9q-.114.826,1.011,1.2l.8.22a5.15,5.15,0,0,1,2.32,1.1A2.1,2.1,0,0,1-37.147-2.7a2.666,2.666,0,0,1-.58,1.547A3.317,3.317,0,0,1-39.133-.145a4.7,4.7,0,0,1-1.872.321,3.71,3.71,0,0,1-2.5-.883,2.731,2.731,0,0,1-.949-2.228l1.591.009a1.686,1.686,0,0,0,.51,1.283,1.948,1.948,0,0,0,1.4.483,2.741,2.741,0,0,0,1.5-.365A1.4,1.4,0,0,0-38.729-2.575ZM-26.178.176A4.1,4.1,0,0,1-28.3-.413,3.815,3.815,0,0,1-29.72-2.07a6.241,6.241,0,0,1-.571-2.457,11.667,11.667,0,0,1,.237-2.628,9.012,9.012,0,0,1,1-2.821,6.358,6.358,0,0,1,1.731-2.013,4.984,4.984,0,0,1,3.146-.984,3.786,3.786,0,0,1,2.953,1.3,5.391,5.391,0,0,1,1.16,3.415,12.572,12.572,0,0,1-.189,2.347,9.715,9.715,0,0,1-.8,2.646,6.6,6.6,0,0,1-1.463,2.048A5.033,5.033,0,0,1-26.178.176Zm4.491-8.033a4.434,4.434,0,0,0-.606-2.685,2.309,2.309,0,0,0-1.96-.989,3.333,3.333,0,0,0-2.1.633,4.791,4.791,0,0,0-1.521,2,10.3,10.3,0,0,0-.751,3.371l-.026.571a4.472,4.472,0,0,0,.615,2.7A2.29,2.29,0,0,0-26.1-1.248a3.386,3.386,0,0,0,2.755-1.2,6.814,6.814,0,0,0,1.455-3.494A15.742,15.742,0,0,0-21.687-7.857Zm11.276,3.146a7.545,7.545,0,0,1-.782,2.61A4.442,4.442,0,0,1-12.7-.365a3.44,3.44,0,0,1-1.986.549A3.167,3.167,0,0,1-17.213-.932l-.853,4.588h-1.591L-17.372-9.51l1.441-.009-.176,1.063a3.608,3.608,0,0,1,2.821-1.23,2.653,2.653,0,0,1,2.136,1.011,4.448,4.448,0,0,1,.809,2.689,9.465,9.465,0,0,1-.044,1.09Zm-1.564-.18.044-.737a3.34,3.34,0,0,0-.488-1.962,1.715,1.715,0,0,0-1.411-.715A2.821,2.821,0,0,0-16.211-7l-.8,4.556a1.99,1.99,0,0,0,1.925,1.3,2.5,2.5,0,0,0,2.017-.926A5.374,5.374,0,0,0-11.975-4.891ZM-5.023.176A3.429,3.429,0,0,1-7.8-1.134a4.507,4.507,0,0,1-.844-3.261l.044-.378a6.327,6.327,0,0,1,.839-2.584A4.882,4.882,0,0,1-6.078-9.119a3.927,3.927,0,0,1,2.145-.567,3.024,3.024,0,0,1,2.3.976A4.012,4.012,0,0,1-.716-6.161,7.448,7.448,0,0,1-.751-5.019l-.1.729H-7.062a3.212,3.212,0,0,0,.426,2.2,2.019,2.019,0,0,0,1.745.94,3.383,3.383,0,0,0,2.6-1.266l.914.773A4.183,4.183,0,0,1-2.918-.294,4.371,4.371,0,0,1-5.023.176Zm1.011-8.534A2.324,2.324,0,0,0-5.73-7.69,4.748,4.748,0,0,0-6.9-5.625l4.623.009.035-.141A2.6,2.6,0,0,0-2.593-7.6,1.674,1.674,0,0,0-4.012-8.358Zm10.125.3-.747-.079a2.722,2.722,0,0,0-2.408,1.38L1.789,0H.2L1.85-9.51l1.538-.009L3.151-8.411A2.843,2.843,0,0,1,5.533-9.7a2.918,2.918,0,0,1,.756.132ZM11.659,0A2.13,2.13,0,0,1,11.6-.5l.026-.5A3.9,3.9,0,0,1,8.846.176,2.841,2.841,0,0,1,6.8-.62a2.407,2.407,0,0,1-.716-1.947,2.927,2.927,0,0,1,1.323-2.36,5.631,5.631,0,0,1,3.248-.848l1.661.009.105-.756a1.738,1.738,0,0,0-.33-1.349,1.591,1.591,0,0,0-1.252-.514,2.453,2.453,0,0,0-1.446.4,1.7,1.7,0,0,0-.769,1.1l-1.6.009a2.55,2.55,0,0,1,.65-1.481,3.784,3.784,0,0,1,1.468-1A4.742,4.742,0,0,1,11-9.694a3.153,3.153,0,0,1,2.312.9,2.794,2.794,0,0,1,.694,2.3l-.773,4.711-.044.677a3.318,3.318,0,0,0,.105.958L13.276,0Zm-2.5-1.23A2.774,2.774,0,0,0,10.608-1.6a3.661,3.661,0,0,0,1.173-1.059l.343-1.96-1.2-.009a4.561,4.561,0,0,0-2.3.475A1.748,1.748,0,0,0,7.712-2.8a1.361,1.361,0,0,0,.312,1.112A1.486,1.486,0,0,0,9.163-1.23ZM19.63-11.812l-.4,2.3h1.731l-.22,1.257H19.015l-.993,5.915a2.062,2.062,0,0,0-.009.422.67.67,0,0,0,.747.686,4.556,4.556,0,0,0,.773-.088L19.411.009a4.328,4.328,0,0,1-1.16.158,1.661,1.661,0,0,1-1.424-.7,2.7,2.7,0,0,1-.369-1.833l.967-5.889H15.746l.22-1.257h1.679l.4-2.3ZM22.944,0H21.362l1.652-9.51H24.6Zm1.31-12.981a.87.87,0,0,1,.672.242.9.9,0,0,1,.268.681.955.955,0,0,1-.268.677.962.962,0,0,1-.672.281.876.876,0,0,1-.677-.237.86.86,0,0,1-.255-.668,1,1,0,0,1,.264-.686A.93.93,0,0,1,24.253-12.981ZM28.7-9.519l-.229,1.2A3.749,3.749,0,0,1,31.39-9.686a2.359,2.359,0,0,1,1.986.932,3.619,3.619,0,0,1,.475,2.522L32.814,0H31.223l1.046-6.251a3.332,3.332,0,0,0,.009-.8,1.314,1.314,0,0,0-1.45-1.255,2.994,2.994,0,0,0-2.514,1.528L27.136,0H25.545L27.2-9.51Zm7.031,4.746a7.75,7.75,0,0,1,.839-2.7,4.39,4.39,0,0,1,1.529-1.7,3.545,3.545,0,0,1,1.973-.523,2.926,2.926,0,0,1,2.5,1.248l.316-1.063h1.459L42.763-.2a4.627,4.627,0,0,1-1.477,2.914,4.159,4.159,0,0,1-3.015,1.042,4.281,4.281,0,0,1-1.85-.457,3.518,3.518,0,0,1-1.393-1.2l.905-.976a2.721,2.721,0,0,0,2.276,1.31,2.728,2.728,0,0,0,1.92-.633,3.265,3.265,0,0,0,1.042-1.9l.176-.844A3.6,3.6,0,0,1,38.632.176,2.8,2.8,0,0,1,37.09-.3a2.913,2.913,0,0,1-1.015-1.31,5.354,5.354,0,0,1-.4-1.912A9.825,9.825,0,0,1,35.732-4.772Zm1.538.9a3.345,3.345,0,0,0,.435,1.944A1.644,1.644,0,0,0,39.1-1.2,2.881,2.881,0,0,0,41.55-2.6L42.3-6.963A2,2,0,0,0,40.39-8.314a2.468,2.468,0,0,0-2.123,1.053,5.488,5.488,0,0,0-.98,2.941ZM57-3.3q.193-1.406-1.459-2.057l-1.521-.554-.51-.22q-2.566-1.169-2.4-3.287a3.438,3.438,0,0,1,.729-1.881,4.151,4.151,0,0,1,1.7-1.261,5.455,5.455,0,0,1,2.254-.417,4.5,4.5,0,0,1,2.07.519,3.333,3.333,0,0,1,1.384,1.375,3.75,3.75,0,0,1,.422,1.991L58.012-9.1a2.292,2.292,0,0,0-.527-1.83,2.361,2.361,0,0,0-1.758-.666,3.274,3.274,0,0,0-2.013.564,2.2,2.2,0,0,0-.932,1.585q-.176,1.312,1.608,1.99l1.31.467.659.281q2.479,1.143,2.294,3.393a3.389,3.389,0,0,1-.729,1.868A4.079,4.079,0,0,1,56.206-.229a5.924,5.924,0,0,1-2.333.4,4.882,4.882,0,0,1-2.2-.514,3.592,3.592,0,0,1-1.516-1.384,3.462,3.462,0,0,1-.457-2l1.652.009a2.177,2.177,0,0,0,.62,1.815,2.789,2.789,0,0,0,1.973.69,3.523,3.523,0,0,0,2.1-.554A2.156,2.156,0,0,0,57-3.3Zm6.425.9L66.81-9.51h1.758L62.925,1.582Q61.748,3.894,59.9,3.867a5.181,5.181,0,0,1-.958-.158l.141-1.318.413.044A2.085,2.085,0,0,0,60.8,2.1,3.119,3.119,0,0,0,61.774.888L62.345-.2,60.7-9.51h1.661Zm10.828-.176q.132-.984-1.081-1.389l-1.652-.483Q69.429-5.168,69.5-6.838A2.634,2.634,0,0,1,70.646-8.9,4.085,4.085,0,0,1,73.2-9.686a3.406,3.406,0,0,1,2.342.839,2.659,2.659,0,0,1,.866,2.14l-1.582-.009a1.484,1.484,0,0,0-.448-1.16,1.774,1.774,0,0,0-1.239-.466,2.316,2.316,0,0,0-1.424.4A1.48,1.48,0,0,0,71.073-6.9q-.114.826,1.011,1.2l.8.22a5.15,5.15,0,0,1,2.32,1.1A2.1,2.1,0,0,1,75.836-2.7a2.666,2.666,0,0,1-.58,1.547A3.317,3.317,0,0,1,73.85-.145a4.7,4.7,0,0,1-1.872.321,3.71,3.71,0,0,1-2.5-.883,2.731,2.731,0,0,1-.949-2.228l1.591.009a1.686,1.686,0,0,0,.51,1.283,1.948,1.948,0,0,0,1.4.483,2.741,2.741,0,0,0,1.5-.365A1.4,1.4,0,0,0,74.254-2.575Zm7.4-9.237-.4,2.3h1.731l-.22,1.257H81.04l-.993,5.915a2.062,2.062,0,0,0-.009.422.67.67,0,0,0,.747.686,4.556,4.556,0,0,0,.773-.088L81.435.009a4.328,4.328,0,0,1-1.16.158,1.661,1.661,0,0,1-1.424-.7,2.7,2.7,0,0,1-.369-1.833l.967-5.889H77.77l.22-1.257h1.679l.4-2.3ZM87.359.176a3.429,3.429,0,0,1-2.777-1.31,4.507,4.507,0,0,1-.844-3.261l.044-.378a6.327,6.327,0,0,1,.839-2.584A4.882,4.882,0,0,1,86.3-9.119a3.927,3.927,0,0,1,2.145-.567,3.024,3.024,0,0,1,2.3.976,4.012,4.012,0,0,1,.914,2.549,7.448,7.448,0,0,1-.035,1.143l-.1.729H85.32a3.212,3.212,0,0,0,.426,2.2,2.019,2.019,0,0,0,1.745.94,3.383,3.383,0,0,0,2.6-1.266l.914.773A4.183,4.183,0,0,1,89.464-.294,4.371,4.371,0,0,1,87.359.176ZM88.37-8.358a2.324,2.324,0,0,0-1.718.668,4.748,4.748,0,0,0-1.165,2.065l4.623.009.035-.141A2.6,2.6,0,0,0,89.789-7.6,1.674,1.674,0,0,0,88.37-8.358Zm7.348-1.16-.2,1.063a3.718,3.718,0,0,1,2.892-1.23,2.934,2.934,0,0,1,1.534.413,2.026,2.026,0,0,1,.866,1.116,3.927,3.927,0,0,1,3.155-1.529,2.515,2.515,0,0,1,2.1.958,3.422,3.422,0,0,1,.5,2.479L105.517,0h-1.582l1.037-6.267a3.311,3.311,0,0,0,0-.835q-.167-1.2-1.564-1.222a2.4,2.4,0,0,0-1.578.541,2.5,2.5,0,0,0-.91,1.463L99.839,0h-1.6l1.055-6.258A2.009,2.009,0,0,0,99-7.761a1.549,1.549,0,0,0-1.27-.545,2.6,2.6,0,0,0-2.364,1.354L94.162,0H92.571l1.652-9.51Z" transform="translate(1211.62 5424.044)" fill="#12263f"/>
    <g id="Grupo_909043" data-name="Grupo 909043" transform="translate(30.784 1202.044)">
      <line id="Línea_1057" data-name="Línea 1057" y2="23" transform="translate(1181.335 4169.5)" fill="none" stroke="#707070" stroke-width="2"/>
      <path id="Polígono_5" data-name="Polígono 5" d="M3.5,0,7,7H0Z" transform="translate(1177.835 4165)" fill="#707070"/>
      <path id="Polígono_6" data-name="Polígono 6" d="M3.5,0,7,7H0Z" transform="translate(1184.835 4196) rotate(180)" fill="#707070"/>
    </g>
    <g id="Grupo_909044" data-name="Grupo 909044" transform="translate(30.784 1273.044)">
      <line id="Línea_1057-2" data-name="Línea 1057" y2="23" transform="translate(1181.335 4169.5)" fill="none" stroke="#707070" stroke-width="2"/>
      <path id="Polígono_5-2" data-name="Polígono 5" d="M3.5,0,7,7H0Z" transform="translate(1177.835 4165)" fill="#707070"/>
      <path id="Polígono_6-2" data-name="Polígono 6" d="M3.5,0,7,7H0Z" transform="translate(1184.835 4196) rotate(180)" fill="#707070"/>
    </g>
    <g id="Grupo_909045" data-name="Grupo 909045" transform="translate(5464.62 4308.208) rotate(90)">
      <line id="Línea_1057-3" data-name="Línea 1057" y2="9" transform="translate(1181.335 4193.5)" fill="none" stroke="#707070" stroke-width="2"/>
      <line id="Línea_1058" data-name="Línea 1058" y2="9" transform="translate(1181.335 4180.5)" fill="none" stroke="#707070" stroke-width="2"/>
      <line id="Línea_1059" data-name="Línea 1059" y2="9" transform="translate(1181.335 4168.5)" fill="none" stroke="#707070" stroke-width="2"/>
      <path id="Polígono_5-3" data-name="Polígono 5" d="M3.5,0,7,7H0Z" transform="translate(1177.835 4165)" fill="#707070"/>
      <path id="Polígono_6-3" data-name="Polígono 6" d="M3.5,0,7,7H0Z" transform="translate(1184.835 4207) rotate(180)" fill="#707070"/>
    </g>
  </g>
</svg>
