<svg xmlns="http://www.w3.org/2000/svg" width="360.685" height="446.569" viewBox="0 0 360.685 446.569">
  <g id="Grupo_912659" data-name="Grupo 912659" transform="translate(-245.62 -5412.597)">
    <path id="Trazado_684103" data-name="Trazado 684103" d="M8.982,13H6.932L2.939,6.451V13H.889V3.047H2.939l4,6.563V3.047H8.982Zm1.354-3.767a4.387,4.387,0,0,1,.424-1.962,3.1,3.1,0,0,1,1.22-1.333,3.56,3.56,0,0,1,1.849-.472,3.368,3.368,0,0,1,2.444.916,3.676,3.676,0,0,1,1.056,2.488l.014.506a3.866,3.866,0,0,1-.95,2.731,3.3,3.3,0,0,1-2.55,1.029,3.319,3.319,0,0,1-2.553-1.025,3.934,3.934,0,0,1-.954-2.789Zm1.976.14a2.765,2.765,0,0,0,.4,1.612,1.424,1.424,0,0,0,2.256.007,3.025,3.025,0,0,0,.4-1.763,2.737,2.737,0,0,0-.4-1.6,1.311,1.311,0,0,0-1.135-.568,1.29,1.29,0,0,0-1.121.565A3.076,3.076,0,0,0,12.312,9.374Zm8.613-5.588V5.6h1.265V7.053H20.925v3.691a.881.881,0,0,0,.157.588.79.79,0,0,0,.6.178,3.15,3.15,0,0,0,.581-.048v1.5a4.067,4.067,0,0,1-1.2.178,1.886,1.886,0,0,1-2.119-2.1V7.053h-1.08V5.6h1.08V3.785ZM27.576,13a2.194,2.194,0,0,1-.2-.663,2.39,2.39,0,0,1-1.866.8,2.626,2.626,0,0,1-1.8-.629A2.023,2.023,0,0,1,23,10.922a2.09,2.09,0,0,1,.872-1.8,4.3,4.3,0,0,1,2.519-.636H27.3V8.058a1.219,1.219,0,0,0-.263-.82A1.035,1.035,0,0,0,26.2,6.93a1.177,1.177,0,0,0-.783.239.813.813,0,0,0-.284.656H23.16a1.984,1.984,0,0,1,.4-1.189,2.621,2.621,0,0,1,1.121-.858A4.086,4.086,0,0,1,26.3,5.467a3.228,3.228,0,0,1,2.17.687,2.4,2.4,0,0,1,.8,1.931v3.206a3.536,3.536,0,0,0,.294,1.593V13Zm-1.634-1.374a1.7,1.7,0,0,0,.807-.195,1.28,1.28,0,0,0,.547-.523V9.637h-.738q-1.483,0-1.579,1.025l-.007.116a.791.791,0,0,0,.26.608A1.009,1.009,0,0,0,25.942,11.626Zm4.956.4a1,1,0,0,1,.318-.766,1.235,1.235,0,0,1,1.6,0,1,1,0,0,1,.318.766.981.981,0,0,1-.314.755,1.256,1.256,0,0,1-1.606,0A.981.981,0,0,1,30.9,12.029ZM44.372,8.4H40.059v3.527h5.011V13H38.746V3.047H45V4.12H40.059V7.326h4.313ZM47.879,13H46.614V2.5h1.265Zm6.59,0a2.657,2.657,0,0,1-.178-.779,2.822,2.822,0,0,1-2.105.916,2.611,2.611,0,0,1-1.794-.619,2,2,0,0,1-.7-1.569,2.091,2.091,0,0,1,.878-1.794,4.142,4.142,0,0,1,2.471-.639h1.23V7.935a1.42,1.42,0,0,0-.4-1.056,1.593,1.593,0,0,0-1.169-.393,1.844,1.844,0,0,0-1.135.342,1.007,1.007,0,0,0-.458.827H49.841a1.745,1.745,0,0,1,.393-1.07A2.683,2.683,0,0,1,51.3,5.768a3.588,3.588,0,0,1,1.48-.3,2.924,2.924,0,0,1,2,.639,2.306,2.306,0,0,1,.752,1.76v3.4a4.162,4.162,0,0,0,.26,1.62V13Zm-2.1-.964a2.223,2.223,0,0,0,1.128-.308,1.861,1.861,0,0,0,.772-.8V9.411h-.991q-2.324,0-2.324,1.36a1.151,1.151,0,0,0,.4.93A1.524,1.524,0,0,0,52.37,12.036ZM63.779,9.384A4.4,4.4,0,0,1,63,12.108a2.49,2.49,0,0,1-2.092,1.029,2.578,2.578,0,0,1-2.167-.991L58.68,13H57.518V2.5h1.265V6.417a2.564,2.564,0,0,1,2.112-.95A2.505,2.505,0,0,1,63.01,6.485a4.53,4.53,0,0,1,.769,2.789ZM62.515,9.24a3.417,3.417,0,0,0-.5-2,1.652,1.652,0,0,0-1.436-.7,1.857,1.857,0,0,0-1.8,1.162v3.2a1.909,1.909,0,0,0,1.812,1.162,1.643,1.643,0,0,0,1.415-.7A3.634,3.634,0,0,0,62.515,9.24Zm2.522-.007a4.369,4.369,0,0,1,.427-1.955,3.187,3.187,0,0,1,1.189-1.34,3.238,3.238,0,0,1,1.74-.472,3.119,3.119,0,0,1,2.444,1.046,4.024,4.024,0,0,1,.933,2.782v.089a4.407,4.407,0,0,1-.414,1.938,3.14,3.14,0,0,1-1.183,1.336,3.275,3.275,0,0,1-1.767.479,3.111,3.111,0,0,1-2.437-1.046,4,4,0,0,1-.933-2.769Zm1.271.15a3.164,3.164,0,0,0,.571,1.976,1.934,1.934,0,0,0,3.059-.01,3.46,3.46,0,0,0,.567-2.116,3.159,3.159,0,0,0-.578-1.972,1.836,1.836,0,0,0-1.535-.755,1.816,1.816,0,0,0-1.511.745A3.435,3.435,0,0,0,66.309,9.384ZM76.932,6.738a3.79,3.79,0,0,0-.622-.048,1.667,1.667,0,0,0-1.688,1.06V13H73.356V5.6h1.23l.021.854a1.969,1.969,0,0,1,1.764-.991,1.292,1.292,0,0,1,.561.1ZM82.387,13a2.657,2.657,0,0,1-.178-.779,2.822,2.822,0,0,1-2.105.916,2.611,2.611,0,0,1-1.794-.619,2,2,0,0,1-.7-1.569,2.091,2.091,0,0,1,.878-1.794,4.141,4.141,0,0,1,2.471-.639h1.23V7.935a1.42,1.42,0,0,0-.4-1.056,1.593,1.593,0,0,0-1.169-.393,1.844,1.844,0,0,0-1.135.342,1.007,1.007,0,0,0-.458.827H77.759a1.745,1.745,0,0,1,.393-1.07,2.683,2.683,0,0,1,1.066-.817,3.588,3.588,0,0,1,1.48-.3,2.924,2.924,0,0,1,2,.639,2.306,2.306,0,0,1,.752,1.76v3.4a4.162,4.162,0,0,0,.26,1.62V13Zm-2.1-.964a2.223,2.223,0,0,0,1.128-.308,1.861,1.861,0,0,0,.772-.8V9.411H81.2q-2.324,0-2.324,1.36a1.151,1.151,0,0,0,.4.93A1.524,1.524,0,0,0,80.288,12.036ZM88.4,12.1a1.822,1.822,0,0,0,1.183-.41,1.443,1.443,0,0,0,.561-1.025h1.2a2.293,2.293,0,0,1-.437,1.21,2.882,2.882,0,0,1-1.077.916,3.107,3.107,0,0,1-1.425.342A3.047,3.047,0,0,1,86,12.128a4.016,4.016,0,0,1-.892-2.758V9.158a4.453,4.453,0,0,1,.4-1.921,3.02,3.02,0,0,1,1.138-1.306A3.233,3.233,0,0,1,88.4,5.467a2.966,2.966,0,0,1,2.068.745,2.663,2.663,0,0,1,.878,1.935h-1.2A1.743,1.743,0,0,0,89.6,6.967,1.691,1.691,0,0,0,88.4,6.506,1.77,1.77,0,0,0,86.9,7.2a3.259,3.259,0,0,0-.53,2.006v.239a3.194,3.194,0,0,0,.526,1.969A1.779,1.779,0,0,0,88.4,12.1Zm5.735.9H92.873V5.6h1.265ZM92.771,3.642a.755.755,0,0,1,.188-.52.706.706,0,0,1,.557-.212.717.717,0,0,1,.561.212.747.747,0,0,1,.191.52.722.722,0,0,1-.191.513.73.73,0,0,1-.561.205.718.718,0,0,1-.557-.205A.73.73,0,0,1,92.771,3.642Zm3.056,5.592a4.369,4.369,0,0,1,.427-1.955,3.187,3.187,0,0,1,1.189-1.34,3.238,3.238,0,0,1,1.74-.472,3.119,3.119,0,0,1,2.444,1.046,4.024,4.024,0,0,1,.933,2.782v.089a4.407,4.407,0,0,1-.414,1.938,3.14,3.14,0,0,1-1.183,1.336,3.275,3.275,0,0,1-1.767.479,3.111,3.111,0,0,1-2.437-1.046,4,4,0,0,1-.933-2.769Zm1.271.15a3.164,3.164,0,0,0,.571,1.976,1.934,1.934,0,0,0,3.059-.01,3.46,3.46,0,0,0,.567-2.116,3.159,3.159,0,0,0-.578-1.972,1.836,1.836,0,0,0-1.535-.755,1.816,1.816,0,0,0-1.511.745A3.435,3.435,0,0,0,97.1,9.384Zm2.659-6.87h1.531l-1.832,2.01-1.019,0Zm5.585,3.09.041.93A2.7,2.7,0,0,1,107.6,5.467q2.345,0,2.365,2.646V13H108.7V8.105a1.7,1.7,0,0,0-.366-1.183,1.466,1.466,0,0,0-1.118-.383,1.825,1.825,0,0,0-1.08.328,2.228,2.228,0,0,0-.725.861V13h-1.265V5.6Zm9.687,3.637a4.333,4.333,0,0,1,.807-2.738A2.745,2.745,0,0,1,120,6.355V2.5h1.265V13h-1.162l-.062-.793a2.575,2.575,0,0,1-2.112.93,2.526,2.526,0,0,1-2.1-1.053,4.382,4.382,0,0,1-.81-2.748Zm1.265.144a3.281,3.281,0,0,0,.52,1.969,1.68,1.68,0,0,0,1.436.711A1.845,1.845,0,0,0,120,10.983v-3.4a1.859,1.859,0,0,0-1.743-1.046,1.687,1.687,0,0,0-1.449.718A3.612,3.612,0,0,0,116.293,9.384ZM126.3,13.137a3.232,3.232,0,0,1-2.447-.988,3.666,3.666,0,0,1-.943-2.642V9.274a4.438,4.438,0,0,1,.42-1.965,3.28,3.28,0,0,1,1.176-1.354,2.956,2.956,0,0,1,1.637-.489,2.77,2.77,0,0,1,2.242.95,4.114,4.114,0,0,1,.8,2.721v.526h-5.011a2.629,2.629,0,0,0,.639,1.767,2.009,2.009,0,0,0,1.555.673,2.2,2.2,0,0,0,1.135-.273,2.851,2.851,0,0,0,.813-.725l.772.6A3.106,3.106,0,0,1,126.3,13.137Zm-.157-6.631a1.687,1.687,0,0,0-1.285.557,2.708,2.708,0,0,0-.643,1.562h3.705v-.1a2.409,2.409,0,0,0-.52-1.494A1.588,1.588,0,0,0,126.144,6.506ZM132.022,13h-1.265V2.5h1.265Zm8.559.137a3.232,3.232,0,0,1-2.447-.988,3.666,3.666,0,0,1-.943-2.642V9.274a4.438,4.438,0,0,1,.42-1.965,3.279,3.279,0,0,1,1.176-1.354,2.956,2.956,0,0,1,1.637-.489,2.77,2.77,0,0,1,2.242.95,4.114,4.114,0,0,1,.8,2.721v.526h-5.011a2.629,2.629,0,0,0,.639,1.767,2.009,2.009,0,0,0,1.555.673,2.2,2.2,0,0,0,1.135-.273,2.851,2.851,0,0,0,.813-.725l.772.6A3.106,3.106,0,0,1,140.581,13.137Zm-.157-6.631a1.687,1.687,0,0,0-1.285.557,2.708,2.708,0,0,0-.643,1.562H142.2v-.1a2.409,2.409,0,0,0-.52-1.494A1.588,1.588,0,0,0,140.424,6.506Zm6.986,1.8,1.641-2.7h1.477l-2.42,3.657L150.6,13H149.14l-1.709-2.769L145.722,13h-1.47l2.5-3.739L144.327,5.6h1.463Zm10.705,1.08a4.429,4.429,0,0,1-.772,2.721,2.476,2.476,0,0,1-2.092,1.032,2.713,2.713,0,0,1-2.119-.854v3.562h-1.265V5.6h1.155l.062.82a2.605,2.605,0,0,1,2.146-.957,2.522,2.522,0,0,1,2.109,1,4.477,4.477,0,0,1,.776,2.8Zm-1.265-.144a3.268,3.268,0,0,0-.533-1.976,1.718,1.718,0,0,0-1.463-.725,1.859,1.859,0,0,0-1.723,1.019v3.534a1.863,1.863,0,0,0,1.736,1.012,1.71,1.71,0,0,0,1.446-.721A3.567,3.567,0,0,0,156.851,9.24Zm5.94,3.9a3.232,3.232,0,0,1-2.447-.988,3.666,3.666,0,0,1-.943-2.642V9.274a4.438,4.438,0,0,1,.42-1.965A3.279,3.279,0,0,1,161,5.956a2.956,2.956,0,0,1,1.637-.489,2.77,2.77,0,0,1,2.242.95,4.114,4.114,0,0,1,.8,2.721v.526h-5.011a2.629,2.629,0,0,0,.639,1.767,2.009,2.009,0,0,0,1.555.673,2.2,2.2,0,0,0,1.135-.273,2.851,2.851,0,0,0,.813-.725l.772.6A3.106,3.106,0,0,1,162.791,13.137Zm-.157-6.631a1.687,1.687,0,0,0-1.285.557,2.708,2.708,0,0,0-.643,1.562h3.705v-.1a2.409,2.409,0,0,0-.52-1.494A1.588,1.588,0,0,0,162.634,6.506Zm8.08.232a3.79,3.79,0,0,0-.622-.048A1.667,1.667,0,0,0,168.4,7.75V13h-1.265V5.6h1.23l.021.854a1.969,1.969,0,0,1,1.764-.991,1.292,1.292,0,0,1,.561.1Zm3.22-2.926V5.6h1.381v.978h-1.381v4.593a1.027,1.027,0,0,0,.185.667.777.777,0,0,0,.629.222,3.062,3.062,0,0,0,.6-.082V13a3.688,3.688,0,0,1-.971.136,1.575,1.575,0,0,1-1.278-.513,2.2,2.2,0,0,1-.431-1.456V6.581h-1.347V5.6h1.347V3.813Zm2.386,5.421a4.369,4.369,0,0,1,.427-1.955,3.187,3.187,0,0,1,1.189-1.34,3.238,3.238,0,0,1,1.74-.472,3.119,3.119,0,0,1,2.444,1.046,4.024,4.024,0,0,1,.933,2.782v.089a4.407,4.407,0,0,1-.414,1.938,3.14,3.14,0,0,1-1.183,1.336,3.275,3.275,0,0,1-1.767.479,3.111,3.111,0,0,1-2.437-1.046,4,4,0,0,1-.933-2.769Zm1.271.15a3.164,3.164,0,0,0,.571,1.976,1.934,1.934,0,0,0,3.059-.01,3.46,3.46,0,0,0,.567-2.116,3.159,3.159,0,0,0-.578-1.972,1.836,1.836,0,0,0-1.535-.755,1.816,1.816,0,0,0-1.511.745A3.435,3.435,0,0,0,177.591,9.384Zm10.466-.424a10.569,10.569,0,0,1,.414-2.967A8.618,8.618,0,0,1,189.7,3.409a5.249,5.249,0,0,1,1.7-1.641l.26.834a5.444,5.444,0,0,0-1.637,2.338,10.135,10.135,0,0,0-.7,3.521l-.007.581a10.188,10.188,0,0,0,.964,4.58,5.47,5.47,0,0,0,1.381,1.818l-.26.772a5.418,5.418,0,0,1-1.736-1.7A9.5,9.5,0,0,1,188.057,8.96ZM199.281,13H192.76v-.909l3.445-3.828a8.185,8.185,0,0,0,1.056-1.412,2.356,2.356,0,0,0,.291-1.125,1.786,1.786,0,0,0-.472-1.278,1.649,1.649,0,0,0-1.258-.5,1.953,1.953,0,0,0-1.466.537,2.05,2.05,0,0,0-.523,1.494h-1.265a2.936,2.936,0,0,1,.885-2.222,3.282,3.282,0,0,1,2.369-.848,3.153,3.153,0,0,1,2.194.728,2.483,2.483,0,0,1,.807,1.938q0,1.47-1.873,3.5l-2.666,2.892h5Zm7.581-4.245a5.784,5.784,0,0,1-.759,3.3,3.153,3.153,0,0,1-4.73.024,5.49,5.49,0,0,1-.793-3.155V7.237a5.655,5.655,0,0,1,.759-3.261,3.21,3.21,0,0,1,4.744-.038,5.458,5.458,0,0,1,.779,3.175ZM205.6,7.025a4.634,4.634,0,0,0-.451-2.341,1.553,1.553,0,0,0-1.429-.735,1.532,1.532,0,0,0-1.415.731,4.525,4.525,0,0,0-.458,2.249V8.953a4.708,4.708,0,0,0,.468,2.382,1.55,1.55,0,0,0,1.418.769,1.529,1.529,0,0,0,1.391-.725A4.538,4.538,0,0,0,205.6,9.1ZM215,13h-6.521v-.909l3.445-3.828a8.185,8.185,0,0,0,1.056-1.412,2.356,2.356,0,0,0,.291-1.125,1.786,1.786,0,0,0-.472-1.278,1.649,1.649,0,0,0-1.258-.5,1.953,1.953,0,0,0-1.466.537,2.05,2.05,0,0,0-.523,1.494h-1.265a2.936,2.936,0,0,1,.885-2.222,3.282,3.282,0,0,1,2.369-.848,3.153,3.153,0,0,1,2.194.728,2.483,2.483,0,0,1,.807,1.938q0,1.47-1.873,3.5l-2.666,2.892h5Zm7.861,0h-6.521v-.909l3.445-3.828a8.185,8.185,0,0,0,1.056-1.412,2.356,2.356,0,0,0,.291-1.125,1.786,1.786,0,0,0-.472-1.278,1.649,1.649,0,0,0-1.258-.5,1.953,1.953,0,0,0-1.466.537,2.05,2.05,0,0,0-.523,1.494h-1.265a2.936,2.936,0,0,1,.885-2.222,3.282,3.282,0,0,1,2.369-.848,3.153,3.153,0,0,1,2.194.728,2.483,2.483,0,0,1,.807,1.938q0,1.47-1.873,3.5l-2.666,2.892h5Zm4.389-3.972a10.574,10.574,0,0,1-.4,2.922,8.641,8.641,0,0,1-1.224,2.581,5.361,5.361,0,0,1-1.726,1.682l-.267-.772a5.5,5.5,0,0,0,1.692-2.505,10.839,10.839,0,0,0,.653-3.77V8.946a11.254,11.254,0,0,0-.3-2.669,9.009,9.009,0,0,0-.837-2.211,5.108,5.108,0,0,0-1.207-1.524l.267-.772a5.34,5.34,0,0,1,1.719,1.668,8.66,8.66,0,0,1,1.224,2.577A10.818,10.818,0,0,1,227.254,9.028Z" transform="translate(254.62 5842.953)" fill="#12263f"/>
    <path id="Trazado_684104" data-name="Trazado 684104" d="M6.877-4.067H2.939V0H.889V-9.953h6.48v1.661H2.939v2.57H6.877ZM10.514,0H8.531V-7.4h1.982Zm-2.1-9.311a.973.973,0,0,1,.3-.731,1.117,1.117,0,0,1,.81-.287,1.12,1.12,0,0,1,.807.287.967.967,0,0,1,.3.731.97.97,0,0,1-.3.738,1.122,1.122,0,0,1-.8.287,1.122,1.122,0,0,1-.8-.287A.97.97,0,0,1,8.415-9.311Zm3.438,5.558a4.335,4.335,0,0,1,.81-2.741,2.625,2.625,0,0,1,2.184-1.039,2.3,2.3,0,0,1,1.894.834l.082-.7h1.791v7.15a3.161,3.161,0,0,1-.441,1.688,2.832,2.832,0,0,1-1.241,1.094,4.362,4.362,0,0,1-1.873.376,4.056,4.056,0,0,1-1.586-.325A2.815,2.815,0,0,1,12.3,1.75l.875-1.2a2.314,2.314,0,0,0,1.791.827,1.694,1.694,0,0,0,1.224-.42,1.577,1.577,0,0,0,.438-1.193v-.4a2.285,2.285,0,0,1-1.8.772A2.618,2.618,0,0,1,12.677-.906a4.334,4.334,0,0,1-.824-2.765Zm1.976.141a2.714,2.714,0,0,0,.4,1.583,1.282,1.282,0,0,0,1.107.573,1.371,1.371,0,0,0,1.292-.68V-5.261a1.368,1.368,0,0,0-1.278-.68,1.29,1.29,0,0,0-1.118.584A3.059,3.059,0,0,0,13.829-3.612ZM24.562-.752a2.477,2.477,0,0,1-2.023.889,2.337,2.337,0,0,1-1.815-.684,2.918,2.918,0,0,1-.639-2V-7.4H22.06v4.784q0,1.157,1.053,1.157a1.426,1.426,0,0,0,1.381-.7V-7.4h1.982V0H24.616Zm7.561-4.792a5.367,5.367,0,0,0-.711-.055,1.447,1.447,0,0,0-1.47.759V0H27.966V-7.4h1.866l.055.882a1.831,1.831,0,0,1,1.647-1.019,2.07,2.07,0,0,1,.615.089ZM37.153,0a2.194,2.194,0,0,1-.2-.663,2.39,2.39,0,0,1-1.866.8,2.626,2.626,0,0,1-1.8-.629,2.023,2.023,0,0,1-.714-1.586,2.09,2.09,0,0,1,.872-1.8,4.3,4.3,0,0,1,2.519-.636h.909v-.424a1.219,1.219,0,0,0-.263-.82,1.035,1.035,0,0,0-.831-.308A1.177,1.177,0,0,0,35-5.831a.813.813,0,0,0-.284.656H32.737a1.984,1.984,0,0,1,.4-1.189,2.621,2.621,0,0,1,1.121-.858,4.086,4.086,0,0,1,1.627-.311,3.228,3.228,0,0,1,2.17.687,2.4,2.4,0,0,1,.8,1.931v3.206a3.536,3.536,0,0,0,.294,1.593V0ZM35.52-1.374a1.7,1.7,0,0,0,.807-.195,1.28,1.28,0,0,0,.547-.523V-3.363h-.738q-1.483,0-1.579,1.025l-.007.116a.791.791,0,0,0,.26.608A1.009,1.009,0,0,0,35.52-1.374Zm8.552-3.521.574-5.059h5.578v1.647H46.266l-.246,2.14a3.132,3.132,0,0,1,1.5-.376,2.869,2.869,0,0,1,2.229.882,3.522,3.522,0,0,1,.807,2.468,3.609,3.609,0,0,1-.407,1.726A2.871,2.871,0,0,1,48.979-.284a3.639,3.639,0,0,1-1.791.42,3.864,3.864,0,0,1-1.675-.366,2.971,2.971,0,0,1-1.22-1.029,2.8,2.8,0,0,1-.475-1.511h1.955a1.46,1.46,0,0,0,.434.967,1.376,1.376,0,0,0,.974.345,1.215,1.215,0,0,0,1.032-.482A2.233,2.233,0,0,0,48.576-3.3a1.846,1.846,0,0,0-.417-1.3,1.53,1.53,0,0,0-1.183-.451,1.71,1.71,0,0,0-1.142.369l-.191.178ZM51.994-.971a1,1,0,0,1,.318-.766,1.128,1.128,0,0,1,.8-.294,1.137,1.137,0,0,1,.8.294,1,1,0,0,1,.318.766.981.981,0,0,1-.314.755,1.142,1.142,0,0,1-.807.291,1.133,1.133,0,0,1-.8-.291A.981.981,0,0,1,51.994-.971Z" transform="translate(254.62 5423.097)" fill="#12263f"/>
    <path id="Trazado_684105" data-name="Trazado 684105" d="M7.991-3.172a3.968,3.968,0,0,1-1.4,2.447A3.917,3.917,0,0,1,3.931.137,3.1,3.1,0,0,1,2.317-.318,2.872,2.872,0,0,1,1.244-1.569,4.672,4.672,0,0,1,.82-3.377,5.8,5.8,0,0,1,.868-4.471l.116-.82A6.191,6.191,0,0,1,2.56-8.829,3.976,3.976,0,0,1,5.612-10.09a2.977,2.977,0,0,1,2.222.906A3.6,3.6,0,0,1,8.7-6.747H7.424Q7.335-8.839,5.783-9l-.226-.014a2.642,2.642,0,0,0-2.157.96A5.2,5.2,0,0,0,2.283-5.339l-.15,1.032-.041.6a3.384,3.384,0,0,0,.448,2,1.688,1.688,0,0,0,1.453.769,2.559,2.559,0,0,0,1.719-.5A3.321,3.321,0,0,0,6.747-3.151Zm5.236-4.361a2.666,2.666,0,0,1,1.593.506A2.874,2.874,0,0,1,15.8-5.67a4.2,4.2,0,0,1,.215,1.89L16-3.63a4.975,4.975,0,0,1-.643,1.952A3.77,3.77,0,0,1,14.034-.321,3.234,3.234,0,0,1,12.25.137a2.671,2.671,0,0,1-1.589-.506,2.809,2.809,0,0,1-.974-1.34,4.314,4.314,0,0,1-.219-1.866A5.04,5.04,0,0,1,10.09-5.64a3.858,3.858,0,0,1,1.336-1.418A3.2,3.2,0,0,1,13.228-7.533ZM10.712-3.568a4.2,4.2,0,0,0,0,.9,2.194,2.194,0,0,0,.482,1.285,1.447,1.447,0,0,0,1.1.5,1.971,1.971,0,0,0,1.135-.3,2.554,2.554,0,0,0,.875-.981,4.131,4.131,0,0,0,.458-1.456,6.558,6.558,0,0,0,.021-1.06A2.277,2.277,0,0,0,14.287-6,1.479,1.479,0,0,0,13.18-6.5a2.016,2.016,0,0,0-1.627.752,3.715,3.715,0,0,0-.827,2.023ZM19.387-7.4l-.178.937a2.916,2.916,0,0,1,2.27-1.066,1.835,1.835,0,0,1,1.545.725,2.815,2.815,0,0,1,.369,1.962L22.586,0H21.349l.813-4.862a2.592,2.592,0,0,0,.007-.621,1.022,1.022,0,0,0-1.128-.976,2.329,2.329,0,0,0-1.955,1.188L18.17,0H16.933l1.285-7.4Zm8.374-1.784L27.446-7.4h1.347l-.171.978h-1.34l-.772,4.6a1.6,1.6,0,0,0-.007.328.521.521,0,0,0,.581.533,3.544,3.544,0,0,0,.6-.068L27.59.007a3.366,3.366,0,0,1-.9.123A1.292,1.292,0,0,1,25.58-.414a2.1,2.1,0,0,1-.287-1.425l.752-4.58H24.739L24.91-7.4h1.306l.314-1.791ZM33.6-6.269l-.581-.062a2.117,2.117,0,0,0-1.873,1.073L30.235,0H29l1.285-7.4,1.2-.007-.185.861a2.211,2.211,0,0,1,1.853-1,2.27,2.27,0,0,1,.588.1Zm4.033-1.265a2.666,2.666,0,0,1,1.593.506,2.874,2.874,0,0,1,.981,1.357,4.2,4.2,0,0,1,.215,1.89l-.014.15a4.975,4.975,0,0,1-.643,1.952A3.77,3.77,0,0,1,38.438-.321a3.234,3.234,0,0,1-1.784.458,2.671,2.671,0,0,1-1.589-.506,2.809,2.809,0,0,1-.974-1.34,4.314,4.314,0,0,1-.219-1.866,5.04,5.04,0,0,1,.622-2.064,3.858,3.858,0,0,1,1.336-1.418A3.2,3.2,0,0,1,37.632-7.533ZM35.116-3.568a4.2,4.2,0,0,0,0,.9A2.194,2.194,0,0,0,35.6-1.388a1.447,1.447,0,0,0,1.1.5,1.971,1.971,0,0,0,1.135-.3,2.554,2.554,0,0,0,.875-.981A4.131,4.131,0,0,0,39.17-3.63a6.558,6.558,0,0,0,.021-1.06A2.277,2.277,0,0,0,38.691-6,1.479,1.479,0,0,0,37.584-6.5a2.016,2.016,0,0,0-1.627.752,3.715,3.715,0,0,0-.827,2.023ZM42.677,0h-1.23l1.818-10.5H44.5Zm6.549,0a1.657,1.657,0,0,1-.048-.39l.021-.39a3.032,3.032,0,0,1-2.16.916,2.21,2.21,0,0,1-1.589-.619A1.872,1.872,0,0,1,44.892-2,2.277,2.277,0,0,1,45.92-3.832a4.38,4.38,0,0,1,2.526-.66l1.292.007.082-.588a1.352,1.352,0,0,0-.256-1.049,1.237,1.237,0,0,0-.974-.4,1.908,1.908,0,0,0-1.125.311,1.324,1.324,0,0,0-.6.858l-1.244.007A1.983,1.983,0,0,1,46.129-6.5a2.943,2.943,0,0,1,1.142-.779,3.688,3.688,0,0,1,1.442-.263,2.452,2.452,0,0,1,1.8.7,2.173,2.173,0,0,1,.54,1.788l-.6,3.664-.034.526a2.58,2.58,0,0,0,.082.745L50.483,0ZM47.284-.957a2.158,2.158,0,0,0,1.125-.284,2.847,2.847,0,0,0,.913-.824l.267-1.524L48.651-3.6a3.547,3.547,0,0,0-1.791.369,1.36,1.36,0,0,0-.7,1.046,1.059,1.059,0,0,0,.243.865A1.156,1.156,0,0,0,47.284-.957Zm5.229-2.755a5.755,5.755,0,0,1,.622-2.037,3.527,3.527,0,0,1,1.2-1.36A2.736,2.736,0,0,1,55.9-7.54a2.31,2.31,0,0,1,1.9.9l.711-3.862h1.237L57.928,0H56.8l.13-.793a2.727,2.727,0,0,1-2.16.93,2.043,2.043,0,0,1-1.634-.8,3.5,3.5,0,0,1-.656-2.082A6.648,6.648,0,0,1,52.514-3.712Zm1.189.707a2.563,2.563,0,0,0,.349,1.516,1.258,1.258,0,0,0,1.08.553,2.235,2.235,0,0,0,1.907-1.079l.588-3.414a1.535,1.535,0,0,0-1.49-1.038,1.875,1.875,0,0,0-1.289.44A2.849,2.849,0,0,0,54-4.736,5.322,5.322,0,0,0,53.7-3.005ZM63.991-7.533a2.666,2.666,0,0,1,1.593.506,2.874,2.874,0,0,1,.981,1.357,4.2,4.2,0,0,1,.215,1.89l-.014.15a4.975,4.975,0,0,1-.643,1.952A3.77,3.77,0,0,1,64.8-.321a3.234,3.234,0,0,1-1.784.458,2.671,2.671,0,0,1-1.589-.506,2.809,2.809,0,0,1-.974-1.34,4.314,4.314,0,0,1-.219-1.866,5.04,5.04,0,0,1,.622-2.064A3.858,3.858,0,0,1,62.19-7.058,3.2,3.2,0,0,1,63.991-7.533ZM61.476-3.568a4.2,4.2,0,0,0,0,.9,2.194,2.194,0,0,0,.482,1.285,1.447,1.447,0,0,0,1.1.5,1.971,1.971,0,0,0,1.135-.3,2.554,2.554,0,0,0,.875-.981,4.131,4.131,0,0,0,.458-1.456,6.557,6.557,0,0,0,.021-1.06A2.277,2.277,0,0,0,65.051-6,1.479,1.479,0,0,0,63.943-6.5a2.016,2.016,0,0,0-1.627.752,3.715,3.715,0,0,0-.827,2.023ZM72.3-6.269l-.581-.062a2.117,2.117,0,0,0-1.873,1.073L68.934,0H67.7l1.285-7.4,1.2-.007-.185.861a2.211,2.211,0,0,1,1.853-1,2.27,2.27,0,0,1,.588.1ZM75.558.137A2.667,2.667,0,0,1,73.4-.882a3.505,3.505,0,0,1-.656-2.536l.034-.294a4.921,4.921,0,0,1,.653-2.01,3.8,3.8,0,0,1,1.309-1.371,3.054,3.054,0,0,1,1.668-.441,2.352,2.352,0,0,1,1.791.759,3.121,3.121,0,0,1,.711,1.982,5.793,5.793,0,0,1-.027.889l-.075.567H73.972A2.5,2.5,0,0,0,74.3-1.627,1.57,1.57,0,0,0,75.66-.9a2.631,2.631,0,0,0,2.023-.984l.711.6a3.253,3.253,0,0,1-1.2,1.049A3.4,3.4,0,0,1,75.558.137ZM76.344-6.5a1.807,1.807,0,0,0-1.336.52A3.693,3.693,0,0,0,74.1-4.375l3.6.007.027-.109a2.024,2.024,0,0,0-.277-1.432A1.3,1.3,0,0,0,76.344-6.5ZM84.2-2q.1-.766-.841-1.08l-1.285-.376Q80.445-4.02,80.5-5.318a2.048,2.048,0,0,1,.892-1.6,3.177,3.177,0,0,1,1.986-.612A2.649,2.649,0,0,1,85.2-6.88a2.068,2.068,0,0,1,.673,1.665l-1.23-.007a1.154,1.154,0,0,0-.349-.9,1.379,1.379,0,0,0-.964-.362,1.8,1.8,0,0,0-1.107.314,1.151,1.151,0,0,0-.5.807q-.089.643.786.937l.622.171a4.005,4.005,0,0,1,1.8.854A1.632,1.632,0,0,1,85.429-2.1a2.074,2.074,0,0,1-.451,1.2,2.58,2.58,0,0,1-1.094.783,3.658,3.658,0,0,1-1.456.25A2.885,2.885,0,0,1,80.486-.55a2.124,2.124,0,0,1-.738-1.733l1.237.007a1.311,1.311,0,0,0,.4,1A1.515,1.515,0,0,0,82.469-.9a2.132,2.132,0,0,0,1.169-.284A1.091,1.091,0,0,0,84.2-2Z" transform="translate(313.62 5423.097)" fill="#12263f"/>
    <path id="Trazado_684106" data-name="Trazado 684106" d="M10,0H124a10,10,0,0,1,10,10V30a10,10,0,0,1-10,10H10A10,10,0,0,1,0,30V10A10,10,0,0,1,10,0Z" transform="translate(304.62 5446.782)" fill="#0b5999"/>
    <path id="Trazado_684107" data-name="Trazado 684107" d="M10,0H124a10,10,0,0,1,10,10V46a10,10,0,0,1-10,10H10A10,10,0,0,1,0,46V10A10,10,0,0,1,10,0Z" transform="translate(304.62 5588.411)" fill="#0b5999"/>
    <path id="Trazado_684108" data-name="Trazado 684108" d="M10,0H124a10,10,0,0,1,10,10V46a10,10,0,0,1-10,10H10A10,10,0,0,1,0,46V10A10,10,0,0,1,10,0Z" transform="translate(304.62 5674.668)" fill="#0b5999"/>
    <path id="Trazado_684109" data-name="Trazado 684109" d="M10,0H151a10,10,0,0,1,10,10V46a10,10,0,0,1-10,10H10A10,10,0,0,1,0,46V10A10,10,0,0,1,10,0Z" transform="translate(291.12 5760.926)" fill="#0b5999"/>
    <path id="Trazado_684110" data-name="Trazado 684110" d="M20,0H91a20,20,0,0,1,0,40H20A20,20,0,0,1,20,0Z" transform="translate(495.304 5768.354)" fill="#0b5999"/>
    <path id="Trazado_684111" data-name="Trazado 684111" d="M10,0H242a10,10,0,0,1,10,10V30a10,10,0,0,1-10,10H10A10,10,0,0,1,0,30V10A10,10,0,0,1,10,0Z" transform="translate(245.62 5517.782)" fill="#0b5999"/>
    <path id="Trazado_684112" data-name="Trazado 684112" d="M-36.615-3.349h-5.361L-43.181,0h-1.74l4.887-12.8h1.477l4.9,12.8h-1.731Zm-4.852-1.38h4.351l-2.18-5.985Zm17.306.079a5.694,5.694,0,0,1-.993,3.5A3.183,3.183,0,0,1-27.844.176a3.488,3.488,0,0,1-2.725-1.1V3.656h-1.626V-9.51h1.485l.079,1.055a3.35,3.35,0,0,1,2.76-1.23,3.243,3.243,0,0,1,2.711,1.292,5.756,5.756,0,0,1,1,3.595Zm-1.626-.185a4.2,4.2,0,0,0-.686-2.54,2.208,2.208,0,0,0-1.881-.932A2.39,2.39,0,0,0-30.568-7v4.544a2.4,2.4,0,0,0,2.232,1.3,2.2,2.2,0,0,0,1.859-.927A4.587,4.587,0,0,0-25.787-4.834Zm11.725.185a5.694,5.694,0,0,1-.993,3.5A3.183,3.183,0,0,1-17.745.176a3.488,3.488,0,0,1-2.725-1.1V3.656H-22.1V-9.51h1.485l.079,1.055a3.35,3.35,0,0,1,2.76-1.23A3.243,3.243,0,0,1-15.06-8.394a5.756,5.756,0,0,1,1,3.595Zm-1.626-.185a4.2,4.2,0,0,0-.686-2.54,2.208,2.208,0,0,0-1.881-.932A2.39,2.39,0,0,0-20.47-7v4.544a2.4,2.4,0,0,0,2.232,1.3,2.2,2.2,0,0,0,1.859-.927A4.587,4.587,0,0,0-15.688-4.834ZM-10.23,0h-1.626V-13.5h1.626Zm4.368,0H-7.488V-9.51h1.626ZM-7.62-12.032a.971.971,0,0,1,.242-.668.907.907,0,0,1,.716-.272.922.922,0,0,1,.721.272.96.96,0,0,1,.246.668.929.929,0,0,1-.246.659.938.938,0,0,1-.721.264.924.924,0,0,1-.716-.264A.938.938,0,0,1-7.62-12.032ZM.554-1.151a2.342,2.342,0,0,0,1.521-.527A1.855,1.855,0,0,0,2.795-3H4.333a2.949,2.949,0,0,1-.562,1.556A3.7,3.7,0,0,1,2.386-.264,3.994,3.994,0,0,1,.554.176a3.918,3.918,0,0,1-3.089-1.3A5.163,5.163,0,0,1-3.683-4.667v-.272a5.725,5.725,0,0,1,.51-2.47A3.883,3.883,0,0,1-1.709-9.088a4.157,4.157,0,0,1,2.254-.6A3.814,3.814,0,0,1,3.2-8.728,3.424,3.424,0,0,1,4.333-6.24H2.795a2.241,2.241,0,0,0-.7-1.516A2.174,2.174,0,0,0,.545-8.35a2.276,2.276,0,0,0-1.92.892,4.19,4.19,0,0,0-.681,2.58v.308A4.106,4.106,0,0,0-1.38-2.039,2.287,2.287,0,0,0,.554-1.151ZM12.032,0A3.416,3.416,0,0,1,11.8-1,3.628,3.628,0,0,1,9.1.176,3.357,3.357,0,0,1,6.79-.62a2.573,2.573,0,0,1-.9-2.017A2.688,2.688,0,0,1,7.018-4.944,5.325,5.325,0,0,1,10.2-5.766h1.582v-.747a1.826,1.826,0,0,0-.51-1.358,2.049,2.049,0,0,0-1.5-.505,2.371,2.371,0,0,0-1.459.439,1.3,1.3,0,0,0-.589,1.063H6.082a2.244,2.244,0,0,1,.505-1.375A3.449,3.449,0,0,1,7.958-9.3a4.613,4.613,0,0,1,1.9-.387,3.759,3.759,0,0,1,2.575.822A2.964,2.964,0,0,1,13.4-6.6v4.377a5.351,5.351,0,0,0,.334,2.083V0Zm-2.7-1.239a2.858,2.858,0,0,0,1.45-.4,2.392,2.392,0,0,0,.993-1.028V-4.614H10.5q-2.988,0-2.988,1.749a1.48,1.48,0,0,0,.51,1.2A1.959,1.959,0,0,0,9.334-1.239Zm8.824-10.573v2.3h1.775v1.257H18.158v5.9a1.32,1.32,0,0,0,.237.858A1,1,0,0,0,19.2-1.2a3.937,3.937,0,0,0,.773-.105V0a4.742,4.742,0,0,1-1.248.175,2.025,2.025,0,0,1-1.644-.659,2.832,2.832,0,0,1-.554-1.872v-5.9H14.8V-9.51h1.731v-2.3ZM23.6,0H21.973V-9.51H23.6ZM21.841-12.032a.971.971,0,0,1,.242-.668.907.907,0,0,1,.716-.272.922.922,0,0,1,.721.272.96.96,0,0,1,.246.668.929.929,0,0,1-.246.659.938.938,0,0,1-.721.264.924.924,0,0,1-.716-.264A.938.938,0,0,1,21.841-12.032ZM25.77-4.843a5.617,5.617,0,0,1,.549-2.514,4.1,4.1,0,0,1,1.529-1.723,4.163,4.163,0,0,1,2.237-.606,4.01,4.01,0,0,1,3.142,1.345,5.174,5.174,0,0,1,1.2,3.577v.114A5.666,5.666,0,0,1,33.9-2.158,4.038,4.038,0,0,1,32.375-.439,4.211,4.211,0,0,1,30.1.176a4,4,0,0,1-3.133-1.345,5.147,5.147,0,0,1-1.2-3.56Zm1.635.193a4.068,4.068,0,0,0,.734,2.54,2.349,2.349,0,0,0,1.964.958,2.335,2.335,0,0,0,1.969-.971,4.449,4.449,0,0,0,.729-2.72,4.061,4.061,0,0,0-.743-2.536,2.361,2.361,0,0,0-1.973-.971,2.335,2.335,0,0,0-1.942.958A4.416,4.416,0,0,0,27.4-4.649ZM38-9.51l.053,1.2A3.465,3.465,0,0,1,40.9-9.686q3.015,0,3.041,3.4V0H42.319V-6.293a2.189,2.189,0,0,0-.47-1.521,1.884,1.884,0,0,0-1.437-.492,2.347,2.347,0,0,0-1.389.422,2.865,2.865,0,0,0-.932,1.107V0H36.466V-9.51Z" transform="translate(371.62 5472.782)" fill="#fff"/>
    <path id="Trazado_684113" data-name="Trazado 684113" d="M-29.043,0V-12.8h3.612a5.815,5.815,0,0,1,2.953.738,4.993,4.993,0,0,1,1.982,2.1,6.837,6.837,0,0,1,.708,3.129v.817a6.861,6.861,0,0,1-.7,3.173,4.915,4.915,0,0,1-2,2.092A6.185,6.185,0,0,1-25.5,0Zm1.688-11.417V-1.38h1.775a3.863,3.863,0,0,0,3.037-1.214,5.016,5.016,0,0,0,1.085-3.457V-6.8a5.1,5.1,0,0,0-1.024-3.391,3.644,3.644,0,0,0-2.9-1.227ZM-12.9-8.051a4.873,4.873,0,0,0-.8-.062A2.143,2.143,0,0,0-15.869-6.75V0h-1.626V-9.51h1.582l.026,1.1a2.532,2.532,0,0,1,2.268-1.274,1.661,1.661,0,0,1,.721.123ZM-9.637,0h-1.626V-9.51h1.626ZM-11.4-12.032a.971.971,0,0,1,.242-.668.907.907,0,0,1,.716-.272.922.922,0,0,1,.721.272.96.96,0,0,1,.246.668.929.929,0,0,1-.246.659.938.938,0,0,1-.721.264.924.924,0,0,1-.716-.264A.938.938,0,0,1-11.4-12.032Zm7.5,9.826,2.355-7.3H.119L-3.292,0H-4.531L-7.976-9.51h1.661ZM5.515.176a4.155,4.155,0,0,1-3.146-1.27,4.714,4.714,0,0,1-1.213-3.4v-.3A5.707,5.707,0,0,1,1.7-7.317a4.217,4.217,0,0,1,1.512-1.74,3.8,3.8,0,0,1,2.1-.628A3.562,3.562,0,0,1,8.2-8.464a5.289,5.289,0,0,1,1.028,3.5v.677H2.782A3.38,3.38,0,0,0,3.6-2.017a2.583,2.583,0,0,0,2,.866A2.832,2.832,0,0,0,7.062-1.5a3.666,3.666,0,0,0,1.046-.932l.993.773A3.993,3.993,0,0,1,5.515.176Zm-.2-8.525a2.169,2.169,0,0,0-1.652.716,3.482,3.482,0,0,0-.826,2.008H7.6v-.123a3.1,3.1,0,0,0-.668-1.92A2.042,2.042,0,0,0,5.313-8.35Zm10.389.3a4.873,4.873,0,0,0-.8-.062A2.143,2.143,0,0,0,12.731-6.75V0H11.1V-9.51h1.582l.026,1.1a2.532,2.532,0,0,1,2.268-1.274,1.661,1.661,0,0,1,.721.123ZM26.829,0H25.194V-10.837l-3.278,1.2v-1.477l4.658-1.749h.255ZM-47.606,12.806a13.589,13.589,0,0,1,.532-3.814,11.081,11.081,0,0,1,1.586-3.322A6.749,6.749,0,0,1-43.3,3.56l.334,1.072a7,7,0,0,0-2.1,3.006,13.031,13.031,0,0,0-.9,4.526l-.009.747A13.1,13.1,0,0,0-44.741,18.8a7.033,7.033,0,0,0,1.775,2.338l-.334.993a6.966,6.966,0,0,1-2.232-2.18A12.217,12.217,0,0,1-47.606,12.806ZM-40.847,18V9.747h-1.5V8.49h1.5V7.682a3.3,3.3,0,0,1,.91-2.479,3.528,3.528,0,0,1,2.571-.888,7.741,7.741,0,0,1,2.487.536l-.272,1.371a5.634,5.634,0,0,0-2.092-.439,2.047,2.047,0,0,0-1.507.47,1.938,1.938,0,0,0-.461,1.411V8.49h1.942V9.747h-1.942V18Zm6.776,0h-1.635V8.49h1.635Zm4.412,0h-1.626V4.5h1.626Zm4.808-11.812v2.3h1.775V9.747h-1.775v5.9a1.32,1.32,0,0,0,.237.858,1,1,0,0,0,.809.286,3.937,3.937,0,0,0,.773-.105V18a4.742,4.742,0,0,1-1.248.175,2.025,2.025,0,0,1-1.644-.659,2.832,2.832,0,0,1-.554-1.872v-5.9h-1.731V8.49h1.731v-2.3Zm7.62,11.988a4.155,4.155,0,0,1-3.146-1.27,4.714,4.714,0,0,1-1.213-3.4v-.3a5.707,5.707,0,0,1,.541-2.527,4.217,4.217,0,0,1,1.512-1.74,3.8,3.8,0,0,1,2.1-.628A3.562,3.562,0,0,1-14.55,9.536a5.289,5.289,0,0,1,1.028,3.5v.677h-6.442a3.38,3.38,0,0,0,.822,2.272,2.583,2.583,0,0,0,2,.866,2.832,2.832,0,0,0,1.459-.352,3.666,3.666,0,0,0,1.046-.932l.993.773A3.993,3.993,0,0,1-17.231,18.176Zm-.2-8.525a2.169,2.169,0,0,0-1.652.716,3.482,3.482,0,0,0-.826,2.008h4.764v-.123a3.1,3.1,0,0,0-.668-1.92A2.042,2.042,0,0,0-17.433,9.65Zm10.389.3a4.873,4.873,0,0,0-.8-.062,2.143,2.143,0,0,0-2.171,1.362V18h-1.626V8.49h1.582l.026,1.1A2.532,2.532,0,0,1-7.765,8.314a1.661,1.661,0,0,1,.721.123Zm5.555,3.217A5.571,5.571,0,0,1-.453,9.646,3.28,3.28,0,0,1,2.263,8.314,3.3,3.3,0,0,1,4.909,9.457V4.5H6.535V18H5.041l-.079-1.02a3.311,3.311,0,0,1-2.716,1.2A3.248,3.248,0,0,1-.448,16.822,5.634,5.634,0,0,1-1.49,13.289Zm1.626.185A4.218,4.218,0,0,0,.8,15.882,2.159,2.159,0,0,0,2.65,16.8a2.372,2.372,0,0,0,2.259-1.389V11.039A2.39,2.39,0,0,0,2.667,9.694,2.17,2.17,0,0,0,.8,10.617,4.644,4.644,0,0,0,.136,13.351Zm13.518-3.4a4.873,4.873,0,0,0-.8-.062,2.143,2.143,0,0,0-2.171,1.362V18H9.057V8.49h1.582l.026,1.1a2.532,2.532,0,0,1,2.268-1.274,1.661,1.661,0,0,1,.721.123ZM16.915,18H15.289V8.49h1.626ZM15.157,5.968A.971.971,0,0,1,15.4,5.3a.907.907,0,0,1,.716-.272.922.922,0,0,1,.721.272.96.96,0,0,1,.246.668.929.929,0,0,1-.246.659.938.938,0,0,1-.721.264.924.924,0,0,1-.716-.264A.938.938,0,0,1,15.157,5.968Zm7.5,9.826,2.355-7.3H26.67L23.26,18H22.021L18.576,8.49h1.661Zm9.413,2.382a4.155,4.155,0,0,1-3.146-1.27,4.714,4.714,0,0,1-1.213-3.4v-.3a5.707,5.707,0,0,1,.541-2.527,4.217,4.217,0,0,1,1.512-1.74,3.8,3.8,0,0,1,2.1-.628,3.562,3.562,0,0,1,2.883,1.222,5.289,5.289,0,0,1,1.028,3.5v.677H29.333a3.38,3.38,0,0,0,.822,2.272,2.583,2.583,0,0,0,2,.866,2.832,2.832,0,0,0,1.459-.352,3.666,3.666,0,0,0,1.046-.932l.993.773A3.993,3.993,0,0,1,32.067,18.176Zm-.2-8.525a2.169,2.169,0,0,0-1.652.716,3.482,3.482,0,0,0-.826,2.008H34.15v-.123a3.1,3.1,0,0,0-.668-1.92A2.042,2.042,0,0,0,31.865,9.65Zm10.389.3a4.873,4.873,0,0,0-.8-.062,2.143,2.143,0,0,0-2.171,1.362V18H37.657V8.49h1.582l.026,1.1a2.532,2.532,0,0,1,2.268-1.274,1.661,1.661,0,0,1,.721.123ZM47.5,12.894a13.6,13.6,0,0,1-.514,3.757,11.11,11.11,0,0,1-1.573,3.318,6.893,6.893,0,0,1-2.219,2.162l-.343-.993a7.066,7.066,0,0,0,2.175-3.221,13.935,13.935,0,0,0,.839-4.847v-.281a14.469,14.469,0,0,0-.387-3.432A11.583,11.583,0,0,0,44.4,6.513a6.567,6.567,0,0,0-1.551-1.96l.343-.993A6.866,6.866,0,0,1,45.4,5.7a11.134,11.134,0,0,1,1.573,3.313A13.909,13.909,0,0,1,47.5,12.894Z" transform="translate(371.62 5613.411)" fill="#fff"/>
    <path id="Trazado_684114" data-name="Trazado 684114" d="M-29.043,0V-12.8h3.612a5.815,5.815,0,0,1,2.953.738,4.993,4.993,0,0,1,1.982,2.1,6.837,6.837,0,0,1,.708,3.129v.817a6.861,6.861,0,0,1-.7,3.173,4.915,4.915,0,0,1-2,2.092A6.185,6.185,0,0,1-25.5,0Zm1.688-11.417V-1.38h1.775a3.863,3.863,0,0,0,3.037-1.214,5.016,5.016,0,0,0,1.085-3.457V-6.8a5.1,5.1,0,0,0-1.024-3.391,3.644,3.644,0,0,0-2.9-1.227ZM-12.9-8.051a4.873,4.873,0,0,0-.8-.062A2.143,2.143,0,0,0-15.869-6.75V0h-1.626V-9.51h1.582l.026,1.1a2.532,2.532,0,0,1,2.268-1.274,1.661,1.661,0,0,1,.721.123ZM-9.637,0h-1.626V-9.51h1.626ZM-11.4-12.032a.971.971,0,0,1,.242-.668.907.907,0,0,1,.716-.272.922.922,0,0,1,.721.272.96.96,0,0,1,.246.668.929.929,0,0,1-.246.659.938.938,0,0,1-.721.264.924.924,0,0,1-.716-.264A.938.938,0,0,1-11.4-12.032Zm7.5,9.826,2.355-7.3H.119L-3.292,0H-4.531L-7.976-9.51h1.661ZM5.515.176a4.155,4.155,0,0,1-3.146-1.27,4.714,4.714,0,0,1-1.213-3.4v-.3A5.707,5.707,0,0,1,1.7-7.317a4.217,4.217,0,0,1,1.512-1.74,3.8,3.8,0,0,1,2.1-.628A3.562,3.562,0,0,1,8.2-8.464a5.289,5.289,0,0,1,1.028,3.5v.677H2.782A3.38,3.38,0,0,0,3.6-2.017a2.583,2.583,0,0,0,2,.866A2.832,2.832,0,0,0,7.062-1.5a3.666,3.666,0,0,0,1.046-.932l.993.773A3.993,3.993,0,0,1,5.515.176Zm-.2-8.525a2.169,2.169,0,0,0-1.652.716,3.482,3.482,0,0,0-.826,2.008H7.6v-.123a3.1,3.1,0,0,0-.668-1.92A2.042,2.042,0,0,0,5.313-8.35Zm10.389.3a4.873,4.873,0,0,0-.8-.062A2.143,2.143,0,0,0,12.731-6.75V0H11.1V-9.51h1.582l.026,1.1a2.532,2.532,0,0,1,2.268-1.274,1.661,1.661,0,0,1,.721.123ZM29.87,0H21.485V-1.169l4.43-4.922a10.524,10.524,0,0,0,1.358-1.815,3.029,3.029,0,0,0,.374-1.446A2.3,2.3,0,0,0,27.04-11a2.12,2.12,0,0,0-1.617-.642,2.511,2.511,0,0,0-1.885.69,2.635,2.635,0,0,0-.672,1.92H21.239a3.774,3.774,0,0,1,1.138-2.856,4.219,4.219,0,0,1,3.045-1.09,4.054,4.054,0,0,1,2.821.936,3.193,3.193,0,0,1,1.037,2.492q0,1.89-2.408,4.5L23.445-1.327H29.87ZM-47.606,12.806a13.589,13.589,0,0,1,.532-3.814,11.081,11.081,0,0,1,1.586-3.322A6.749,6.749,0,0,1-43.3,3.56l.334,1.072a7,7,0,0,0-2.1,3.006,13.031,13.031,0,0,0-.9,4.526l-.009.747A13.1,13.1,0,0,0-44.741,18.8a7.033,7.033,0,0,0,1.775,2.338l-.334.993a6.966,6.966,0,0,1-2.232-2.18A12.217,12.217,0,0,1-47.606,12.806ZM-40.847,18V9.747h-1.5V8.49h1.5V7.682a3.3,3.3,0,0,1,.91-2.479,3.528,3.528,0,0,1,2.571-.888,7.741,7.741,0,0,1,2.487.536l-.272,1.371a5.634,5.634,0,0,0-2.092-.439,2.047,2.047,0,0,0-1.507.47,1.938,1.938,0,0,0-.461,1.411V8.49h1.942V9.747h-1.942V18Zm6.776,0h-1.635V8.49h1.635Zm4.412,0h-1.626V4.5h1.626Zm4.808-11.812v2.3h1.775V9.747h-1.775v5.9a1.32,1.32,0,0,0,.237.858,1,1,0,0,0,.809.286,3.937,3.937,0,0,0,.773-.105V18a4.742,4.742,0,0,1-1.248.175,2.025,2.025,0,0,1-1.644-.659,2.832,2.832,0,0,1-.554-1.872v-5.9h-1.731V8.49h1.731v-2.3Zm7.62,11.988a4.155,4.155,0,0,1-3.146-1.27,4.714,4.714,0,0,1-1.213-3.4v-.3a5.707,5.707,0,0,1,.541-2.527,4.217,4.217,0,0,1,1.512-1.74,3.8,3.8,0,0,1,2.1-.628A3.562,3.562,0,0,1-14.55,9.536a5.289,5.289,0,0,1,1.028,3.5v.677h-6.442a3.38,3.38,0,0,0,.822,2.272,2.583,2.583,0,0,0,2,.866,2.832,2.832,0,0,0,1.459-.352,3.666,3.666,0,0,0,1.046-.932l.993.773A3.993,3.993,0,0,1-17.231,18.176Zm-.2-8.525a2.169,2.169,0,0,0-1.652.716,3.482,3.482,0,0,0-.826,2.008h4.764v-.123a3.1,3.1,0,0,0-.668-1.92A2.042,2.042,0,0,0-17.433,9.65Zm10.389.3a4.873,4.873,0,0,0-.8-.062,2.143,2.143,0,0,0-2.171,1.362V18h-1.626V8.49h1.582l.026,1.1A2.532,2.532,0,0,1-7.765,8.314a1.661,1.661,0,0,1,.721.123Zm5.555,3.217A5.571,5.571,0,0,1-.453,9.646,3.28,3.28,0,0,1,2.263,8.314,3.3,3.3,0,0,1,4.909,9.457V4.5H6.535V18H5.041l-.079-1.02a3.311,3.311,0,0,1-2.716,1.2A3.248,3.248,0,0,1-.448,16.822,5.634,5.634,0,0,1-1.49,13.289Zm1.626.185A4.218,4.218,0,0,0,.8,15.882,2.159,2.159,0,0,0,2.65,16.8a2.372,2.372,0,0,0,2.259-1.389V11.039A2.39,2.39,0,0,0,2.667,9.694,2.17,2.17,0,0,0,.8,10.617,4.644,4.644,0,0,0,.136,13.351Zm13.518-3.4a4.873,4.873,0,0,0-.8-.062,2.143,2.143,0,0,0-2.171,1.362V18H9.057V8.49h1.582l.026,1.1a2.532,2.532,0,0,1,2.268-1.274,1.661,1.661,0,0,1,.721.123ZM16.915,18H15.289V8.49h1.626ZM15.157,5.968A.971.971,0,0,1,15.4,5.3a.907.907,0,0,1,.716-.272.922.922,0,0,1,.721.272.96.96,0,0,1,.246.668.929.929,0,0,1-.246.659.938.938,0,0,1-.721.264.924.924,0,0,1-.716-.264A.938.938,0,0,1,15.157,5.968Zm7.5,9.826,2.355-7.3H26.67L23.26,18H22.021L18.576,8.49h1.661Zm9.413,2.382a4.155,4.155,0,0,1-3.146-1.27,4.714,4.714,0,0,1-1.213-3.4v-.3a5.707,5.707,0,0,1,.541-2.527,4.217,4.217,0,0,1,1.512-1.74,3.8,3.8,0,0,1,2.1-.628,3.562,3.562,0,0,1,2.883,1.222,5.289,5.289,0,0,1,1.028,3.5v.677H29.333a3.38,3.38,0,0,0,.822,2.272,2.583,2.583,0,0,0,2,.866,2.832,2.832,0,0,0,1.459-.352,3.666,3.666,0,0,0,1.046-.932l.993.773A3.993,3.993,0,0,1,32.067,18.176Zm-.2-8.525a2.169,2.169,0,0,0-1.652.716,3.482,3.482,0,0,0-.826,2.008H34.15v-.123a3.1,3.1,0,0,0-.668-1.92A2.042,2.042,0,0,0,31.865,9.65Zm10.389.3a4.873,4.873,0,0,0-.8-.062,2.143,2.143,0,0,0-2.171,1.362V18H37.657V8.49h1.582l.026,1.1a2.532,2.532,0,0,1,2.268-1.274,1.661,1.661,0,0,1,.721.123ZM47.5,12.894a13.6,13.6,0,0,1-.514,3.757,11.11,11.11,0,0,1-1.573,3.318,6.893,6.893,0,0,1-2.219,2.162l-.343-.993a7.066,7.066,0,0,0,2.175-3.221,13.935,13.935,0,0,0,.839-4.847v-.281a14.469,14.469,0,0,0-.387-3.432A11.583,11.583,0,0,0,44.4,6.513a6.567,6.567,0,0,0-1.551-1.96l.343-.993A6.866,6.866,0,0,1,45.4,5.7a11.134,11.134,0,0,1,1.573,3.313A13.909,13.909,0,0,1,47.5,12.894Z" transform="translate(371.62 5699.668)" fill="#fff"/>
    <path id="Trazado_684115" data-name="Trazado 684115" d="M-29.043,0V-12.8h3.612a5.815,5.815,0,0,1,2.953.738,4.993,4.993,0,0,1,1.982,2.1,6.837,6.837,0,0,1,.708,3.129v.817a6.861,6.861,0,0,1-.7,3.173,4.915,4.915,0,0,1-2,2.092A6.185,6.185,0,0,1-25.5,0Zm1.688-11.417V-1.38h1.775a3.863,3.863,0,0,0,3.037-1.214,5.016,5.016,0,0,0,1.085-3.457V-6.8a5.1,5.1,0,0,0-1.024-3.391,3.644,3.644,0,0,0-2.9-1.227ZM-12.9-8.051a4.873,4.873,0,0,0-.8-.062A2.143,2.143,0,0,0-15.869-6.75V0h-1.626V-9.51h1.582l.026,1.1a2.532,2.532,0,0,1,2.268-1.274,1.661,1.661,0,0,1,.721.123ZM-9.637,0h-1.626V-9.51h1.626ZM-11.4-12.032a.971.971,0,0,1,.242-.668.907.907,0,0,1,.716-.272.922.922,0,0,1,.721.272.96.96,0,0,1,.246.668.929.929,0,0,1-.246.659.938.938,0,0,1-.721.264.924.924,0,0,1-.716-.264A.938.938,0,0,1-11.4-12.032Zm7.5,9.826,2.355-7.3H.119L-3.292,0H-4.531L-7.976-9.51h1.661ZM5.515.176a4.155,4.155,0,0,1-3.146-1.27,4.714,4.714,0,0,1-1.213-3.4v-.3A5.707,5.707,0,0,1,1.7-7.317a4.217,4.217,0,0,1,1.512-1.74,3.8,3.8,0,0,1,2.1-.628A3.562,3.562,0,0,1,8.2-8.464a5.289,5.289,0,0,1,1.028,3.5v.677H2.782A3.38,3.38,0,0,0,3.6-2.017a2.583,2.583,0,0,0,2,.866A2.832,2.832,0,0,0,7.062-1.5a3.666,3.666,0,0,0,1.046-.932l.993.773A3.993,3.993,0,0,1,5.515.176Zm-.2-8.525a2.169,2.169,0,0,0-1.652.716,3.482,3.482,0,0,0-.826,2.008H7.6v-.123a3.1,3.1,0,0,0-.668-1.92A2.042,2.042,0,0,0,5.313-8.35Zm10.389.3a4.873,4.873,0,0,0-.8-.062A2.143,2.143,0,0,0,12.731-6.75V0H11.1V-9.51h1.582l.026,1.1a2.532,2.532,0,0,1,2.268-1.274,1.661,1.661,0,0,1,.721.123Zm8.147.861h1.222A2.685,2.685,0,0,0,26.881-7.8a2.026,2.026,0,0,0,.659-1.591,1.985,1.985,0,0,0-2.241-2.25,2.331,2.331,0,0,0-1.683.6,2.107,2.107,0,0,0-.628,1.6H21.362a3.264,3.264,0,0,1,1.112-2.527A4.05,4.05,0,0,1,25.3-12.973a4,4,0,0,1,2.839.958,3.461,3.461,0,0,1,1.028,2.663,2.809,2.809,0,0,1-.541,1.617,3.264,3.264,0,0,1-1.472,1.169,3.145,3.145,0,0,1,1.63,1.107,3.076,3.076,0,0,1,.576,1.89A3.491,3.491,0,0,1,28.235-.835,4.213,4.213,0,0,1,25.308.176,4.324,4.324,0,0,1,22.377-.8a3.236,3.236,0,0,1-1.129-2.575h1.635a2.092,2.092,0,0,0,.659,1.617,2.507,2.507,0,0,0,1.767.606,2.46,2.46,0,0,0,1.8-.615,2.371,2.371,0,0,0,.624-1.767,2.151,2.151,0,0,0-.686-1.714,2.987,2.987,0,0,0-1.978-.615H23.849Zm-88.273,20a13.589,13.589,0,0,1,.532-3.814,11.081,11.081,0,0,1,1.586-3.322A6.749,6.749,0,0,1-60.117,3.56l.334,1.072a7,7,0,0,0-2.1,3.006,13.031,13.031,0,0,0-.9,4.526l-.009.747A13.1,13.1,0,0,0-61.559,18.8a7.033,7.033,0,0,0,1.775,2.338l-.334.993a6.966,6.966,0,0,1-2.232-2.18A12.217,12.217,0,0,1-64.424,12.806Zm13.526-.457h-5.37V18h-1.687V5.2h7.928v1.38h-6.24v4.386h5.37Zm8.314,4.711a3.454,3.454,0,0,1-2.786,1.116,2.956,2.956,0,0,1-2.316-.883,3.823,3.823,0,0,1-.8-2.615V8.49h1.626v6.144q0,2.162,1.758,2.162a2.434,2.434,0,0,0,2.479-1.389V8.49H-41V18h-1.547Zm5.59-8.569.053,1.2a3.465,3.465,0,0,1,2.848-1.371q3.015,0,3.041,3.4V18h-1.626V11.707a2.189,2.189,0,0,0-.47-1.521,1.884,1.884,0,0,0-1.437-.492,2.347,2.347,0,0,0-1.389.422,2.865,2.865,0,0,0-.932,1.107V18h-1.626V8.49Zm12.208,8.358a2.342,2.342,0,0,0,1.521-.527A1.855,1.855,0,0,0-22.544,15h1.538a2.949,2.949,0,0,1-.562,1.556,3.7,3.7,0,0,1-1.384,1.178,3.994,3.994,0,0,1-1.833.439,3.918,3.918,0,0,1-3.089-1.3,5.163,5.163,0,0,1-1.147-3.546v-.272a5.725,5.725,0,0,1,.51-2.47,3.883,3.883,0,0,1,1.463-1.679,4.157,4.157,0,0,1,2.254-.6,3.814,3.814,0,0,1,2.659.958,3.424,3.424,0,0,1,1.129,2.487h-1.538a2.241,2.241,0,0,0-.7-1.516,2.174,2.174,0,0,0-1.551-.593,2.276,2.276,0,0,0-1.92.892,4.19,4.19,0,0,0-.681,2.58v.308a4.106,4.106,0,0,0,.677,2.531A2.287,2.287,0,0,0-24.785,16.849Zm7.813-10.661v2.3H-15.2V9.747h-1.775v5.9a1.32,1.32,0,0,0,.237.858,1,1,0,0,0,.809.286,3.937,3.937,0,0,0,.773-.105V18a4.742,4.742,0,0,1-1.248.175,2.025,2.025,0,0,1-1.644-.659,2.832,2.832,0,0,1-.554-1.872v-5.9h-1.731V8.49H-18.6v-2.3ZM-11.531,18h-1.626V8.49h1.626ZM-13.289,5.968a.971.971,0,0,1,.242-.668.907.907,0,0,1,.716-.272.922.922,0,0,1,.721.272.96.96,0,0,1,.246.668.929.929,0,0,1-.246.659.938.938,0,0,1-.721.264.924.924,0,0,1-.716-.264A.938.938,0,0,1-13.289,5.968Zm3.929,7.189a5.617,5.617,0,0,1,.549-2.514A4.1,4.1,0,0,1-7.282,8.921a4.163,4.163,0,0,1,2.237-.606A4.01,4.01,0,0,1-1.9,9.659,5.174,5.174,0,0,1-.7,13.236v.114a5.666,5.666,0,0,1-.532,2.492,4.038,4.038,0,0,1-1.521,1.718,4.211,4.211,0,0,1-2.272.615,4,4,0,0,1-3.133-1.345,5.147,5.147,0,0,1-1.2-3.56Zm1.635.193a4.068,4.068,0,0,0,.734,2.54,2.349,2.349,0,0,0,1.964.958,2.335,2.335,0,0,0,1.969-.971,4.449,4.449,0,0,0,.729-2.72,4.061,4.061,0,0,0-.743-2.536A2.361,2.361,0,0,0-5.045,9.65a2.335,2.335,0,0,0-1.942.958A4.416,4.416,0,0,0-7.726,13.351Zm10.6-4.86.053,1.2A3.465,3.465,0,0,1,5.774,8.314q3.015,0,3.041,3.4V18H7.189V11.707a2.189,2.189,0,0,0-.47-1.521,1.884,1.884,0,0,0-1.437-.492,2.347,2.347,0,0,0-1.389.422,2.865,2.865,0,0,0-.932,1.107V18H1.336V8.49Zm12.454,4.676a5.571,5.571,0,0,1,1.037-3.52,3.28,3.28,0,0,1,2.716-1.332,3.3,3.3,0,0,1,2.646,1.143V4.5h1.626V18H21.858l-.079-1.02a3.311,3.311,0,0,1-2.716,1.2,3.248,3.248,0,0,1-2.694-1.354,5.634,5.634,0,0,1-1.042-3.533Zm1.626.185a4.218,4.218,0,0,0,.668,2.531,2.159,2.159,0,0,0,1.846.914,2.372,2.372,0,0,0,2.259-1.389V11.039a2.39,2.39,0,0,0-2.241-1.345,2.17,2.17,0,0,0-1.863.923A4.644,4.644,0,0,0,16.954,13.351Zm13.518-3.4a4.873,4.873,0,0,0-.8-.062A2.143,2.143,0,0,0,27.5,11.25V18H25.875V8.49h1.582l.026,1.1a2.532,2.532,0,0,1,2.268-1.274,1.661,1.661,0,0,1,.721.123ZM33.732,18H32.106V8.49h1.626ZM31.975,5.968a.971.971,0,0,1,.242-.668.907.907,0,0,1,.716-.272.922.922,0,0,1,.721.272.96.96,0,0,1,.246.668.929.929,0,0,1-.246.659.938.938,0,0,1-.721.264.924.924,0,0,1-.716-.264A.938.938,0,0,1,31.975,5.968Zm7.5,9.826,2.355-7.3h1.661L40.078,18H38.839L35.394,8.49h1.661Zm9.413,2.382a4.155,4.155,0,0,1-3.146-1.27,4.714,4.714,0,0,1-1.213-3.4v-.3a5.707,5.707,0,0,1,.541-2.527,4.217,4.217,0,0,1,1.512-1.74,3.8,3.8,0,0,1,2.1-.628,3.562,3.562,0,0,1,2.883,1.222,5.289,5.289,0,0,1,1.028,3.5v.677H46.151a3.38,3.38,0,0,0,.822,2.272,2.583,2.583,0,0,0,2,.866,2.832,2.832,0,0,0,1.459-.352,3.666,3.666,0,0,0,1.046-.932l.993.773A3.993,3.993,0,0,1,48.885,18.176Zm-.2-8.525a2.169,2.169,0,0,0-1.652.716,3.482,3.482,0,0,0-.826,2.008h4.764v-.123a3.1,3.1,0,0,0-.668-1.92A2.042,2.042,0,0,0,48.683,9.65Zm10.389.3a4.873,4.873,0,0,0-.8-.062A2.143,2.143,0,0,0,56.1,11.25V18H54.475V8.49h1.582l.026,1.1a2.532,2.532,0,0,1,2.268-1.274,1.661,1.661,0,0,1,.721.123Zm5.247,2.944a13.6,13.6,0,0,1-.514,3.757,11.11,11.11,0,0,1-1.573,3.318,6.893,6.893,0,0,1-2.219,2.162l-.343-.993a7.066,7.066,0,0,0,2.175-3.221,13.935,13.935,0,0,0,.839-4.847v-.281A14.469,14.469,0,0,0,62.3,9.356,11.583,11.583,0,0,0,61.22,6.513a6.567,6.567,0,0,0-1.551-1.96l.343-.993A6.866,6.866,0,0,1,62.222,5.7,11.134,11.134,0,0,1,63.8,9.018,13.909,13.909,0,0,1,64.318,12.894Z" transform="translate(371.62 5785.926)" fill="#fff"/>
    <path id="Trazado_684116" data-name="Trazado 684116" d="M-25.15,0V-12.8h3.612a5.815,5.815,0,0,1,2.953.738,4.993,4.993,0,0,1,1.982,2.1A6.837,6.837,0,0,1-15.9-6.829v.817a6.861,6.861,0,0,1-.7,3.173,4.915,4.915,0,0,1-2,2.092A6.185,6.185,0,0,1-21.608,0Zm1.688-11.417V-1.38h1.775A3.863,3.863,0,0,0-18.65-2.594a5.016,5.016,0,0,0,1.085-3.457V-6.8a5.1,5.1,0,0,0-1.024-3.391,3.644,3.644,0,0,0-2.9-1.227ZM-9.655.176A4.155,4.155,0,0,1-12.8-1.094a4.714,4.714,0,0,1-1.213-3.4v-.3a5.707,5.707,0,0,1,.541-2.527,4.217,4.217,0,0,1,1.512-1.74,3.8,3.8,0,0,1,2.1-.628A3.562,3.562,0,0,1-6.974-8.464a5.289,5.289,0,0,1,1.028,3.5v.677h-6.442a3.38,3.38,0,0,0,.822,2.272,2.583,2.583,0,0,0,2,.866A2.832,2.832,0,0,0-8.108-1.5a3.666,3.666,0,0,0,1.046-.932l.993.773A3.993,3.993,0,0,1-9.655.176Zm-.2-8.525a2.169,2.169,0,0,0-1.652.716,3.482,3.482,0,0,0-.826,2.008h4.764v-.123a3.1,3.1,0,0,0-.668-1.92A2.042,2.042,0,0,0-9.857-8.35Zm8.815,6.144,2.355-7.3H2.975L-.435,0H-1.674L-5.12-9.51h1.661ZM6.306,0H4.68V-9.51H6.306ZM4.548-12.032A.971.971,0,0,1,4.79-12.7a.907.907,0,0,1,.716-.272.922.922,0,0,1,.721.272.96.96,0,0,1,.246.668.929.929,0,0,1-.246.659.938.938,0,0,1-.721.264.924.924,0,0,1-.716-.264A.938.938,0,0,1,4.548-12.032ZM12.722-1.151a2.342,2.342,0,0,0,1.521-.527A1.855,1.855,0,0,0,14.963-3H16.5a2.949,2.949,0,0,1-.562,1.556A3.7,3.7,0,0,1,14.555-.264a3.994,3.994,0,0,1-1.833.439,3.918,3.918,0,0,1-3.089-1.3A5.163,5.163,0,0,1,8.486-4.667v-.272A5.725,5.725,0,0,1,9-7.409a3.883,3.883,0,0,1,1.463-1.679,4.157,4.157,0,0,1,2.254-.6,3.814,3.814,0,0,1,2.659.958A3.424,3.424,0,0,1,16.5-6.24H14.963a2.241,2.241,0,0,0-.7-1.516,2.174,2.174,0,0,0-1.551-.593,2.276,2.276,0,0,0-1.92.892,4.19,4.19,0,0,0-.681,2.58v.308a4.106,4.106,0,0,0,.677,2.531A2.287,2.287,0,0,0,12.722-1.151ZM22.276.176a4.155,4.155,0,0,1-3.146-1.27,4.714,4.714,0,0,1-1.213-3.4v-.3a5.707,5.707,0,0,1,.541-2.527,4.217,4.217,0,0,1,1.512-1.74,3.8,3.8,0,0,1,2.1-.628,3.562,3.562,0,0,1,2.883,1.222,5.289,5.289,0,0,1,1.028,3.5v.677H19.542a3.38,3.38,0,0,0,.822,2.272,2.583,2.583,0,0,0,2,.866A2.832,2.832,0,0,0,23.823-1.5a3.666,3.666,0,0,0,1.046-.932l.993.773A3.993,3.993,0,0,1,22.276.176Zm-.2-8.525a2.169,2.169,0,0,0-1.652.716A3.482,3.482,0,0,0,19.6-5.625h4.764v-.123a3.1,3.1,0,0,0-.668-1.92A2.042,2.042,0,0,0,22.074-8.35Z" transform="translate(551.343 5794.354)" fill="#fff"/>
    <path id="Trazado_684117" data-name="Trazado 684117" d="M-105.7-4.034l.246,1.688.36-1.521,2.531-8.93h1.424l2.47,8.93.352,1.547.272-1.723L-96.06-12.8h1.7L-97.466,0H-99l-2.637-9.325-.2-.976-.2.976L-104.779,0h-1.538l-3.094-12.8h1.688ZM-90.98,0h-1.626V-9.51h1.626Zm-1.758-12.032A.971.971,0,0,1-92.5-12.7a.907.907,0,0,1,.716-.272.922.922,0,0,1,.721.272.96.96,0,0,1,.246.668.929.929,0,0,1-.246.659.938.938,0,0,1-.721.264.924.924,0,0,1-.716-.264A.938.938,0,0,1-92.738-12.032Zm5.9,2.522.053,1.2A3.465,3.465,0,0,1-83.94-9.686q3.015,0,3.041,3.4V0h-1.626V-6.293A2.189,2.189,0,0,0-83-7.813a1.884,1.884,0,0,0-1.437-.492,2.347,2.347,0,0,0-1.389.422,2.865,2.865,0,0,0-.932,1.107V0h-1.626V-9.51Zm8,4.676a5.571,5.571,0,0,1,1.037-3.52,3.28,3.28,0,0,1,2.716-1.332,3.3,3.3,0,0,1,2.646,1.143V-13.5h1.626V0h-1.494l-.079-1.02a3.311,3.311,0,0,1-2.716,1.2A3.248,3.248,0,0,1-77.8-1.178a5.634,5.634,0,0,1-1.042-3.533Zm1.626.185a4.218,4.218,0,0,0,.668,2.531A2.159,2.159,0,0,0-74.7-1.2a2.372,2.372,0,0,0,2.259-1.389V-6.961a2.39,2.39,0,0,0-2.241-1.345,2.17,2.17,0,0,0-1.863.923A4.644,4.644,0,0,0-77.216-4.649Zm8.49-.193a5.617,5.617,0,0,1,.549-2.514,4.1,4.1,0,0,1,1.529-1.723,4.163,4.163,0,0,1,2.237-.606,4.01,4.01,0,0,1,3.142,1.345,5.174,5.174,0,0,1,1.2,3.577v.114A5.666,5.666,0,0,1-60.6-2.158,4.038,4.038,0,0,1-62.121-.439a4.211,4.211,0,0,1-2.272.615,4,4,0,0,1-3.133-1.345,5.147,5.147,0,0,1-1.2-3.56Zm1.635.193a4.068,4.068,0,0,0,.734,2.54,2.349,2.349,0,0,0,1.964.958,2.335,2.335,0,0,0,1.969-.971,4.449,4.449,0,0,0,.729-2.72,4.061,4.061,0,0,0-.743-2.536,2.361,2.361,0,0,0-1.973-.971,2.335,2.335,0,0,0-1.942.958A4.416,4.416,0,0,0-67.091-4.649ZM-49.61-2.241l1.828-7.269h1.626L-48.924,0h-1.318l-2.312-7.207L-54.8,0h-1.318l-2.76-9.51h1.617l1.872,7.119,2.215-7.119h1.31Zm10.644-.281a1.2,1.2,0,0,0-.5-1.024,4.78,4.78,0,0,0-1.731-.628,8.186,8.186,0,0,1-1.96-.633,2.788,2.788,0,0,1-1.072-.879A2.1,2.1,0,0,1-44.574-6.9a2.467,2.467,0,0,1,.989-1.978,3.861,3.861,0,0,1,2.527-.809,3.974,3.974,0,0,1,2.624.835,2.652,2.652,0,0,1,1.006,2.136h-1.635a1.468,1.468,0,0,0-.567-1.151,2.124,2.124,0,0,0-1.428-.483,2.223,2.223,0,0,0-1.389.387,1.217,1.217,0,0,0-.5,1.011.986.986,0,0,0,.466.888,5.731,5.731,0,0,0,1.683.571,8.77,8.77,0,0,1,1.973.65,2.878,2.878,0,0,1,1.121.91,2.237,2.237,0,0,1,.365,1.3A2.434,2.434,0,0,1-38.36-.593a4.277,4.277,0,0,1-2.646.769,4.789,4.789,0,0,1-2.021-.4A3.288,3.288,0,0,1-44.4-1.358a2.722,2.722,0,0,1-.5-1.569h1.626a1.683,1.683,0,0,0,.655,1.3,2.54,2.54,0,0,0,1.613.479,2.622,2.622,0,0,0,1.481-.374A1.148,1.148,0,0,0-38.966-2.522Zm18.3-3.463A7.916,7.916,0,0,1-21.3-2.7a4.793,4.793,0,0,1-1.793,2.14A4.933,4.933,0,0,1-25.8.176a4.891,4.891,0,0,1-2.681-.743A4.908,4.908,0,0,1-30.3-2.685a7.6,7.6,0,0,1-.664-3.186v-.923a7.822,7.822,0,0,1,.642-3.261A4.891,4.891,0,0,1-28.5-12.221a4.87,4.87,0,0,1,2.685-.751,4.961,4.961,0,0,1,2.711.743A4.784,4.784,0,0,1-21.3-10.077a7.955,7.955,0,0,1,.633,3.283Zm-1.679-.826a5.738,5.738,0,0,0-.914-3.494,3.015,3.015,0,0,0-2.558-1.217,2.982,2.982,0,0,0-2.518,1.217,5.62,5.62,0,0,0-.945,3.379v.94a5.746,5.746,0,0,0,.927,3.467A3,3,0,0,0-25.8-1.257a2.983,2.983,0,0,0,2.531-1.191,5.714,5.714,0,0,0,.923-3.415Zm11.988,2.162a5.694,5.694,0,0,1-.993,3.5A3.183,3.183,0,0,1-14.041.176a3.488,3.488,0,0,1-2.725-1.1V3.656h-1.626V-9.51h1.485l.079,1.055a3.35,3.35,0,0,1,2.76-1.23,3.243,3.243,0,0,1,2.711,1.292,5.756,5.756,0,0,1,1,3.595Zm-1.626-.185a4.2,4.2,0,0,0-.686-2.54,2.208,2.208,0,0,0-1.881-.932A2.39,2.39,0,0,0-16.765-7v4.544a2.4,2.4,0,0,0,2.232,1.3,2.2,2.2,0,0,0,1.859-.927A4.587,4.587,0,0,0-11.984-4.834ZM-4.346.176a4.155,4.155,0,0,1-3.146-1.27,4.714,4.714,0,0,1-1.213-3.4v-.3a5.707,5.707,0,0,1,.541-2.527,4.217,4.217,0,0,1,1.512-1.74,3.8,3.8,0,0,1,2.1-.628A3.562,3.562,0,0,1-1.666-8.464a5.289,5.289,0,0,1,1.028,3.5v.677H-7.08a3.38,3.38,0,0,0,.822,2.272,2.583,2.583,0,0,0,2,.866A2.832,2.832,0,0,0-2.8-1.5a3.666,3.666,0,0,0,1.046-.932l.993.773A3.993,3.993,0,0,1-4.346.176Zm-.2-8.525A2.169,2.169,0,0,0-6.2-7.633a3.482,3.482,0,0,0-.826,2.008h4.764v-.123a3.1,3.1,0,0,0-.668-1.92A2.042,2.042,0,0,0-4.548-8.35Zm10.389.3a4.873,4.873,0,0,0-.8-.062A2.143,2.143,0,0,0,2.87-6.75V0H1.244V-9.51H2.826l.026,1.1A2.532,2.532,0,0,1,5.12-9.686a1.661,1.661,0,0,1,.721.123ZM12.854,0a3.416,3.416,0,0,1-.229-1A3.628,3.628,0,0,1,9.918.176a3.357,3.357,0,0,1-2.307-.8,2.573,2.573,0,0,1-.9-2.017A2.688,2.688,0,0,1,7.84-4.944a5.325,5.325,0,0,1,3.177-.822H12.6v-.747a1.826,1.826,0,0,0-.51-1.358,2.049,2.049,0,0,0-1.5-.505,2.371,2.371,0,0,0-1.459.439,1.3,1.3,0,0,0-.589,1.063H6.9a2.244,2.244,0,0,1,.505-1.375A3.449,3.449,0,0,1,8.78-9.3a4.613,4.613,0,0,1,1.9-.387,3.759,3.759,0,0,1,2.575.822A2.964,2.964,0,0,1,14.225-6.6v4.377a5.351,5.351,0,0,0,.334,2.083V0Zm-2.7-1.239a2.858,2.858,0,0,0,1.45-.4A2.392,2.392,0,0,0,12.6-2.663V-4.614H11.325q-2.988,0-2.988,1.749a1.48,1.48,0,0,0,.51,1.2A1.959,1.959,0,0,0,10.156-1.239ZM18.98-11.812v2.3h1.775v1.257H18.98v5.9a1.32,1.32,0,0,0,.237.858,1,1,0,0,0,.809.286A3.937,3.937,0,0,0,20.8-1.31V0a4.742,4.742,0,0,1-1.248.175,2.025,2.025,0,0,1-1.644-.659,2.832,2.832,0,0,1-.554-1.872v-5.9H15.623V-9.51h1.731v-2.3ZM24.42,0H22.794V-9.51H24.42ZM22.663-12.032A.971.971,0,0,1,22.9-12.7a.907.907,0,0,1,.716-.272.922.922,0,0,1,.721.272.96.96,0,0,1,.246.668.929.929,0,0,1-.246.659.938.938,0,0,1-.721.264.924.924,0,0,1-.716-.264A.938.938,0,0,1,22.663-12.032Zm5.9,2.522.053,1.2A3.465,3.465,0,0,1,31.46-9.686q3.015,0,3.041,3.4V0H32.875V-6.293a2.189,2.189,0,0,0-.47-1.521,1.884,1.884,0,0,0-1.437-.492,2.347,2.347,0,0,0-1.389.422,2.865,2.865,0,0,0-.932,1.107V0H27.022V-9.51Zm8.007,4.676A5.589,5.589,0,0,1,37.6-8.372,3.289,3.289,0,0,1,40.32-9.686a3.271,3.271,0,0,1,2.716,1.23l.079-1.055H44.6V-.229a3.869,3.869,0,0,1-1.094,2.909,4.038,4.038,0,0,1-2.94,1.063A4.891,4.891,0,0,1,38.553,3.3a3.465,3.465,0,0,1-1.5-1.2l.844-.976a3.18,3.18,0,0,0,2.558,1.292,2.491,2.491,0,0,0,1.85-.668,2.553,2.553,0,0,0,.664-1.881V-.949A3.342,3.342,0,0,1,40.3.176a3.248,3.248,0,0,1-2.7-1.345A5.876,5.876,0,0,1,36.567-4.834Zm1.635.185a4.264,4.264,0,0,0,.659,2.527,2.142,2.142,0,0,0,1.846.918,2.382,2.382,0,0,0,2.259-1.4V-6.943a2.41,2.41,0,0,0-2.241-1.362,2.161,2.161,0,0,0-1.854.923A4.644,4.644,0,0,0,38.2-4.649ZM55.534-5.7a7.935,7.935,0,0,1-3.16-1.534,2.93,2.93,0,0,1-.989-2.246,3.1,3.1,0,0,1,1.208-2.5,4.8,4.8,0,0,1,3.142-.989,5.243,5.243,0,0,1,2.351.51,3.866,3.866,0,0,1,1.6,1.406,3.6,3.6,0,0,1,.567,1.96h-1.7a2.34,2.34,0,0,0-.738-1.83,3,3,0,0,0-2.083-.666,3.074,3.074,0,0,0-1.947.55,1.836,1.836,0,0,0-.7,1.528,1.652,1.652,0,0,0,.664,1.325,6.509,6.509,0,0,0,2.259.991,10.481,10.481,0,0,1,2.5.99,3.788,3.788,0,0,1,1.336,1.261,3.219,3.219,0,0,1,.435,1.7A2.99,2.99,0,0,1,59.067-.76a5.171,5.171,0,0,1-3.243.936A6.015,6.015,0,0,1,53.363-.33,4.142,4.142,0,0,1,51.6-1.714a3.378,3.378,0,0,1-.62-2h1.7a2.2,2.2,0,0,0,.857,1.833,3.608,3.608,0,0,0,2.29.672,3.317,3.317,0,0,0,2.048-.545,1.77,1.77,0,0,0,.712-1.485,1.738,1.738,0,0,0-.659-1.455A7.6,7.6,0,0,0,55.534-5.7ZM65.3-2.382,67.513-9.51h1.74L65.43,1.468q-.888,2.373-2.821,2.373L62.3,3.814,61.695,3.7V2.382l.439.035a2.164,2.164,0,0,0,1.288-.334,2.417,2.417,0,0,0,.76-1.222l.36-.967L61.15-9.51h1.775Zm10.942-.141a1.2,1.2,0,0,0-.5-1.024,4.78,4.78,0,0,0-1.731-.628,8.186,8.186,0,0,1-1.96-.633,2.788,2.788,0,0,1-1.072-.879A2.1,2.1,0,0,1,70.633-6.9a2.467,2.467,0,0,1,.989-1.978,3.861,3.861,0,0,1,2.527-.809,3.974,3.974,0,0,1,2.624.835,2.652,2.652,0,0,1,1.006,2.136H76.144a1.468,1.468,0,0,0-.567-1.151,2.124,2.124,0,0,0-1.428-.483,2.223,2.223,0,0,0-1.389.387,1.217,1.217,0,0,0-.5,1.011.986.986,0,0,0,.466.888,5.731,5.731,0,0,0,1.683.571,8.77,8.77,0,0,1,1.973.65,2.878,2.878,0,0,1,1.121.91,2.237,2.237,0,0,1,.365,1.3,2.434,2.434,0,0,1-1.02,2.043A4.277,4.277,0,0,1,74.2.176a4.789,4.789,0,0,1-2.021-.4A3.288,3.288,0,0,1,70.8-1.358a2.722,2.722,0,0,1-.5-1.569h1.626a1.683,1.683,0,0,0,.655,1.3,2.54,2.54,0,0,0,1.613.479,2.622,2.622,0,0,0,1.481-.374A1.148,1.148,0,0,0,76.241-2.522Zm5.95-9.29v2.3h1.775v1.257H82.191v5.9a1.32,1.32,0,0,0,.237.858,1,1,0,0,0,.809.286,3.937,3.937,0,0,0,.773-.105V0a4.742,4.742,0,0,1-1.248.175,2.025,2.025,0,0,1-1.644-.659,2.832,2.832,0,0,1-.554-1.872v-5.9H78.833V-9.51h1.731v-2.3ZM89.811.176a4.155,4.155,0,0,1-3.146-1.27,4.714,4.714,0,0,1-1.213-3.4v-.3a5.707,5.707,0,0,1,.541-2.527A4.217,4.217,0,0,1,87.5-9.057a3.8,3.8,0,0,1,2.1-.628,3.562,3.562,0,0,1,2.883,1.222,5.289,5.289,0,0,1,1.028,3.5v.677H87.078A3.38,3.38,0,0,0,87.9-2.017a2.583,2.583,0,0,0,2,.866A2.832,2.832,0,0,0,91.358-1.5,3.666,3.666,0,0,0,92.4-2.435l.993.773A3.993,3.993,0,0,1,89.811.176Zm-.2-8.525a2.169,2.169,0,0,0-1.652.716,3.482,3.482,0,0,0-.826,2.008h4.764v-.123a3.1,3.1,0,0,0-.668-1.92A2.042,2.042,0,0,0,89.609-8.35ZM96.93-9.51l.044,1.055A3.512,3.512,0,0,1,99.8-9.686a2.719,2.719,0,0,1,2.716,1.529,3.6,3.6,0,0,1,1.235-1.107,3.647,3.647,0,0,1,1.8-.422q3.129,0,3.182,3.313V0H107.1V-6.275a2.184,2.184,0,0,0-.466-1.525,2.051,2.051,0,0,0-1.564-.505,2.156,2.156,0,0,0-1.5.541,2.193,2.193,0,0,0-.694,1.455V0h-1.635V-6.231a1.814,1.814,0,0,0-2.03-2.074,2.175,2.175,0,0,0-2.188,1.362V0H95.392V-9.51Z" transform="translate(371.62 5543.782)" fill="#fff"/>
    <g id="Grupo_909047" data-name="Grupo 909047" transform="translate(368.62 5486.782)">
      <line id="Lnea_1057" data-name="Lnea 1057" y2="23" transform="translate(3.5 4.5)" fill="none" stroke="#707070" stroke-width="2"/>
      <path id="Polgono_5" data-name="Polgono 5" d="M3.5,0,7,7H0Z" fill="#707070"/>
      <path id="Polgono_6" data-name="Polgono 6" d="M3.5,0,7,7H0Z" transform="translate(7 31) rotate(180)" fill="#707070"/>
    </g>
    <g id="Grupo_909048" data-name="Grupo 909048" transform="translate(368.62 5557.782)">
      <line id="Lnea_1057-2" data-name="Lnea 1057" y2="23" transform="translate(3.5 4.5)" fill="none" stroke="#707070" stroke-width="2"/>
      <path id="Polgono_5-2" data-name="Polgono 5" d="M3.5,0,7,7H0Z" fill="#707070"/>
      <path id="Polgono_6-2" data-name="Polgono 6" d="M3.5,0,7,7H0Z" transform="translate(7 31) rotate(180)" fill="#707070"/>
    </g>
    <g id="Grupo_909050" data-name="Grupo 909050" transform="translate(368.62 5644.04)">
      <line id="Lnea_1057-3" data-name="Lnea 1057" y2="23" transform="translate(3.5 4.5)" fill="none" stroke="#707070" stroke-width="2"/>
      <path id="Polgono_5-3" data-name="Polgono 5" d="M3.5,0,7,7H0Z" fill="#707070"/>
      <path id="Polgono_6-3" data-name="Polgono 6" d="M3.5,0,7,7H0Z" transform="translate(7 31) rotate(180)" fill="#707070"/>
    </g>
    <g id="Grupo_909051" data-name="Grupo 909051" transform="translate(368.62 5730.297)">
      <line id="Lnea_1057-4" data-name="Lnea 1057" y2="23" transform="translate(3.5 4.5)" fill="none" stroke="#707070" stroke-width="2"/>
      <path id="Polgono_5-4" data-name="Polgono 5" d="M3.5,0,7,7H0Z" fill="#707070"/>
      <path id="Polgono_6-4" data-name="Polgono 6" d="M3.5,0,7,7H0Z" transform="translate(7 31) rotate(180)" fill="#707070"/>
    </g>
    <g id="Grupo_909049" data-name="Grupo 909049" transform="translate(495.108 5785.354) rotate(90)">
      <line id="Lnea_1057-5" data-name="Lnea 1057" y2="9" transform="translate(3.5 28.5)" fill="none" stroke="#707070" stroke-width="2"/>
      <line id="Lnea_1058" data-name="Lnea 1058" y2="9" transform="translate(3.5 15.5)" fill="none" stroke="#707070" stroke-width="2"/>
      <line id="Lnea_1059" data-name="Lnea 1059" y2="9" transform="translate(3.5 3.5)" fill="none" stroke="#707070" stroke-width="2"/>
      <path id="Polgono_5-5" data-name="Polgono 5" d="M3.5,0,7,7H0Z" transform="translate(0 0)" fill="#707070"/>
      <path id="Polgono_6-5" data-name="Polgono 6" d="M3.5,0,7,7H0Z" transform="translate(7 42) rotate(180)" fill="#707070"/>
    </g>
  </g>
</svg>
