<svg xmlns="http://www.w3.org/2000/svg" width="382" height="293" viewBox="0 0 382 293">
  <g id="img7" transform="translate(-1024.912 -6703)">
    <rect id="Rectángulo_304497" data-name="Rectángulo 304497" width="382" height="293" rx="20" transform="translate(1024.912 6703)" fill="#fff"/>
    <rect id="Rectángulo_302917" data-name="Rectángulo 302917" width="134" height="40" rx="10" transform="translate(1055.62 6789.213)" fill="#4dd0e1" opacity="0.3"/>
    <path id="Trazado_684093" data-name="Trazado 684093" d="M-36.312-3.349H-41.5L-43.247,0h-1.767l6.952-12.8h1.45L-34.08,0h-1.626Zm-4.456-1.38h4.21L-37.622-10.7Zm16.831.018a7.545,7.545,0,0,1-.782,2.61,4.442,4.442,0,0,1-1.5,1.736,3.44,3.44,0,0,1-1.986.549A3.167,3.167,0,0,1-30.74-.932l-.853,4.588h-1.591L-30.9-9.51l1.441-.009-.176,1.063a3.608,3.608,0,0,1,2.821-1.23,2.653,2.653,0,0,1,2.136,1.011,4.448,4.448,0,0,1,.809,2.689,9.464,9.464,0,0,1-.044,1.09Zm-1.564-.18.044-.737a3.34,3.34,0,0,0-.488-1.962,1.715,1.715,0,0,0-1.411-.715A2.821,2.821,0,0,0-29.738-7l-.8,4.556a1.99,1.99,0,0,0,1.925,1.3A2.5,2.5,0,0,0-26.6-2.069,5.374,5.374,0,0,0-25.5-4.891Zm11.452.18a7.545,7.545,0,0,1-.782,2.61,4.442,4.442,0,0,1-1.5,1.736,3.44,3.44,0,0,1-1.986.549A3.167,3.167,0,0,1-20.852-.932L-21.7,3.656H-23.3L-21.01-9.51l1.441-.009-.176,1.063a3.608,3.608,0,0,1,2.821-1.23,2.653,2.653,0,0,1,2.136,1.011,4.448,4.448,0,0,1,.809,2.689,9.465,9.465,0,0,1-.044,1.09Zm-1.564-.18.044-.737a3.34,3.34,0,0,0-.488-1.962,1.715,1.715,0,0,0-1.411-.715A2.821,2.821,0,0,0-19.85-7l-.8,4.556a1.99,1.99,0,0,0,1.925,1.3,2.5,2.5,0,0,0,2.017-.926A5.374,5.374,0,0,0-15.614-4.891ZM-11.052,0h-1.582L-10.3-13.5h1.591Zm4.324,0H-8.31l1.652-9.51h1.582Zm1.31-12.981a.87.87,0,0,1,.672.242.9.9,0,0,1,.268.681.955.955,0,0,1-.268.677.962.962,0,0,1-.672.281.876.876,0,0,1-.677-.237.86.86,0,0,1-.255-.668,1,1,0,0,1,.264-.686A.93.93,0,0,1-5.418-12.981ZM-.11-1.143a2.413,2.413,0,0,0,1.538-.5,2.362,2.362,0,0,0,.9-1.349L3.828-3a3.391,3.391,0,0,1-.716,1.635A4,4,0,0,1,1.639-.211,4,4,0,0,1-.18.176a3.394,3.394,0,0,1-2.008-.62A3.469,3.469,0,0,1-3.4-2.123a5.593,5.593,0,0,1-.264-2.421l.044-.439a6.306,6.306,0,0,1,.8-2.452A4.624,4.624,0,0,1-1.165-9.119a4.1,4.1,0,0,1,2.25-.567,3.214,3.214,0,0,1,2.391,1,3.465,3.465,0,0,1,.9,2.452L2.887-6.24a2.283,2.283,0,0,0-.519-1.507,1.808,1.808,0,0,0-1.354-.611,2.536,2.536,0,0,0-2.061.923A4.834,4.834,0,0,0-2.07-4.781l-.026.229a7.623,7.623,0,0,0-.018,1.16,2.65,2.65,0,0,0,.58,1.626A1.863,1.863,0,0,0-.11-1.143ZM10.92,0a2.13,2.13,0,0,1-.062-.5l.026-.5A3.9,3.9,0,0,1,8.108.176a2.841,2.841,0,0,1-2.043-.8,2.407,2.407,0,0,1-.716-1.947,2.927,2.927,0,0,1,1.323-2.36,5.631,5.631,0,0,1,3.248-.848l1.661.009.105-.756a1.738,1.738,0,0,0-.33-1.349A1.591,1.591,0,0,0,10.1-8.385a2.453,2.453,0,0,0-1.446.4,1.7,1.7,0,0,0-.769,1.1l-1.6.009a2.55,2.55,0,0,1,.65-1.481,3.784,3.784,0,0,1,1.468-1,4.742,4.742,0,0,1,1.854-.338,3.153,3.153,0,0,1,2.312.9,2.794,2.794,0,0,1,.694,2.3l-.773,4.711-.044.677a3.318,3.318,0,0,0,.105.958L12.538,0Zm-2.5-1.23A2.774,2.774,0,0,0,9.87-1.6a3.661,3.661,0,0,0,1.173-1.059l.343-1.96-1.2-.009a4.561,4.561,0,0,0-2.3.475A1.748,1.748,0,0,0,6.974-2.8a1.361,1.361,0,0,0,.312,1.112A1.486,1.486,0,0,0,8.424-1.23ZM18.892-11.812l-.4,2.3h1.731L20-8.253H18.277l-.993,5.915a2.062,2.062,0,0,0-.009.422.67.67,0,0,0,.747.686,4.556,4.556,0,0,0,.773-.088L18.672.009a4.328,4.328,0,0,1-1.16.158,1.661,1.661,0,0,1-1.424-.7,2.7,2.7,0,0,1-.369-1.833l.967-5.889H15.007l.22-1.257h1.679l.4-2.3ZM22.206,0H20.624l1.652-9.51h1.582Zm1.31-12.981a.87.87,0,0,1,.672.242.9.9,0,0,1,.268.681.955.955,0,0,1-.268.677.962.962,0,0,1-.672.281.876.876,0,0,1-.677-.237.86.86,0,0,1-.255-.668,1,1,0,0,1,.264-.686A.93.93,0,0,1,23.515-12.981Zm6.574,3.3a3.428,3.428,0,0,1,2.048.65A3.7,3.7,0,0,1,33.4-7.291a5.4,5.4,0,0,1,.277,2.43l-.018.193a6.4,6.4,0,0,1-.826,2.509A4.848,4.848,0,0,1,31.126-.413a4.158,4.158,0,0,1-2.294.589,3.434,3.434,0,0,1-2.043-.65A3.611,3.611,0,0,1,25.537-2.2a5.547,5.547,0,0,1-.281-2.4,6.48,6.48,0,0,1,.8-2.654,4.96,4.96,0,0,1,1.718-1.824A4.109,4.109,0,0,1,30.089-9.686Zm-3.234,5.1a5.4,5.4,0,0,0,0,1.151,2.821,2.821,0,0,0,.62,1.652,1.86,1.86,0,0,0,1.419.642,2.534,2.534,0,0,0,1.459-.391,3.284,3.284,0,0,0,1.125-1.261,5.311,5.311,0,0,0,.589-1.872,8.431,8.431,0,0,0,.026-1.362,2.927,2.927,0,0,0-.642-1.679,1.9,1.9,0,0,0-1.424-.65,2.592,2.592,0,0,0-2.092.967,4.776,4.776,0,0,0-1.063,2.6ZM38.008-9.519l-.229,1.2A3.749,3.749,0,0,1,40.7-9.686a2.359,2.359,0,0,1,1.986.932,3.619,3.619,0,0,1,.475,2.522L42.122,0H40.531l1.046-6.251a3.332,3.332,0,0,0,.009-.8,1.314,1.314,0,0,0-1.45-1.255,2.994,2.994,0,0,0-2.514,1.528L36.444,0H34.853l1.652-9.51Z" transform="translate(1122.62 6815.337)" fill="#12263f"/>
    <rect id="Rectángulo_302919" data-name="Rectángulo 302919" width="142" height="40" rx="20" transform="translate(1244.62 6886.036)" fill="#4dd0e1" opacity="0.3"/>
    <rect id="Rectángulo_302920" data-name="Rectángulo 302920" width="160" height="40" rx="10" transform="translate(1042.62 6886.036)" fill="#4dd0e1" opacity="0.3"/>
    <path id="Trazado_684091" data-name="Trazado 684091" d="M-54.8-5.01-55.674,0h-1.652L-55.1-12.8l4.271.009a4.177,4.177,0,0,1,3.05,1.05,3.3,3.3,0,0,1,.923,2.791,3.984,3.984,0,0,1-1.463,2.892A5.308,5.308,0,0,1-51.763-5Zm.237-1.38,2.848.009a3.464,3.464,0,0,0,2.206-.677A2.708,2.708,0,0,0-48.5-8.938a2.121,2.121,0,0,0-.448-1.753,2.256,2.256,0,0,0-1.714-.708l-3.032-.009Zm14.01-1.67-.747-.079a2.722,2.722,0,0,0-2.408,1.38L-44.881,0h-1.591l1.652-9.51,1.538-.009-.237,1.107A2.843,2.843,0,0,1-41.137-9.7a2.918,2.918,0,0,1,.756.132Zm5.186-1.626a3.428,3.428,0,0,1,2.048.65,3.7,3.7,0,0,1,1.261,1.745,5.4,5.4,0,0,1,.277,2.43l-.018.193a6.4,6.4,0,0,1-.826,2.509A4.848,4.848,0,0,1-34.334-.413a4.158,4.158,0,0,1-2.294.589,3.434,3.434,0,0,1-2.043-.65A3.611,3.611,0,0,1-39.924-2.2a5.547,5.547,0,0,1-.281-2.4,6.48,6.48,0,0,1,.8-2.654,4.96,4.96,0,0,1,1.718-1.824A4.109,4.109,0,0,1-35.372-9.686Zm-3.234,5.1a5.4,5.4,0,0,0,0,1.151,2.821,2.821,0,0,0,.62,1.652,1.86,1.86,0,0,0,1.419.642,2.534,2.534,0,0,0,1.459-.391,3.284,3.284,0,0,0,1.125-1.261,5.311,5.311,0,0,0,.589-1.872,8.431,8.431,0,0,0,.026-1.362,2.927,2.927,0,0,0-.642-1.679,1.9,1.9,0,0,0-1.424-.65,2.592,2.592,0,0,0-2.092.967,4.776,4.776,0,0,0-1.063,2.6Zm12.2-7.225-.4,2.3h1.731l-.22,1.257h-1.723l-.993,5.915a2.062,2.062,0,0,0-.009.422.67.67,0,0,0,.747.686,4.556,4.556,0,0,0,.773-.088L-26.626.009a4.328,4.328,0,0,1-1.16.158,1.661,1.661,0,0,1-1.424-.7,2.7,2.7,0,0,1-.369-1.833l.967-5.889h-1.679l.22-1.257h1.679l.4-2.3ZM-20.7.176a3.429,3.429,0,0,1-2.777-1.31,4.507,4.507,0,0,1-.844-3.261l.044-.378a6.327,6.327,0,0,1,.839-2.584,4.882,4.882,0,0,1,1.683-1.762,3.927,3.927,0,0,1,2.145-.567,3.024,3.024,0,0,1,2.3.976A4.012,4.012,0,0,1-16.4-6.161a7.448,7.448,0,0,1-.035,1.143l-.1.729h-6.214a3.212,3.212,0,0,0,.426,2.2,2.019,2.019,0,0,0,1.745.94,3.383,3.383,0,0,0,2.6-1.266l.914.773A4.183,4.183,0,0,1-18.6-.294,4.371,4.371,0,0,1-20.7.176Zm1.011-8.534a2.324,2.324,0,0,0-1.718.668,4.748,4.748,0,0,0-1.165,2.065l4.623.009.035-.141A2.6,2.6,0,0,0-18.272-7.6,1.674,1.674,0,0,0-19.692-8.358Zm8.227,7.216a2.413,2.413,0,0,0,1.538-.5,2.362,2.362,0,0,0,.9-1.349L-7.528-3a3.391,3.391,0,0,1-.716,1.635A4,4,0,0,1-9.716-.211a4,4,0,0,1-1.819.387,3.394,3.394,0,0,1-2.008-.62,3.469,3.469,0,0,1-1.208-1.679,5.593,5.593,0,0,1-.264-2.421l.044-.439a6.306,6.306,0,0,1,.8-2.452A4.624,4.624,0,0,1-12.52-9.119a4.1,4.1,0,0,1,2.25-.567,3.214,3.214,0,0,1,2.391,1,3.465,3.465,0,0,1,.9,2.452L-8.468-6.24a2.283,2.283,0,0,0-.519-1.507,1.808,1.808,0,0,0-1.354-.611,2.536,2.536,0,0,0-2.061.923,4.834,4.834,0,0,0-1.024,2.654l-.026.229a7.623,7.623,0,0,0-.018,1.16,2.65,2.65,0,0,0,.58,1.626A1.863,1.863,0,0,0-11.465-1.143Zm9.413-10.67-.4,2.3H-.725l-.22,1.257H-2.667l-.993,5.915a2.062,2.062,0,0,0-.009.422.67.67,0,0,0,.747.686,4.556,4.556,0,0,0,.773-.088L-2.272.009a4.328,4.328,0,0,1-1.16.158,1.661,1.661,0,0,1-1.424-.7,2.7,2.7,0,0,1-.369-1.833l.967-5.889H-5.937l.22-1.257h1.679l.4-2.3ZM3.652.176A3.429,3.429,0,0,1,.875-1.134,4.507,4.507,0,0,1,.031-4.395l.044-.378A6.327,6.327,0,0,1,.914-7.356,4.882,4.882,0,0,1,2.6-9.119a3.927,3.927,0,0,1,2.145-.567,3.024,3.024,0,0,1,2.3.976,4.012,4.012,0,0,1,.914,2.549,7.448,7.448,0,0,1-.035,1.143l-.1.729H1.613a3.212,3.212,0,0,0,.426,2.2,2.019,2.019,0,0,0,1.745.94,3.383,3.383,0,0,0,2.6-1.266l.914.773A4.183,4.183,0,0,1,5.757-.294,4.371,4.371,0,0,1,3.652.176ZM4.663-8.358a2.324,2.324,0,0,0-1.718.668A4.748,4.748,0,0,0,1.78-5.625L6.4-5.616l.035-.141A2.6,2.6,0,0,0,6.082-7.6,1.674,1.674,0,0,0,4.663-8.358ZM9.33-4.772a7.4,7.4,0,0,1,.8-2.619,4.534,4.534,0,0,1,1.538-1.749,3.517,3.517,0,0,1,2.013-.554,2.971,2.971,0,0,1,2.443,1.16l.914-4.966h1.591L16.291,0H14.84l.167-1.02A3.506,3.506,0,0,1,12.23.176a2.627,2.627,0,0,1-2.1-1.033,4.5,4.5,0,0,1-.844-2.676A8.547,8.547,0,0,1,9.33-4.772Zm1.529.909a3.3,3.3,0,0,0,.448,1.949A1.617,1.617,0,0,0,12.7-1.2a2.874,2.874,0,0,0,2.452-1.387L15.9-6.98a1.973,1.973,0,0,0-1.916-1.334,2.411,2.411,0,0,0-1.657.566,3.663,3.663,0,0,0-1.09,1.659A6.842,6.842,0,0,0,10.859-3.864Zm12.814-.909a7.4,7.4,0,0,1,.8-2.619,4.534,4.534,0,0,1,1.538-1.749,3.517,3.517,0,0,1,2.013-.554,2.971,2.971,0,0,1,2.443,1.16l.914-4.966h1.591L30.634,0h-1.45l.167-1.02a3.506,3.506,0,0,1-2.777,1.2,2.627,2.627,0,0,1-2.1-1.033,4.5,4.5,0,0,1-.844-2.676A8.547,8.547,0,0,1,23.673-4.772Zm1.529.909a3.3,3.3,0,0,0,.448,1.949A1.617,1.617,0,0,0,27.04-1.2a2.874,2.874,0,0,0,2.452-1.387l.756-4.389a1.973,1.973,0,0,0-1.916-1.334,2.411,2.411,0,0,0-1.657.566,3.663,3.663,0,0,0-1.09,1.659A6.842,6.842,0,0,0,25.2-3.864ZM38.966,0A2.13,2.13,0,0,1,38.9-.5l.026-.5A3.9,3.9,0,0,1,36.154.176a2.841,2.841,0,0,1-2.043-.8,2.407,2.407,0,0,1-.716-1.947,2.927,2.927,0,0,1,1.323-2.36,5.631,5.631,0,0,1,3.248-.848l1.661.009.105-.756a1.738,1.738,0,0,0-.33-1.349,1.591,1.591,0,0,0-1.252-.514,2.453,2.453,0,0,0-1.446.4,1.7,1.7,0,0,0-.769,1.1l-1.6.009a2.55,2.55,0,0,1,.65-1.481,3.784,3.784,0,0,1,1.468-1,4.742,4.742,0,0,1,1.854-.338,3.153,3.153,0,0,1,2.312.9,2.794,2.794,0,0,1,.694,2.3L40.54-1.784l-.044.677a3.318,3.318,0,0,0,.105.958L40.583,0Zm-2.5-1.23A2.774,2.774,0,0,0,37.916-1.6a3.661,3.661,0,0,0,1.173-1.059l.343-1.96-1.2-.009a4.561,4.561,0,0,0-2.3.475A1.748,1.748,0,0,0,35.02-2.8a1.361,1.361,0,0,0,.312,1.112A1.486,1.486,0,0,0,36.47-1.23ZM46.938-11.812l-.4,2.3h1.731l-.22,1.257H46.323L45.33-2.338a2.062,2.062,0,0,0-.009.422.67.67,0,0,0,.747.686,4.556,4.556,0,0,0,.773-.088L46.718.009a4.328,4.328,0,0,1-1.16.158,1.661,1.661,0,0,1-1.424-.7,2.7,2.7,0,0,1-.369-1.833l.967-5.889H43.053l.22-1.257h1.679l.4-2.3ZM54.347,0a2.13,2.13,0,0,1-.062-.5l.026-.5A3.9,3.9,0,0,1,51.535.176a2.841,2.841,0,0,1-2.043-.8,2.407,2.407,0,0,1-.716-1.947A2.927,2.927,0,0,1,50.1-4.926a5.631,5.631,0,0,1,3.248-.848l1.661.009.105-.756a1.738,1.738,0,0,0-.33-1.349,1.591,1.591,0,0,0-1.252-.514,2.453,2.453,0,0,0-1.446.4,1.7,1.7,0,0,0-.769,1.1l-1.6.009a2.55,2.55,0,0,1,.65-1.481,3.784,3.784,0,0,1,1.468-1,4.742,4.742,0,0,1,1.854-.338,3.153,3.153,0,0,1,2.312.9,2.794,2.794,0,0,1,.694,2.3L55.92-1.784l-.044.677a3.318,3.318,0,0,0,.105.958L55.964,0Zm-2.5-1.23A2.774,2.774,0,0,0,53.3-1.6,3.661,3.661,0,0,0,54.47-2.654l.343-1.96-1.2-.009a4.561,4.561,0,0,0-2.3.475A1.748,1.748,0,0,0,50.4-2.8a1.361,1.361,0,0,0,.312,1.112A1.486,1.486,0,0,0,51.851-1.23Z" transform="translate(1315.62 6911.863)" fill="#12263f"/>
    <path id="Trazado_684092" data-name="Trazado 684092" d="M-51.842-3.3Q-51.649-4.7-53.3-5.353l-1.521-.554-.51-.22q-2.566-1.169-2.4-3.287A3.438,3.438,0,0,1-57-11.294a4.151,4.151,0,0,1,1.7-1.261,5.455,5.455,0,0,1,2.254-.417,4.5,4.5,0,0,1,2.07.519,3.333,3.333,0,0,1,1.384,1.375,3.75,3.75,0,0,1,.422,1.991L-50.832-9.1a2.292,2.292,0,0,0-.527-1.83,2.361,2.361,0,0,0-1.758-.666,3.274,3.274,0,0,0-2.013.564,2.2,2.2,0,0,0-.932,1.585q-.176,1.312,1.608,1.99l1.31.467.659.281q2.479,1.143,2.294,3.393a3.389,3.389,0,0,1-.729,1.868A4.079,4.079,0,0,1-52.638-.229a5.924,5.924,0,0,1-2.333.4,4.882,4.882,0,0,1-2.2-.514,3.592,3.592,0,0,1-1.516-1.384,3.462,3.462,0,0,1-.457-2l1.652.009a2.177,2.177,0,0,0,.62,1.815A2.789,2.789,0,0,0-54.9-1.2a3.523,3.523,0,0,0,2.1-.554A2.156,2.156,0,0,0-51.842-3.3Zm8.3-6.39a3.428,3.428,0,0,1,2.048.65,3.7,3.7,0,0,1,1.261,1.745,5.4,5.4,0,0,1,.277,2.43l-.018.193A6.4,6.4,0,0,1-40.8-2.158,4.848,4.848,0,0,1-42.508-.413,4.158,4.158,0,0,1-44.8.176a3.434,3.434,0,0,1-2.043-.65A3.611,3.611,0,0,1-48.1-2.2a5.547,5.547,0,0,1-.281-2.4,6.48,6.48,0,0,1,.8-2.654,4.96,4.96,0,0,1,1.718-1.824A4.109,4.109,0,0,1-43.545-9.686Zm-3.234,5.1a5.4,5.4,0,0,0,0,1.151,2.821,2.821,0,0,0,.62,1.652,1.86,1.86,0,0,0,1.419.642,2.534,2.534,0,0,0,1.459-.391,3.284,3.284,0,0,0,1.125-1.261,5.311,5.311,0,0,0,.589-1.872,8.431,8.431,0,0,0,.026-1.362,2.927,2.927,0,0,0-.642-1.679,1.9,1.9,0,0,0-1.424-.65,2.592,2.592,0,0,0-2.092.967,4.776,4.776,0,0,0-1.063,2.6ZM-38.008,0l1.441-8.253h-1.468l.22-1.257h1.459l.158-1.125a3.733,3.733,0,0,1,1.107-2.241,3.292,3.292,0,0,1,2.355-.826,5.5,5.5,0,0,1,1.134.15l-.193,1.335a5.216,5.216,0,0,0-.853-.105,1.816,1.816,0,0,0-1.34.513,2.333,2.333,0,0,0-.637,1.362l-.141.938H-32.8l-.22,1.257h-1.969L-36.417,0Zm9.58-11.812-.4,2.3H-27.1l-.22,1.257h-1.723l-.993,5.915a2.062,2.062,0,0,0-.009.422.67.67,0,0,0,.747.686,4.556,4.556,0,0,0,.773-.088L-28.648.009a4.328,4.328,0,0,1-1.16.158,1.661,1.661,0,0,1-1.424-.7A2.7,2.7,0,0,1-31.6-2.364l.967-5.889h-1.679l.22-1.257h1.679l.4-2.3ZM-18.3-2.25l3.032-7.26h1.644L-17.96,0h-1.292l-.984-7.189L-23.665,0h-1.292l-1.028-9.51h1.521l.58,7.084,3.375-7.084h1.283ZM-7.809,0a2.13,2.13,0,0,1-.062-.5l.026-.5A3.9,3.9,0,0,1-10.622.176a2.841,2.841,0,0,1-2.043-.8,2.407,2.407,0,0,1-.716-1.947,2.927,2.927,0,0,1,1.323-2.36,5.631,5.631,0,0,1,3.248-.848l1.661.009.105-.756a1.738,1.738,0,0,0-.33-1.349,1.591,1.591,0,0,0-1.252-.514,2.453,2.453,0,0,0-1.446.4,1.7,1.7,0,0,0-.769,1.1l-1.6.009a2.55,2.55,0,0,1,.65-1.481,3.784,3.784,0,0,1,1.468-1,4.742,4.742,0,0,1,1.854-.338,3.153,3.153,0,0,1,2.312.9,2.794,2.794,0,0,1,.694,2.3l-.773,4.711-.044.677a3.318,3.318,0,0,0,.105.958L-6.192,0Zm-2.5-1.23A2.774,2.774,0,0,0-8.859-1.6,3.661,3.661,0,0,0-7.686-2.654l.343-1.96-1.2-.009a4.561,4.561,0,0,0-2.3.475A1.748,1.748,0,0,0-11.755-2.8a1.361,1.361,0,0,0,.312,1.112A1.486,1.486,0,0,0-10.305-1.23ZM1.876-8.06l-.747-.079a2.722,2.722,0,0,0-2.408,1.38L-2.448,0H-4.039l1.652-9.51,1.538-.009-.237,1.107A2.843,2.843,0,0,1,1.3-9.7a2.918,2.918,0,0,1,.756.132ZM6.069.176a3.429,3.429,0,0,1-2.777-1.31,4.507,4.507,0,0,1-.844-3.261l.044-.378a6.327,6.327,0,0,1,.839-2.584A4.882,4.882,0,0,1,5.014-9.119a3.927,3.927,0,0,1,2.145-.567,3.024,3.024,0,0,1,2.3.976,4.012,4.012,0,0,1,.914,2.549,7.448,7.448,0,0,1-.035,1.143l-.1.729H4.03a3.212,3.212,0,0,0,.426,2.2,2.019,2.019,0,0,0,1.745.94A3.383,3.383,0,0,0,8.8-2.417l.914.773A4.183,4.183,0,0,1,8.174-.294,4.371,4.371,0,0,1,6.069.176ZM7.08-8.358a2.324,2.324,0,0,0-1.718.668A4.748,4.748,0,0,0,4.2-5.625l4.623.009.035-.141A2.6,2.6,0,0,0,8.5-7.6,1.674,1.674,0,0,0,7.08-8.358Zm9.079,3.586a7.4,7.4,0,0,1,.8-2.619A4.534,4.534,0,0,1,18.5-9.141a3.517,3.517,0,0,1,2.013-.554,2.971,2.971,0,0,1,2.443,1.16l.914-4.966h1.591L23.12,0h-1.45l.167-1.02a3.506,3.506,0,0,1-2.777,1.2,2.627,2.627,0,0,1-2.1-1.033,4.5,4.5,0,0,1-.844-2.676A8.547,8.547,0,0,1,16.159-4.772Zm1.529.909a3.3,3.3,0,0,0,.448,1.949,1.617,1.617,0,0,0,1.389.711,2.874,2.874,0,0,0,2.452-1.387l.756-4.389a1.973,1.973,0,0,0-1.916-1.334,2.411,2.411,0,0,0-1.657.566,3.663,3.663,0,0,0-1.09,1.659A6.842,6.842,0,0,0,17.688-3.864Zm13.86-4.2L30.8-8.139a2.722,2.722,0,0,0-2.408,1.38L27.224,0H25.633l1.652-9.51,1.538-.009-.237,1.107A2.843,2.843,0,0,1,30.968-9.7a2.918,2.918,0,0,1,.756.132ZM33.35,0H31.768L33.42-9.51H35Zm1.31-12.981a.87.87,0,0,1,.672.242.9.9,0,0,1,.268.681.955.955,0,0,1-.268.677.962.962,0,0,1-.672.281.876.876,0,0,1-.677-.237.86.86,0,0,1-.255-.668,1,1,0,0,1,.264-.686A.93.93,0,0,1,34.66-12.981ZM39.406-2.224,42.833-9.51h1.679L39.722,0H38.509L36.646-9.51H38.21Zm9.2,2.4a3.429,3.429,0,0,1-2.777-1.31,4.507,4.507,0,0,1-.844-3.261l.044-.378a6.327,6.327,0,0,1,.839-2.584,4.882,4.882,0,0,1,1.683-1.762A3.927,3.927,0,0,1,49.7-9.686,3.024,3.024,0,0,1,52-8.71a4.012,4.012,0,0,1,.914,2.549,7.448,7.448,0,0,1-.035,1.143l-.1.729H46.569A3.212,3.212,0,0,0,47-2.092a2.019,2.019,0,0,0,1.745.94,3.383,3.383,0,0,0,2.6-1.266l.914.773A4.183,4.183,0,0,1,50.713-.294,4.371,4.371,0,0,1,48.608.176Zm1.011-8.534A2.324,2.324,0,0,0,47.9-7.69a4.748,4.748,0,0,0-1.165,2.065l4.623.009.035-.141A2.6,2.6,0,0,0,51.038-7.6,1.674,1.674,0,0,0,49.619-8.358Zm10.125.3L59-8.139a2.722,2.722,0,0,0-2.408,1.38L55.419,0H53.829l1.652-9.51,1.538-.009-.237,1.107A2.843,2.843,0,0,1,59.164-9.7a2.918,2.918,0,0,1,.756.132Z" transform="translate(1122.62 6911.863)" fill="#12263f"/>
    <g id="Grupo_909054" data-name="Grupo 909054" transform="translate(1244.62 6902.756) rotate(90)">
      <line id="Línea_1057" data-name="Línea 1057" y2="9" transform="translate(3.5 28.5)" fill="none" stroke="#707070" stroke-width="2"/>
      <line id="Línea_1058" data-name="Línea 1058" y2="9" transform="translate(3.5 15.5)" fill="none" stroke="#707070" stroke-width="2"/>
      <line id="Línea_1059" data-name="Línea 1059" y2="9" transform="translate(3.5 3.5)" fill="none" stroke="#707070" stroke-width="2"/>
      <path id="Polígono_5" data-name="Polígono 5" d="M3.5,0,7,7H0Z" fill="#707070"/>
      <path id="Polígono_6" data-name="Polígono 6" d="M3.5,0,7,7H0Z" transform="translate(7 42) rotate(180)" fill="#707070"/>
    </g>
    <path id="Trazado_684095" data-name="Trazado 684095" d="M-34.723-4.614l-1.456,1.306L-36.753,0h-1.285l1.729-9.953h1.285l-.848,4.847L-30.8-9.953h1.654L-33.773-5.5l3.1,5.5H-32.1ZM-26.452.137a2.667,2.667,0,0,1-2.16-1.019,3.505,3.505,0,0,1-.656-2.536l.034-.294a4.921,4.921,0,0,1,.653-2.01,3.8,3.8,0,0,1,1.309-1.371A3.054,3.054,0,0,1-25.6-7.533a2.352,2.352,0,0,1,1.791.759A3.121,3.121,0,0,1-23.1-4.792a5.793,5.793,0,0,1-.027.889l-.075.567h-4.833a2.5,2.5,0,0,0,.332,1.709A1.57,1.57,0,0,0-26.349-.9a2.631,2.631,0,0,0,2.023-.984l.711.6a3.253,3.253,0,0,1-1.2,1.049A3.4,3.4,0,0,1-26.452.137Zm.786-6.638A1.807,1.807,0,0,0-27-5.981a3.693,3.693,0,0,0-.906,1.606l3.6.007.027-.109a2.024,2.024,0,0,0-.277-1.432A1.3,1.3,0,0,0-25.666-6.5Zm7.875.232-.581-.062a2.117,2.117,0,0,0-1.873,1.073L-21.154,0h-1.237l1.285-7.4,1.2-.007-.185.861a2.211,2.211,0,0,1,1.853-1,2.27,2.27,0,0,1,.588.1ZM-15.275-7.4l-.178.937a2.916,2.916,0,0,1,2.27-1.066,1.835,1.835,0,0,1,1.545.725,2.815,2.815,0,0,1,.369,1.962L-12.076,0h-1.237l.813-4.862a2.592,2.592,0,0,0,.007-.621,1.022,1.022,0,0,0-1.128-.976,2.329,2.329,0,0,0-1.955,1.188L-16.492,0h-1.237l1.285-7.4ZM-6.969.137A2.667,2.667,0,0,1-9.129-.882a3.505,3.505,0,0,1-.656-2.536l.034-.294A4.921,4.921,0,0,1-9.1-5.722,3.8,3.8,0,0,1-7.79-7.092a3.054,3.054,0,0,1,1.668-.441,2.352,2.352,0,0,1,1.791.759A3.121,3.121,0,0,1-3.62-4.792a5.793,5.793,0,0,1-.027.889l-.075.567H-8.555a2.5,2.5,0,0,0,.332,1.709A1.57,1.57,0,0,0-6.867-.9,2.631,2.631,0,0,0-4.843-1.88l.711.6a3.253,3.253,0,0,1-1.2,1.049A3.4,3.4,0,0,1-6.969.137ZM-6.183-6.5a1.807,1.807,0,0,0-1.336.52,3.693,3.693,0,0,0-.906,1.606l3.6.007.027-.109A2.024,2.024,0,0,0-5.079-5.91,1.3,1.3,0,0,0-6.183-6.5ZM-1.569,0H-2.8L-.981-10.5H.256Zm7.9-7.4-.157.827a2.892,2.892,0,0,1,2.249-.957,2.282,2.282,0,0,1,1.193.321,1.576,1.576,0,0,1,.673.868,3.054,3.054,0,0,1,2.454-1.189,1.956,1.956,0,0,1,1.634.745,2.662,2.662,0,0,1,.39,1.928L13.949,0h-1.23l.807-4.874a2.575,2.575,0,0,0,0-.649q-.13-.93-1.217-.95a1.869,1.869,0,0,0-1.227.42,1.945,1.945,0,0,0-.708,1.138L9.533,0H8.289l.82-4.867A1.563,1.563,0,0,0,8.88-6.036a1.2,1.2,0,0,0-.988-.424A2.026,2.026,0,0,0,6.053-5.407L5.117,0H3.879L5.165-7.4Zm13.638-.13a2.666,2.666,0,0,1,1.593.506,2.874,2.874,0,0,1,.981,1.357,4.2,4.2,0,0,1,.215,1.89l-.014.15A4.975,4.975,0,0,1,22.1-1.678,3.77,3.77,0,0,1,20.771-.321a3.234,3.234,0,0,1-1.784.458A2.671,2.671,0,0,1,17.4-.369a2.809,2.809,0,0,1-.974-1.34A4.314,4.314,0,0,1,16.2-3.575a5.04,5.04,0,0,1,.622-2.064,3.858,3.858,0,0,1,1.336-1.418A3.2,3.2,0,0,1,19.964-7.533ZM17.449-3.568a4.2,4.2,0,0,0,0,.9,2.194,2.194,0,0,0,.482,1.285,1.447,1.447,0,0,0,1.1.5,1.971,1.971,0,0,0,1.135-.3,2.554,2.554,0,0,0,.875-.981A4.131,4.131,0,0,0,21.5-3.63a6.557,6.557,0,0,0,.021-1.06A2.277,2.277,0,0,0,21.024-6,1.479,1.479,0,0,0,19.917-6.5a2.016,2.016,0,0,0-1.627.752,3.715,3.715,0,0,0-.827,2.023Zm6.576-.144a5.755,5.755,0,0,1,.622-2.037,3.527,3.527,0,0,1,1.2-1.36,2.736,2.736,0,0,1,1.565-.431,2.31,2.31,0,0,1,1.9.9L30.02-10.5h1.237L29.439,0H28.311l.13-.793a2.727,2.727,0,0,1-2.16.93,2.043,2.043,0,0,1-1.634-.8,3.5,3.5,0,0,1-.656-2.082A6.648,6.648,0,0,1,24.025-3.712Zm1.189.707a2.563,2.563,0,0,0,.349,1.516,1.258,1.258,0,0,0,1.08.553A2.235,2.235,0,0,0,28.55-2.015l.588-3.414a1.535,1.535,0,0,0-1.49-1.038,1.875,1.875,0,0,0-1.289.44,2.849,2.849,0,0,0-.848,1.29A5.322,5.322,0,0,0,25.214-3.005ZM34.593.137a2.667,2.667,0,0,1-2.16-1.019,3.505,3.505,0,0,1-.656-2.536l.034-.294a4.921,4.921,0,0,1,.653-2.01,3.8,3.8,0,0,1,1.309-1.371,3.054,3.054,0,0,1,1.668-.441,2.352,2.352,0,0,1,1.791.759,3.121,3.121,0,0,1,.711,1.982,5.793,5.793,0,0,1-.027.889l-.075.567H33.007a2.5,2.5,0,0,0,.332,1.709A1.57,1.57,0,0,0,34.7-.9a2.631,2.631,0,0,0,2.023-.984l.711.6a3.253,3.253,0,0,1-1.2,1.049A3.4,3.4,0,0,1,34.593.137ZM35.379-6.5a1.807,1.807,0,0,0-1.336.52,3.693,3.693,0,0,0-.906,1.606l3.6.007.027-.109a2.024,2.024,0,0,0-.277-1.432A1.3,1.3,0,0,0,35.379-6.5Z" transform="translate(1321.62 6873.842)" fill="#12263f"/>
    <path id="Trazado_675726" data-name="Trazado 675726" d="M-3205-6482.413h335.138" transform="translate(4253.62 13339.987)" fill="none" stroke="#707070" stroke-width="1" stroke-dasharray="10 10"/>
    <path id="Trazado_684094" data-name="Trazado 684094" d="M-24.062-9.953-25.211-3.22a3.822,3.822,0,0,1-1.34,2.471,3.934,3.934,0,0,1-2.673.892,3.462,3.462,0,0,1-1.7-.441A2.54,2.54,0,0,1-31.985-1.48a3.229,3.229,0,0,1-.226-1.733l1.148-6.74H-29.8L-30.939-3.2a2.183,2.183,0,0,0,.355,1.645,1.777,1.777,0,0,0,1.429.626A2.461,2.461,0,0,0-27.4-1.494a2.734,2.734,0,0,0,.9-1.7l1.148-6.759Zm4.7,7.95q.1-.766-.841-1.08l-1.285-.376q-1.627-.561-1.572-1.859a2.048,2.048,0,0,1,.892-1.6,3.177,3.177,0,0,1,1.986-.612,2.649,2.649,0,0,1,1.822.653,2.068,2.068,0,0,1,.673,1.665l-1.23-.007a1.154,1.154,0,0,0-.349-.9,1.379,1.379,0,0,0-.964-.362,1.8,1.8,0,0,0-1.107.314,1.151,1.151,0,0,0-.5.807q-.089.643.786.937l.622.171a4.005,4.005,0,0,1,1.8.854A1.632,1.632,0,0,1-18.136-2.1a2.074,2.074,0,0,1-.451,1.2,2.58,2.58,0,0,1-1.094.783,3.658,3.658,0,0,1-1.456.25A2.885,2.885,0,0,1-23.078-.55a2.124,2.124,0,0,1-.738-1.733l1.237.007a1.311,1.311,0,0,0,.4,1A1.515,1.515,0,0,0-21.1-.9a2.132,2.132,0,0,0,1.169-.284A1.091,1.091,0,0,0-19.366-2Zm5.688,2.14a2.667,2.667,0,0,1-2.16-1.019A3.505,3.505,0,0,1-16.5-3.418l.034-.294a4.921,4.921,0,0,1,.653-2.01A3.8,3.8,0,0,1-14.5-7.092a3.054,3.054,0,0,1,1.668-.441,2.352,2.352,0,0,1,1.791.759,3.121,3.121,0,0,1,.711,1.982,5.793,5.793,0,0,1-.027.889l-.075.567h-4.833a2.5,2.5,0,0,0,.332,1.709A1.57,1.57,0,0,0-13.576-.9a2.631,2.631,0,0,0,2.023-.984l.711.6a3.253,3.253,0,0,1-1.2,1.049A3.4,3.4,0,0,1-13.679.137Zm.786-6.638a1.807,1.807,0,0,0-1.336.52,3.693,3.693,0,0,0-.906,1.606l3.6.007.027-.109a2.024,2.024,0,0,0-.277-1.432A1.3,1.3,0,0,0-12.893-6.5Zm7.875.232L-5.6-6.33A2.117,2.117,0,0,0-7.472-5.257L-8.381,0H-9.618l1.285-7.4,1.2-.007-.185.861a2.211,2.211,0,0,1,1.853-1,2.27,2.27,0,0,1,.588.1ZM.916-7.4l-.157.827a2.892,2.892,0,0,1,2.249-.957A2.282,2.282,0,0,1,4.2-7.212a1.576,1.576,0,0,1,.673.868A3.054,3.054,0,0,1,7.328-7.533a1.956,1.956,0,0,1,1.634.745,2.662,2.662,0,0,1,.39,1.928L8.538,0H7.308l.807-4.874a2.575,2.575,0,0,0,0-.649q-.13-.93-1.217-.95a1.869,1.869,0,0,0-1.227.42,1.945,1.945,0,0,0-.708,1.138L4.122,0H2.878L3.7-4.867a1.563,1.563,0,0,0-.229-1.169,1.2,1.2,0,0,0-.988-.424A2.026,2.026,0,0,0,.643-5.407L-.294,0H-1.531L-.246-7.4Zm13.638-.13a2.666,2.666,0,0,1,1.593.506,2.874,2.874,0,0,1,.981,1.357,4.2,4.2,0,0,1,.215,1.89l-.014.15a4.975,4.975,0,0,1-.643,1.952A3.77,3.77,0,0,1,15.36-.321a3.234,3.234,0,0,1-1.784.458,2.671,2.671,0,0,1-1.589-.506,2.809,2.809,0,0,1-.974-1.34,4.314,4.314,0,0,1-.219-1.866,5.04,5.04,0,0,1,.622-2.064,3.858,3.858,0,0,1,1.336-1.418A3.2,3.2,0,0,1,14.554-7.533ZM12.038-3.568a4.2,4.2,0,0,0,0,.9,2.194,2.194,0,0,0,.482,1.285,1.447,1.447,0,0,0,1.1.5,1.971,1.971,0,0,0,1.135-.3,2.554,2.554,0,0,0,.875-.981,4.131,4.131,0,0,0,.458-1.456,6.557,6.557,0,0,0,.021-1.06A2.277,2.277,0,0,0,15.613-6,1.479,1.479,0,0,0,14.506-6.5a2.016,2.016,0,0,0-1.627.752,3.715,3.715,0,0,0-.827,2.023Zm6.576-.144a5.755,5.755,0,0,1,.622-2.037,3.527,3.527,0,0,1,1.2-1.36A2.736,2.736,0,0,1,22-7.54a2.31,2.31,0,0,1,1.9.9l.711-3.862h1.237L24.028,0H22.9l.13-.793a2.727,2.727,0,0,1-2.16.93,2.043,2.043,0,0,1-1.634-.8,3.5,3.5,0,0,1-.656-2.082A6.648,6.648,0,0,1,18.614-3.712Zm1.189.707a2.563,2.563,0,0,0,.349,1.516,1.258,1.258,0,0,0,1.08.553A2.235,2.235,0,0,0,23.14-2.015l.588-3.414a1.535,1.535,0,0,0-1.49-1.038,1.875,1.875,0,0,0-1.289.44,2.849,2.849,0,0,0-.848,1.29A5.322,5.322,0,0,0,19.8-3.005ZM29.183.137a2.667,2.667,0,0,1-2.16-1.019,3.505,3.505,0,0,1-.656-2.536l.034-.294a4.921,4.921,0,0,1,.653-2.01,3.8,3.8,0,0,1,1.309-1.371,3.054,3.054,0,0,1,1.668-.441,2.352,2.352,0,0,1,1.791.759,3.121,3.121,0,0,1,.711,1.982A5.793,5.793,0,0,1,32.5-3.9l-.075.567H27.6a2.5,2.5,0,0,0,.332,1.709A1.57,1.57,0,0,0,29.285-.9a2.631,2.631,0,0,0,2.023-.984l.711.6a3.253,3.253,0,0,1-1.2,1.049A3.4,3.4,0,0,1,29.183.137ZM29.969-6.5a1.807,1.807,0,0,0-1.336.52,3.693,3.693,0,0,0-.906,1.606l3.6.007.027-.109a2.024,2.024,0,0,0-.277-1.432A1.3,1.3,0,0,0,29.969-6.5Z" transform="translate(1321.62 6848.783)" fill="#12263f"/>
    <g id="Grupo_909052" data-name="Grupo 909052" transform="translate(1119.62 6831.372)">
      <line id="Línea_1057-2" data-name="Línea 1057" y2="44.544" transform="translate(3.5 4.5)" fill="none" stroke="#707070" stroke-width="2"/>
      <path id="Polígono_5-2" data-name="Polígono 5" d="M3.5,0,7,7H0Z" fill="#707070"/>
      <path id="Polígono_6-2" data-name="Polígono 6" d="M3.5,0,7,7H0Z" transform="translate(7 52.544) rotate(180)" fill="#707070"/>
    </g>
  </g>
</svg>
