<svg xmlns="http://www.w3.org/2000/svg" xmlns:xlink="http://www.w3.org/1999/xlink" width="458.233" height="301.609" viewBox="0 0 458.233 301.609">
  <defs>
    <clipPath id="clip-path">
      <rect id="Rectángulo_302450" data-name="Rectángulo 302450" width="458.233" height="301.609" transform="translate(-35)" fill="none"/>
    </clipPath>
    <clipPath id="clip-path-2">
      <rect id="Rectángulo_302451" data-name="Rectángulo 302451" width="423.233" height="301.609" fill="none"/>
    </clipPath>
  </defs>
  <g id="img1" transform="translate(-892.377 -611.273)">
    <g id="Grupo_908333" data-name="Grupo 908333" transform="translate(927.377 611.273)">
      <g id="Grupo_908332" data-name="Grupo 908332" clip-path="url(#clip-path)">
        <path id="Trazado_675001" data-name="Trazado 675001" d="M401.758,114.706H21.516A20.828,20.828,0,0,1,.5,94.072V21.134A20.828,20.828,0,0,1,21.516.5H401.758a20.828,20.828,0,0,1,21.016,20.634V94.072a20.828,20.828,0,0,1-21.016,20.634" transform="translate(0.46 0.46)" fill="#0b5999"/>
        <path id="Trazado_675002" data-name="Trazado 675002" d="M181.168,210.881H24.7c-13.366,0-24.2-9.238-24.2-20.634V118.269c0-11.4,10.836-20.634,24.2-20.634H181.168c13.366,0,24.2,9.238,24.2,20.634v71.978c0,11.4-10.836,20.634-24.2,20.634" transform="translate(-29.742 89.768)" fill="#4dd0e1" stroke="#707070" stroke-width="1"/>
        <path id="Trazado_675003" data-name="Trazado 675003" d="M283.034,210.881h-133.4A20.634,20.634,0,0,1,129,190.247V118.269a20.634,20.634,0,0,1,20.634-20.634h133.4a20.634,20.634,0,0,1,20.634,20.634v71.978a20.634,20.634,0,0,1-20.634,20.634" transform="translate(118.606 89.768)" fill="#fd9927" stroke="#707070" stroke-width="1"/>
        <g id="Trazado_675004" data-name="Trazado 675004" transform="translate(9.252 50.224)" fill="#feca2e" stroke-linejoin="round">
          <path d="M 47.08448791503906 155.7615814208984 L 46.42742156982422 155.1888732910156 L 9.40554141998291 122.9194869995117 L 7.393407821655273 121.1656494140625 L 10.06260776519775 121.1656494140625 L 20.6520881652832 121.1656494140625 L 20.6520881652832 54.62490081787109 L 20.6520881652832 53.62490081787109 L 21.6520881652832 53.62490081787109 L 72.51687622070312 53.62490081787109 L 73.51687622070312 53.62490081787109 L 73.51687622070312 54.62490081787109 L 73.51687622070312 121.1656494140625 L 84.10636901855469 121.1656494140625 L 86.77556610107422 121.1656494140625 L 84.76343536376953 122.9194869995117 L 47.74155426025391 155.1888732910156 L 47.08448791503906 155.7615814208984 Z" stroke="none"/>
          <path d="M 47.08448791503906 154.4350280761719 L 84.10637664794922 122.165657043457 L 72.51687622070312 122.165657043457 L 72.51687622070312 54.62491226196289 L 21.6520881652832 54.62491226196289 L 21.6520881652832 122.165657043457 L 10.06260204315186 122.165657043457 L 47.08448791503906 154.4350280761719 M 47.08448791503906 156.4350280761719 C 46.61570358276367 156.4350280761719 46.14691543579102 156.2709197998047 45.77035903930664 155.9427032470703 L 8.748473167419434 123.6733245849609 C 8.119831085205078 123.1253814697266 7.897159576416016 122.2448959350586 8.189730644226074 121.463996887207 C 8.482288360595703 120.6830825805664 9.22868824005127 120.165657043457 10.06260204315186 120.165657043457 L 19.6520881652832 120.165657043457 L 19.6520881652832 54.62491226196289 C 19.6520881652832 53.52033996582031 20.54751586914062 52.62491226196289 21.6520881652832 52.62491226196289 L 72.51687622070312 52.62491226196289 C 73.62144470214844 52.62491226196289 74.51687622070312 53.52033996582031 74.51687622070312 54.62491226196289 L 74.51687622070312 120.165657043457 L 84.10637664794922 120.165657043457 C 84.94028472900391 120.165657043457 85.68669128417969 120.6830825805664 85.979248046875 121.463996887207 C 86.27182006835938 122.2448959350586 86.04914855957031 123.1253814697266 85.42050170898438 123.6733245849609 L 48.39861679077148 155.9427032470703 C 48.02206039428711 156.2709197998047 47.55327224731445 156.4350280761719 47.08448791503906 156.4350280761719 Z" stroke="none" fill="#fff"/>
        </g>
        <g id="Trazado_675006" data-name="Trazado 675006" transform="translate(42.811 45.972)" fill="#feca2e" stroke-linejoin="round">
          <path d="M 110.0168914794922 150.81103515625 L 109.0168914794922 150.81103515625 L 58.152099609375 150.81103515625 L 57.152099609375 150.81103515625 L 57.152099609375 149.81103515625 L 57.152099609375 83.27027130126953 L 46.56260681152344 83.27027130126953 L 43.89340972900391 83.27027130126953 L 45.90554046630859 81.51643371582031 L 82.92742156982422 49.24706268310547 L 83.58448791503906 48.67435455322266 L 84.24155426025391 49.24706268310547 L 121.2634353637695 81.51643371582031 L 123.2755661010742 83.27027130126953 L 120.6063690185547 83.27027130126953 L 110.0168914794922 83.27027130126953 L 110.0168914794922 149.81103515625 L 110.0168914794922 150.81103515625 Z" stroke="none"/>
          <path d="M 83.58448791503906 50.00090026855469 L 46.56259918212891 82.27027893066406 L 58.152099609375 82.27027893066406 L 58.152099609375 149.81103515625 L 109.0168914794922 149.81103515625 L 109.0168914794922 82.27027893066406 L 120.6063690185547 82.27027893066406 L 83.58448791503906 50.00090026855469 M 83.58448791503906 48.00090026855469 C 84.05327606201172 48.00090026855469 84.52205657958984 48.16500854492188 84.89861297607422 48.49322509765625 L 121.9205017089844 80.76261138916016 C 122.5491485595703 81.31055450439453 122.7718200683594 82.1910400390625 122.479248046875 82.97193908691406 C 122.1866912841797 83.75285339355469 121.4402923583984 84.27027893066406 120.6063690185547 84.27027893066406 L 111.0168914794922 84.27027893066406 L 111.0168914794922 149.81103515625 C 111.0168914794922 150.9156188964844 110.1214599609375 151.81103515625 109.0168914794922 151.81103515625 L 58.152099609375 151.81103515625 C 57.04753112792969 151.81103515625 56.152099609375 150.9156188964844 56.152099609375 149.81103515625 L 56.152099609375 84.27027893066406 L 46.56259918212891 84.27027893066406 C 45.72869110107422 84.27027893066406 44.98228454589844 83.75285339355469 44.68972778320312 82.97193908691406 C 44.39715576171875 82.1910400390625 44.61982727050781 81.31055450439453 45.24847412109375 80.76261138916016 L 82.27036285400391 48.49322509765625 C 82.64691925048828 48.16500854492188 83.11569976806641 48.00090026855469 83.58448791503906 48.00090026855469 Z" stroke="none" fill="#fff"/>
        </g>
        <g id="Trazado_675008" data-name="Trazado 675008" transform="translate(79.371 108.66)" fill="#feca2e">
          <path d="M 150.3467407226562 162.3515014648438 L 150.3467407226562 160.0605163574219 L 150.3467407226562 151.8683776855469 L 109.9082565307617 151.8683776855469 L 109.9082565307617 160.0605163574219 L 109.9082565307617 162.3515014648438 L 108.2283248901367 160.7937927246094 L 85.64627838134766 139.8547821044922 L 84.85546875 139.1214904785156 L 85.64627838134766 138.3882141113281 L 108.2283248901367 117.4492111206055 L 109.9082565307617 115.8915176391602 L 109.9082565307617 118.1824951171875 L 109.9082565307617 126.374626159668 L 150.3467407226562 126.374626159668 L 150.3467407226562 118.1824951171875 L 150.3467407226562 115.8915176391602 L 152.0266723632812 117.4492111206055 L 174.6087188720703 138.3882141113281 L 175.3995208740234 139.1214904785156 L 174.6087188720703 139.8547821044922 L 152.0266723632812 160.7937927246094 L 150.3467407226562 162.3515014648438 Z" stroke="none"/>
          <path d="M 108.9082489013672 118.1824951171875 L 86.32620239257812 139.1214904785156 L 108.9082489013672 160.0605163574219 L 108.9082489013672 150.8683776855469 L 151.3467407226562 150.8683776855469 L 151.3467407226562 160.0605163574219 L 173.9287872314453 139.1214904785156 L 151.3467407226562 118.1824951171875 L 151.3467407226562 127.3746337890625 L 108.9082489013672 127.3746337890625 L 108.9082489013672 118.1824951171875 M 110.9082489013672 113.6005401611328 L 110.9082489013672 125.3746337890625 L 149.3467407226562 125.3746337890625 L 149.3467407226562 113.6005401611328 L 176.8702697753906 139.1214904785156 L 149.3467407226562 164.6424865722656 L 149.3467407226562 152.8683776855469 L 110.9082489013672 152.8683776855469 L 110.9082489013672 164.6424865722656 L 83.38471984863281 139.1214904785156 L 110.9082489013672 113.6005401611328 Z" stroke="none" fill="#fff"/>
        </g>
      </g>
    </g>
    <path id="Trazado_684081" data-name="Trazado 684081" d="M15.265-19.173l-5.041,5.239V0H4.786V-41.234h5.438v20.391L28.547-41.234h6.57L18.89-23.024,36.392,0H29.878ZM51.612.566A13.389,13.389,0,0,1,41.473-3.526q-3.908-4.092-3.908-10.946v-.963a18.388,18.388,0,0,1,1.742-8.142,13.587,13.587,0,0,1,4.871-5.607,12.247,12.247,0,0,1,6.783-2.025q5.976,0,9.289,3.937T63.563-16v2.181H42.8A10.892,10.892,0,0,0,45.452-6.5a8.323,8.323,0,0,0,6.443,2.79,9.125,9.125,0,0,0,4.7-1.133,11.812,11.812,0,0,0,3.37-3l3.2,2.492Q59.315.566,51.612.566ZM50.96-26.9A6.988,6.988,0,0,0,45.636-24.6a11.219,11.219,0,0,0-2.662,6.471h15.35v-.4a9.979,9.979,0,0,0-2.152-6.188A6.58,6.58,0,0,0,50.96-26.9Zm33.475.963a15.7,15.7,0,0,0-2.577-.2q-5.154,0-7,4.39V0H69.623V-30.643h5.1l.085,3.54a8.158,8.158,0,0,1,7.307-4.106,5.352,5.352,0,0,1,2.322.4Zm9.771-4.7.17,3.852a11.166,11.166,0,0,1,9.176-4.418q9.714,0,9.8,10.96V0h-5.239V-20.277a7.054,7.054,0,0,0-1.515-4.9,6.072,6.072,0,0,0-4.63-1.586A7.562,7.562,0,0,0,97.491-25.4a9.231,9.231,0,0,0-3,3.568V0H89.249V-30.643ZM133.967.566a13.389,13.389,0,0,1-10.139-4.092q-3.908-4.092-3.908-10.946v-.963a18.388,18.388,0,0,1,1.742-8.142,13.587,13.587,0,0,1,4.871-5.607,12.247,12.247,0,0,1,6.783-2.025q5.976,0,9.289,3.937T145.918-16v2.181H125.159A10.892,10.892,0,0,0,127.807-6.5a8.323,8.323,0,0,0,6.443,2.79,9.125,9.125,0,0,0,4.7-1.133,11.812,11.812,0,0,0,3.37-3l3.2,2.492Q141.67.566,133.967.566ZM133.316-26.9a6.988,6.988,0,0,0-5.324,2.308,11.219,11.219,0,0,0-2.662,6.471h15.35v-.4a9.979,9.979,0,0,0-2.152-6.188A6.58,6.58,0,0,0,133.316-26.9ZM157.671,0h-5.239V-43.5h5.239Z" transform="translate(1054.957 685.934)" fill="#fff"/>
    <path id="Trazado_684082" data-name="Trazado 684082" d="M11.388-12.359a17.192,17.192,0,0,1-6.846-3.323A6.349,6.349,0,0,1,2.4-20.547a6.707,6.707,0,0,1,2.618-5.418,10.406,10.406,0,0,1,6.808-2.142A11.359,11.359,0,0,1,16.92-27a8.376,8.376,0,0,1,3.466,3.047,7.791,7.791,0,0,1,1.228,4.247H17.938a5.07,5.07,0,0,0-1.6-3.965,6.5,6.5,0,0,0-4.513-1.443,6.66,6.66,0,0,0-4.218,1.192,3.977,3.977,0,0,0-1.514,3.31,3.579,3.579,0,0,0,1.438,2.871A14.1,14.1,0,0,0,12.426-15.6a22.708,22.708,0,0,1,5.408,2.144,8.207,8.207,0,0,1,2.895,2.733,6.975,6.975,0,0,1,.943,3.675,6.478,6.478,0,0,1-2.628,5.4A11.2,11.2,0,0,1,12.016.381,13.033,13.033,0,0,1,6.684-.714a8.973,8.973,0,0,1-3.818-3A7.319,7.319,0,0,1,1.523-8.036H5.2a4.775,4.775,0,0,0,1.857,3.97,7.818,7.818,0,0,0,4.961,1.457A7.187,7.187,0,0,0,16.453-3.79,3.835,3.835,0,0,0,18-7.008a3.765,3.765,0,0,0-1.428-3.152A16.466,16.466,0,0,0,11.388-12.359ZM34.354.381a9,9,0,0,1-6.817-2.752,10.213,10.213,0,0,1-2.628-7.36v-.647a12.364,12.364,0,0,1,1.171-5.475,9.136,9.136,0,0,1,3.275-3.771,8.235,8.235,0,0,1,4.561-1.362,7.717,7.717,0,0,1,6.246,2.647q2.228,2.647,2.228,7.579v1.466H28.431A7.324,7.324,0,0,0,30.212-4.37a5.6,5.6,0,0,0,4.332,1.876,6.136,6.136,0,0,0,3.161-.762,7.943,7.943,0,0,0,2.266-2.019L42.123-3.6A8.652,8.652,0,0,1,34.354.381Zm-.438-18.472a4.7,4.7,0,0,0-3.58,1.552,7.544,7.544,0,0,0-1.79,4.351H38.867v-.267a6.71,6.71,0,0,0-1.447-4.161A4.424,4.424,0,0,0,33.916-18.091Zm22.509.647a10.558,10.558,0,0,0-1.733-.133,4.642,4.642,0,0,0-4.7,2.952V0H46.465V-20.6h3.428l.057,2.38a5.486,5.486,0,0,1,4.913-2.761,3.6,3.6,0,0,1,1.562.267ZM66.8-4.78l5.1-15.825h3.6L68.117,0H65.432L57.967-20.6h3.6ZM82.723,0H79.2V-20.6h3.523ZM78.914-26.07a2.1,2.1,0,0,1,.524-1.447,1.966,1.966,0,0,1,1.552-.59,2,2,0,0,1,1.562.59,2.081,2.081,0,0,1,.533,1.447,2.012,2.012,0,0,1-.533,1.428,2.033,2.033,0,0,1-1.562.571,2,2,0,0,1-1.552-.571A2.033,2.033,0,0,1,78.914-26.07Zm8.588,15.6A12.07,12.07,0,0,1,89.75-18.1a7.106,7.106,0,0,1,5.884-2.885,7.146,7.146,0,0,1,5.732,2.476V-29.25h3.523V0h-3.237l-.171-2.209A7.174,7.174,0,0,1,95.6.381a7.038,7.038,0,0,1-5.837-2.933A12.207,12.207,0,0,1,87.5-10.207Zm3.523.4a9.139,9.139,0,0,0,1.447,5.484,4.679,4.679,0,0,0,4,1.98,5.139,5.139,0,0,0,4.894-3.009v-9.464A5.179,5.179,0,0,0,96.51-18a4.7,4.7,0,0,0-4.037,2A10.062,10.062,0,0,0,91.025-10.074Zm18.4-.419a12.17,12.17,0,0,1,1.19-5.446,8.879,8.879,0,0,1,3.313-3.732,9.02,9.02,0,0,1,4.846-1.314,8.689,8.689,0,0,1,6.808,2.914,11.209,11.209,0,0,1,2.6,7.75v.248a12.276,12.276,0,0,1-1.152,5.4,8.748,8.748,0,0,1-3.294,3.723A9.123,9.123,0,0,1,118.809.381a8.668,8.668,0,0,1-6.789-2.914,11.153,11.153,0,0,1-2.6-7.712Zm3.542.419a8.815,8.815,0,0,0,1.59,5.5,5.089,5.089,0,0,0,4.256,2.076,5.058,5.058,0,0,0,4.266-2.1,9.639,9.639,0,0,0,1.581-5.894,8.8,8.8,0,0,0-1.609-5.494,5.116,5.116,0,0,0-4.275-2.1,5.059,5.059,0,0,0-4.208,2.076A9.568,9.568,0,0,0,112.963-10.074Zm29.593-7.37a10.558,10.558,0,0,0-1.733-.133,4.642,4.642,0,0,0-4.7,2.952V0H132.6V-20.6h3.428l.057,2.38a5.486,5.486,0,0,1,4.913-2.761,3.6,3.6,0,0,1,1.562.267ZM153.981.381a9,9,0,0,1-6.817-2.752,10.213,10.213,0,0,1-2.628-7.36v-.647a12.364,12.364,0,0,1,1.171-5.475,9.136,9.136,0,0,1,3.275-3.771,8.235,8.235,0,0,1,4.561-1.362,7.717,7.717,0,0,1,6.246,2.647q2.228,2.647,2.228,7.579v1.466H148.059A7.324,7.324,0,0,0,149.84-4.37a5.6,5.6,0,0,0,4.332,1.876,6.136,6.136,0,0,0,3.161-.762A7.943,7.943,0,0,0,159.6-5.275L161.751-3.6A8.652,8.652,0,0,1,153.981.381Zm-.438-18.472a4.7,4.7,0,0,0-3.58,1.552,7.544,7.544,0,0,0-1.79,4.351h10.321v-.267a6.71,6.71,0,0,0-1.447-4.161A4.424,4.424,0,0,0,153.543-18.091ZM178.09-5.465a2.594,2.594,0,0,0-1.076-2.219,10.356,10.356,0,0,0-3.751-1.362,17.737,17.737,0,0,1-4.247-1.371,6.041,6.041,0,0,1-2.323-1.9,4.555,4.555,0,0,1-.752-2.628,5.345,5.345,0,0,1,2.142-4.285,8.367,8.367,0,0,1,5.475-1.752,8.609,8.609,0,0,1,5.684,1.809,5.746,5.746,0,0,1,2.18,4.627H177.88a3.18,3.18,0,0,0-1.228-2.495,4.6,4.6,0,0,0-3.094-1.047,4.816,4.816,0,0,0-3.009.838,2.637,2.637,0,0,0-1.085,2.19,2.137,2.137,0,0,0,1.009,1.923,12.418,12.418,0,0,0,3.647,1.238,19,19,0,0,1,4.275,1.409,6.236,6.236,0,0,1,2.428,1.971,4.846,4.846,0,0,1,.79,2.809A5.273,5.273,0,0,1,179.4-1.285,9.266,9.266,0,0,1,173.672.381a10.376,10.376,0,0,1-4.38-.876,7.124,7.124,0,0,1-2.98-2.447,5.9,5.9,0,0,1-1.076-3.4h3.523a3.647,3.647,0,0,0,1.419,2.809,5.5,5.5,0,0,0,3.494,1.038,5.681,5.681,0,0,0,3.209-.809A2.487,2.487,0,0,0,178.09-5.465Z" transform="translate(906.377 868.239)" fill="#fff"/>
    <path id="Trazado_684083" data-name="Trazado 684083" d="M18.59,29.859q.419-3.047-3.161-4.456l-3.294-1.2-1.1-.476q-5.561-2.533-5.2-7.122A7.448,7.448,0,0,1,7.411,12.53,8.993,8.993,0,0,1,11.1,9.8a11.82,11.82,0,0,1,4.885-.9,9.75,9.75,0,0,1,4.485,1.124,7.221,7.221,0,0,1,3,2.98,8.124,8.124,0,0,1,.914,4.313l-3.6-.019a4.966,4.966,0,0,0-1.143-3.965,5.116,5.116,0,0,0-3.809-1.443A7.094,7.094,0,0,0,11.468,13.1a4.766,4.766,0,0,0-2.019,3.434q-.381,2.843,3.485,4.312l2.837,1.011,1.428.609q5.37,2.476,4.97,7.351a7.343,7.343,0,0,1-1.581,4.047A8.837,8.837,0,0,1,16.866,36.5a12.835,12.835,0,0,1-5.056.876,10.578,10.578,0,0,1-4.77-1.114,7.783,7.783,0,0,1-3.285-3,7.5,7.5,0,0,1-.99-4.323l3.58.019A4.717,4.717,0,0,0,7.687,32.9a6.043,6.043,0,0,0,4.275,1.495,7.633,7.633,0,0,0,4.551-1.2A4.671,4.671,0,0,0,18.59,29.859ZM36.566,16.015A7.427,7.427,0,0,1,41,17.424a8.007,8.007,0,0,1,2.733,3.78,11.706,11.706,0,0,1,.6,5.265l-.038.419a13.858,13.858,0,0,1-1.79,5.437,10.5,10.5,0,0,1-3.694,3.78,9.009,9.009,0,0,1-4.97,1.276,7.44,7.44,0,0,1-4.427-1.409A7.825,7.825,0,0,1,26.7,32.239a12.019,12.019,0,0,1-.609-5.2,14.041,14.041,0,0,1,1.733-5.751,10.747,10.747,0,0,1,3.723-3.951A8.9,8.9,0,0,1,36.566,16.015ZM29.558,27.06a11.7,11.7,0,0,0,0,2.495,6.111,6.111,0,0,0,1.343,3.58,4.03,4.03,0,0,0,3.075,1.39,5.491,5.491,0,0,0,3.161-.847,7.115,7.115,0,0,0,2.438-2.733,11.507,11.507,0,0,0,1.276-4.056,18.267,18.267,0,0,0,.057-2.952,6.342,6.342,0,0,0-1.39-3.637,4.12,4.12,0,0,0-3.085-1.409A5.616,5.616,0,0,0,31.9,20.985a10.348,10.348,0,0,0-2.3,5.637Zm19,9.94,3.123-17.881h-3.18l.476-2.723h3.161l.343-2.437a8.088,8.088,0,0,1,2.4-4.856,7.133,7.133,0,0,1,5.1-1.79,11.906,11.906,0,0,1,2.457.326l-.419,2.892a11.3,11.3,0,0,0-1.847-.229,3.935,3.935,0,0,0-2.9,1.111,5.054,5.054,0,0,0-1.381,2.952l-.3,2.031h4.266l-.476,2.723H55.114L52.01,37ZM69.32,11.406,68.444,16.4H72.2l-.476,2.723H67.987L65.835,31.935a4.468,4.468,0,0,0-.019.914,1.453,1.453,0,0,0,1.619,1.485,9.872,9.872,0,0,0,1.676-.19l-.267,2.875a9.377,9.377,0,0,1-2.514.343,3.6,3.6,0,0,1-3.085-1.514,5.856,5.856,0,0,1-.8-3.97L64.54,19.119H60.9l.476-2.723h3.637l.876-4.989ZM91.258,32.125,97.827,16.4h3.561L92,37H89.2L87.068,21.423,79.641,37h-2.8L74.614,16.4h3.294l1.257,15.349L86.478,16.4h2.78ZM113.995,37a4.615,4.615,0,0,1-.133-1.085l.057-1.085a8.447,8.447,0,0,1-6.018,2.552,6.156,6.156,0,0,1-4.427-1.723,5.216,5.216,0,0,1-1.552-4.218,6.343,6.343,0,0,1,2.866-5.113,12.2,12.2,0,0,1,7.036-1.838l3.6.019.229-1.638a3.765,3.765,0,0,0-.714-2.923,3.446,3.446,0,0,0-2.714-1.114,5.315,5.315,0,0,0-3.133.866,3.688,3.688,0,0,0-1.666,2.39l-3.466.019a5.524,5.524,0,0,1,1.409-3.209,8.2,8.2,0,0,1,3.18-2.171A10.273,10.273,0,0,1,112.567,16a6.831,6.831,0,0,1,5.008,1.952,6.054,6.054,0,0,1,1.5,4.98L117.4,33.134l-.1,1.466a7.188,7.188,0,0,0,.229,2.076L117.5,37Zm-5.408-2.666a6.011,6.011,0,0,0,3.133-.79,7.932,7.932,0,0,0,2.542-2.295L115,27l-2.609-.019a9.882,9.882,0,0,0-4.989,1.028,3.787,3.787,0,0,0-1.961,2.914,2.95,2.95,0,0,0,.676,2.409A3.22,3.22,0,0,0,108.587,34.334Zm26.394-14.8-1.619-.171a5.9,5.9,0,0,0-5.218,2.99L125.611,37h-3.447l3.58-20.6,3.333-.019-.514,2.4a6.161,6.161,0,0,1,5.161-2.8,6.322,6.322,0,0,1,1.638.286Zm8.41,17.843a7.429,7.429,0,0,1-6.018-2.837,9.765,9.765,0,0,1-1.828-7.065l.1-.819a13.709,13.709,0,0,1,1.819-5.6,10.577,10.577,0,0,1,3.647-3.818,8.509,8.509,0,0,1,4.646-1.228,6.552,6.552,0,0,1,4.989,2.114,8.693,8.693,0,0,1,1.98,5.522,16.138,16.138,0,0,1-.076,2.476l-.209,1.581H138.972a6.96,6.96,0,0,0,.924,4.761,4.375,4.375,0,0,0,3.78,2.038,7.33,7.33,0,0,0,5.637-2.742l1.98,1.676a9.063,9.063,0,0,1-3.342,2.923A9.471,9.471,0,0,1,143.39,37.381Zm2.19-18.491a5.035,5.035,0,0,0-3.723,1.447,10.287,10.287,0,0,0-2.523,4.475l10.017.019.076-.3a5.637,5.637,0,0,0-.771-3.99A3.628,3.628,0,0,0,145.58,18.89Z" transform="translate(1183.381 832.048)" fill="#fff"/>
    <path id="Trazado_684084" data-name="Trazado 684084" d="M7.141,0H3.485V-27.727H7.141Zm10.34-10.854V0H13.825V-27.727H24.051A10.274,10.274,0,0,1,31.183-25.4a7.876,7.876,0,0,1,2.58,6.151,7.772,7.772,0,0,1-2.523,6.218q-2.523,2.18-7.227,2.18Zm0-2.99h6.57a6.569,6.569,0,0,0,4.494-1.383,5.057,5.057,0,0,0,1.562-4,5.225,5.225,0,0,0-1.562-3.968,6.154,6.154,0,0,0-4.285-1.545H17.481ZM58.824-8.8a10.2,10.2,0,0,1-3.247,6.789A10.641,10.641,0,0,1,48.312.381a9.77,9.77,0,0,1-7.874-3.523q-2.961-3.523-2.961-9.426v-2.666a15.8,15.8,0,0,1,1.381-6.8,10.313,10.313,0,0,1,3.913-4.5,10.9,10.9,0,0,1,5.865-1.571,10.019,10.019,0,0,1,7.084,2.466,10.323,10.323,0,0,1,3.1,6.827H55.148a7.966,7.966,0,0,0-2.066-4.813,6.251,6.251,0,0,0-4.447-1.49,6.542,6.542,0,0,0-5.494,2.592q-1.99,2.592-1.99,7.376v2.687a12.232,12.232,0,0,0,1.885,7.185,6.092,6.092,0,0,0,5.275,2.668A7.036,7.036,0,0,0,52.987-3.99Q54.615-5.37,55.148-8.8Z" transform="translate(1150.881 775.578)" fill="#161615"/>
    <g id="Grupo_908335" data-name="Grupo 908335" transform="translate(927.377 611.273)">
      <g id="Grupo_908334" data-name="Grupo 908334" clip-path="url(#clip-path-2)">
        <line id="Línea_1055" data-name="Línea 1055" y2="122.694" transform="translate(208.258 115.166)" fill="#fff"/>
        <line id="Línea_1056" data-name="Línea 1056" y2="88.683" transform="translate(208.258 132.171)" fill="none" stroke="#161615" stroke-miterlimit="10" stroke-width="1"/>
        <path id="Trazado_675010" data-name="Trazado 675010" d="M105.595,80.809,111.171,60l5.578,20.808Z" transform="translate(97.087 55.166)" fill="#161615"/>
        <path id="Trazado_675011" data-name="Trazado 675011" d="M105.595,113.081l5.576,20.808,5.578-20.808Z" transform="translate(97.087 103.97)" fill="#161615"/>
      </g>
    </g>
  </g>
</svg>
