<svg xmlns="http://www.w3.org/2000/svg" xmlns:xlink="http://www.w3.org/1999/xlink" width="423.233" height="301.609" viewBox="0 0 423.233 301.609">
  <defs>
    <clipPath id="clip-path">
      <rect id="Rectángulo_302450" data-name="Rectángulo 302450" width="423.233" height="301.609" fill="none"/>
    </clipPath>
  </defs>
  <g id="Grupo_912650" data-name="Grupo 912650" transform="translate(5151.569 12280.727)">
    <g id="Grupo_912649" data-name="Grupo 912649">
      <g id="Grupo_908332" data-name="Grupo 908332" transform="translate(-5151.569 -12280.727)" clip-path="url(#clip-path)">
        <path id="Trazado_675001" data-name="Trazado 675001" d="M401.758,114.706H21.516A20.828,20.828,0,0,1,.5,94.072V21.134A20.828,20.828,0,0,1,21.516.5H401.758a20.828,20.828,0,0,1,21.016,20.634V94.072a20.828,20.828,0,0,1-21.016,20.634" transform="translate(0.46 0.46)" fill="#0b5999"/>
        <path id="Trazado_675002" data-name="Trazado 675002" d="M154.534,210.881H21.134A20.634,20.634,0,0,1,.5,190.247V118.269A20.634,20.634,0,0,1,21.134,97.635h133.4a20.634,20.634,0,0,1,20.634,20.634v71.978a20.634,20.634,0,0,1-20.634,20.634" transform="translate(0.46 89.768)" fill="#4dd0e1" stroke="#707070" stroke-width="1"/>
        <path id="Trazado_675003" data-name="Trazado 675003" d="M283.034,210.881h-133.4A20.634,20.634,0,0,1,129,190.247V118.269a20.634,20.634,0,0,1,20.634-20.634h133.4a20.634,20.634,0,0,1,20.634,20.634v71.978a20.634,20.634,0,0,1-20.634,20.634" transform="translate(118.606 89.768)" fill="#fd9927" stroke="#707070" stroke-width="1"/>
        <g id="Trazado_675004" data-name="Trazado 675004" transform="translate(9.252 50.224)" fill="#feca2e" stroke-linejoin="round">
          <path d="M 47.08448791503906 155.7615814208984 L 46.42742156982422 155.1888732910156 L 9.40554141998291 122.9194869995117 L 7.393407821655273 121.1656494140625 L 10.06260776519775 121.1656494140625 L 20.6520881652832 121.1656494140625 L 20.6520881652832 54.62490081787109 L 20.6520881652832 53.62490081787109 L 21.6520881652832 53.62490081787109 L 72.51687622070312 53.62490081787109 L 73.51687622070312 53.62490081787109 L 73.51687622070312 54.62490081787109 L 73.51687622070312 121.1656494140625 L 84.10636901855469 121.1656494140625 L 86.77556610107422 121.1656494140625 L 84.76343536376953 122.9194869995117 L 47.74155426025391 155.1888732910156 L 47.08448791503906 155.7615814208984 Z" stroke="none"/>
          <path d="M 47.08448791503906 154.4350280761719 L 84.10637664794922 122.165657043457 L 72.51687622070312 122.165657043457 L 72.51687622070312 54.62491226196289 L 21.6520881652832 54.62491226196289 L 21.6520881652832 122.165657043457 L 10.06260204315186 122.165657043457 L 47.08448791503906 154.4350280761719 M 47.08448791503906 156.4350280761719 C 46.61570358276367 156.4350280761719 46.14691543579102 156.2709197998047 45.77035903930664 155.9427032470703 L 8.748473167419434 123.6733245849609 C 8.119831085205078 123.1253814697266 7.897159576416016 122.2448959350586 8.189730644226074 121.463996887207 C 8.482288360595703 120.6830825805664 9.22868824005127 120.165657043457 10.06260204315186 120.165657043457 L 19.6520881652832 120.165657043457 L 19.6520881652832 54.62491226196289 C 19.6520881652832 53.52033996582031 20.54751586914062 52.62491226196289 21.6520881652832 52.62491226196289 L 72.51687622070312 52.62491226196289 C 73.62144470214844 52.62491226196289 74.51687622070312 53.52033996582031 74.51687622070312 54.62491226196289 L 74.51687622070312 120.165657043457 L 84.10637664794922 120.165657043457 C 84.94028472900391 120.165657043457 85.68669128417969 120.6830825805664 85.979248046875 121.463996887207 C 86.27182006835938 122.2448959350586 86.04914855957031 123.1253814697266 85.42050170898438 123.6733245849609 L 48.39861679077148 155.9427032470703 C 48.02206039428711 156.2709197998047 47.55327224731445 156.4350280761719 47.08448791503906 156.4350280761719 Z" stroke="none" fill="#fff"/>
        </g>
        <g id="Trazado_675006" data-name="Trazado 675006" transform="translate(42.811 45.972)" fill="#feca2e" stroke-linejoin="round">
          <path d="M 110.0168914794922 150.81103515625 L 109.0168914794922 150.81103515625 L 58.152099609375 150.81103515625 L 57.152099609375 150.81103515625 L 57.152099609375 149.81103515625 L 57.152099609375 83.27027130126953 L 46.56260681152344 83.27027130126953 L 43.89340972900391 83.27027130126953 L 45.90554046630859 81.51643371582031 L 82.92742156982422 49.24706268310547 L 83.58448791503906 48.67435455322266 L 84.24155426025391 49.24706268310547 L 121.2634353637695 81.51643371582031 L 123.2755661010742 83.27027130126953 L 120.6063690185547 83.27027130126953 L 110.0168914794922 83.27027130126953 L 110.0168914794922 149.81103515625 L 110.0168914794922 150.81103515625 Z" stroke="none"/>
          <path d="M 83.58448791503906 50.00090026855469 L 46.56259918212891 82.27027893066406 L 58.152099609375 82.27027893066406 L 58.152099609375 149.81103515625 L 109.0168914794922 149.81103515625 L 109.0168914794922 82.27027893066406 L 120.6063690185547 82.27027893066406 L 83.58448791503906 50.00090026855469 M 83.58448791503906 48.00090026855469 C 84.05327606201172 48.00090026855469 84.52205657958984 48.16500854492188 84.89861297607422 48.49322509765625 L 121.9205017089844 80.76261138916016 C 122.5491485595703 81.31055450439453 122.7718200683594 82.1910400390625 122.479248046875 82.97193908691406 C 122.1866912841797 83.75285339355469 121.4402923583984 84.27027893066406 120.6063690185547 84.27027893066406 L 111.0168914794922 84.27027893066406 L 111.0168914794922 149.81103515625 C 111.0168914794922 150.9156188964844 110.1214599609375 151.81103515625 109.0168914794922 151.81103515625 L 58.152099609375 151.81103515625 C 57.04753112792969 151.81103515625 56.152099609375 150.9156188964844 56.152099609375 149.81103515625 L 56.152099609375 84.27027893066406 L 46.56259918212891 84.27027893066406 C 45.72869110107422 84.27027893066406 44.98228454589844 83.75285339355469 44.68972778320312 82.97193908691406 C 44.39715576171875 82.1910400390625 44.61982727050781 81.31055450439453 45.24847412109375 80.76261138916016 L 82.27036285400391 48.49322509765625 C 82.64691925048828 48.16500854492188 83.11569976806641 48.00090026855469 83.58448791503906 48.00090026855469 Z" stroke="none" fill="#fff"/>
        </g>
        <g id="Trazado_675008" data-name="Trazado 675008" transform="translate(79.371 108.66)" fill="#feca2e">
          <path d="M 150.3467407226562 162.3515014648438 L 150.3467407226562 160.0605163574219 L 150.3467407226562 151.8683776855469 L 109.9082565307617 151.8683776855469 L 109.9082565307617 160.0605163574219 L 109.9082565307617 162.3515014648438 L 108.2283248901367 160.7937927246094 L 85.64627838134766 139.8547821044922 L 84.85546875 139.1214904785156 L 85.64627838134766 138.3882141113281 L 108.2283248901367 117.4492111206055 L 109.9082565307617 115.8915176391602 L 109.9082565307617 118.1824951171875 L 109.9082565307617 126.374626159668 L 150.3467407226562 126.374626159668 L 150.3467407226562 118.1824951171875 L 150.3467407226562 115.8915176391602 L 152.0266723632812 117.4492111206055 L 174.6087188720703 138.3882141113281 L 175.3995208740234 139.1214904785156 L 174.6087188720703 139.8547821044922 L 152.0266723632812 160.7937927246094 L 150.3467407226562 162.3515014648438 Z" stroke="none"/>
          <path d="M 108.9082489013672 118.1824951171875 L 86.32620239257812 139.1214904785156 L 108.9082489013672 160.0605163574219 L 108.9082489013672 150.8683776855469 L 151.3467407226562 150.8683776855469 L 151.3467407226562 160.0605163574219 L 173.9287872314453 139.1214904785156 L 151.3467407226562 118.1824951171875 L 151.3467407226562 127.3746337890625 L 108.9082489013672 127.3746337890625 L 108.9082489013672 118.1824951171875 M 110.9082489013672 113.6005401611328 L 110.9082489013672 125.3746337890625 L 149.3467407226562 125.3746337890625 L 149.3467407226562 113.6005401611328 L 176.8702697753906 139.1214904785156 L 149.3467407226562 164.6424865722656 L 149.3467407226562 152.8683776855469 L 110.9082489013672 152.8683776855469 L 110.9082489013672 164.6424865722656 L 83.38471984863281 139.1214904785156 L 110.9082489013672 113.6005401611328 Z" stroke="none" fill="#fff"/>
        </g>
      </g>
      <path id="Trazado_684081" data-name="Trazado 684081" d="M13.735-18.635H10.422L7.646,0H2.067L8.241-41.234H13.82L11.13-23.308h3.625L30.189-41.234h6.854l.057.142-18.55,20.5L31.634,0H25.262ZM47.675.595q-6.344,0-9.53-4.276T35.979-14.727l.2-1.246a18.347,18.347,0,0,1,5.4-11.045,14.1,14.1,0,0,1,9.983-4.191q5.919,0,8.524,3.88t1.671,10.11l-.425,2.945H41.5q-.651,4.871.963,7.689t5.862,2.818a15.141,15.141,0,0,0,5.055-.821A13.27,13.27,0,0,0,57.417-6.8L59.06-3.172A16.122,16.122,0,0,1,54.33-.5,18.63,18.63,0,0,1,47.675.595ZM50.9-26.819a7.06,7.06,0,0,0-5.083,2.266,12.908,12.908,0,0,0-3.271,5.721l.057.17H56.4l.057-.453a8.18,8.18,0,0,0-.793-5.565Q54.359-26.819,50.9-26.819Zm32.88,1.1-2.832-.17a6.889,6.889,0,0,0-3.852,1.09,9.025,9.025,0,0,0-2.832,3.073L71.011,0H65.432L70.02-30.643H75l-.113,4.333a12.877,12.877,0,0,1,3.738-3.611,8.643,8.643,0,0,1,4.616-1.289,6.971,6.971,0,0,1,1.175.1,6.478,6.478,0,0,1,.92.212Zm11.271-.538A13.242,13.242,0,0,1,99.43-29.92a11.748,11.748,0,0,1,5.452-1.289q4.786,0,7.151,2.931t1.458,8.935L110.6,0h-5.579l2.889-19.229q.623-4.191-.708-5.82t-4.673-1.628a9.129,9.129,0,0,0-4.475,1.09,9.893,9.893,0,0,0-3.342,3.016L91.317,0H85.738l4.588-30.643H95.31ZM131.3.595q-6.344,0-9.53-4.276t-2.167-11.045l.2-1.246a18.347,18.347,0,0,1,5.4-11.045,14.1,14.1,0,0,1,9.983-4.191q5.919,0,8.524,3.88t1.671,10.11l-.425,2.945H125.131q-.651,4.871.963,7.689t5.862,2.818a15.141,15.141,0,0,0,5.055-.821A13.27,13.27,0,0,0,141.047-6.8l1.643,3.625A16.122,16.122,0,0,1,137.96-.5,18.63,18.63,0,0,1,131.3.595Zm3.229-27.414a7.06,7.06,0,0,0-5.083,2.266,12.907,12.907,0,0,0-3.271,5.721l.057.17h13.792l.057-.453a8.18,8.18,0,0,0-.793-5.565Q137.989-26.819,134.533-26.819ZM155.094,0h-5.579l6.627-44.18h5.579Z" transform="translate(-5023.99 -12206.067)" fill="#fff"/>
      <path id="Trazado_684082" data-name="Trazado 684082" d="M18-6.36a3.887,3.887,0,0,0-.971-3.447A12.469,12.469,0,0,0,12.149-12.3,15.022,15.022,0,0,1,5.8-15.634q-1.971-2-1.419-5.694a7.019,7.019,0,0,1,3.114-5.018A11.359,11.359,0,0,1,14-28.126a9.991,9.991,0,0,1,6.97,2.266,6.36,6.36,0,0,1,1.809,6.208l-.038.114h-3.6A4.577,4.577,0,0,0,17.977-23.6a5.9,5.9,0,0,0-4.437-1.571A6.087,6.087,0,0,0,9.874-24.08a3.976,3.976,0,0,0-1.742,2.714,3.893,3.893,0,0,0,.809,3.475q1.152,1.171,4.98,2.466a16.32,16.32,0,0,1,6.427,3.418q1.952,1.952,1.4,5.608a6.964,6.964,0,0,1-3.209,5.084A12.352,12.352,0,0,1,11.788.4,12.969,12.969,0,0,1,4.313-1.657q-3.018-2.057-2.276-6.4l.057-.114h3.58Q5.218-5.123,7.217-3.828a9.037,9.037,0,0,0,5.008,1.295,6.9,6.9,0,0,0,3.847-1.076A3.978,3.978,0,0,0,18-6.36ZM33.344.4a7.48,7.48,0,0,1-6.408-2.875A9.588,9.588,0,0,1,25.479-9.9l.133-.838a12.337,12.337,0,0,1,3.628-7.427,9.482,9.482,0,0,1,6.713-2.818q3.98,0,5.732,2.609a9.373,9.373,0,0,1,1.124,6.8L42.523-9.6H29.193a8.177,8.177,0,0,0,.647,5.17q1.085,1.895,3.942,1.895a10.181,10.181,0,0,0,3.4-.552A8.923,8.923,0,0,0,39.9-4.57L41-2.133a10.84,10.84,0,0,1-3.18,1.8A12.527,12.527,0,0,1,33.344.4Zm2.171-18.434A4.747,4.747,0,0,0,32.1-16.51a8.679,8.679,0,0,0-2.2,3.847l.038.114h9.274l.038-.3a5.5,5.5,0,0,0-.533-3.742A3.437,3.437,0,0,0,35.515-18.034Zm22.109.743-1.9-.114a4.632,4.632,0,0,0-2.59.733,6.069,6.069,0,0,0-1.9,2.066L49.036,0H45.284l3.085-20.6h3.352l-.076,2.914a8.659,8.659,0,0,1,2.514-2.428,5.812,5.812,0,0,1,3.1-.866,4.687,4.687,0,0,1,.79.067,4.356,4.356,0,0,1,.619.143ZM67.381-6.075,67.5-4.627l.114.019.571-1.466L75.094-20.6h3.828L68.257,0H65.42L60.831-20.6h3.847ZM87.2.4a7.48,7.48,0,0,1-6.408-2.875A9.588,9.588,0,0,1,79.335-9.9l.133-.838A12.337,12.337,0,0,1,83.1-18.167a9.482,9.482,0,0,1,6.713-2.818q3.98,0,5.732,2.609a9.373,9.373,0,0,1,1.124,6.8L96.378-9.6H83.048a8.177,8.177,0,0,0,.647,5.17q1.085,1.895,3.942,1.895a10.181,10.181,0,0,0,3.4-.552A8.923,8.923,0,0,0,93.75-4.57l1.1,2.438a10.84,10.84,0,0,1-3.18,1.8A12.527,12.527,0,0,1,87.2.4ZM89.37-18.034a4.747,4.747,0,0,0-3.418,1.523,8.679,8.679,0,0,0-2.2,3.847l.038.114h9.274l.038-.3A5.5,5.5,0,0,0,92.57-16.6,3.437,3.437,0,0,0,89.37-18.034Zm22.109.743-1.9-.114a4.632,4.632,0,0,0-2.59.733,6.069,6.069,0,0,0-1.9,2.066L102.891,0H99.14l3.085-20.6h3.352l-.076,2.914a8.659,8.659,0,0,1,2.514-2.428,5.812,5.812,0,0,1,3.1-.866,4.687,4.687,0,0,1,.79.067,4.356,4.356,0,0,1,.619.143Zm14.168,11.75A2.213,2.213,0,0,0,125-7.579a7.971,7.971,0,0,0-3.39-1.352,13.026,13.026,0,0,1-5.3-2.19,3.808,3.808,0,0,1-1.419-3.771,6.348,6.348,0,0,1,2.733-4.361,9.591,9.591,0,0,1,5.818-1.733,7.327,7.327,0,0,1,5.332,1.923,4.736,4.736,0,0,1,1.542,4.418l-.038.114h-3.6a2.832,2.832,0,0,0-.819-2.437,3.694,3.694,0,0,0-2.818-1.066,4.812,4.812,0,0,0-3.056.9,3.252,3.252,0,0,0-1.323,2.123,2,2,0,0,0,.571,1.9,8.4,8.4,0,0,0,3.352,1.2,12.716,12.716,0,0,1,5.427,2.266,3.978,3.978,0,0,1,1.428,3.828A6.387,6.387,0,0,1,126.6-1.285,10.4,10.4,0,0,1,120.544.4a8,8,0,0,1-5.837-2.019,4.956,4.956,0,0,1-1.59-4.646l.038-.114h3.6a3.035,3.035,0,0,0,1.085,2.923,5.131,5.131,0,0,0,3.123.924,5.616,5.616,0,0,0,3.2-.857A3.169,3.169,0,0,0,125.647-5.542Z" transform="translate(-5130.909 -12023.761)" fill="#fff"/>
      <path id="Trazado_684083" data-name="Trazado 684083" d="M23.529,30.64a3.887,3.887,0,0,0-.971-3.447A12.469,12.469,0,0,0,17.682,24.7a15.022,15.022,0,0,1-6.351-3.333q-1.971-2-1.419-5.694a7.019,7.019,0,0,1,3.114-5.018,11.359,11.359,0,0,1,6.5-1.781A9.991,9.991,0,0,1,26.5,11.14a6.36,6.36,0,0,1,1.809,6.208l-.038.114h-3.6A4.577,4.577,0,0,0,23.51,13.4a5.9,5.9,0,0,0-4.437-1.571,6.087,6.087,0,0,0-3.666,1.095,3.976,3.976,0,0,0-1.742,2.714,3.893,3.893,0,0,0,.809,3.475q1.152,1.171,4.98,2.466a16.32,16.32,0,0,1,6.427,3.418q1.952,1.952,1.4,5.608a6.964,6.964,0,0,1-3.209,5.084A12.352,12.352,0,0,1,17.321,37.4a12.969,12.969,0,0,1-7.474-2.057q-3.018-2.057-2.276-6.4l.057-.114h3.58q-.457,3.047,1.542,4.342a9.037,9.037,0,0,0,5.008,1.295,6.9,6.9,0,0,0,3.847-1.076A3.978,3.978,0,0,0,23.529,30.64Zm7.579-4.132A13.13,13.13,0,0,1,34.7,18.89a9.75,9.75,0,0,1,7.17-2.875,7.17,7.17,0,0,1,6.237,2.98,9.992,9.992,0,0,1,1.457,7.512l-.076.419a13.15,13.15,0,0,1-3.6,7.627A9.793,9.793,0,0,1,38.706,37.4a7.178,7.178,0,0,1-6.237-2.971,9.9,9.9,0,0,1-1.438-7.5Zm3.675.419a8.972,8.972,0,0,0,.552,5.465,3.9,3.9,0,0,0,3.809,2.076,5.39,5.39,0,0,0,4.332-2.161,10.972,10.972,0,0,0,2.257-5.38l.076-.419a8.976,8.976,0,0,0-.581-5.446,3.9,3.9,0,0,0-3.8-2.095,5.392,5.392,0,0,0-4.351,2.18,10.785,10.785,0,0,0-2.219,5.361ZM54.131,37,56.8,19.176H53.578L54,16.4h3.218l.4-2.609a8.246,8.246,0,0,1,2.476-5.161,7.4,7.4,0,0,1,5.084-1.733,7.66,7.66,0,0,1,1.295.114q.667.114,1.409.286L67,10.149q-.343-.076-.828-.133a8.553,8.553,0,0,0-1-.057,3.428,3.428,0,0,0-2.561,1,4.933,4.933,0,0,0-1.247,2.828l-.4,2.609H64.7l-.419,2.78H60.548L57.882,37ZM74.449,11.425l-.743,4.97h3.9l-.419,2.78h-3.9L71.422,31.687a2.563,2.563,0,0,0,.276,2.066,1.932,1.932,0,0,0,1.514.562,3.829,3.829,0,0,0,.733-.086,5.107,5.107,0,0,0,.7-.181l.133,2.571a3.982,3.982,0,0,1-1.323.562A6.572,6.572,0,0,1,71.8,37.4a4.23,4.23,0,0,1-3.4-1.39q-1.19-1.39-.733-4.323l1.866-12.511H66.261l.419-2.78h3.275l.743-4.97ZM84.942,29.5l.076,2.628.1.019.914-2.647L92.1,16.4h3.009l2.171,13.1.1,2.952.114.019L98.539,29.5l5.008-13.1h3.923L98.406,37H95.378l-2.19-12.549L92.9,21.194l-.114-.019-1.219,3.275L85.685,37H82.657L79.762,16.4h3.9ZM120.724,37q-.038-1.066-.038-1.723a12.154,12.154,0,0,1,.076-1.343,11.125,11.125,0,0,1-3.114,2.466,7.782,7.782,0,0,1-3.761,1,5.873,5.873,0,0,1-4.6-1.666,5.252,5.252,0,0,1-1.057-4.523,6.3,6.3,0,0,1,3.047-4.666,12.66,12.66,0,0,1,6.76-1.619h4.075l.3-2.038a3.338,3.338,0,0,0-.657-2.9,3.884,3.884,0,0,0-2.98-1.019,5.2,5.2,0,0,0-3.047.914,3.18,3.18,0,0,0-1.485,2.19l-3.58.038-.019-.114a5.9,5.9,0,0,1,2.723-4.161,10,10,0,0,1,6.056-1.819,7.443,7.443,0,0,1,5.294,1.8,5.5,5.5,0,0,1,1.447,5.113l-1.485,9.921a16.3,16.3,0,0,0-.219,2.161A11,11,0,0,0,124.59,37Zm-5.808-2.742a7.39,7.39,0,0,0,3.771-1.066,6.37,6.37,0,0,0,2.533-2.4l.514-3.333h-4.208a6.191,6.191,0,0,0-3.771,1.162,4.025,4.025,0,0,0-1.79,2.666,2.465,2.465,0,0,0,.5,2.2A3.268,3.268,0,0,0,114.916,34.258Zm26.927-14.549-1.9-.114a4.632,4.632,0,0,0-2.59.733,6.069,6.069,0,0,0-1.9,2.066L133.254,37H129.5l3.085-20.6h3.352l-.076,2.914a8.659,8.659,0,0,1,2.514-2.428,5.812,5.812,0,0,1,3.1-.866,4.687,4.687,0,0,1,.79.067,4.356,4.356,0,0,1,.619.143ZM150.957,37.4a7.48,7.48,0,0,1-6.408-2.875,9.588,9.588,0,0,1-1.457-7.427l.133-.838a12.337,12.337,0,0,1,3.628-7.427,9.482,9.482,0,0,1,6.713-2.818q3.98,0,5.732,2.609a9.373,9.373,0,0,1,1.124,6.8l-.286,1.98h-13.33a8.177,8.177,0,0,0,.647,5.17q1.085,1.895,3.942,1.895a10.181,10.181,0,0,0,3.4-.552,8.923,8.923,0,0,0,2.714-1.485l1.1,2.438a10.84,10.84,0,0,1-3.18,1.8A12.527,12.527,0,0,1,150.957,37.4Zm2.171-18.434a4.747,4.747,0,0,0-3.418,1.523,8.679,8.679,0,0,0-2.2,3.847l.038.114h9.274l.038-.3a5.5,5.5,0,0,0-.533-3.742A3.437,3.437,0,0,0,153.128,18.966Z" transform="translate(-4898.565 -12057.953)" fill="#fff"/>
      <path id="Trazado_684084" data-name="Trazado 684084" d="M7.389,0H3.618V-27.727H7.389ZM17.843-11.121V0H14.092V-27.727H24.7a9.773,9.773,0,0,1,6.9,2.285,7.818,7.818,0,0,1,2.466,6.018A7.8,7.8,0,0,1,31.6-13.387a9.825,9.825,0,0,1-6.9,2.266Zm0-2.933H24.7a5.439,5.439,0,0,0,4.208-1.514,5.428,5.428,0,0,0,1.39-3.818,5.51,5.51,0,0,0-1.4-3.847,5.388,5.388,0,0,0-4.2-1.542H17.843Zm40.828,5.18.038.114a8.329,8.329,0,0,1-2.742,6.532A10.479,10.479,0,0,1,48.521.4a9.778,9.778,0,0,1-7.665-3.333A12.256,12.256,0,0,1,37.9-11.388V-16.32a12.291,12.291,0,0,1,2.961-8.465,9.766,9.766,0,0,1,7.665-3.342,10.764,10.764,0,0,1,7.484,2.5,8.278,8.278,0,0,1,2.7,6.636l-.038.114h-3.6a6.188,6.188,0,0,0-1.714-4.608,6.584,6.584,0,0,0-4.837-1.695,5.908,5.908,0,0,0-5.008,2.533,10.3,10.3,0,0,0-1.866,6.284v4.97a10.369,10.369,0,0,0,1.866,6.322,5.908,5.908,0,0,0,5.008,2.533,6.606,6.606,0,0,0,4.837-1.685,6.232,6.232,0,0,0,1.714-4.656Z" transform="translate(-4928.065 -12116.422)" fill="#161615"/>
      <g id="Grupo_908334" data-name="Grupo 908334" transform="translate(-5151.569 -12280.727)" clip-path="url(#clip-path)">
        <line id="Línea_1055" data-name="Línea 1055" y2="122.694" transform="translate(208.258 115.166)" fill="#fff"/>
        <line id="Línea_1056" data-name="Línea 1056" y2="88.683" transform="translate(208.258 132.171)" fill="none" stroke="#161615" stroke-miterlimit="10" stroke-width="1"/>
        <path id="Trazado_675010" data-name="Trazado 675010" d="M105.595,80.809,111.171,60l5.578,20.808Z" transform="translate(97.087 55.166)" fill="#161615"/>
        <path id="Trazado_675011" data-name="Trazado 675011" d="M105.595,113.081l5.576,20.808,5.578-20.808Z" transform="translate(97.087 103.97)" fill="#161615"/>
      </g>
    </g>
  </g>
</svg>
