<svg xmlns="http://www.w3.org/2000/svg" xmlns:xlink="http://www.w3.org/1999/xlink" width="81.933" height="54.556" viewBox="0 0 81.933 54.556">
  <defs>
    <clipPath id="clip-path">
      <path id="Trazado_677124" data-name="Trazado 677124" d="M96.967,190.834l-1.258.353v7.322c0,1.4.922,2.8,2.767,3.862l31.509,18.192a14.811,14.811,0,0,0,13.381,0l31.508-18.191c1.814-1.047,2.737-2.418,2.766-3.794,0-.062,0-.123,0-.185h0v-7.139l-1.974-1.1c-.558,3.369-4.524,5.589-7.839,6.051l-22.577,13.2-9.852,3.559-31.451-16.231.727-.42c-2.688-1.255-4.136-4.128-5.589-6.748Z" transform="translate(-95.709 -189.571)" fill="none"/>
    </clipPath>
    <linearGradient id="linear-gradient" x1="-1.111" y1="4.006" x2="-1.1" y2="4.006" gradientUnits="objectBoundingBox">
      <stop offset="0" stop-color="#babcfc"/>
      <stop offset="0.235" stop-color="#a8abf4"/>
      <stop offset="0.704" stop-color="#7a7fe0"/>
      <stop offset="1" stop-color="#5a61d2"/>
    </linearGradient>
    <clipPath id="clip-path-2">
      <path id="Trazado_677126" data-name="Trazado 677126" d="M129.983,161.649,98.476,179.84c-3.689,2.13-3.689,5.6,0,7.725l31.509,18.192a14.811,14.811,0,0,0,13.381,0l31.508-18.191c3.689-2.13,3.689-5.6,0-7.725l-31.509-18.192a14.808,14.808,0,0,0-13.381,0" transform="translate(-95.708 -160.051)" fill="none"/>
    </clipPath>
    <linearGradient id="linear-gradient-2" x1="-0.839" y1="7.222" x2="-0.83" y2="7.222" gradientUnits="objectBoundingBox">
      <stop offset="0" stop-color="#e7e7fb"/>
      <stop offset="0.359" stop-color="#d0d0f6"/>
      <stop offset="0.706" stop-color="#c1c1f3"/>
      <stop offset="1" stop-color="#bdbdf3"/>
    </linearGradient>
  </defs>
  <g id="Grupo_912650" data-name="Grupo 912650" transform="translate(11417.061 12774.69)">
    <g id="Grupo_909339" data-name="Grupo 909339" transform="translate(-11417.06 -12752.724)">
      <g id="Grupo_909338" data-name="Grupo 909338" clip-path="url(#clip-path)">
        <rect id="Rect치ngulo_303144" data-name="Rect치ngulo 303144" width="69.651" height="87.517" transform="translate(-14.342 24.841) rotate(-60)" fill="url(#linear-gradient)"/>
      </g>
    </g>
    <g id="Grupo_909346" data-name="Grupo 909346" transform="translate(-11417.061 -12774.69)">
      <g id="Grupo_909345" data-name="Grupo 909345" clip-path="url(#clip-path-2)">
        <rect id="Rect치ngulo_303147" data-name="Rect치ngulo 303147" width="83.777" height="47.836" transform="translate(-0.922 0)" fill="url(#linear-gradient-2)"/>
      </g>
    </g>
  </g>
</svg>
