<svg xmlns="http://www.w3.org/2000/svg" xmlns:xlink="http://www.w3.org/1999/xlink" width="76.741" height="54.961" viewBox="0 0 76.741 54.961">
  <defs>
    <clipPath id="clip-path">
      <path id="Trazado_677140" data-name="Trazado 677140" d="M53.637,440.23c-8.626,4.981-22.612,4.981-31.239,0-8.09-4.671-8.593-12.063-1.508-17.073a44.453,44.453,0,0,0-9.457,4,30.072,30.072,0,0,0-5.553,4.053H.193v11.612c0,5.669,3.747,11.338,11.239,15.663,14.985,8.651,39.28,8.651,54.263,0,7.493-4.326,11.238-10,11.238-15.664V431.212H71.246a30.125,30.125,0,0,0-5.552-4.053,45.881,45.881,0,0,0-11.334-4.526c7.893,5.005,7.654,12.76-.723,17.6" transform="translate(-0.193 -422.634)" fill="none"/>
    </clipPath>
    <linearGradient id="linear-gradient" x1="-0.002" y1="3.372" x2="0.008" y2="3.372" gradientUnits="objectBoundingBox">
      <stop offset="0" stop-color="#babcfc"/>
      <stop offset="0.126" stop-color="#a5a8f3"/>
      <stop offset="0.369" stop-color="#8489e4"/>
      <stop offset="0.601" stop-color="#6d73da"/>
      <stop offset="0.817" stop-color="#5e65d4"/>
      <stop offset="1" stop-color="#5a61d2"/>
    </linearGradient>
    <clipPath id="clip-path-2">
      <path id="Trazado_677143" data-name="Trazado 677143" d="M22.671,436.848c-8.627-4.981-8.627-13.055,0-18.036s22.613-4.98,31.239,0,8.627,13.056,0,18.036a31.936,31.936,0,0,1-15.619,3.736,31.927,31.927,0,0,1-15.62-3.736M11.432,412.165c-14.985,8.651-14.984,22.678,0,31.329s39.28,8.651,54.263,0,14.984-22.677,0-31.328c-7.492-4.326-17.313-6.489-27.132-6.489s-19.639,2.162-27.13,6.488" transform="translate(-0.194 -405.677)" fill="none"/>
    </clipPath>
    <linearGradient id="linear-gradient-2" x1="0.043" y1="3.501" x2="0.052" y2="3.501" gradientUnits="objectBoundingBox">
      <stop offset="0" stop-color="#bdbdf3"/>
      <stop offset="0.294" stop-color="#c1c1f3"/>
      <stop offset="0.641" stop-color="#d0d0f6"/>
      <stop offset="1" stop-color="#e7e7fb"/>
    </linearGradient>
    <clipPath id="clip-path-3">
      <path id="Trazado_677146" data-name="Trazado 677146" d="M24.573,435.6c-8.331-4.81-8.331-12.61,0-17.419s21.84-4.81,30.171,0,8.331,12.609,0,17.42A30.847,30.847,0,0,1,39.659,439.2,30.832,30.832,0,0,1,24.573,435.6M14.4,412.305c-13.948,8.054-13.948,21.11,0,29.164s36.564,8.054,50.513,0,13.948-21.11,0-29.165c-6.975-4.026-16.117-6.039-25.258-6.039s-18.281,2.013-25.256,6.039" transform="translate(-3.941 -406.266)" fill="none"/>
    </clipPath>
    <linearGradient id="linear-gradient-3" x1="0.007" y1="3.751" x2="0.017" y2="3.751" xlink:href="#linear-gradient-2"/>
  </defs>
  <g id="Grupo_912649" data-name="Grupo 912649" transform="translate(11488.138 12591.909)">
    <g id="Grupo_909368" data-name="Grupo 909368" transform="translate(-11488.138 -12579.291)">
      <g id="Grupo_909367" data-name="Grupo 909367" clip-path="url(#clip-path)">
        <rect id="Rectángulo_303155" data-name="Rectángulo 303155" width="76.74" height="44.506" transform="translate(0 0)" fill="url(#linear-gradient)"/>
      </g>
    </g>
    <g id="Grupo_909380" data-name="Grupo 909380" transform="translate(-11488.137 -12591.909)">
      <g id="Grupo_909379" data-name="Grupo 909379" clip-path="url(#clip-path-2)">
        <rect id="Rectángulo_303160" data-name="Rectángulo 303160" width="84.233" height="46.469" transform="translate(-3.746)" fill="url(#linear-gradient-2)"/>
      </g>
    </g>
    <g id="Grupo_909384" data-name="Grupo 909384" transform="translate(-11485.349 -12591.472)">
      <g id="Grupo_909383" data-name="Grupo 909383" clip-path="url(#clip-path-3)">
        <rect id="Rectángulo_303162" data-name="Rectángulo 303162" width="78.411" height="43.257" transform="translate(-3.487 0)" fill="url(#linear-gradient-3)"/>
      </g>
    </g>
  </g>
</svg>
