<svg xmlns="http://www.w3.org/2000/svg" xmlns:xlink="http://www.w3.org/1999/xlink" width="509.176" height="450.662" viewBox="0 0 509.176 450.662">
  <defs>
    <clipPath id="clip-path">
      <rect id="Rectángulo_303064" data-name="Rectángulo 303064" width="463.46" height="450.662" fill="none"/>
    </clipPath>
    <clipPath id="clip-path-3">
      <rect id="Rectángulo_303005" data-name="Rectángulo 303005" width="443.986" height="352.138" transform="translate(19.467)" fill="none"/>
    </clipPath>
    <clipPath id="clip-path-7">
      <rect id="Rectángulo_303012" data-name="Rectángulo 303012" width="23.294" height="9.706" transform="translate(108.42 204.49)" fill="none"/>
    </clipPath>
    <clipPath id="clip-path-8">
      <rect id="Rectángulo_303017" data-name="Rectángulo 303017" width="23.294" height="9.705" transform="translate(108.42 226.49)" fill="none"/>
    </clipPath>
    <clipPath id="clip-path-9">
      <rect id="Rectángulo_303049" data-name="Rectángulo 303049" width="140.098" height="80.806" transform="translate(184.936 132.362)" fill="none"/>
    </clipPath>
    <clipPath id="clip-path-10">
      <rect id="Rectángulo_303055" data-name="Rectángulo 303055" width="146.482" height="207.084" transform="translate(83.66 70.781)" fill="none"/>
    </clipPath>
    <clipPath id="clip-path-11">
      <rect id="Rectángulo_303056" data-name="Rectángulo 303056" width="121.272" height="207.084" transform="translate(138.582 70.781)" fill="none"/>
    </clipPath>
  </defs>
  <g id="Grupo_912685" data-name="Grupo 912685" transform="translate(-4287.856 13261)">
    <g id="Grupo_912683" data-name="Grupo 912683" transform="translate(4287.856 -13261)">
      <g id="Grupo_909183" data-name="Grupo 909183" clip-path="url(#clip-path)">
        <g id="Grupo_909159" data-name="Grupo 909159">
          <g id="Grupo_909158" data-name="Grupo 909158" clip-path="url(#clip-path)">
            <g id="Grupo_909157" data-name="Grupo 909157" opacity="0.35" style="isolation: isolate">
              <g id="Grupo_909156" data-name="Grupo 909156">
                <g id="Grupo_909155" data-name="Grupo 909155" clip-path="url(#clip-path-3)">
                  <path id="Trazado_676387" data-name="Trazado 676387" d="M442.911,67.684C418.884,25.113,368.791,3.285,318.746.375,263.259-2.852,212.69,14.688,175.726,53.282c-14.648,15.294-27.885,31.807-44.135,45.726-27.944,23.936-63.01,43.565-87.4,70.64-30.849,34.245-35.086,88.064.2,120.9,12.239,11.39,27.4,19.72,43.035,26.656,38.448,17.058,80.472,26.3,122.734,31.352,47.64,5.7,97.322,6.012,142.255-9.753,99.143-34.784,125.6-148.64,104.028-236.537a136.756,136.756,0,0,0-13.534-34.586" fill="#efc842"/>
                  <g id="Grupo_909154" data-name="Grupo 909154" opacity="0.7">
                    <g id="Grupo_909153" data-name="Grupo 909153">
                      <g id="Grupo_909152" data-name="Grupo 909152" clip-path="url(#clip-path-3)">
                        <path id="Trazado_676388" data-name="Trazado 676388" d="M442.911,67.684C418.884,25.113,368.791,3.285,318.746.375,263.259-2.852,212.69,14.688,175.726,53.282c-14.648,15.294-27.885,31.807-44.135,45.726-27.944,23.936-63.01,43.565-87.4,70.64-30.849,34.245-35.086,88.064.2,120.9,12.239,11.39,27.4,19.72,43.035,26.656,38.448,17.058,80.472,26.3,122.734,31.352,47.64,5.7,97.322,6.012,142.255-9.753,99.143-34.784,125.6-148.64,104.028-236.537a136.756,136.756,0,0,0-13.534-34.586" fill="#efc842"/>
                      </g>
                    </g>
                  </g>
                </g>
              </g>
            </g>
          </g>
        </g>
        <g id="Grupo_909161" data-name="Grupo 909161">
          <g id="Grupo_909160" data-name="Grupo 909160" clip-path="url(#clip-path)">
            <path id="Trazado_676389" data-name="Trazado 676389" d="M461.73,21.615H441.674V16.151a.606.606,0,0,0-.606-.606H419.175a.606.606,0,0,0-.606.606v5.464h-6.3a1.242,1.242,0,0,0-1.242,1.243V53.671h51.949V22.858A1.243,1.243,0,0,0,461.73,21.615Z" fill="none" stroke="#b2b2b2" stroke-miterlimit="10" stroke-width="0.974"/>
            <path id="Trazado_676390" data-name="Trazado 676390" d="M461.73,69.09H441.674V63.626a.606.606,0,0,0-.606-.606H419.175a.606.606,0,0,0-.606.606V69.09h-6.3a1.242,1.242,0,0,0-1.242,1.243v30.813h51.949V70.333A1.243,1.243,0,0,0,461.73,69.09Z" fill="none" stroke="#b2b2b2" stroke-miterlimit="10" stroke-width="0.974"/>
            <path id="Trazado_676391" data-name="Trazado 676391" d="M461.73,116.565H441.674V111.1a.606.606,0,0,0-.606-.606H419.175a.606.606,0,0,0-.606.606v5.464h-6.3a1.242,1.242,0,0,0-1.242,1.243v30.813h51.949V117.808A1.243,1.243,0,0,0,461.73,116.565Z" fill="none" stroke="#b2b2b2" stroke-miterlimit="10" stroke-width="0.974"/>
            <path id="Trazado_676392" data-name="Trazado 676392" d="M61.85,208l-4.195-.293a26.094,26.094,0,0,0-.4-4.223l4.059-1.088a1.2,1.2,0,0,0,.846-1.465l-.507-1.892a1.2,1.2,0,0,0-1.466-.846l-4.051,1.085a25.869,25.869,0,0,0-1.765-3.86l3.481-2.348a1.2,1.2,0,0,0,.323-1.662l-1.1-1.623a1.2,1.2,0,0,0-1.661-.323l-3.485,2.35a26.06,26.06,0,0,0-2.919-3.078l2.528-3.356a1.2,1.2,0,0,0-.235-1.676l-1.564-1.179a1.2,1.2,0,0,0-1.676.236l-2.529,3.355a25.769,25.769,0,0,0-3.76-1.967l1.295-3.988a1.2,1.2,0,0,0-.768-1.508l-1.863-.6a1.2,1.2,0,0,0-1.508.769l-1.3,3.994a25.929,25.929,0,0,0-3.745-.589v-4.2a1.2,1.2,0,0,0-1.2-1.2H30.734a1.2,1.2,0,0,0-1.2,1.2v4.2a25.89,25.89,0,0,0-4.187.691l-1.366-3.966a1.2,1.2,0,0,0-1.521-.742l-1.852.638a1.2,1.2,0,0,0-.742,1.521l1.367,3.97a25.828,25.828,0,0,0-3.727,2.027l-2.587-3.311a1.2,1.2,0,0,0-1.68-.206L11.7,184.047a1.2,1.2,0,0,0-.207,1.679l2.588,3.312a26.214,26.214,0,0,0-2.865,3.129l-3.526-2.29a1.2,1.2,0,0,0-1.656.352l-1.066,1.642a1.2,1.2,0,0,0,.352,1.656l3.519,2.285a25.747,25.747,0,0,0-1.69,3.894L3.074,198.69a1.2,1.2,0,0,0-1.451.872l-.474,1.9a1.2,1.2,0,0,0,.872,1.451l4.074,1.015a26.109,26.109,0,0,0-.334,4.145c0,.029,0,.057,0,.086l-4.185.366a1.2,1.2,0,0,0-1.088,1.3l.171,1.951a1.2,1.2,0,0,0,1.3,1.088l4.186-.367A25.807,25.807,0,0,0,7.2,216.6l-3.835,1.707a1.2,1.2,0,0,0-.606,1.58l.8,1.789a1.2,1.2,0,0,0,1.58.607l3.834-1.707a25.932,25.932,0,0,0,2.349,3.534l-3.075,2.868a1.2,1.2,0,0,0-.06,1.691L9.522,230.1a1.2,1.2,0,0,0,1.692.059l3.07-2.863a26.087,26.087,0,0,0,3.369,2.58l-1.973,3.711a1.2,1.2,0,0,0,.495,1.618l1.729.92a1.2,1.2,0,0,0,1.619-.5l1.969-3.7a25.7,25.7,0,0,0,4.026,1.344l-.656,4.146a1.2,1.2,0,0,0,.994,1.369l1.935.307a1.2,1.2,0,0,0,1.369-.995l.658-4.154c.626.046,1.257.077,1.895.077.792,0,1.573-.041,2.347-.111l.73,4.139a1.2,1.2,0,0,0,1.386.971l1.929-.34a1.2,1.2,0,0,0,.971-1.387l-.729-4.131a25.746,25.746,0,0,0,4-1.421l2.036,3.673a1.2,1.2,0,0,0,1.627.466l1.713-.949a1.2,1.2,0,0,0,.467-1.627l-2.035-3.671a26.13,26.13,0,0,0,3.316-2.647L52.6,229.8a1.2,1.2,0,0,0,1.69-.088l1.31-1.456a1.2,1.2,0,0,0-.088-1.69l-3.122-2.811a25.985,25.985,0,0,0,2.282-3.578l3.865,1.641a1.2,1.2,0,0,0,1.569-.634l.765-1.8a1.2,1.2,0,0,0-.634-1.569l-3.864-1.64a25.708,25.708,0,0,0,.993-4.127l4.185.293a1.2,1.2,0,0,0,1.278-1.111l.136-1.953A1.2,1.2,0,0,0,61.85,208ZM31.713,222.638a14.565,14.565,0,1,1,14.565-14.565A14.565,14.565,0,0,1,31.713,222.638Z" fill="none" stroke="#b2b2b2" stroke-miterlimit="10" stroke-width="0.974"/>
            <path id="Trazado_676393" data-name="Trazado 676393" d="M99.5,229.128l-2.75-.192a17.037,17.037,0,0,0-.264-2.768l2.66-.713a.784.784,0,0,0,.555-.96l-.333-1.24a.784.784,0,0,0-.96-.555l-2.655.711a16.918,16.918,0,0,0-1.157-2.529l2.282-1.54a.783.783,0,0,0,.211-1.088l-.718-1.065a.783.783,0,0,0-1.088-.211L93,218.518a17.134,17.134,0,0,0-1.914-2.017l1.658-2.2a.785.785,0,0,0-.155-1.1l-1.025-.772a.783.783,0,0,0-1.1.154l-1.657,2.2a17.023,17.023,0,0,0-2.465-1.29l.849-2.613a.784.784,0,0,0-.5-.988l-1.22-.4a.785.785,0,0,0-.989.5l-.85,2.618a16.97,16.97,0,0,0-2.455-.386v-2.756a.784.784,0,0,0-.784-.784H79.11a.784.784,0,0,0-.784.784v2.756a16.987,16.987,0,0,0-2.744.453l-.9-2.6a.785.785,0,0,0-1-.486l-1.214.418a.784.784,0,0,0-.486,1l.9,2.6a16.982,16.982,0,0,0-2.443,1.328l-1.7-2.17a.784.784,0,0,0-1.1-.135l-1.011.79a.784.784,0,0,0-.135,1.1l1.7,2.171a17.053,17.053,0,0,0-1.878,2.051l-2.311-1.5a.784.784,0,0,0-1.085.23l-.7,1.077a.784.784,0,0,0,.23,1.085l2.307,1.5a16.9,16.9,0,0,0-1.108,2.552l-2.67-.666a.785.785,0,0,0-.951.571l-.31,1.245a.784.784,0,0,0,.571.951l2.67.666a17.123,17.123,0,0,0-.218,2.716v.057l-2.742.24a.783.783,0,0,0-.713.849L59.4,231.6a.785.785,0,0,0,.85.713l2.743-.24a16.883,16.883,0,0,0,.694,2.693l-2.513,1.119a.785.785,0,0,0-.4,1.036l.523,1.172a.784.784,0,0,0,1.035.4l2.513-1.119a17.018,17.018,0,0,0,1.539,2.316l-2.015,1.88a.783.783,0,0,0-.039,1.108l.875.939a.785.785,0,0,0,1.109.039l2.012-1.877a17.21,17.21,0,0,0,2.208,1.691L69.244,245.9a.786.786,0,0,0,.324,1.061l1.134.6a.785.785,0,0,0,1.061-.324l1.29-2.427a16.882,16.882,0,0,0,2.639.88l-.43,2.718a.784.784,0,0,0,.652.9l1.267.2a.785.785,0,0,0,.9-.652l.431-2.722c.411.029.824.05,1.242.05.519,0,1.031-.027,1.538-.073l.478,2.713a.785.785,0,0,0,.909.636l1.264-.223a.783.783,0,0,0,.636-.909l-.477-2.707a16.875,16.875,0,0,0,2.621-.931l1.334,2.407a.785.785,0,0,0,1.067.306l1.122-.623a.784.784,0,0,0,.306-1.066l-1.334-2.406a17,17,0,0,0,2.174-1.735l2.048,1.844a.784.784,0,0,0,1.108-.058l.858-.954a.784.784,0,0,0-.058-1.108L93.3,239.456a17.07,17.07,0,0,0,1.5-2.345l2.533,1.076a.784.784,0,0,0,1.028-.416l.5-1.181a.785.785,0,0,0-.416-1.029l-2.532-1.075a16.988,16.988,0,0,0,.651-2.7l2.743.192a.785.785,0,0,0,.837-.728l.089-1.28A.783.783,0,0,0,99.5,229.128Zm-19.752,9.594a9.546,9.546,0,1,1,9.546-9.546A9.546,9.546,0,0,1,79.752,238.722Z" fill="none" stroke="#b2b2b2" stroke-miterlimit="10" stroke-width="0.974"/>
            <path id="Trazado_676394" data-name="Trazado 676394" d="M159.877,38.737H79.017a2.995,2.995,0,0,1,0-5.99h80.86a2.995,2.995,0,0,1,0,5.99Z" fill="none" stroke="#b2b2b2" stroke-miterlimit="10" stroke-width="0.974"/>
            <path id="Trazado_676395" data-name="Trazado 676395" d="M152.778,35.743a3.052,3.052,0,1,0-3.053,3.052A3.053,3.053,0,0,0,152.778,35.743Z" fill="none" stroke="#b2b2b2" stroke-miterlimit="10" stroke-width="0.974"/>
            <path id="Trazado_676396" data-name="Trazado 676396" d="M159.877,28.359H79.017a2.995,2.995,0,0,1,0-5.99h80.86a2.995,2.995,0,0,1,0,5.99Z" fill="none" stroke="#b2b2b2" stroke-miterlimit="10" stroke-width="0.974"/>
            <path id="Trazado_676397" data-name="Trazado 676397" d="M114.927,25.364a3.053,3.053,0,1,0-3.053,3.053A3.052,3.052,0,0,0,114.927,25.364Z" fill="none" stroke="#b2b2b2" stroke-miterlimit="10" stroke-width="0.974"/>
          </g>
        </g>
        <g id="Grupo_909178" data-name="Grupo 909178">
          <g id="Grupo_909177" data-name="Grupo 909177" clip-path="url(#clip-path)">
            <path id="Trazado_676398" data-name="Trazado 676398" d="M416.895,382.331c0,7.293-74.289,13.206-165.93,13.206S85.036,389.624,85.036,382.331s74.289-13.206,165.929-13.206,165.93,5.913,165.93,13.206" fill="#263238"/>
            <rect id="Rectángulo_303008" data-name="Rectángulo 303008" width="337.169" height="194.474" transform="translate(84.243 73.371)" fill="#345995"/>
            <rect id="Rectángulo_303009" data-name="Rectángulo 303009" width="108.704" height="45.94" transform="translate(95.479 193.606)" fill="#fff"/>
            <rect id="Rectángulo_303010" data-name="Rectángulo 303010" width="108.704" height="7.764" transform="translate(95.479 191.018)" fill="#263238"/>
            <path id="Trazado_676399" data-name="Trazado 676399" d="M100.233,194.959a1.213,1.213,0,1,1-1.213-1.213,1.213,1.213,0,0,1,1.213,1.213" fill="#82cede"/>
            <path id="Trazado_676400" data-name="Trazado 676400" d="M105.691,194.959a1.213,1.213,0,1,1-1.213-1.213,1.213,1.213,0,0,1,1.213,1.213" fill="#82cede"/>
            <path id="Trazado_676401" data-name="Trazado 676401" d="M111.15,194.959a1.213,1.213,0,1,1-1.213-1.213,1.213,1.213,0,0,1,1.213,1.213" fill="#82cede"/>
            <g id="Grupo_909164" data-name="Grupo 909164" opacity="0.7">
              <g id="Grupo_909163" data-name="Grupo 909163">
                <g id="Grupo_909162" data-name="Grupo 909162" clip-path="url(#clip-path-7)">
                  <rect id="Rectángulo_303011" data-name="Rectángulo 303011" width="23.294" height="9.706" transform="translate(108.42 204.49)" fill="#efc842"/>
                </g>
              </g>
            </g>
            <rect id="Rectángulo_303013" data-name="Rectángulo 303013" width="37.529" height="19.411" transform="translate(101.302 211.285)" fill="#525252"/>
            <rect id="Rectángulo_303014" data-name="Rectángulo 303014" width="23.294" height="6.47" transform="translate(108.42 211.285)" fill="#757575"/>
            <rect id="Rectángulo_303015" data-name="Rectángulo 303015" width="23.294" height="9.706" transform="translate(108.42 220.99)" fill="#263238"/>
            <g id="Grupo_909167" data-name="Grupo 909167" opacity="0.7">
              <g id="Grupo_909166" data-name="Grupo 909166">
                <g id="Grupo_909165" data-name="Grupo 909165" clip-path="url(#clip-path-8)">
                  <rect id="Rectángulo_303016" data-name="Rectángulo 303016" width="23.294" height="9.706" transform="translate(108.42 226.489)" fill="#efc842"/>
                </g>
              </g>
            </g>
            <rect id="Rectángulo_303018" data-name="Rectángulo 303018" width="23.941" height="8.412" transform="translate(145.949 220.342)" fill="#ccc"/>
            <rect id="Rectángulo_303019" data-name="Rectángulo 303019" width="23.941" height="8.412" transform="translate(173.772 220.342)" fill="#82cede"/>
            <path id="Trazado_676402" data-name="Trazado 676402" d="M147.218,207.483c1.049,0,1.457.661,1.457,1.652v.738c0,1.079-.5,1.613-1.574,1.613h-.845v2.8h-.447v-6.8Zm-.117,3.6c.787,0,1.127-.35,1.127-1.176v-.8c0-.739-.252-1.215-1.01-1.215h-.962v3.187Z" fill="#263238"/>
            <path id="Trazado_676403" data-name="Trazado 676403" d="M150.767,207.483c1.04,0,1.457.573,1.457,1.535v.593a1.241,1.241,0,0,1-.981,1.409,1.231,1.231,0,0,1,.981,1.389v1.059a1.526,1.526,0,0,0,.166.817h-.467a1.6,1.6,0,0,1-.146-.817V212.4c0-.9-.495-1.157-1.273-1.157h-.709v3.042h-.447v-6.8Zm-.253,3.352c.8,0,1.263-.223,1.263-1.137v-.641c0-.729-.281-1.166-1.02-1.166h-.962v2.944Z" fill="#263238"/>
            <rect id="Rectángulo_303020" data-name="Rectángulo 303020" width="0.447" height="6.802" transform="translate(153.1 207.482)" fill="#263238"/>
            <path id="Trazado_676404" data-name="Trazado 676404" d="M154.734,214.284h-.408v-6.8h.583l2.04,5.743v-5.743h.408v6.8h-.495l-2.128-6.063Z" fill="#263238"/>
            <path id="Trazado_676405" data-name="Trazado 676405" d="M159.273,214.284v-6.393h-1.38v-.409h3.216v.409H159.72v6.393Z" fill="#263238"/>
            <path id="Trazado_676406" data-name="Trazado 676406" d="M163.969,210.631v.408h-1.856v2.837h2.235v.409h-2.682v-6.8h2.682v.408h-2.235v2.74Z" fill="#263238"/>
            <path id="Trazado_676407" data-name="Trazado 676407" d="M166.5,207.483c1.039,0,1.457.573,1.457,1.535v.593a1.241,1.241,0,0,1-.981,1.409,1.232,1.232,0,0,1,.981,1.389v1.059a1.526,1.526,0,0,0,.166.817h-.467a1.594,1.594,0,0,1-.146-.817V212.4c0-.9-.5-1.157-1.273-1.157h-.709v3.042h-.447v-6.8Zm-.253,3.352c.8,0,1.263-.223,1.263-1.137v-.641c0-.729-.281-1.166-1.02-1.166h-.962v2.944Z" fill="#263238"/>
            <rect id="Rectángulo_303021" data-name="Rectángulo 303021" width="140.097" height="87.035" transform="translate(229.43 84.587)" fill="#263238"/>
            <rect id="Rectángulo_303022" data-name="Rectángulo 303022" width="140.097" height="80.806" transform="translate(229.43 84.586)" fill="#fff"/>
            <rect id="Rectángulo_303023" data-name="Rectángulo 303023" width="32.749" height="80.806" transform="translate(229.43 84.586)" fill="#ccc"/>
            <rect id="Rectángulo_303024" data-name="Rectángulo 303024" width="140.097" height="22.671" transform="translate(229.43 82.785)" fill="#263238"/>
            <path id="Trazado_676408" data-name="Trazado 676408" d="M236.452,87.076a1.348,1.348,0,1,1-1.348-1.348,1.347,1.347,0,0,1,1.348,1.348" fill="#82cede"/>
            <path id="Trazado_676409" data-name="Trazado 676409" d="M242.518,87.076a1.348,1.348,0,1,1-1.348-1.348,1.348,1.348,0,0,1,1.348,1.348" fill="#82cede"/>
            <path id="Trazado_676410" data-name="Trazado 676410" d="M248.584,87.076a1.348,1.348,0,1,1-1.348-1.348,1.348,1.348,0,0,1,1.348,1.348" fill="#82cede"/>
            <path id="Trazado_676411" data-name="Trazado 676411" d="M361.519,97.792H332.107a3.9,3.9,0,1,1,0-7.8h29.412a3.9,3.9,0,1,1,0,7.8" fill="#fff"/>
            <path id="Trazado_676412" data-name="Trazado 676412" d="M361.519,97.792H332.107a3.9,3.9,0,1,1,0-7.8h29.412a3.9,3.9,0,1,1,0,7.8Z" fill="none" stroke="#263238" stroke-miterlimit="10" stroke-width="0.966"/>
            <rect id="Rectángulo_303025" data-name="Rectángulo 303025" width="8.403" height="6.003" transform="translate(311.999 90.588)" fill="#696969"/>
            <rect id="Rectángulo_303026" data-name="Rectángulo 303026" width="8.403" height="6.003" transform="translate(311.999 90.588)" fill="none" stroke="#263238" stroke-miterlimit="10" stroke-width="0.966"/>
            <rect id="Rectángulo_303027" data-name="Rectángulo 303027" width="8.404" height="6.003" transform="translate(295.276 90.588)" fill="#696969"/>
            <rect id="Rectángulo_303028" data-name="Rectángulo 303028" width="8.404" height="6.003" transform="translate(295.276 90.588)" fill="none" stroke="#263238" stroke-miterlimit="10" stroke-width="0.966"/>
            <rect id="Rectángulo_303029" data-name="Rectángulo 303029" width="8.404" height="6.003" transform="translate(232.767 90.588)" fill="#696969"/>
            <rect id="Rectángulo_303030" data-name="Rectángulo 303030" width="8.404" height="6.003" transform="translate(232.767 90.588)" fill="none" stroke="#263238" stroke-miterlimit="10" stroke-width="0.966"/>
            <rect id="Rectángulo_303031" data-name="Rectángulo 303031" width="8.404" height="6.003" transform="translate(241.77 90.588)" fill="#696969"/>
            <rect id="Rectángulo_303032" data-name="Rectángulo 303032" width="8.404" height="6.003" transform="translate(241.77 90.588)" fill="none" stroke="#263238" stroke-miterlimit="10" stroke-width="0.966"/>
            <path id="Trazado_676413" data-name="Trazado 676413" d="M281.447,122.675h-14.1v-7.928a.769.769,0,0,1,.77-.769h12.555a.769.769,0,0,1,.77.769Z" fill="#ccc"/>
            <path id="Trazado_676414" data-name="Trazado 676414" d="M275.293,115.6h-5.518a.375.375,0,0,1-.375-.375v-2.514a.375.375,0,0,1,.375-.376h5.518a.375.375,0,0,1,.375.376v2.514a.375.375,0,0,1-.375.375" fill="#ccc"/>
            <path id="Trazado_676415" data-name="Trazado 676415" d="M311.61,122.675H297.515v-7.928a.769.769,0,0,1,.77-.769H310.84a.769.769,0,0,1,.77.769Z" fill="#ccc"/>
            <path id="Trazado_676416" data-name="Trazado 676416" d="M305.456,115.6h-5.518a.375.375,0,0,1-.376-.375v-2.514a.376.376,0,0,1,.376-.376h5.518a.375.375,0,0,1,.375.376v2.514a.375.375,0,0,1-.375.375" fill="#ccc"/>
            <path id="Trazado_676417" data-name="Trazado 676417" d="M341.772,122.675h-14.1v-7.928a.769.769,0,0,1,.77-.769H341a.769.769,0,0,1,.77.769Z" fill="#ccc"/>
            <path id="Trazado_676418" data-name="Trazado 676418" d="M335.618,115.6H330.1a.375.375,0,0,1-.375-.375v-2.514a.375.375,0,0,1,.375-.376h5.518a.375.375,0,0,1,.375.376v2.514a.375.375,0,0,1-.375.375" fill="#ccc"/>
            <path id="Trazado_676419" data-name="Trazado 676419" d="M281.447,142.483h-14.1v-7.928a.769.769,0,0,1,.77-.769h12.555a.769.769,0,0,1,.77.769Z" fill="#ccc"/>
            <path id="Trazado_676420" data-name="Trazado 676420" d="M275.293,135.4h-5.518a.375.375,0,0,1-.375-.375v-2.515a.375.375,0,0,1,.375-.375h5.518a.375.375,0,0,1,.375.375v2.515a.375.375,0,0,1-.375.375" fill="#ccc"/>
            <path id="Trazado_676421" data-name="Trazado 676421" d="M311.61,142.483H297.515v-7.928a.769.769,0,0,1,.77-.769H310.84a.769.769,0,0,1,.77.769Z" fill="#ccc"/>
            <path id="Trazado_676422" data-name="Trazado 676422" d="M305.456,135.4h-5.518a.375.375,0,0,1-.376-.375v-2.515a.375.375,0,0,1,.376-.375h5.518a.375.375,0,0,1,.375.375v2.515a.375.375,0,0,1-.375.375" fill="#ccc"/>
            <path id="Trazado_676423" data-name="Trazado 676423" d="M360.844,168.771h-24.76a.675.675,0,1,1,0-1.35h24.76a.675.675,0,1,1,0,1.35" fill="#c4c4c4"/>
            <path id="Trazado_676424" data-name="Trazado 676424" d="M341.537,168.081a.886.886,0,1,1-.886-.886.886.886,0,0,1,.886.886" fill="#263238"/>
            <rect id="Rectángulo_303033" data-name="Rectángulo 303033" width="138.127" height="66.618" transform="translate(266.448 193.112)" fill="#263238"/>
            <rect id="Rectángulo_303034" data-name="Rectángulo 303034" width="138.127" height="60.476" transform="translate(266.448 193.112)" fill="#fff"/>
            <rect id="Rectángulo_303035" data-name="Rectángulo 303035" width="138.127" height="22.352" transform="translate(266.448 191.337)" fill="#263238"/>
            <path id="Trazado_676425" data-name="Trazado 676425" d="M273.372,195.567a1.329,1.329,0,1,1-1.329-1.329,1.329,1.329,0,0,1,1.329,1.329" fill="#92e3a9"/>
            <path id="Trazado_676426" data-name="Trazado 676426" d="M279.352,195.567a1.329,1.329,0,1,1-1.329-1.329,1.329,1.329,0,0,1,1.329,1.329" fill="#92e3a9"/>
            <path id="Trazado_676427" data-name="Trazado 676427" d="M285.333,195.567A1.329,1.329,0,1,1,284,194.238a1.329,1.329,0,0,1,1.329,1.329" fill="#92e3a9"/>
            <path id="Trazado_676428" data-name="Trazado 676428" d="M396.947,206.132H367.414a3.58,3.58,0,0,1-3.58-3.58v-.534a3.58,3.58,0,0,1,3.58-3.58h29.533a3.579,3.579,0,0,1,3.579,3.58v.534a3.579,3.579,0,0,1-3.579,3.58" fill="#fff"/>
            <path id="Rectángulo_303036" data-name="Rectángulo 303036" d="M3.58,0H33.112a3.58,3.58,0,0,1,3.58,3.58v.534a3.58,3.58,0,0,1-3.58,3.58H3.579A3.579,3.579,0,0,1,0,4.115V3.58A3.58,3.58,0,0,1,3.58,0Z" transform="translate(363.834 198.438)" fill="none" stroke="#263238" stroke-miterlimit="10" stroke-width="0.966"/>
            <rect id="Rectángulo_303037" data-name="Rectángulo 303037" width="8.285" height="5.918" transform="translate(269.738 199.03)" fill="#696969"/>
            <rect id="Rectángulo_303038" data-name="Rectángulo 303038" width="8.285" height="5.918" transform="translate(269.738 199.03)" fill="none" stroke="#263238" stroke-miterlimit="10" stroke-width="0.966"/>
            <rect id="Rectángulo_303039" data-name="Rectángulo 303039" width="8.285" height="5.918" transform="translate(278.615 199.03)" fill="#696969"/>
            <rect id="Rectángulo_303040" data-name="Rectángulo 303040" width="8.285" height="5.918" transform="translate(278.615 199.03)" fill="none" stroke="#263238" stroke-miterlimit="10" stroke-width="0.966"/>
            <rect id="Rectángulo_303041" data-name="Rectángulo 303041" width="15.564" height="5.918" transform="translate(288.383 199.03)" fill="#696969"/>
            <rect id="Rectángulo_303042" data-name="Rectángulo 303042" width="15.564" height="5.918" transform="translate(288.383 199.03)" fill="none" stroke="#263238" stroke-miterlimit="10" stroke-width="0.966"/>
            <path id="Trazado_676429" data-name="Trazado 676429" d="M302.945,248.082h-12l2.449-3.6V241.2h7.1v3.4Z" fill="#969696"/>
            <rect id="Rectángulo_303043" data-name="Rectángulo 303043" width="34.834" height="27.977" transform="translate(279.528 215.766)" fill="#ccc"/>
            <rect id="Rectángulo_303044" data-name="Rectángulo 303044" width="34.834" height="23.003" transform="translate(279.528 215.766)" fill="#263238"/>
            <rect id="Rectángulo_303045" data-name="Rectángulo 303045" width="30.675" height="18.029" transform="translate(281.608 218.254)" fill="#345995"/>
            <path id="Trazado_676430" data-name="Trazado 676430" d="M394.045,228.786H329.057a1.239,1.239,0,0,1-1.239-1.239v-.185a1.239,1.239,0,0,1,1.239-1.239h64.988a1.239,1.239,0,0,1,1.239,1.239v.185a1.239,1.239,0,0,1-1.239,1.239" fill="#969696"/>
            <path id="Trazado_676431" data-name="Trazado 676431" d="M387.3,227.455a3.551,3.551,0,1,0-3.551,3.551,3.551,3.551,0,0,0,3.551-3.551" fill="#ccc"/>
            <rect id="Rectángulo_303046" data-name="Rectángulo 303046" width="97.24" height="100.841" transform="translate(95.479 82.083)" fill="#131b25"/>
            <rect id="Rectángulo_303047" data-name="Rectángulo 303047" width="97.24" height="8.068" transform="translate(95.479 82.083)" fill="#fff"/>
            <path id="Trazado_676432" data-name="Trazado 676432" d="M104.428,96.954h-2.839a.7.7,0,1,1,0-1.4h2.839a.7.7,0,1,1,0,1.4m.7,2.545a.7.7,0,0,0-.7-.7h-2.839a.7.7,0,1,0,0,1.4h2.839a.7.7,0,0,0,.7-.7m0,3.245a.7.7,0,0,0-.7-.7h-2.839a.7.7,0,1,0,0,1.4h2.839a.7.7,0,0,0,.7-.7m0,3.246a.7.7,0,0,0-.7-.7h-2.839a.7.7,0,1,0,0,1.4h2.839a.7.7,0,0,0,.7-.7m0,3.245a.7.7,0,0,0-.7-.7h-2.839a.7.7,0,1,0,0,1.4h2.839a.7.7,0,0,0,.7-.7m0,3.245a.7.7,0,0,0-.7-.7h-2.839a.7.7,0,1,0,0,1.4h2.839a.7.7,0,0,0,.7-.7m0,3.246a.7.7,0,0,0-.7-.7h-2.839a.7.7,0,1,0,0,1.4h2.839a.7.7,0,0,0,.7-.7m0,3.245a.7.7,0,0,0-.7-.7h-2.839a.7.7,0,1,0,0,1.4h2.839a.7.7,0,0,0,.7-.7m10.623-22.717a.7.7,0,0,0-.7-.7H107.6a.7.7,0,0,0,0,1.4h7.455a.7.7,0,0,0,.7-.7m0,3.245a.7.7,0,0,0-.7-.7H107.6a.7.7,0,1,0,0,1.4h7.455a.7.7,0,0,0,.7-.7m0,3.245a.7.7,0,0,0-.7-.7H107.6a.7.7,0,0,0,0,1.4h7.455a.7.7,0,0,0,.7-.7m0,3.246a.7.7,0,0,0-.7-.7H107.6a.7.7,0,0,0,0,1.4h7.455a.7.7,0,0,0,.7-.7m0,3.245a.7.7,0,0,0-.7-.7H107.6a.7.7,0,0,0,0,1.4h7.455a.7.7,0,0,0,.7-.7m8.924,3.245a.7.7,0,0,0-.7-.7h-7.454a.7.7,0,0,0,0,1.4h7.454a.7.7,0,0,0,.7-.7m0,3.246a.7.7,0,0,0-.7-.7h-7.454a.7.7,0,0,0,0,1.4h7.454a.7.7,0,0,0,.7-.7m0,3.245a.7.7,0,0,0-.7-.7h-7.454a.7.7,0,1,0,0,1.4h7.454a.7.7,0,0,0,.7-.7m-5.644-22.717a.811.811,0,1,0-.811.811.811.811,0,0,0,.811-.811m2.434,0a.811.811,0,1,0-.811.811.811.811,0,0,0,.811-.811m2.434,0a.811.811,0,1,0-.811.811.811.811,0,0,0,.811-.811m2.434,0a.812.812,0,1,0-.811.811.811.811,0,0,0,.811-.811m2.434,0a.811.811,0,1,0-.811.811.811.811,0,0,0,.811-.811m2.434,0a.812.812,0,1,0-.811.811.811.811,0,0,0,.811-.811m-12.17,6.491a.811.811,0,1,0-.811.811.811.811,0,0,0,.811-.811m2.434,0a.811.811,0,1,0-.811.811.811.811,0,0,0,.811-.811m2.434,0a.811.811,0,1,0-.811.811.811.811,0,0,0,.811-.811m2.434,0a.812.812,0,1,0-.811.811.811.811,0,0,0,.811-.811m2.434,0a.811.811,0,1,0-.811.811.811.811,0,0,0,.811-.811m2.434,0a.812.812,0,1,0-.811.811.811.811,0,0,0,.811-.811m-3.854,9.33a.811.811,0,1,0-.811.811.812.812,0,0,0,.811-.811m2.434,0a.811.811,0,1,0-.811.811.812.812,0,0,0,.811-.811m2.434,0a.811.811,0,1,0-.811.811.812.812,0,0,0,.811-.811m2.434,0a.811.811,0,1,0-.811.811.812.812,0,0,0,.811-.811m2.434,0a.812.812,0,1,0-.811.811.812.812,0,0,0,.811-.811m2.434,0a.811.811,0,1,0-.811.811.812.812,0,0,0,.811-.811m-12.17,6.693a.811.811,0,1,0-.811.811.811.811,0,0,0,.811-.811m2.434,0a.811.811,0,1,0-.811.811.811.811,0,0,0,.811-.811m2.434,0a.811.811,0,1,0-.811.811.811.811,0,0,0,.811-.811m2.434,0a.811.811,0,1,0-.811.811.811.811,0,0,0,.811-.811m2.434,0a.812.812,0,1,0-.811.811.811.811,0,0,0,.811-.811m2.434,0a.811.811,0,1,0-.811.811.811.811,0,0,0,.811-.811" fill="#82cede"/>
            <path id="Trazado_676433" data-name="Trazado 676433" d="M104.428,122.923h-2.839a.7.7,0,1,1,0-1.4h2.839a.7.7,0,1,1,0,1.4m.7,2.545a.7.7,0,0,0-.7-.7h-2.839a.7.7,0,1,0,0,1.4h2.839a.7.7,0,0,0,.7-.7m0,3.245a.7.7,0,0,0-.7-.7h-2.839a.7.7,0,1,0,0,1.4h2.839a.7.7,0,0,0,.7-.7m0,3.246a.7.7,0,0,0-.7-.7h-2.839a.7.7,0,1,0,0,1.4h2.839a.7.7,0,0,0,.7-.7m0,3.245a.7.7,0,0,0-.7-.7h-2.839a.7.7,0,1,0,0,1.4h2.839a.7.7,0,0,0,.7-.7m0,3.246a.7.7,0,0,0-.7-.7h-2.839a.7.7,0,1,0,0,1.4h2.839a.7.7,0,0,0,.7-.7m0,3.245a.7.7,0,0,0-.7-.7h-2.839a.7.7,0,1,0,0,1.4h2.839a.7.7,0,0,0,.7-.7m0,3.245a.7.7,0,0,0-.7-.7h-2.839a.7.7,0,1,0,0,1.4h2.839a.7.7,0,0,0,.7-.7m10.623-22.717a.7.7,0,0,0-.7-.7H107.6a.7.7,0,1,0,0,1.4h7.455a.7.7,0,0,0,.7-.7m0,3.245a.7.7,0,0,0-.7-.7H107.6a.7.7,0,0,0,0,1.4h7.455a.7.7,0,0,0,.7-.7m0,3.245a.7.7,0,0,0-.7-.7H107.6a.7.7,0,0,0,0,1.4h7.455a.7.7,0,0,0,.7-.7m0,3.246a.7.7,0,0,0-.7-.7H107.6a.7.7,0,0,0,0,1.4h7.455a.7.7,0,0,0,.7-.7m0,3.245a.7.7,0,0,0-.7-.7H107.6a.7.7,0,0,0,0,1.4h7.455a.7.7,0,0,0,.7-.7m8.924,3.246a.7.7,0,0,0-.7-.7h-7.454a.7.7,0,0,0,0,1.4h7.454a.7.7,0,0,0,.7-.7m0,3.245a.7.7,0,0,0-.7-.7h-7.454a.7.7,0,0,0,0,1.4h7.454a.7.7,0,0,0,.7-.7m0,3.245a.7.7,0,0,0-.7-.7h-7.454a.7.7,0,1,0,0,1.4h7.454a.7.7,0,0,0,.7-.7m-5.644-22.717a.811.811,0,1,0-.811.811.812.812,0,0,0,.811-.811m2.434,0a.811.811,0,1,0-.811.811.812.812,0,0,0,.811-.811m2.434,0a.811.811,0,1,0-.811.811.812.812,0,0,0,.811-.811m2.434,0a.812.812,0,1,0-.811.811.812.812,0,0,0,.811-.811m2.434,0a.811.811,0,1,0-.811.811.812.812,0,0,0,.811-.811m2.434,0a.812.812,0,1,0-.811.811.812.812,0,0,0,.811-.811m-12.17,6.49a.811.811,0,1,0-.811.812.811.811,0,0,0,.811-.812m2.434,0a.811.811,0,1,0-.811.812.811.811,0,0,0,.811-.812m2.434,0a.811.811,0,1,0-.811.812.811.811,0,0,0,.811-.812m2.434,0a.812.812,0,1,0-.811.812.811.811,0,0,0,.811-.812m2.434,0a.811.811,0,1,0-.811.812.811.811,0,0,0,.811-.812m2.434,0a.812.812,0,1,0-.811.812.811.811,0,0,0,.811-.812m-3.854,9.331a.811.811,0,1,0-.811.811.812.812,0,0,0,.811-.811m2.434,0a.811.811,0,1,0-.811.811.812.812,0,0,0,.811-.811m2.434,0a.811.811,0,1,0-.811.811.812.812,0,0,0,.811-.811m2.434,0a.811.811,0,1,0-.811.811.812.812,0,0,0,.811-.811m2.434,0a.812.812,0,1,0-.811.811.812.812,0,0,0,.811-.811m2.434,0a.811.811,0,1,0-.811.811.812.812,0,0,0,.811-.811m-12.17,6.693a.811.811,0,1,0-.811.811.811.811,0,0,0,.811-.811m2.434,0a.811.811,0,1,0-.811.811.811.811,0,0,0,.811-.811m2.434,0a.811.811,0,1,0-.811.811.811.811,0,0,0,.811-.811m2.434,0a.811.811,0,1,0-.811.811.811.811,0,0,0,.811-.811m2.434,0a.812.812,0,1,0-.811.811.811.811,0,0,0,.811-.811m2.434,0a.811.811,0,1,0-.811.811.811.811,0,0,0,.811-.811" fill="#82cede"/>
            <path id="Trazado_676434" data-name="Trazado 676434" d="M104.428,149.519h-2.839a.7.7,0,1,1,0-1.4h2.839a.7.7,0,1,1,0,1.4m.7,2.545a.7.7,0,0,0-.7-.7h-2.839a.7.7,0,1,0,0,1.4h2.839a.7.7,0,0,0,.7-.7m0,3.245a.7.7,0,0,0-.7-.7h-2.839a.7.7,0,1,0,0,1.4h2.839a.7.7,0,0,0,.7-.7m0,3.245a.7.7,0,0,0-.7-.7h-2.839a.7.7,0,1,0,0,1.4h2.839a.7.7,0,0,0,.7-.7m0,3.246a.7.7,0,0,0-.7-.7h-2.839a.7.7,0,1,0,0,1.4h2.839a.7.7,0,0,0,.7-.7m0,3.245a.7.7,0,0,0-.7-.7h-2.839a.7.7,0,1,0,0,1.4h2.839a.7.7,0,0,0,.7-.7m0,3.246a.7.7,0,0,0-.7-.7h-2.839a.7.7,0,1,0,0,1.4h2.839a.7.7,0,0,0,.7-.7m0,3.245a.7.7,0,0,0-.7-.7h-2.839a.7.7,0,1,0,0,1.4h2.839a.7.7,0,0,0,.7-.7m10.623-22.717a.7.7,0,0,0-.7-.7H107.6a.7.7,0,0,0,0,1.4h7.455a.7.7,0,0,0,.7-.7m0,3.245a.7.7,0,0,0-.7-.7H107.6a.7.7,0,0,0,0,1.4h7.455a.7.7,0,0,0,.7-.7m0,3.245a.7.7,0,0,0-.7-.7H107.6a.7.7,0,0,0,0,1.4h7.455a.7.7,0,0,0,.7-.7m0,3.245a.7.7,0,0,0-.7-.7H107.6a.7.7,0,0,0,0,1.4h7.455a.7.7,0,0,0,.7-.7m0,3.246a.7.7,0,0,0-.7-.7H107.6a.7.7,0,0,0,0,1.4h7.455a.7.7,0,0,0,.7-.7m8.924,3.245a.7.7,0,0,0-.7-.7h-7.454a.7.7,0,0,0,0,1.4h7.454a.7.7,0,0,0,.7-.7m0,3.246a.7.7,0,0,0-.7-.7h-7.454a.7.7,0,0,0,0,1.4h7.454a.7.7,0,0,0,.7-.7m0,3.245a.7.7,0,0,0-.7-.7h-7.454a.7.7,0,0,0,0,1.4h7.454a.7.7,0,0,0,.7-.7m-5.644-22.717a.811.811,0,1,0-.811.811.812.812,0,0,0,.811-.811m2.434,0a.811.811,0,1,0-.811.811.812.812,0,0,0,.811-.811m2.434,0a.811.811,0,1,0-.811.811.812.812,0,0,0,.811-.811m2.434,0a.812.812,0,1,0-.811.811.812.812,0,0,0,.811-.811m2.434,0a.811.811,0,1,0-.811.811.812.812,0,0,0,.811-.811m2.434,0a.812.812,0,1,0-.811.811.812.812,0,0,0,.811-.811m-12.17,6.49a.811.811,0,1,0-.811.812.811.811,0,0,0,.811-.812m2.434,0a.811.811,0,1,0-.811.812.811.811,0,0,0,.811-.812m2.434,0a.811.811,0,1,0-.811.812.811.811,0,0,0,.811-.812m2.434,0a.812.812,0,1,0-.811.812.811.811,0,0,0,.811-.812m2.434,0a.811.811,0,1,0-.811.812.811.811,0,0,0,.811-.812m2.434,0a.812.812,0,1,0-.811.812.811.811,0,0,0,.811-.812m-3.854,9.33a.811.811,0,1,0-.811.812.811.811,0,0,0,.811-.812m2.434,0a.811.811,0,1,0-.811.812.811.811,0,0,0,.811-.812m2.434,0a.811.811,0,1,0-.811.812.811.811,0,0,0,.811-.812m2.434,0a.811.811,0,1,0-.811.812.811.811,0,0,0,.811-.812m2.434,0a.812.812,0,1,0-.811.812.811.811,0,0,0,.811-.812m2.434,0a.811.811,0,1,0-.811.812.811.811,0,0,0,.811-.812m-12.17,6.694a.811.811,0,1,0-.811.811.811.811,0,0,0,.811-.811m2.434,0a.811.811,0,1,0-.811.811.811.811,0,0,0,.811-.811m2.434,0a.811.811,0,1,0-.811.811.811.811,0,0,0,.811-.811m2.434,0a.811.811,0,1,0-.811.811.811.811,0,0,0,.811-.811m2.434,0a.812.812,0,1,0-.811.811.811.811,0,0,0,.811-.811m2.434,0a.811.811,0,1,0-.811.811.811.811,0,0,0,.811-.811" fill="#82cede"/>
            <path id="Trazado_676435" data-name="Trazado 676435" d="M148.025,96.954h-2.839a.7.7,0,1,1,0-1.4h2.839a.7.7,0,1,1,0,1.4m.7,2.545a.7.7,0,0,0-.7-.7h-2.839a.7.7,0,1,0,0,1.4h2.839a.7.7,0,0,0,.7-.7m0,3.245a.7.7,0,0,0-.7-.7h-2.839a.7.7,0,1,0,0,1.4h2.839a.7.7,0,0,0,.7-.7m0,3.246a.7.7,0,0,0-.7-.7h-2.839a.7.7,0,1,0,0,1.4h2.839a.7.7,0,0,0,.7-.7m0,3.245a.7.7,0,0,0-.7-.7h-2.839a.7.7,0,1,0,0,1.4h2.839a.7.7,0,0,0,.7-.7m0,3.245a.7.7,0,0,0-.7-.7h-2.839a.7.7,0,1,0,0,1.4h2.839a.7.7,0,0,0,.7-.7m0,3.246a.7.7,0,0,0-.7-.7h-2.839a.7.7,0,1,0,0,1.4h2.839a.7.7,0,0,0,.7-.7m0,3.245a.7.7,0,0,0-.7-.7h-2.839a.7.7,0,1,0,0,1.4h2.839a.7.7,0,0,0,.7-.7m10.623-22.717a.7.7,0,0,0-.7-.7H151.2a.7.7,0,1,0,0,1.4h7.454a.7.7,0,0,0,.7-.7m0,3.245a.7.7,0,0,0-.7-.7H151.2a.7.7,0,1,0,0,1.4h7.454a.7.7,0,0,0,.7-.7m0,3.245a.7.7,0,0,0-.7-.7H151.2a.7.7,0,1,0,0,1.4h7.454a.7.7,0,0,0,.7-.7m0,3.246a.7.7,0,0,0-.7-.7H151.2a.7.7,0,1,0,0,1.4h7.454a.7.7,0,0,0,.7-.7m0,3.245a.7.7,0,0,0-.7-.7H151.2a.7.7,0,1,0,0,1.4h7.454a.7.7,0,0,0,.7-.7m8.924,3.245a.7.7,0,0,0-.7-.7h-7.454a.7.7,0,0,0,0,1.4h7.454a.7.7,0,0,0,.7-.7m0,3.246a.7.7,0,0,0-.7-.7h-7.454a.7.7,0,0,0,0,1.4h7.454a.7.7,0,0,0,.7-.7m0,3.245a.7.7,0,0,0-.7-.7h-7.454a.7.7,0,0,0,0,1.4h7.454a.7.7,0,0,0,.7-.7m-5.644-22.717a.811.811,0,1,0-.811.811.811.811,0,0,0,.811-.811m2.434,0a.811.811,0,1,0-.811.811.811.811,0,0,0,.811-.811m2.434,0a.811.811,0,1,0-.811.811.811.811,0,0,0,.811-.811m2.434,0a.811.811,0,1,0-.811.811.811.811,0,0,0,.811-.811m2.434,0a.812.812,0,1,0-.811.811.811.811,0,0,0,.811-.811m2.434,0a.812.812,0,1,0-.811.811.811.811,0,0,0,.811-.811m-12.17,6.491a.811.811,0,1,0-.811.811.811.811,0,0,0,.811-.811m2.434,0a.811.811,0,1,0-.811.811.811.811,0,0,0,.811-.811m2.434,0a.811.811,0,1,0-.811.811.811.811,0,0,0,.811-.811m2.434,0a.811.811,0,1,0-.811.811.811.811,0,0,0,.811-.811m2.434,0a.812.812,0,1,0-.811.811.811.811,0,0,0,.811-.811m2.434,0a.812.812,0,1,0-.811.811.811.811,0,0,0,.811-.811m-3.854,9.33a.811.811,0,1,0-.811.811.812.812,0,0,0,.811-.811m2.434,0a.811.811,0,1,0-.811.811.812.812,0,0,0,.811-.811m2.434,0a.811.811,0,1,0-.811.811.812.812,0,0,0,.811-.811m2.434,0a.812.812,0,1,0-.811.811.812.812,0,0,0,.811-.811m2.434,0a.812.812,0,1,0-.811.811.812.812,0,0,0,.811-.811m2.434,0a.811.811,0,1,0-.811.811.812.812,0,0,0,.811-.811m-12.17,6.693a.811.811,0,1,0-.811.811.811.811,0,0,0,.811-.811m2.434,0a.811.811,0,1,0-.811.811.811.811,0,0,0,.811-.811m2.434,0a.811.811,0,1,0-.811.811.811.811,0,0,0,.811-.811m2.434,0a.812.812,0,1,0-.811.811.811.811,0,0,0,.811-.811m2.434,0a.812.812,0,1,0-.811.811.811.811,0,0,0,.811-.811m2.434,0a.811.811,0,1,0-.811.811.811.811,0,0,0,.811-.811" fill="#82cede"/>
            <path id="Trazado_676436" data-name="Trazado 676436" d="M148.025,123.55h-2.839a.7.7,0,1,1,0-1.4h2.839a.7.7,0,1,1,0,1.4m.7,2.545a.7.7,0,0,0-.7-.7h-2.839a.7.7,0,1,0,0,1.4h2.839a.7.7,0,0,0,.7-.7m0,3.245a.7.7,0,0,0-.7-.7h-2.839a.7.7,0,1,0,0,1.4h2.839a.7.7,0,0,0,.7-.7m0,3.245a.7.7,0,0,0-.7-.7h-2.839a.7.7,0,1,0,0,1.4h2.839a.7.7,0,0,0,.7-.7m0,3.246a.7.7,0,0,0-.7-.7h-2.839a.7.7,0,1,0,0,1.4h2.839a.7.7,0,0,0,.7-.7m0,3.245a.7.7,0,0,0-.7-.7h-2.839a.7.7,0,1,0,0,1.4h2.839a.7.7,0,0,0,.7-.7m0,3.246a.7.7,0,0,0-.7-.7h-2.839a.7.7,0,1,0,0,1.4h2.839a.7.7,0,0,0,.7-.7m0,3.245a.7.7,0,0,0-.7-.7h-2.839a.7.7,0,1,0,0,1.4h2.839a.7.7,0,0,0,.7-.7m10.623-22.717a.7.7,0,0,0-.7-.7H151.2a.7.7,0,1,0,0,1.4h7.454a.7.7,0,0,0,.7-.7m0,3.245a.7.7,0,0,0-.7-.7H151.2a.7.7,0,1,0,0,1.4h7.454a.7.7,0,0,0,.7-.7m0,3.245a.7.7,0,0,0-.7-.7H151.2a.7.7,0,1,0,0,1.4h7.454a.7.7,0,0,0,.7-.7m0,3.245a.7.7,0,0,0-.7-.7H151.2a.7.7,0,1,0,0,1.4h7.454a.7.7,0,0,0,.7-.7m0,3.246a.7.7,0,0,0-.7-.7H151.2a.7.7,0,1,0,0,1.4h7.454a.7.7,0,0,0,.7-.7m8.924,3.245a.7.7,0,0,0-.7-.7h-7.454a.7.7,0,0,0,0,1.4h7.454a.7.7,0,0,0,.7-.7m0,3.246a.7.7,0,0,0-.7-.7h-7.454a.7.7,0,0,0,0,1.4h7.454a.7.7,0,0,0,.7-.7m0,3.245a.7.7,0,0,0-.7-.7h-7.454a.7.7,0,0,0,0,1.4h7.454a.7.7,0,0,0,.7-.7m-5.644-22.717a.811.811,0,1,0-.811.811.812.812,0,0,0,.811-.811m2.434,0a.811.811,0,1,0-.811.811.812.812,0,0,0,.811-.811m2.434,0a.811.811,0,1,0-.811.811.812.812,0,0,0,.811-.811m2.434,0a.811.811,0,1,0-.811.811.812.812,0,0,0,.811-.811m2.434,0a.812.812,0,1,0-.811.811.812.812,0,0,0,.811-.811m2.434,0a.812.812,0,1,0-.811.811.812.812,0,0,0,.811-.811m-12.17,6.49a.811.811,0,1,0-.811.812.811.811,0,0,0,.811-.812m2.434,0a.811.811,0,1,0-.811.812.811.811,0,0,0,.811-.812m2.434,0a.811.811,0,1,0-.811.812.811.811,0,0,0,.811-.812m2.434,0a.811.811,0,1,0-.811.812.811.811,0,0,0,.811-.812m2.434,0a.812.812,0,1,0-.811.812.811.811,0,0,0,.811-.812m2.434,0a.812.812,0,1,0-.811.812.811.811,0,0,0,.811-.812m-3.854,9.33a.811.811,0,1,0-.811.812.811.811,0,0,0,.811-.812m2.434,0a.811.811,0,1,0-.811.812.811.811,0,0,0,.811-.812m2.434,0a.811.811,0,1,0-.811.812.811.811,0,0,0,.811-.812m2.434,0a.812.812,0,1,0-.811.812.811.811,0,0,0,.811-.812m2.434,0a.812.812,0,1,0-.811.812.811.811,0,0,0,.811-.812m2.434,0a.811.811,0,1,0-.811.812.811.811,0,0,0,.811-.812m-12.17,6.694a.811.811,0,1,0-.811.811.811.811,0,0,0,.811-.811m2.434,0a.811.811,0,1,0-.811.811.811.811,0,0,0,.811-.811m2.434,0a.811.811,0,1,0-.811.811.811.811,0,0,0,.811-.811m2.434,0a.812.812,0,1,0-.811.811.811.811,0,0,0,.811-.811m2.434,0a.812.812,0,1,0-.811.811.811.811,0,0,0,.811-.811m2.434,0a.811.811,0,1,0-.811.811.811.811,0,0,0,.811-.811" fill="#82cede"/>
            <path id="Trazado_676437" data-name="Trazado 676437" d="M103.514,86.518a1.348,1.348,0,1,1-1.348-1.348,1.349,1.349,0,0,1,1.348,1.348" fill="#82cede"/>
            <path id="Trazado_676438" data-name="Trazado 676438" d="M109.58,86.518a1.348,1.348,0,1,1-1.348-1.348,1.348,1.348,0,0,1,1.348,1.348" fill="#82cede"/>
            <path id="Trazado_676439" data-name="Trazado 676439" d="M115.646,86.518A1.348,1.348,0,1,1,114.3,85.17a1.349,1.349,0,0,1,1.348,1.348" fill="#82cede"/>
            <g id="Grupo_909170" data-name="Grupo 909170" opacity="0.3">
              <g id="Grupo_909169" data-name="Grupo 909169">
                <g id="Grupo_909168" data-name="Grupo 909168" clip-path="url(#clip-path-9)">
                  <rect id="Rectángulo_303048" data-name="Rectángulo 303048" width="140.097" height="80.806" transform="translate(184.937 132.362)"/>
                </g>
              </g>
            </g>
            <rect id="Rectángulo_303050" data-name="Rectángulo 303050" width="140.097" height="80.806" transform="translate(182.78 130.205)" fill="#fff"/>
            <rect id="Rectángulo_303051" data-name="Rectángulo 303051" width="140.097" height="80.806" transform="translate(182.78 130.205)" fill="none" stroke="#263238" stroke-miterlimit="10" stroke-width="0.966"/>
            <path id="Trazado_676440" data-name="Trazado 676440" d="M254.514,175.984l-1.47-.1a9.118,9.118,0,0,0-.14-1.479l1.422-.381a.42.42,0,0,0,.3-.514l-.177-.663a.421.421,0,0,0-.515-.3l-1.418.38a9.3,9.3,0,0,0-.619-1.352l1.22-.823a.419.419,0,0,0,.112-.582l-.383-.569a.419.419,0,0,0-.582-.113l-1.22.823a9.235,9.235,0,0,0-1.024-1.078l.886-1.176a.418.418,0,0,0-.082-.587l-.549-.413a.42.42,0,0,0-.587.082l-.886,1.176a8.956,8.956,0,0,0-1.317-.689l.453-1.4a.417.417,0,0,0-.269-.529l-.651-.212a.421.421,0,0,0-.53.27l-.453,1.4a9.015,9.015,0,0,0-1.314-.206v-1.473a.418.418,0,0,0-.419-.42h-.685a.419.419,0,0,0-.42.42v1.473a8.935,8.935,0,0,0-1.466.242l-.48-1.39a.419.419,0,0,0-.533-.26l-.649.224a.419.419,0,0,0-.26.533l.48,1.39a9.1,9.1,0,0,0-1.306.711l-.907-1.16a.419.419,0,0,0-.588-.073l-.541.423a.421.421,0,0,0-.073.589l.907,1.16a9.145,9.145,0,0,0-1,1.1l-1.235-.8a.42.42,0,0,0-.58.123l-.373.575a.42.42,0,0,0,.123.581l1.232.8a9.3,9.3,0,0,0-.592,1.364l-1.427-.356a.419.419,0,0,0-.508.306l-.166.666a.419.419,0,0,0,.306.508l1.426.356a9.267,9.267,0,0,0-.116,1.452v.03l-1.466.128a.421.421,0,0,0-.381.455l.06.683a.419.419,0,0,0,.455.381l1.466-.128a9.077,9.077,0,0,0,.371,1.44l-1.343.6a.417.417,0,0,0-.212.554l.278.626a.42.42,0,0,0,.554.213l1.343-.6a9.206,9.206,0,0,0,.823,1.238l-1.077,1a.419.419,0,0,0-.022.592l.468.5a.419.419,0,0,0,.593.021l1.077-1a9.115,9.115,0,0,0,1.179.9l-.69,1.3a.418.418,0,0,0,.173.567l.605.322a.419.419,0,0,0,.567-.173l.69-1.3a9.09,9.09,0,0,0,1.411.471l-.23,1.453a.418.418,0,0,0,.349.479l.677.107a.418.418,0,0,0,.48-.348l.231-1.455c.22.016.439.027.664.027.276,0,.551-.015.821-.039l.256,1.45a.421.421,0,0,0,.487.34l.675-.119a.419.419,0,0,0,.34-.486l-.256-1.447a9.125,9.125,0,0,0,1.4-.5l.713,1.287a.419.419,0,0,0,.569.163l.6-.333a.419.419,0,0,0,.165-.57l-.713-1.286a9.172,9.172,0,0,0,1.16-.927l1.1.985a.419.419,0,0,0,.592-.031l.459-.51a.419.419,0,0,0-.03-.592l-1.093-.985a9.2,9.2,0,0,0,.8-1.253l1.355.575a.42.42,0,0,0,.55-.222l.267-.632a.419.419,0,0,0-.222-.55l-1.354-.574a8.939,8.939,0,0,0,.348-1.446l1.467.1a.419.419,0,0,0,.447-.389l.049-.684a.421.421,0,0,0-.39-.448m-10.558,5.129a5.1,5.1,0,1,1,5.1-5.1,5.1,5.1,0,0,1-5.1,5.1" fill="#263238"/>
            <path id="Trazado_676441" data-name="Trazado 676441" d="M251.087,176.01a7.132,7.132,0,1,1-7.131-7.131A7.131,7.131,0,0,1,251.087,176.01Z" fill="none" stroke="#fff" stroke-miterlimit="10" stroke-width="0.966"/>
            <path id="Trazado_676442" data-name="Trazado 676442" d="M267.706,183.387l-.963-.068a5.947,5.947,0,0,0-.093-.969l.932-.25a.275.275,0,0,0,.2-.337l-.117-.434a.273.273,0,0,0-.336-.194l-.931.249a5.975,5.975,0,0,0-.4-.887l.8-.539a.275.275,0,0,0,.074-.381l-.252-.373a.274.274,0,0,0-.381-.074l-.8.539a6.053,6.053,0,0,0-.671-.706l.581-.771a.275.275,0,0,0-.054-.385l-.359-.271a.275.275,0,0,0-.385.055l-.581.77a5.947,5.947,0,0,0-.863-.452l.3-.915a.275.275,0,0,0-.176-.347l-.428-.139a.275.275,0,0,0-.346.177l-.3.917a5.948,5.948,0,0,0-.86-.135V176.5a.275.275,0,0,0-.275-.274h-.45a.275.275,0,0,0-.275.274v.966a5.858,5.858,0,0,0-.961.159l-.314-.911a.274.274,0,0,0-.349-.171l-.425.147a.275.275,0,0,0-.171.349l.314.912a5.99,5.99,0,0,0-.856.465l-.594-.76a.273.273,0,0,0-.385-.047l-.355.276a.275.275,0,0,0-.047.386l.594.761a6.048,6.048,0,0,0-.658.718l-.81-.526a.276.276,0,0,0-.38.081l-.245.377a.275.275,0,0,0,.081.38l.808.525a5.976,5.976,0,0,0-.388.894l-.935-.233a.274.274,0,0,0-.333.2l-.109.436a.275.275,0,0,0,.2.334l.935.233a6.1,6.1,0,0,0-.076.952v.019l-.96.084a.275.275,0,0,0-.25.3l.039.448a.275.275,0,0,0,.3.25l.961-.084a5.824,5.824,0,0,0,.243.943l-.881.393a.274.274,0,0,0-.139.362l.183.411a.274.274,0,0,0,.363.139l.88-.392a5.994,5.994,0,0,0,.54.812l-.707.658a.275.275,0,0,0-.013.389l.306.329a.275.275,0,0,0,.389.013l.7-.657a6.014,6.014,0,0,0,.773.592l-.453.852a.275.275,0,0,0,.114.372l.4.211a.275.275,0,0,0,.372-.114l.452-.85a5.976,5.976,0,0,0,.925.309l-.151.952a.274.274,0,0,0,.228.314l.444.07a.275.275,0,0,0,.315-.228l.151-.954c.144.011.288.018.435.018.182,0,.361-.01.539-.026l.167.951a.276.276,0,0,0,.319.223l.443-.079a.275.275,0,0,0,.223-.318l-.168-.949a5.791,5.791,0,0,0,.919-.326l.467.844a.276.276,0,0,0,.374.107l.393-.218a.275.275,0,0,0,.107-.374l-.467-.843a5.8,5.8,0,0,0,.761-.608l.718.646a.274.274,0,0,0,.388-.02l.3-.334a.275.275,0,0,0-.02-.388l-.717-.646a6.047,6.047,0,0,0,.524-.821l.887.376a.275.275,0,0,0,.361-.145l.175-.414a.275.275,0,0,0-.145-.361l-.888-.376a5.957,5.957,0,0,0,.229-.948l.961.067a.274.274,0,0,0,.293-.255l.031-.448a.273.273,0,0,0-.255-.293m-6.92,3.361a3.344,3.344,0,1,1,3.344-3.344,3.344,3.344,0,0,1-3.344,3.344" fill="#263238"/>
            <circle id="Elipse_7569" data-name="Elipse 7569" cx="4.674" cy="4.674" r="4.674" transform="translate(254.679 180.874) rotate(-22.5)" fill="none" stroke="#fff" stroke-miterlimit="10" stroke-width="0.966"/>
            <path id="Trazado_676443" data-name="Trazado 676443" d="M191.518,150.4c0-2.363,1.246-3.714,3.525-3.714s3.524,1.351,3.524,3.714v7.682c0,2.363-1.245,3.713-3.524,3.713s-3.525-1.35-3.525-3.713Zm2.322,7.829c0,1.055.464,1.456,1.2,1.456s1.2-.4,1.2-1.456V150.25c0-1.055-.465-1.456-1.2-1.456s-1.2.4-1.2,1.456Z" fill="#263238"/>
            <path id="Trazado_676444" data-name="Trazado 676444" d="M206.946,150.5v1.92c0,2.363-1.139,3.65-3.461,3.65h-1.1v5.551h-2.322V146.853h3.419c2.322,0,3.461,1.287,3.461,3.651m-4.558-1.541v5h1.1c.739,0,1.14-.337,1.14-1.393v-2.215c0-1.055-.4-1.393-1.14-1.393Z" fill="#263238"/>
            <path id="Trazado_676445" data-name="Trazado 676445" d="M210.451,153.078h3.187v2.11h-3.187v4.326h4.009v2.11h-6.331V146.853h6.331v2.11h-4.009Z" fill="#263238"/>
            <path id="Trazado_676446" data-name="Trazado 676446" d="M220.75,161.625a4.56,4.56,0,0,1-.211-1.815v-2.321c0-1.372-.464-1.879-1.519-1.879h-.8v6.015H215.9V146.853h3.5c2.4,0,3.439,1.118,3.439,3.4v1.161c0,1.519-.485,2.511-1.519,3,1.161.485,1.541,1.6,1.541,3.144v2.279a4.337,4.337,0,0,0,.253,1.794Zm-2.532-12.662V153.5h.907c.865,0,1.393-.379,1.393-1.561v-1.456c0-1.056-.359-1.52-1.182-1.52Z" fill="#263238"/>
            <path id="Trazado_676447" data-name="Trazado 676447" d="M231.894,161.625h-2.343l-.4-2.68H226.3l-.4,2.68h-2.132l2.364-14.772h3.4Zm-5.3-4.685h2.237l-1.119-7.47Z" fill="#263238"/>
            <path id="Trazado_676448" data-name="Trazado 676448" d="M232.3,146.852h7.175v2.11h-2.427v12.662h-2.321V148.962H232.3Z" fill="#263238"/>
            <rect id="Rectángulo_303052" data-name="Rectángulo 303052" width="2.321" height="14.772" transform="translate(240.486 146.852)" fill="#263238"/>
            <path id="Trazado_676449" data-name="Trazado 676449" d="M246.564,150.925v10.7h-2.089V146.852h2.912l2.385,8.842v-8.842h2.068v14.772h-2.385Z" fill="#263238"/>
            <path id="Trazado_676450" data-name="Trazado 676450" d="M256.99,153.394h3.25v4.685c0,2.363-1.183,3.713-3.462,3.713s-3.461-1.35-3.461-3.713V150.4c0-2.364,1.182-3.714,3.461-3.714s3.462,1.35,3.462,3.714v1.434h-2.194V150.25c0-1.056-.466-1.456-1.2-1.456s-1.2.4-1.2,1.456v7.976c0,1.056.464,1.435,1.2,1.435s1.2-.379,1.2-1.435V155.5H256.99Z" fill="#263238"/>
            <path id="Trazado_676451" data-name="Trazado 676451" d="M268.134,146.684c2.258,0,3.419,1.35,3.419,3.714v.464h-2.2v-.612c0-1.055-.422-1.456-1.16-1.456s-1.161.4-1.161,1.456c0,3.039,4.537,3.609,4.537,7.829,0,2.363-1.182,3.714-3.461,3.714s-3.461-1.351-3.461-3.714v-.907h2.195v1.055c0,1.055.465,1.435,1.2,1.435s1.2-.38,1.2-1.435c0-3.039-4.537-3.609-4.537-7.829,0-2.364,1.16-3.714,3.418-3.714" fill="#263238"/>
            <path id="Trazado_676452" data-name="Trazado 676452" d="M274.93,156.729,272,146.853h2.426l1.773,6.731,1.773-6.731h2.215l-2.932,9.876v4.9H274.93Z" fill="#263238"/>
            <path id="Trazado_676453" data-name="Trazado 676453" d="M284.091,146.684c2.258,0,3.419,1.35,3.419,3.714v.464h-2.2v-.612c0-1.055-.422-1.456-1.16-1.456s-1.161.4-1.161,1.456c0,3.039,4.537,3.609,4.537,7.829,0,2.363-1.182,3.714-3.461,3.714s-3.461-1.351-3.461-3.714v-.907H282.8v1.055c0,1.055.465,1.435,1.2,1.435s1.2-.38,1.2-1.435c0-3.039-4.537-3.609-4.537-7.829,0-2.364,1.16-3.714,3.418-3.714" fill="#263238"/>
            <path id="Trazado_676454" data-name="Trazado 676454" d="M288.186,146.852h7.175v2.11h-2.426v12.662h-2.322V148.962h-2.427Z" fill="#263238"/>
            <path id="Trazado_676455" data-name="Trazado 676455" d="M298.7,153.078h3.186v2.11H298.7v4.326h4.009v2.11h-6.331V146.853h6.331v2.11H298.7Z" fill="#263238"/>
            <path id="Trazado_676456" data-name="Trazado 676456" d="M309.059,157.34l1.582-10.488h3.23v14.772h-2.2V151.03l-1.6,10.594h-2.195l-1.73-10.446v10.446h-2.026V146.852h3.229Z" fill="#263238"/>
            <rect id="Rectángulo_303053" data-name="Rectángulo 303053" width="140.097" height="5.864" transform="translate(182.78 130.205)" fill="#263238"/>
            <rect id="Rectángulo_303054" data-name="Rectángulo 303054" width="140.097" height="5.864" transform="translate(182.78 130.205)" fill="none" stroke="#263238" stroke-miterlimit="10" stroke-width="0.966"/>
            <path id="Trazado_676457" data-name="Trazado 676457" d="M189.349,132.694A1.348,1.348,0,1,1,188,131.346a1.349,1.349,0,0,1,1.348,1.348" fill="#92e3a9"/>
            <path id="Trazado_676458" data-name="Trazado 676458" d="M195.415,132.694a1.348,1.348,0,1,1-1.348-1.348,1.349,1.349,0,0,1,1.348,1.348" fill="#92e3a9"/>
            <path id="Trazado_676459" data-name="Trazado 676459" d="M201.481,132.694a1.348,1.348,0,1,1-1.348-1.348,1.349,1.349,0,0,1,1.348,1.348" fill="#92e3a9"/>
            <path id="Trazado_676460" data-name="Trazado 676460" d="M311.308,197.058H195.368a1.492,1.492,0,0,1,0-2.984h115.94a1.492,1.492,0,0,1,0,2.984" fill="#fff"/>
            <path id="Trazado_676461" data-name="Trazado 676461" d="M311.308,197.058H195.368a1.492,1.492,0,0,1,0-2.984h115.94a1.492,1.492,0,0,1,0,2.984Z" fill="none" stroke="#263238" stroke-miterlimit="10" stroke-width="0.966"/>
            <path id="Trazado_676462" data-name="Trazado 676462" d="M276.995,194.074H195.368a1.492,1.492,0,0,0,0,2.984h81.627Z" fill="#82cede"/>
            <g id="Grupo_909173" data-name="Grupo 909173" opacity="0.3">
              <g id="Grupo_909172" data-name="Grupo 909172">
                <g id="Grupo_909171" data-name="Grupo 909171" clip-path="url(#clip-path-10)">
                  <path id="Trazado_676463" data-name="Trazado 676463" d="M125.077,277.865H83.66L188.725,70.78h41.417Z" fill="#fff"/>
                </g>
              </g>
            </g>
            <g id="Grupo_909176" data-name="Grupo 909176" opacity="0.3">
              <g id="Grupo_909175" data-name="Grupo 909175">
                <g id="Grupo_909174" data-name="Grupo 909174" clip-path="url(#clip-path-11)">
                  <path id="Trazado_676464" data-name="Trazado 676464" d="M154.789,277.865H138.582L243.647,70.78h16.207Z" fill="#fff"/>
                </g>
              </g>
            </g>
            <path id="Trazado_676465" data-name="Trazado 676465" d="M425.04,60.877H80.615a7.639,7.639,0,0,0-7.639,7.639V317.357A7.64,7.64,0,0,0,80.615,325H425.04a7.639,7.639,0,0,0,7.639-7.639V68.516a7.639,7.639,0,0,0-7.639-7.639M414.586,263.908H91.069V77.308H414.586Z" fill="#263238"/>
            <path id="Trazado_676466" data-name="Trazado 676466" d="M425.04,60.877H80.615a7.639,7.639,0,0,0-7.639,7.639V317.357A7.64,7.64,0,0,0,80.615,325H425.04a7.639,7.639,0,0,0,7.639-7.639V68.516A7.639,7.639,0,0,0,425.04,60.877ZM414.586,263.908H91.069V77.308H414.586Z" fill="none" stroke="#263238" stroke-linecap="round" stroke-linejoin="round" stroke-width="0.966"/>
            <path id="Trazado_676467" data-name="Trazado 676467" d="M297.578,345.365V315.614h-89.5v29.751a42.512,42.512,0,0,1-9.506,26.743l-3.919,4.846H311l-3.919-4.846a42.511,42.511,0,0,1-9.505-26.743" fill="#a8a8a8"/>
            <path id="Trazado_676468" data-name="Trazado 676468" d="M297.578,345.365V315.614h-89.5v29.751a42.512,42.512,0,0,1-9.506,26.743l-3.919,4.846H311l-3.919-4.846A42.511,42.511,0,0,1,297.578,345.365Z" fill="none" stroke="#263238" stroke-linecap="round" stroke-linejoin="round" stroke-width="0.966"/>
            <rect id="Rectángulo_303057" data-name="Rectángulo 303057" width="89.5" height="19.223" transform="translate(208.078 315.614)" fill="#263238"/>
            <rect id="Rectángulo_303058" data-name="Rectángulo 303058" width="116.374" height="5.312" transform="translate(194.653 376.954)" fill="#a8a8a8"/>
            <rect id="Rectángulo_303059" data-name="Rectángulo 303059" width="116.374" height="5.312" transform="translate(194.653 376.954)" fill="none" stroke="#263238" stroke-linecap="round" stroke-linejoin="round" stroke-width="0.966"/>
            <path id="Trazado_676469" data-name="Trazado 676469" d="M424.481,325H81.175a8.2,8.2,0,0,1-8.2-8.2V283.942h359.7V316.8a8.2,8.2,0,0,1-8.2,8.2" fill="#fff"/>
            <path id="Trazado_676470" data-name="Trazado 676470" d="M424.481,325H81.175a8.2,8.2,0,0,1-8.2-8.2V283.942h359.7V316.8A8.2,8.2,0,0,1,424.481,325Z" fill="none" stroke="#263238" stroke-linecap="round" stroke-linejoin="round" stroke-width="0.966"/>
            <path id="Trazado_676471" data-name="Trazado 676471" d="M387.114,98.416h14.85L400.479,83.8H388.6Z" fill="#263238"/>
            <path id="Trazado_676472" data-name="Trazado 676472" d="M387.394,101.121h14.289a.28.28,0,0,0,.28-.28V97.987a.28.28,0,0,0-.28-.28H387.394a.281.281,0,0,0-.281.28v2.854a.28.28,0,0,0,.281.28" fill="#fff"/>
            <path id="Trazado_676473" data-name="Trazado 676473" d="M387.114,119.34h14.85l-1.485-14.617H388.6Z" fill="#263238"/>
            <path id="Trazado_676474" data-name="Trazado 676474" d="M387.564,122.044h13.949a.45.45,0,0,0,.45-.45V119.08a.45.45,0,0,0-.45-.45H387.564a.45.45,0,0,0-.45.45v2.514a.45.45,0,0,0,.45.45" fill="#fff"/>
            <rect id="Rectángulo_303060" data-name="Rectángulo 303060" width="6.724" height="1.375" transform="translate(388.068 119.632)" fill="#263238"/>
            <path id="Trazado_676475" data-name="Trazado 676475" d="M399.834,111.533c0,2.279-2.292,4.126-5.119,4.126s-5.119-1.847-5.119-4.126,2.292-4.126,5.119-4.126,5.119,1.847,5.119,4.126" fill="#263238"/>
            <ellipse id="Elipse_7570" data-name="Elipse 7570" cx="5.119" cy="4.126" rx="5.119" ry="4.126" transform="translate(389.596 107.407)" fill="none" stroke="#595959" stroke-miterlimit="10" stroke-width="0.483"/>
            <path id="Trazado_676476" data-name="Trazado 676476" d="M402.1,141.133H388v-7.928a.769.769,0,0,1,.77-.769h12.555a.769.769,0,0,1,.77.769Z" fill="#fff"/>
            <path id="Trazado_676477" data-name="Trazado 676477" d="M395.943,134.054h-5.518a.375.375,0,0,1-.375-.375v-2.515a.375.375,0,0,1,.375-.375h5.518a.375.375,0,0,1,.375.375v2.515a.375.375,0,0,1-.375.375" fill="#fff"/>
            <path id="Trazado_676478" data-name="Trazado 676478" d="M402.1,161.841H388v-7.928a.769.769,0,0,1,.77-.769h12.555a.769.769,0,0,1,.77.769Z" fill="#fff"/>
            <path id="Trazado_676479" data-name="Trazado 676479" d="M395.943,154.762h-5.518a.375.375,0,0,1-.375-.375v-2.515a.375.375,0,0,1,.375-.375h5.518a.375.375,0,0,1,.375.375v2.515a.375.375,0,0,1-.375.375" fill="#fff"/>
            <path id="Trazado_676480" data-name="Trazado 676480" d="M402.1,182.55H388v-7.928a.769.769,0,0,1,.77-.769h12.555a.769.769,0,0,1,.77.769Z" fill="#fff"/>
            <path id="Trazado_676481" data-name="Trazado 676481" d="M395.943,175.47h-5.518a.375.375,0,0,1-.375-.375v-2.514a.375.375,0,0,1,.375-.375h5.518a.375.375,0,0,1,.375.375V175.1a.375.375,0,0,1-.375.375" fill="#fff"/>
          </g>
        </g>
        <g id="Grupo_909180" data-name="Grupo 909180">
          <g id="Grupo_909179" data-name="Grupo 909179" clip-path="url(#clip-path)">
            <path id="Trazado_676482" data-name="Trazado 676482" d="M355.89,426.813H64.921a2.66,2.66,0,0,0-2.661,2.66v2.41a2.66,2.66,0,0,0,2.661,2.66H355.89a2.659,2.659,0,0,0,2.66-2.66v-2.41a2.66,2.66,0,0,0-2.66-2.66" fill="#3c464c"/>
            <path id="Trazado_676483" data-name="Trazado 676483" d="M357.994,427.833l-30.5-35.544c-.849-.987-3.61-1.521-5.778-1.521H99.042c-2.169,0-4.931.534-5.778,1.521L62.759,427.833a1.406,1.406,0,0,0-.321,1.571c.432.938,2,1.477,4.314,1.477H354c2.31,0,3.883-.538,4.314-1.477a1.406,1.406,0,0,0-.32-1.571" fill="#263238"/>
            <path id="Trazado_676484" data-name="Trazado 676484" d="M212.758,392.042H199.572l-.371,4.648H212.84Z" fill="#fff"/>
            <path id="Trazado_676485" data-name="Trazado 676485" d="M212.758,392.042H199.572l-.371,4.648H212.84Z" fill="none" stroke="#263238" stroke-linecap="round" stroke-linejoin="round" stroke-width="1.059"/>
            <path id="Trazado_676486" data-name="Trazado 676486" d="M180.942,392.042H167.756l-1.463,4.648h13.639Z" fill="#fff"/>
            <path id="Trazado_676487" data-name="Trazado 676487" d="M180.942,392.042H167.756l-1.463,4.648h13.639Z" fill="none" stroke="#263238" stroke-linecap="round" stroke-linejoin="round" stroke-width="1.059"/>
            <path id="Trazado_676488" data-name="Trazado 676488" d="M228.666,392.042H215.48l.176,4.648h13.638Z" fill="#fff"/>
            <path id="Trazado_676489" data-name="Trazado 676489" d="M228.666,392.042H215.48l.176,4.648h13.638Z" fill="none" stroke="#263238" stroke-linecap="round" stroke-linejoin="round" stroke-width="1.059"/>
            <path id="Trazado_676490" data-name="Trazado 676490" d="M149.126,392.042H135.94l-2.554,4.648h13.638Z" fill="#fff"/>
            <path id="Trazado_676491" data-name="Trazado 676491" d="M149.126,392.042H135.94l-2.554,4.648h13.638Z" fill="none" stroke="#263238" stroke-linecap="round" stroke-linejoin="round" stroke-width="1.059"/>
            <path id="Trazado_676492" data-name="Trazado 676492" d="M165.034,392.042H151.849l-2.009,4.648h13.638Z" fill="#fff"/>
            <path id="Trazado_676493" data-name="Trazado 676493" d="M165.034,392.042H151.849l-2.009,4.648h13.638Z" fill="none" stroke="#263238" stroke-linecap="round" stroke-linejoin="round" stroke-width="1.059"/>
            <path id="Trazado_676494" data-name="Trazado 676494" d="M116.932,396.69H130.57l2.648-4.648H120.033Z" fill="#fff"/>
            <path id="Trazado_676495" data-name="Trazado 676495" d="M116.932,396.69H130.57l2.648-4.648H120.033Z" fill="none" stroke="#263238" stroke-linecap="round" stroke-linejoin="round" stroke-width="1.059"/>
            <path id="Trazado_676496" data-name="Trazado 676496" d="M196.85,392.042H183.664l-.917,4.648h13.639Z" fill="#fff"/>
            <path id="Trazado_676497" data-name="Trazado 676497" d="M196.85,392.042H183.664l-.917,4.648h13.639Z" fill="none" stroke="#263238" stroke-linecap="round" stroke-linejoin="round" stroke-width="1.059"/>
            <path id="Trazado_676498" data-name="Trazado 676498" d="M244.573,392.042H231.387l.722,4.648h13.638Z" fill="#fff"/>
            <path id="Trazado_676499" data-name="Trazado 676499" d="M244.573,392.042H231.387l.722,4.648h13.638Z" fill="none" stroke="#263238" stroke-linecap="round" stroke-linejoin="round" stroke-width="1.059"/>
            <path id="Trazado_676500" data-name="Trazado 676500" d="M117.311,392.042H97.235l-3.884,4.648h20.765Z" fill="#fff"/>
            <path id="Trazado_676501" data-name="Trazado 676501" d="M117.311,392.042H97.235l-3.884,4.648h20.765Z" fill="none" stroke="#263238" stroke-linecap="round" stroke-linejoin="round" stroke-width="1.059"/>
            <path id="Trazado_676502" data-name="Trazado 676502" d="M310.927,392.042l3.451,4.648h14.079l-3.919-4.648Z" fill="#fff"/>
            <path id="Trazado_676503" data-name="Trazado 676503" d="M310.927,392.042l3.451,4.648h14.079l-3.919-4.648Z" fill="none" stroke="#263238" stroke-linecap="round" stroke-linejoin="round" stroke-width="1.059"/>
            <path id="Trazado_676504" data-name="Trazado 676504" d="M308.2,392.042H295.02l2.9,4.648h13.638Z" fill="#fff"/>
            <path id="Trazado_676505" data-name="Trazado 676505" d="M308.2,392.042H295.02l2.9,4.648h13.638Z" fill="none" stroke="#263238" stroke-linecap="round" stroke-linejoin="round" stroke-width="1.059"/>
            <path id="Trazado_676506" data-name="Trazado 676506" d="M292.3,392.042H279.111l2.36,4.648h13.638Z" fill="#fff"/>
            <path id="Trazado_676507" data-name="Trazado 676507" d="M292.3,392.042H279.111l2.36,4.648h13.638Z" fill="none" stroke="#263238" stroke-linecap="round" stroke-linejoin="round" stroke-width="1.059"/>
            <path id="Trazado_676508" data-name="Trazado 676508" d="M260.481,392.042H247.3l1.267,4.648H262.2Z" fill="#fff"/>
            <path id="Trazado_676509" data-name="Trazado 676509" d="M260.481,392.042H247.3l1.267,4.648H262.2Z" fill="none" stroke="#263238" stroke-linecap="round" stroke-linejoin="round" stroke-width="1.059"/>
            <path id="Trazado_676510" data-name="Trazado 676510" d="M276.389,392.042H263.2l1.814,4.648h13.638Z" fill="#fff"/>
            <path id="Trazado_676511" data-name="Trazado 676511" d="M276.389,392.042H263.2l1.814,4.648h13.638Z" fill="none" stroke="#263238" stroke-linecap="round" stroke-linejoin="round" stroke-width="1.059"/>
            <path id="Trazado_676512" data-name="Trazado 676512" d="M171.475,397.149H157.763l-1.877,5.012h14.2Z" fill="#fff"/>
            <path id="Trazado_676513" data-name="Trazado 676513" d="M171.475,397.149H157.763l-1.877,5.012h14.2Z" fill="none" stroke="#263238" stroke-linecap="round" stroke-linejoin="round" stroke-width="1.059"/>
            <path id="Trazado_676514" data-name="Trazado 676514" d="M188.012,397.149H174.3l-1.287,5.012h14.2Z" fill="#fff"/>
            <path id="Trazado_676515" data-name="Trazado 676515" d="M188.012,397.149H174.3l-1.287,5.012h14.2Z" fill="none" stroke="#263238" stroke-linecap="round" stroke-linejoin="round" stroke-width="1.059"/>
            <path id="Trazado_676516" data-name="Trazado 676516" d="M204.549,397.149H190.837l-.7,5.012h14.2Z" fill="#fff"/>
            <path id="Trazado_676517" data-name="Trazado 676517" d="M204.549,397.149H190.837l-.7,5.012h14.2Z" fill="none" stroke="#263238" stroke-linecap="round" stroke-linejoin="round" stroke-width="1.059"/>
            <path id="Trazado_676518" data-name="Trazado 676518" d="M138.4,397.149H124.689l-3.056,5.012h14.2Z" fill="#fff"/>
            <path id="Trazado_676519" data-name="Trazado 676519" d="M138.4,397.149H124.689l-3.056,5.012h14.2Z" fill="none" stroke="#263238" stroke-linecap="round" stroke-linejoin="round" stroke-width="1.059"/>
            <path id="Trazado_676520" data-name="Trazado 676520" d="M104.5,402.161h14.2l3.158-5.012H108.151Z" fill="#fff"/>
            <path id="Trazado_676521" data-name="Trazado 676521" d="M104.5,402.161h14.2l3.158-5.012H108.151Z" fill="none" stroke="#263238" stroke-linecap="round" stroke-linejoin="round" stroke-width="1.059"/>
            <path id="Trazado_676522" data-name="Trazado 676522" d="M221.087,397.149H207.375l-.107,5.012h14.2Z" fill="#fff"/>
            <path id="Trazado_676523" data-name="Trazado 676523" d="M221.087,397.149H207.375l-.107,5.012h14.2Z" fill="none" stroke="#263238" stroke-linecap="round" stroke-linejoin="round" stroke-width="1.059"/>
            <path id="Trazado_676524" data-name="Trazado 676524" d="M154.938,397.149H141.226l-2.467,5.012h14.2Z" fill="#fff"/>
            <path id="Trazado_676525" data-name="Trazado 676525" d="M154.938,397.149H141.226l-2.467,5.012h14.2Z" fill="none" stroke="#263238" stroke-linecap="round" stroke-linejoin="round" stroke-width="1.059"/>
            <path id="Trazado_676526" data-name="Trazado 676526" d="M303.773,397.149H290.061l2.842,5.012h14.2Z" fill="#fff"/>
            <path id="Trazado_676527" data-name="Trazado 676527" d="M303.773,397.149H290.061l2.842,5.012h14.2Z" fill="none" stroke="#263238" stroke-linecap="round" stroke-linejoin="round" stroke-width="1.059"/>
            <path id="Trazado_676528" data-name="Trazado 676528" d="M105.326,397.149H92.967l-4.187,5.012h12.8Z" fill="#fff"/>
            <path id="Trazado_676529" data-name="Trazado 676529" d="M105.326,397.149H92.967l-4.187,5.012h12.8Z" fill="none" stroke="#263238" stroke-linecap="round" stroke-linejoin="round" stroke-width="1.059"/>
            <path id="Trazado_676530" data-name="Trazado 676530" d="M306.6,397.149l3.432,5.012h23.039l-4.225-5.012Z" fill="#fff"/>
            <path id="Trazado_676531" data-name="Trazado 676531" d="M306.6,397.149l3.432,5.012h23.039l-4.225-5.012Z" fill="none" stroke="#263238" stroke-linecap="round" stroke-linejoin="round" stroke-width="1.059"/>
            <path id="Trazado_676532" data-name="Trazado 676532" d="M287.236,397.149H273.524l2.252,5.012h14.2Z" fill="#fff"/>
            <path id="Trazado_676533" data-name="Trazado 676533" d="M287.236,397.149H273.524l2.252,5.012h14.2Z" fill="none" stroke="#263238" stroke-linecap="round" stroke-linejoin="round" stroke-width="1.059"/>
            <path id="Trazado_676534" data-name="Trazado 676534" d="M237.624,397.149H223.912l.483,5.012h14.2Z" fill="#fff"/>
            <path id="Trazado_676535" data-name="Trazado 676535" d="M237.624,397.149H223.912l.483,5.012h14.2Z" fill="none" stroke="#263238" stroke-linecap="round" stroke-linejoin="round" stroke-width="1.059"/>
            <path id="Trazado_676536" data-name="Trazado 676536" d="M254.161,397.149H240.449l1.072,5.012h14.2Z" fill="#fff"/>
            <path id="Trazado_676537" data-name="Trazado 676537" d="M254.161,397.149H240.449l1.072,5.012h14.2Z" fill="none" stroke="#263238" stroke-linecap="round" stroke-linejoin="round" stroke-width="1.059"/>
            <path id="Trazado_676538" data-name="Trazado 676538" d="M270.7,397.149H256.987l1.662,5.012h14.2Z" fill="#fff"/>
            <path id="Trazado_676539" data-name="Trazado 676539" d="M270.7,397.149H256.987l1.662,5.012h14.2Z" fill="none" stroke="#263238" stroke-linecap="round" stroke-linejoin="round" stroke-width="1.059"/>
            <path id="Trazado_676540" data-name="Trazado 676540" d="M247.971,422.115H153.9l-2.387,6.995h98.051Z" fill="#fff"/>
            <path id="Trazado_676541" data-name="Trazado 676541" d="M247.971,422.115H153.9l-2.387,6.995h98.051Z" fill="none" stroke="#263238" stroke-linecap="round" stroke-linejoin="round" stroke-width="1.059"/>
            <path id="Trazado_676542" data-name="Trazado 676542" d="M150.569,422.115H129.578l-3.416,6.995h21.879Z" fill="#fff"/>
            <path id="Trazado_676543" data-name="Trazado 676543" d="M150.569,422.115H129.578l-3.416,6.995h21.879Z" fill="none" stroke="#263238" stroke-linecap="round" stroke-linejoin="round" stroke-width="1.059"/>
            <path id="Trazado_676544" data-name="Trazado 676544" d="M268.537,422.115H251.3l1.73,6.995H271Z" fill="#fff"/>
            <path id="Trazado_676545" data-name="Trazado 676545" d="M268.537,422.115H251.3l1.73,6.995H271Z" fill="none" stroke="#263238" stroke-linecap="round" stroke-linejoin="round" stroke-width="1.059"/>
            <path id="Trazado_676546" data-name="Trazado 676546" d="M86.256,429.109h17.025l4.343-6.995H91.29Z" fill="#fff"/>
            <path id="Trazado_676547" data-name="Trazado 676547" d="M86.256,429.109h17.025l4.343-6.995H91.29Z" fill="none" stroke="#263238" stroke-linecap="round" stroke-linejoin="round" stroke-width="1.059"/>
            <path id="Trazado_676548" data-name="Trazado 676548" d="M126.251,422.115h-15.3l-4.2,6.995h15.947Z" fill="#fff"/>
            <path id="Trazado_676549" data-name="Trazado 676549" d="M126.251,422.115h-15.3l-4.2,6.995h15.947Z" fill="none" stroke="#263238" stroke-linecap="round" stroke-linejoin="round" stroke-width="1.059"/>
            <path id="Trazado_676550" data-name="Trazado 676550" d="M87.963,422.115H72.106l-5.845,6.995H82.788Z" fill="#fff"/>
            <path id="Trazado_676551" data-name="Trazado 676551" d="M87.963,422.115H72.106l-5.845,6.995H82.788Z" fill="none" stroke="#263238" stroke-linecap="round" stroke-linejoin="round" stroke-width="1.059"/>
            <path id="Trazado_676552" data-name="Trazado 676552" d="M289.1,422.115h-17.24l2.6,6.995h17.969Z" fill="#fff"/>
            <path id="Trazado_676553" data-name="Trazado 676553" d="M289.1,422.115h-17.24l2.6,6.995h17.969Z" fill="none" stroke="#263238" stroke-linecap="round" stroke-linejoin="round" stroke-width="1.059"/>
            <path id="Trazado_676554" data-name="Trazado 676554" d="M333.565,422.115l5.207,6.995H355.79l-5.9-6.995Z" fill="#fff"/>
            <path id="Trazado_676555" data-name="Trazado 676555" d="M333.565,422.115l5.207,6.995H355.79l-5.9-6.995Z" fill="none" stroke="#263238" stroke-linecap="round" stroke-linejoin="round" stroke-width="1.059"/>
            <path id="Trazado_676556" data-name="Trazado 676556" d="M309.671,422.115h-17.24l3.469,6.995h17.968Z" fill="#fff"/>
            <path id="Trazado_676557" data-name="Trazado 676557" d="M309.671,422.115h-17.24l3.469,6.995h17.968Z" fill="none" stroke="#263238" stroke-linecap="round" stroke-linejoin="round" stroke-width="1.059"/>
            <path id="Trazado_676558" data-name="Trazado 676558" d="M330.238,422.115H313l4.338,6.995H335.3Z" fill="#fff"/>
            <path id="Trazado_676559" data-name="Trazado 676559" d="M330.238,422.115H313l4.338,6.995H335.3Z" fill="none" stroke="#263238" stroke-linecap="round" stroke-linejoin="round" stroke-width="1.059"/>
            <path id="Trazado_676560" data-name="Trazado 676560" d="M190.411,415.077H175.019l-1.429,6.4H189.6Z" fill="#fff"/>
            <path id="Trazado_676561" data-name="Trazado 676561" d="M190.411,415.077H175.019l-1.429,6.4H189.6Z" fill="none" stroke="#263238" stroke-linecap="round" stroke-linejoin="round" stroke-width="1.059"/>
            <path id="Trazado_676562" data-name="Trazado 676562" d="M227.566,415.077H212.174l.073,6.4h16.014Z" fill="#fff"/>
            <path id="Trazado_676563" data-name="Trazado 676563" d="M227.566,415.077H212.174l.073,6.4h16.014Z" fill="none" stroke="#263238" stroke-linecap="round" stroke-linejoin="round" stroke-width="1.059"/>
            <path id="Trazado_676564" data-name="Trazado 676564" d="M171.833,415.077H156.441l-2.179,6.4h16.014Z" fill="#fff"/>
            <path id="Trazado_676565" data-name="Trazado 676565" d="M171.833,415.077H156.441l-2.179,6.4h16.014Z" fill="none" stroke="#263238" stroke-linecap="round" stroke-linejoin="round" stroke-width="1.059"/>
            <path id="Trazado_676566" data-name="Trazado 676566" d="M134.679,415.077H119.287l-3.68,6.4h16.014Z" fill="#fff"/>
            <path id="Trazado_676567" data-name="Trazado 676567" d="M134.679,415.077H119.287l-3.68,6.4h16.014Z" fill="none" stroke="#263238" stroke-linecap="round" stroke-linejoin="round" stroke-width="1.059"/>
            <path id="Trazado_676568" data-name="Trazado 676568" d="M96.279,421.478h16.014l3.809-6.4H100.708Z" fill="#fff"/>
            <path id="Trazado_676569" data-name="Trazado 676569" d="M96.279,421.478h16.014l3.809-6.4H100.708Z" fill="none" stroke="#263238" stroke-linecap="round" stroke-linejoin="round" stroke-width="1.059"/>
            <path id="Trazado_676570" data-name="Trazado 676570" d="M153.256,415.077H137.864l-2.93,6.4h16.014Z" fill="#fff"/>
            <path id="Trazado_676571" data-name="Trazado 676571" d="M153.256,415.077H137.864l-2.93,6.4h16.014Z" fill="none" stroke="#263238" stroke-linecap="round" stroke-linejoin="round" stroke-width="1.059"/>
            <path id="Trazado_676572" data-name="Trazado 676572" d="M208.988,415.077H193.6l-.678,6.4h16.014Z" fill="#fff"/>
            <path id="Trazado_676573" data-name="Trazado 676573" d="M208.988,415.077H193.6l-.678,6.4h16.014Z" fill="none" stroke="#263238" stroke-linecap="round" stroke-linejoin="round" stroke-width="1.059"/>
            <path id="Trazado_676574" data-name="Trazado 676574" d="M97.524,415.077H77.987l-5.348,6.4H92.965Z" fill="#fff"/>
            <path id="Trazado_676575" data-name="Trazado 676575" d="M97.524,415.077H77.987l-5.348,6.4H92.965Z" fill="none" stroke="#263238" stroke-linecap="round" stroke-linejoin="round" stroke-width="1.059"/>
            <path id="Trazado_676576" data-name="Trazado 676576" d="M301.876,415.077H286.484l3.075,6.4h16.014Z" fill="#fff"/>
            <path id="Trazado_676577" data-name="Trazado 676577" d="M301.876,415.077H286.484l3.075,6.4h16.014Z" fill="none" stroke="#263238" stroke-linecap="round" stroke-linejoin="round" stroke-width="1.059"/>
            <path id="Trazado_676578" data-name="Trazado 676578" d="M305.061,415.077l3.825,6.4h40.47l-5.4-6.4Z" fill="#fff"/>
            <path id="Trazado_676579" data-name="Trazado 676579" d="M305.061,415.077l3.825,6.4h40.47l-5.4-6.4Z" fill="none" stroke="#263238" stroke-linecap="round" stroke-linejoin="round" stroke-width="1.059"/>
            <path id="Trazado_676580" data-name="Trazado 676580" d="M246.143,415.077H230.751l.823,6.4h16.014Z" fill="#fff"/>
            <path id="Trazado_676581" data-name="Trazado 676581" d="M246.143,415.077H230.751l.823,6.4h16.014Z" fill="none" stroke="#263238" stroke-linecap="round" stroke-linejoin="round" stroke-width="1.059"/>
            <path id="Trazado_676582" data-name="Trazado 676582" d="M264.721,415.077H249.329l1.574,6.4h16.013Z" fill="#fff"/>
            <path id="Trazado_676583" data-name="Trazado 676583" d="M264.721,415.077H249.329l1.574,6.4h16.013Z" fill="none" stroke="#263238" stroke-linecap="round" stroke-linejoin="round" stroke-width="1.059"/>
            <path id="Trazado_676584" data-name="Trazado 676584" d="M283.3,415.077H267.906l2.324,6.4h16.014Z" fill="#fff"/>
            <path id="Trazado_676585" data-name="Trazado 676585" d="M283.3,415.077H267.906l2.324,6.4h16.014Z" fill="none" stroke="#263238" stroke-linecap="round" stroke-linejoin="round" stroke-width="1.059"/>
            <path id="Trazado_676586" data-name="Trazado 676586" d="M200.167,408.613h-14.81l-.968,5.88h15.383Z" fill="#fff"/>
            <path id="Trazado_676587" data-name="Trazado 676587" d="M200.167,408.613h-14.81l-.968,5.88h15.383Z" fill="none" stroke="#263238" stroke-linecap="round" stroke-linejoin="round" stroke-width="1.059"/>
            <path id="Trazado_676588" data-name="Trazado 676588" d="M218.033,408.613h-14.81l-.277,5.88h15.383Z" fill="#fff"/>
            <path id="Trazado_676589" data-name="Trazado 676589" d="M218.033,408.613h-14.81l-.277,5.88h15.383Z" fill="none" stroke="#263238" stroke-linecap="round" stroke-linejoin="round" stroke-width="1.059"/>
            <path id="Trazado_676590" data-name="Trazado 676590" d="M182.3,408.613h-14.81l-1.659,5.88h15.383Z" fill="#fff"/>
            <path id="Trazado_676591" data-name="Trazado 676591" d="M182.3,408.613h-14.81l-1.659,5.88h15.383Z" fill="none" stroke="#263238" stroke-linecap="round" stroke-linejoin="round" stroke-width="1.059"/>
            <path id="Trazado_676592" data-name="Trazado 676592" d="M164.437,408.613h-14.81l-2.35,5.88H162.66Z" fill="#fff"/>
            <path id="Trazado_676593" data-name="Trazado 676593" d="M164.437,408.613h-14.81l-2.35,5.88H162.66Z" fill="none" stroke="#263238" stroke-linecap="round" stroke-linejoin="round" stroke-width="1.059"/>
            <path id="Trazado_676594" data-name="Trazado 676594" d="M146.572,408.613h-14.81l-3.041,5.88H144.1Z" fill="#fff"/>
            <path id="Trazado_676595" data-name="Trazado 676595" d="M146.572,408.613h-14.81l-3.041,5.88H144.1Z" fill="none" stroke="#263238" stroke-linecap="round" stroke-linejoin="round" stroke-width="1.059"/>
            <path id="Trazado_676596" data-name="Trazado 676596" d="M110.164,414.493h15.383l3.16-5.88H113.9Z" fill="#fff"/>
            <path id="Trazado_676597" data-name="Trazado 676597" d="M110.164,414.493h15.383l3.16-5.88H113.9Z" fill="none" stroke="#263238" stroke-linecap="round" stroke-linejoin="round" stroke-width="1.059"/>
            <path id="Trazado_676598" data-name="Trazado 676598" d="M235.9,408.613h-14.81l.415,5.88h15.382Z" fill="#fff"/>
            <path id="Trazado_676599" data-name="Trazado 676599" d="M235.9,408.613h-14.81l.415,5.88h15.382Z" fill="none" stroke="#263238" stroke-linecap="round" stroke-linejoin="round" stroke-width="1.059"/>
            <path id="Trazado_676600" data-name="Trazado 676600" d="M110.841,408.613H83.388l-4.913,5.88H106.99Z" fill="#fff"/>
            <path id="Trazado_676601" data-name="Trazado 676601" d="M110.841,408.613H83.388l-4.913,5.88H106.99Z" fill="none" stroke="#263238" stroke-linecap="round" stroke-linejoin="round" stroke-width="1.059"/>
            <path id="Trazado_676602" data-name="Trazado 676602" d="M325.224,408.613h-14.81l3.87,5.88h15.383Z" fill="#fff"/>
            <path id="Trazado_676603" data-name="Trazado 676603" d="M325.224,408.613h-14.81l3.87,5.88h15.383Z" fill="none" stroke="#263238" stroke-linecap="round" stroke-linejoin="round" stroke-width="1.059"/>
            <path id="Trazado_676604" data-name="Trazado 676604" d="M253.763,408.613h-14.81l1.106,5.88h15.383Z" fill="#fff"/>
            <path id="Trazado_676605" data-name="Trazado 676605" d="M253.763,408.613h-14.81l1.106,5.88h15.383Z" fill="none" stroke="#263238" stroke-linecap="round" stroke-linejoin="round" stroke-width="1.059"/>
            <path id="Trazado_676606" data-name="Trazado 676606" d="M307.359,408.613h-14.81l3.179,5.88h15.383Z" fill="#fff"/>
            <path id="Trazado_676607" data-name="Trazado 676607" d="M307.359,408.613h-14.81l3.179,5.88h15.383Z" fill="none" stroke="#263238" stroke-linecap="round" stroke-linejoin="round" stroke-width="1.059"/>
            <path id="Trazado_676608" data-name="Trazado 676608" d="M271.629,408.613h-14.81l1.8,5.88H274Z" fill="#fff"/>
            <path id="Trazado_676609" data-name="Trazado 676609" d="M271.629,408.613h-14.81l1.8,5.88H274Z" fill="none" stroke="#263238" stroke-linecap="round" stroke-linejoin="round" stroke-width="1.059"/>
            <path id="Trazado_676610" data-name="Trazado 676610" d="M289.494,408.613h-14.81l2.488,5.88h15.383Z" fill="#fff"/>
            <path id="Trazado_676611" data-name="Trazado 676611" d="M289.494,408.613h-14.81l2.488,5.88h15.383Z" fill="none" stroke="#263238" stroke-linecap="round" stroke-linejoin="round" stroke-width="1.059"/>
            <path id="Trazado_676612" data-name="Trazado 676612" d="M179.74,408.076H194.2l.578-5.42H180.836Z" fill="#fff"/>
            <path id="Trazado_676613" data-name="Trazado 676613" d="M179.74,408.076H194.2l.578-5.42H180.836Z" fill="none" stroke="#263238" stroke-linecap="round" stroke-linejoin="round" stroke-width="1.059"/>
            <path id="Trazado_676614" data-name="Trazado 676614" d="M162.234,408.076H176.7l1.205-5.42H163.957Z" fill="#fff"/>
            <path id="Trazado_676615" data-name="Trazado 676615" d="M162.234,408.076H176.7l1.205-5.42H163.957Z" fill="none" stroke="#263238" stroke-linecap="round" stroke-linejoin="round" stroke-width="1.059"/>
            <path id="Trazado_676616" data-name="Trazado 676616" d="M197.246,408.076h14.462l-.048-5.42H197.716Z" fill="#fff"/>
            <path id="Trazado_676617" data-name="Trazado 676617" d="M197.246,408.076h14.462l-.048-5.42H197.716Z" fill="none" stroke="#263238" stroke-linecap="round" stroke-linejoin="round" stroke-width="1.059"/>
            <path id="Trazado_676618" data-name="Trazado 676618" d="M109.715,408.076h14.462l3.084-5.42H113.317Z" fill="#fff"/>
            <path id="Trazado_676619" data-name="Trazado 676619" d="M109.715,408.076h14.462l3.084-5.42H113.317Z" fill="none" stroke="#263238" stroke-linecap="round" stroke-linejoin="round" stroke-width="1.059"/>
            <path id="Trazado_676620" data-name="Trazado 676620" d="M127.222,408.076h14.462l2.458-5.42H130.2Z" fill="#fff"/>
            <path id="Trazado_676621" data-name="Trazado 676621" d="M127.222,408.076h14.462l2.458-5.42H130.2Z" fill="none" stroke="#263238" stroke-linecap="round" stroke-linejoin="round" stroke-width="1.059"/>
            <path id="Trazado_676622" data-name="Trazado 676622" d="M214.752,408.076h14.462l-.675-5.42H214.6Z" fill="#fff"/>
            <path id="Trazado_676623" data-name="Trazado 676623" d="M214.752,408.076h14.462l-.675-5.42H214.6Z" fill="none" stroke="#263238" stroke-linecap="round" stroke-linejoin="round" stroke-width="1.059"/>
            <path id="Trazado_676624" data-name="Trazado 676624" d="M144.728,408.076H159.19l1.831-5.42H147.077Z" fill="#fff"/>
            <path id="Trazado_676625" data-name="Trazado 676625" d="M144.728,408.076H159.19l1.831-5.42H147.077Z" fill="none" stroke="#263238" stroke-linecap="round" stroke-linejoin="round" stroke-width="1.059"/>
            <path id="Trazado_676626" data-name="Trazado 676626" d="M333.487,402.657H318.809l4.025,5.42h3.581a2.063,2.063,0,0,1,1.339.37l4.72,6.106H343.29Z" fill="#fff"/>
            <path id="Trazado_676627" data-name="Trazado 676627" d="M333.487,402.657H318.809l4.025,5.42h3.581a2.063,2.063,0,0,1,1.339.37l4.72,6.106H343.29Z" fill="none" stroke="#263238" stroke-linecap="round" stroke-linejoin="round" stroke-width="1.059"/>
            <path id="Trazado_676628" data-name="Trazado 676628" d="M284.777,408.076h14.462l-3.181-5.42H282.114Z" fill="#fff"/>
            <path id="Trazado_676629" data-name="Trazado 676629" d="M284.777,408.076h14.462l-3.181-5.42H282.114Z" fill="none" stroke="#263238" stroke-linecap="round" stroke-linejoin="round" stroke-width="1.059"/>
            <path id="Trazado_676630" data-name="Trazado 676630" d="M302.283,408.076h17.506l-3.915-5.42h-16.88Z" fill="#fff"/>
            <path id="Trazado_676631" data-name="Trazado 676631" d="M302.283,408.076h17.506l-3.915-5.42h-16.88Z" fill="none" stroke="#263238" stroke-linecap="round" stroke-linejoin="round" stroke-width="1.059"/>
            <path id="Trazado_676632" data-name="Trazado 676632" d="M83.837,408.076h22.834l3.711-5.42H88.365Z" fill="#fff"/>
            <path id="Trazado_676633" data-name="Trazado 676633" d="M83.837,408.076h22.834l3.711-5.42H88.365Z" fill="none" stroke="#263238" stroke-linecap="round" stroke-linejoin="round" stroke-width="1.059"/>
            <path id="Trazado_676634" data-name="Trazado 676634" d="M232.259,408.076h14.462l-1.3-5.42H231.476Z" fill="#fff"/>
            <path id="Trazado_676635" data-name="Trazado 676635" d="M232.259,408.076h14.462l-1.3-5.42H231.476Z" fill="none" stroke="#263238" stroke-linecap="round" stroke-linejoin="round" stroke-width="1.059"/>
            <path id="Trazado_676636" data-name="Trazado 676636" d="M267.271,408.076h14.462l-2.554-5.42H265.235Z" fill="#fff"/>
            <path id="Trazado_676637" data-name="Trazado 676637" d="M267.271,408.076h14.462l-2.554-5.42H265.235Z" fill="none" stroke="#263238" stroke-linecap="round" stroke-linejoin="round" stroke-width="1.059"/>
            <path id="Trazado_676638" data-name="Trazado 676638" d="M249.765,408.076h14.461l-1.927-5.42H248.355Z" fill="#fff"/>
            <path id="Trazado_676639" data-name="Trazado 676639" d="M249.765,408.076h14.461l-1.927-5.42H248.355Z" fill="none" stroke="#263238" stroke-linecap="round" stroke-linejoin="round" stroke-width="1.059"/>
          </g>
        </g>
        <g id="Grupo_909182" data-name="Grupo 909182">
          <g id="Grupo_909181" data-name="Grupo 909181" clip-path="url(#clip-path)">
            <path id="Trazado_676640" data-name="Trazado 676640" d="M403.458,393.964c-27.476-.566-49.932,7.851-50.158,18.8s21.866,20.28,49.342,20.846,49.932-7.852,50.157-18.8-21.866-20.28-49.341-20.845m-.564,27.39c-10.491-.216-18.925-3.779-18.84-7.959s8.661-7.394,19.151-7.178,18.926,3.78,18.84,7.959-8.66,7.394-19.151,7.178" fill="#fff"/>
            <path id="Trazado_676641" data-name="Trazado 676641" d="M403.458,393.964c-27.476-.566-49.932,7.851-50.158,18.8s21.866,20.28,49.342,20.846,49.932-7.852,50.157-18.8S430.933,394.529,403.458,393.964Zm-.564,27.39c-10.491-.216-18.925-3.779-18.84-7.959s8.661-7.394,19.151-7.178,18.926,3.78,18.84,7.959S413.385,421.57,402.894,421.354Z" fill="none" stroke="#263238" stroke-linecap="round" stroke-linejoin="round" stroke-width="0.966"/>
            <path id="Trazado_676642" data-name="Trazado 676642" d="M403.247,404.168c-13.33-.274-24.225,3.809-24.334,9.12s10.608,9.839,23.938,10.114,24.225-3.809,24.335-9.121-10.609-9.839-23.939-10.113m-.29,14.092c-6.2-.128-11.191-2.235-11.14-4.706s5.121-4.372,11.324-4.244,11.191,2.234,11.14,4.706-5.121,4.372-11.324,4.244" fill="#263238"/>
            <path id="Trazado_676643" data-name="Trazado 676643" d="M403.247,404.168c-13.33-.274-24.225,3.809-24.334,9.12s10.608,9.839,23.938,10.114,24.225-3.809,24.335-9.121S416.577,404.442,403.247,404.168Zm-.29,14.092c-6.2-.128-11.191-2.235-11.14-4.706s5.121-4.372,11.324-4.244,11.191,2.234,11.14,4.706S409.16,418.388,402.957,418.26Z" fill="none" stroke="#263238" stroke-linecap="round" stroke-linejoin="round" stroke-width="0.966"/>
            <line id="Línea_1060" data-name="Línea 1060" x2="28.778" y2="1.321" transform="translate(422.94 416.598)" fill="none" stroke="#263238" stroke-linecap="round" stroke-linejoin="round" stroke-width="0.966"/>
            <line id="Línea_1061" data-name="Línea 1061" x2="25.757" y2="6.364" transform="translate(421.467 417.297)" fill="none" stroke="#263238" stroke-linecap="round" stroke-linejoin="round" stroke-width="0.966"/>
            <path id="Trazado_676644" data-name="Trazado 676644" d="M365.152,425.254l22.754-7.189-15.168,10.627" fill="none" stroke="#263238" stroke-linecap="round" stroke-linejoin="round" stroke-width="0.966"/>
            <line id="Línea_1062" data-name="Línea 1062" x2="9.98" y2="11.144" transform="translate(386.192 395.059)" fill="none" stroke="#263238" stroke-linecap="round" stroke-linejoin="round" stroke-width="0.966"/>
            <line id="Línea_1063" data-name="Línea 1063" x2="5.956" y2="11.79" transform="translate(392.403 394.458)" fill="none" stroke="#263238" stroke-linecap="round" stroke-linejoin="round" stroke-width="0.966"/>
            <path id="Trazado_676645" data-name="Trazado 676645" d="M283.662,391.188c-27.476-.565-49.995,10.906-50.3,25.621s21.725,27.1,49.2,27.668,49.995-10.906,50.3-25.621-21.726-27.1-49.2-27.668m-.757,36.818c-10.491-.216-18.9-4.945-18.786-10.564s8.714-10,19.2-9.783,18.9,4.946,18.786,10.564-8.713,10-19.2,9.783" fill="#fff"/>
            <path id="Trazado_676646" data-name="Trazado 676646" d="M283.662,391.188c-27.476-.565-49.995,10.906-50.3,25.621s21.725,27.1,49.2,27.668,49.995-10.906,50.3-25.621S311.138,391.753,283.662,391.188Zm-.757,36.818c-10.491-.216-18.9-4.945-18.786-10.564s8.714-10,19.2-9.783,18.9,4.946,18.786,10.564S293.4,428.222,282.9,428.006Z" fill="none" stroke="#263238" stroke-linecap="round" stroke-linejoin="round" stroke-width="0.966"/>
            <path id="Trazado_676647" data-name="Trazado 676647" d="M283.38,404.906c-13.331-.274-24.256,5.291-24.4,12.43s10.54,13.149,23.87,13.423,24.255-5.291,24.4-12.43-10.54-13.149-23.87-13.423m-.389,18.942c-6.2-.128-11.177-2.924-11.108-6.246s5.151-5.913,11.354-5.785,11.177,2.924,11.109,6.247-5.153,5.912-11.355,5.784" fill="#263238"/>
            <path id="Trazado_676648" data-name="Trazado 676648" d="M283.38,404.906c-13.331-.274-24.256,5.291-24.4,12.43s10.54,13.149,23.87,13.423,24.255-5.291,24.4-12.43S296.71,405.18,283.38,404.906Zm-.389,18.942c-6.2-.128-11.177-2.924-11.108-6.246s5.151-5.913,11.354-5.785,11.177,2.924,11.109,6.247S289.193,423.976,282.991,423.848Z" fill="none" stroke="#263238" stroke-linecap="round" stroke-linejoin="round" stroke-width="0.966"/>
            <line id="Línea_1064" data-name="Línea 1064" x2="28.773" y2="1.572" transform="translate(302.988 421.473)" fill="none" stroke="#263238" stroke-linecap="round" stroke-linejoin="round" stroke-width="0.966"/>
            <line id="Línea_1065" data-name="Línea 1065" x2="25.716" y2="8.371" transform="translate(301.51 422.423)" fill="none" stroke="#263238" stroke-linecap="round" stroke-linejoin="round" stroke-width="0.966"/>
            <path id="Trazado_676649" data-name="Trazado 676649" d="M245.13,433.516l22.809-9.823-15.246,14.39" fill="none" stroke="#263238" stroke-linecap="round" stroke-linejoin="round" stroke-width="0.966"/>
            <line id="Línea_1066" data-name="Línea 1066" x2="9.903" y2="14.907" transform="translate(266.387 392.783)" fill="none" stroke="#263238" stroke-linecap="round" stroke-linejoin="round" stroke-width="0.966"/>
            <line id="Línea_1067" data-name="Línea 1067" x2="5.874" y2="15.805" transform="translate(272.603 391.931)" fill="none" stroke="#263238" stroke-linecap="round" stroke-linejoin="round" stroke-width="0.966"/>
            <path id="Trazado_676650" data-name="Trazado 676650" d="M292.162,386.708l-79.106,3.474,12.653,59.974,91.523-5.107Z" fill="#fff"/>
            <path id="Trazado_676651" data-name="Trazado 676651" d="M292.162,386.708l-79.106,3.474,12.653,59.974,91.523-5.107Z" fill="none" stroke="#263238" stroke-miterlimit="10" stroke-width="0.966"/>
            <path id="Trazado_676652" data-name="Trazado 676652" d="M269.88,411.549l-2.7-.043a10.282,10.282,0,0,0-.78-1.906l2.424-.574c.38-.09.535-.392.347-.674l-.556-.834a1.022,1.022,0,0,0-1.024-.348l-2.411.565a14.564,14.564,0,0,0-1.572-1.681l1.9-1.1c.3-.173.3-.5,0-.735l-.876-.689a1.042,1.042,0,0,0-1.072-.11l-1.9,1.093a20.184,20.184,0,0,0-2.178-1.292l1.195-1.5c.187-.235.036-.557-.337-.719l-1.1-.48a.909.909,0,0,0-1.013.13l-1.2,1.495a23.843,23.843,0,0,0-2.56-.786l.382-1.738c.06-.273-.225-.555-.636-.632l-1.219-.227c-.411-.077-.795.081-.857.353l-.4,1.739a24.09,24.09,0,0,0-2.4-.189l-.418-1.807a.844.844,0,0,0-.864-.491l-1.22.033c-.413.01-.7.248-.633.531l.406,1.81a21.512,21.512,0,0,0-2.569.373l-1.228-1.69a1.013,1.013,0,0,0-1.024-.294l-1.107.306c-.374.1-.523.4-.331.669l1.222,1.7a16.536,16.536,0,0,0-2.185.955l-1.934-1.4a1.047,1.047,0,0,0-1.085-.06l-.881.555a.416.416,0,0,0,.01.74L237.428,404a11.577,11.577,0,0,0-1.57,1.446L233.4,404.5a.932.932,0,0,0-1.038.188l-.556.754c-.188.255-.027.585.361.735l2.468.959a8.545,8.545,0,0,0-.771,1.8l-2.74-.378c-.432-.059-.825.132-.879.428l-.16.881c-.054.3.254.589.688.648l2.756.38a8.579,8.579,0,0,0,.129,1.93c0,.013.006.026.008.04l-2.732.265c-.431.042-.707.325-.616.633l.271.914a.89.89,0,0,0,.95.483l2.747-.271a11.26,11.26,0,0,0,1.059,1.922l-2.411.909c-.382.144-.5.491-.273.774l.686.843a1.042,1.042,0,0,0,1.113.253l2.416-.92a16.584,16.584,0,0,0,1.893,1.647l-1.8,1.477a.49.49,0,0,0,.114.831l1.034.669a1.035,1.035,0,0,0,1.147-.017l1.794-1.486a22.161,22.161,0,0,0,2.513,1.174l-.961,1.884c-.152.3.069.653.495.791l1.262.41a.874.874,0,0,0,1.044-.292l.945-1.889a24.483,24.483,0,0,0,2.842.553l0,2.076c0,.33.367.624.819.657l1.338.1c.452.033.815-.208.812-.537l-.02-2.079c.424.005.849,0,1.275-.015.529-.021,1.046-.063,1.554-.119l.964,2.03a1,1,0,0,0,1.043.444l1.25-.224c.422-.076.638-.4.483-.716l-.975-2.018a18.2,18.2,0,0,0,2.481-.8l1.8,1.745a1.06,1.06,0,0,0,1.137.185l1.014-.514a.469.469,0,0,0,.1-.809l-1.8-1.733a12.924,12.924,0,0,0,1.846-1.363l2.4,1.275a.953.953,0,0,0,1.094-.087l.667-.735c.224-.247.1-.609-.277-.809l-2.389-1.263a9.1,9.1,0,0,0,1.026-1.75l2.706.68c.426.107.843-.044.929-.337l.256-.866c.086-.291-.189-.613-.612-.719l-2.691-.675a8.19,8.19,0,0,0,.114-1.935l2.706.041c.425.006.724-.236.668-.539l-.167-.9a.87.87,0,0,0-.868-.558m-17.721,7.537c-5.313.2-10.271-2.749-11.031-6.52-.745-3.694,2.841-6.762,7.968-6.918,5.1-.156,9.95,2.623,10.877,6.274.946,3.725-2.532,6.963-7.814,7.164" fill="#263238"/>
            <path id="Trazado_676653" data-name="Trazado 676653" d="M263.672,411.8c1.378,5.215-3.451,9.79-10.877,10.084-7.488.3-14.446-3.878-15.46-9.183-.984-5.155,4.054-9.4,11.179-9.6C255.583,402.886,262.332,406.726,263.672,411.8Z" fill="none" stroke="#fff" stroke-miterlimit="10" stroke-width="0.966"/>
            <path id="Trazado_676654" data-name="Trazado 676654" d="M296.794,420.474l-1.771-.021a7.723,7.723,0,0,0-.614-1.3l1.562-.4a.283.283,0,0,0,.193-.463l-.41-.571a.7.7,0,0,0-.693-.235l-1.556.4a11.1,11.1,0,0,0-1.128-1.15l1.189-.766c.186-.12.168-.347-.04-.507l-.616-.473a.674.674,0,0,0-.714-.072l-1.191.762a14.469,14.469,0,0,0-1.51-.886l.7-1.045c.109-.164-.009-.387-.265-.5l-.757-.329a.558.558,0,0,0-.661.1l-.7,1.041a16.487,16.487,0,0,0-1.737-.535l.144-1.209c.023-.19-.184-.386-.46-.437l-.82-.153c-.277-.052-.52.059-.544.249l-.15,1.21a15.711,15.711,0,0,0-1.6-.122l-.4-1.254a.614.614,0,0,0-.6-.338l-.8.027c-.271.01-.442.176-.381.373l.39,1.255a12.974,12.974,0,0,0-1.665.269l-.926-1.168a.691.691,0,0,0-.694-.2l-.707.217a.28.28,0,0,0-.17.466l.924,1.172a9.452,9.452,0,0,0-1.365.668l-1.37-.961a.667.667,0,0,0-.717-.038l-.536.387c-.181.13-.154.359.062.511l1.372.966a6.633,6.633,0,0,0-.92,1l-1.679-.646a.557.557,0,0,0-.663.133l-.306.519c-.1.176.027.4.292.5l1.68.648a5.444,5.444,0,0,0-.368,1.231l-1.811-.249c-.285-.039-.526.092-.538.294l-.036.6c-.012.2.209.4.5.439l1.817.25a6.347,6.347,0,0,0,.227,1.306l.009.027-1.75.186c-.276.03-.433.221-.351.429l.244.615a.643.643,0,0,0,.651.323l1.756-.189a8.808,8.808,0,0,0,.825,1.29l-1.49.614a.3.3,0,0,0-.119.518l.505.562a.7.7,0,0,0,.735.167l1.491-.619a12.575,12.575,0,0,0,1.337,1.1l-1.056.986c-.167.156-.108.4.132.552l.711.442a.643.643,0,0,0,.736-.012l1.053-.99a15.761,15.761,0,0,0,1.7.776l-.492,1.25c-.078.2.088.432.371.522l.838.269a.515.515,0,0,0,.651-.194l.485-1.251a15.893,15.893,0,0,0,1.866.362l.132,1.374a.587.587,0,0,0,.568.432l.867.063c.292.021.511-.138.489-.355L286,429.3c.274,0,.548,0,.822-.011.339-.016.67-.044.995-.081l.742,1.342a.69.69,0,0,0,.7.292l.793-.149c.267-.051.388-.263.27-.474l-.745-1.337a10.682,10.682,0,0,0,1.558-.537l1.258,1.157a.7.7,0,0,0,.745.121l.628-.342c.212-.116.222-.356.023-.538l-1.258-1.151a7.492,7.492,0,0,0,1.123-.914l1.626.848a.593.593,0,0,0,.7-.059l.4-.493c.133-.166.033-.408-.222-.541l-1.62-.842a5.664,5.664,0,0,0,.575-1.179l1.8.453c.283.071.547-.032.588-.229l.123-.584c.041-.2-.154-.414-.436-.485l-1.793-.45a5.72,5.72,0,0,0-.028-1.311l1.774.021c.279,0,.462-.161.41-.368l-.155-.61a.626.626,0,0,0-.6-.378m-11.126,5.133c-3.427.145-6.833-1.824-7.586-4.366-.743-2.508,1.385-4.617,4.734-4.742s6.689,1.768,7.509,4.256c.832,2.521-1.243,4.707-4.657,4.852" fill="#263238"/>
            <path id="Trazado_676655" data-name="Trazado 676655" d="M292.739,420.659c1.187,3.528-1.7,6.605-6.487,6.812-4.815.209-9.59-2.564-10.623-6.132-1.014-3.5,1.975-6.429,6.637-6.6C286.9,414.573,291.575,417.2,292.739,420.659Z" fill="none" stroke="#fff" stroke-miterlimit="10" stroke-width="0.966"/>
          </g>
        </g>
      </g>
    </g>
    <path id="Trazado_684176" data-name="Trazado 684176" d="M-3704.334-10407.223h77.81" transform="translate(8422.057 -2734.425)" fill="none" stroke="#5793ce" stroke-linecap="round" stroke-width="3"/>
    <path id="Trazado_684177" data-name="Trazado 684177" d="M-3704.334-10407.223h42.005" transform="translate(8022.531 -2734.425)" fill="none" stroke="#5793ce" stroke-linecap="round" stroke-width="3"/>
    <g id="Grupo_912684" data-name="Grupo 912684" transform="translate(3759.577 -13742.447)">
      <path id="Trazado_676384" data-name="Trazado 676384" d="M-3704.334-10407.223h71.984" transform="translate(4668.306 11183.771)" fill="none" stroke="#5793ce" stroke-linecap="round" stroke-width="3"/>
    </g>
    <path id="Trazado_684178" data-name="Trazado 684178" d="M-3704.334-10407.223h42" transform="translate(8022.531 -2547.037)" fill="none" stroke="#5793ce" stroke-linecap="round" stroke-width="3"/>
  </g>
</svg>
