<svg xmlns="http://www.w3.org/2000/svg" xmlns:xlink="http://www.w3.org/1999/xlink" width="423.233" height="301.609" viewBox="0 0 423.233 301.609">
  <defs>
    <clipPath id="clip-path">
      <rect id="Rectángulo_302450" data-name="Rectángulo 302450" width="423.233" height="301.609" fill="none"/>
    </clipPath>
  </defs>
  <g id="Grupo_912650" data-name="Grupo 912650" transform="translate(-927.377 -1209.273)">
    <g id="Grupo_908333" data-name="Grupo 908333" transform="translate(927.377 1209.273)">
      <g id="Grupo_908332" data-name="Grupo 908332" clip-path="url(#clip-path)">
        <path id="Trazado_675001" data-name="Trazado 675001" d="M401.758,114.706H21.516A20.828,20.828,0,0,1,.5,94.072V21.134A20.828,20.828,0,0,1,21.516.5H401.758a20.828,20.828,0,0,1,21.016,20.634V94.072a20.828,20.828,0,0,1-21.016,20.634" transform="translate(0.46 0.46)" fill="#0b5999"/>
        <path id="Trazado_675002" data-name="Trazado 675002" d="M154.534,210.881H21.134A20.634,20.634,0,0,1,.5,190.247V118.269A20.634,20.634,0,0,1,21.134,97.635h133.4a20.634,20.634,0,0,1,20.634,20.634v71.978a20.634,20.634,0,0,1-20.634,20.634" transform="translate(0.46 89.768)" fill="#4dd0e1" stroke="#707070" stroke-width="1"/>
        <path id="Trazado_675003" data-name="Trazado 675003" d="M283.034,210.881h-133.4A20.634,20.634,0,0,1,129,190.247V118.269a20.634,20.634,0,0,1,20.634-20.634h133.4a20.634,20.634,0,0,1,20.634,20.634v71.978a20.634,20.634,0,0,1-20.634,20.634" transform="translate(118.606 89.768)" fill="#fd9927" stroke="#707070" stroke-width="1"/>
        <g id="Trazado_675004" data-name="Trazado 675004" transform="translate(9.252 50.224)" fill="#feca2e" stroke-linejoin="round">
          <path d="M 47.08448791503906 155.7615814208984 L 46.42742156982422 155.1888732910156 L 9.40554141998291 122.9194869995117 L 7.393407821655273 121.1656494140625 L 10.06260776519775 121.1656494140625 L 20.6520881652832 121.1656494140625 L 20.6520881652832 54.62490081787109 L 20.6520881652832 53.62490081787109 L 21.6520881652832 53.62490081787109 L 72.51687622070312 53.62490081787109 L 73.51687622070312 53.62490081787109 L 73.51687622070312 54.62490081787109 L 73.51687622070312 121.1656494140625 L 84.10636901855469 121.1656494140625 L 86.77556610107422 121.1656494140625 L 84.76343536376953 122.9194869995117 L 47.74155426025391 155.1888732910156 L 47.08448791503906 155.7615814208984 Z" stroke="none"/>
          <path d="M 47.08448791503906 154.4350280761719 L 84.10637664794922 122.165657043457 L 72.51687622070312 122.165657043457 L 72.51687622070312 54.62491226196289 L 21.6520881652832 54.62491226196289 L 21.6520881652832 122.165657043457 L 10.06260204315186 122.165657043457 L 47.08448791503906 154.4350280761719 M 47.08448791503906 156.4350280761719 C 46.61570358276367 156.4350280761719 46.14691543579102 156.2709197998047 45.77035903930664 155.9427032470703 L 8.748473167419434 123.6733245849609 C 8.119831085205078 123.1253814697266 7.897159576416016 122.2448959350586 8.189730644226074 121.463996887207 C 8.482288360595703 120.6830825805664 9.22868824005127 120.165657043457 10.06260204315186 120.165657043457 L 19.6520881652832 120.165657043457 L 19.6520881652832 54.62491226196289 C 19.6520881652832 53.52033996582031 20.54751586914062 52.62491226196289 21.6520881652832 52.62491226196289 L 72.51687622070312 52.62491226196289 C 73.62144470214844 52.62491226196289 74.51687622070312 53.52033996582031 74.51687622070312 54.62491226196289 L 74.51687622070312 120.165657043457 L 84.10637664794922 120.165657043457 C 84.94028472900391 120.165657043457 85.68669128417969 120.6830825805664 85.979248046875 121.463996887207 C 86.27182006835938 122.2448959350586 86.04914855957031 123.1253814697266 85.42050170898438 123.6733245849609 L 48.39861679077148 155.9427032470703 C 48.02206039428711 156.2709197998047 47.55327224731445 156.4350280761719 47.08448791503906 156.4350280761719 Z" stroke="none" fill="#fff"/>
        </g>
        <g id="Trazado_675006" data-name="Trazado 675006" transform="translate(42.811 45.972)" fill="#feca2e" stroke-linejoin="round">
          <path d="M 110.0168914794922 150.81103515625 L 109.0168914794922 150.81103515625 L 58.152099609375 150.81103515625 L 57.152099609375 150.81103515625 L 57.152099609375 149.81103515625 L 57.152099609375 83.27027130126953 L 46.56260681152344 83.27027130126953 L 43.89340972900391 83.27027130126953 L 45.90554046630859 81.51643371582031 L 82.92742156982422 49.24706268310547 L 83.58448791503906 48.67435455322266 L 84.24155426025391 49.24706268310547 L 121.2634353637695 81.51643371582031 L 123.2755661010742 83.27027130126953 L 120.6063690185547 83.27027130126953 L 110.0168914794922 83.27027130126953 L 110.0168914794922 149.81103515625 L 110.0168914794922 150.81103515625 Z" stroke="none"/>
          <path d="M 83.58448791503906 50.00090026855469 L 46.56259918212891 82.27027893066406 L 58.152099609375 82.27027893066406 L 58.152099609375 149.81103515625 L 109.0168914794922 149.81103515625 L 109.0168914794922 82.27027893066406 L 120.6063690185547 82.27027893066406 L 83.58448791503906 50.00090026855469 M 83.58448791503906 48.00090026855469 C 84.05327606201172 48.00090026855469 84.52205657958984 48.16500854492188 84.89861297607422 48.49322509765625 L 121.9205017089844 80.76261138916016 C 122.5491485595703 81.31055450439453 122.7718200683594 82.1910400390625 122.479248046875 82.97193908691406 C 122.1866912841797 83.75285339355469 121.4402923583984 84.27027893066406 120.6063690185547 84.27027893066406 L 111.0168914794922 84.27027893066406 L 111.0168914794922 149.81103515625 C 111.0168914794922 150.9156188964844 110.1214599609375 151.81103515625 109.0168914794922 151.81103515625 L 58.152099609375 151.81103515625 C 57.04753112792969 151.81103515625 56.152099609375 150.9156188964844 56.152099609375 149.81103515625 L 56.152099609375 84.27027893066406 L 46.56259918212891 84.27027893066406 C 45.72869110107422 84.27027893066406 44.98228454589844 83.75285339355469 44.68972778320312 82.97193908691406 C 44.39715576171875 82.1910400390625 44.61982727050781 81.31055450439453 45.24847412109375 80.76261138916016 L 82.27036285400391 48.49322509765625 C 82.64691925048828 48.16500854492188 83.11569976806641 48.00090026855469 83.58448791503906 48.00090026855469 Z" stroke="none" fill="#fff"/>
        </g>
        <g id="Trazado_675008" data-name="Trazado 675008" transform="translate(79.371 108.66)" fill="#feca2e">
          <path d="M 150.3467407226562 162.3515014648438 L 150.3467407226562 160.0605163574219 L 150.3467407226562 151.8683776855469 L 109.9082565307617 151.8683776855469 L 109.9082565307617 160.0605163574219 L 109.9082565307617 162.3515014648438 L 108.2283248901367 160.7937927246094 L 85.64627838134766 139.8547821044922 L 84.85546875 139.1214904785156 L 85.64627838134766 138.3882141113281 L 108.2283248901367 117.4492111206055 L 109.9082565307617 115.8915176391602 L 109.9082565307617 118.1824951171875 L 109.9082565307617 126.374626159668 L 150.3467407226562 126.374626159668 L 150.3467407226562 118.1824951171875 L 150.3467407226562 115.8915176391602 L 152.0266723632812 117.4492111206055 L 174.6087188720703 138.3882141113281 L 175.3995208740234 139.1214904785156 L 174.6087188720703 139.8547821044922 L 152.0266723632812 160.7937927246094 L 150.3467407226562 162.3515014648438 Z" stroke="none"/>
          <path d="M 108.9082489013672 118.1824951171875 L 86.32620239257812 139.1214904785156 L 108.9082489013672 160.0605163574219 L 108.9082489013672 150.8683776855469 L 151.3467407226562 150.8683776855469 L 151.3467407226562 160.0605163574219 L 173.9287872314453 139.1214904785156 L 151.3467407226562 118.1824951171875 L 151.3467407226562 127.3746337890625 L 108.9082489013672 127.3746337890625 L 108.9082489013672 118.1824951171875 M 110.9082489013672 113.6005401611328 L 110.9082489013672 125.3746337890625 L 149.3467407226562 125.3746337890625 L 149.3467407226562 113.6005401611328 L 176.8702697753906 139.1214904785156 L 149.3467407226562 164.6424865722656 L 149.3467407226562 152.8683776855469 L 110.9082489013672 152.8683776855469 L 110.9082489013672 164.6424865722656 L 83.38471984863281 139.1214904785156 L 110.9082489013672 113.6005401611328 Z" stroke="none" fill="#fff"/>
        </g>
      </g>
    </g>
    <path id="Trazado_684085" data-name="Trazado 684085" d="M15.265-19.173l-5.041,5.239V0H4.786V-41.234h5.438v20.391L28.547-41.234h6.57L18.89-23.024,36.392,0H29.878ZM51.612.566A13.389,13.389,0,0,1,41.473-3.526q-3.908-4.092-3.908-10.946v-.963a18.388,18.388,0,0,1,1.742-8.142,13.587,13.587,0,0,1,4.871-5.607,12.247,12.247,0,0,1,6.783-2.025q5.976,0,9.289,3.937T63.563-16v2.181H42.8A10.892,10.892,0,0,0,45.452-6.5a8.323,8.323,0,0,0,6.443,2.79,9.125,9.125,0,0,0,4.7-1.133,11.812,11.812,0,0,0,3.37-3l3.2,2.492Q59.315.566,51.612.566ZM50.96-26.9A6.988,6.988,0,0,0,45.636-24.6a11.219,11.219,0,0,0-2.662,6.471h15.35v-.4a9.979,9.979,0,0,0-2.152-6.188A6.58,6.58,0,0,0,50.96-26.9Zm33.475.963a15.7,15.7,0,0,0-2.577-.2q-5.154,0-7,4.39V0H69.623V-30.643h5.1l.085,3.54a8.158,8.158,0,0,1,7.307-4.106,5.352,5.352,0,0,1,2.322.4Zm9.771-4.7.17,3.852a11.166,11.166,0,0,1,9.176-4.418q9.714,0,9.8,10.96V0h-5.239V-20.277a7.054,7.054,0,0,0-1.515-4.9,6.072,6.072,0,0,0-4.63-1.586A7.562,7.562,0,0,0,97.491-25.4a9.231,9.231,0,0,0-3,3.568V0H89.249V-30.643ZM133.967.566a13.389,13.389,0,0,1-10.139-4.092q-3.908-4.092-3.908-10.946v-.963a18.388,18.388,0,0,1,1.742-8.142,13.587,13.587,0,0,1,4.871-5.607,12.247,12.247,0,0,1,6.783-2.025q5.976,0,9.289,3.937T145.918-16v2.181H125.159A10.892,10.892,0,0,0,127.807-6.5a8.323,8.323,0,0,0,6.443,2.79,9.125,9.125,0,0,0,4.7-1.133,11.812,11.812,0,0,0,3.37-3l3.2,2.492Q141.67.566,133.967.566ZM133.316-26.9a6.988,6.988,0,0,0-5.324,2.308,11.219,11.219,0,0,0-2.662,6.471h15.35v-.4a9.979,9.979,0,0,0-2.152-6.188A6.58,6.58,0,0,0,133.316-26.9ZM157.671,0h-5.239V-43.5h5.239Z" transform="translate(1054.957 1283.934)" fill="#fff"/>
    <path id="Trazado_684086" data-name="Trazado 684086" d="M11.388-12.359a17.192,17.192,0,0,1-6.846-3.323A6.349,6.349,0,0,1,2.4-20.547a6.707,6.707,0,0,1,2.618-5.418,10.406,10.406,0,0,1,6.808-2.142A11.359,11.359,0,0,1,16.92-27a8.376,8.376,0,0,1,3.466,3.047,7.791,7.791,0,0,1,1.228,4.247H17.938a5.07,5.07,0,0,0-1.6-3.965,6.5,6.5,0,0,0-4.513-1.443,6.66,6.66,0,0,0-4.218,1.192,3.977,3.977,0,0,0-1.514,3.31,3.579,3.579,0,0,0,1.438,2.871A14.1,14.1,0,0,0,12.426-15.6a22.708,22.708,0,0,1,5.408,2.144,8.207,8.207,0,0,1,2.895,2.733,6.975,6.975,0,0,1,.943,3.675,6.478,6.478,0,0,1-2.628,5.4A11.2,11.2,0,0,1,12.016.381,13.033,13.033,0,0,1,6.684-.714a8.973,8.973,0,0,1-3.818-3A7.319,7.319,0,0,1,1.523-8.036H5.2a4.775,4.775,0,0,0,1.857,3.97,7.818,7.818,0,0,0,4.961,1.457A7.187,7.187,0,0,0,16.453-3.79,3.835,3.835,0,0,0,18-7.008a3.765,3.765,0,0,0-1.428-3.152A16.466,16.466,0,0,0,11.388-12.359ZM34.354.381a9,9,0,0,1-6.817-2.752,10.213,10.213,0,0,1-2.628-7.36v-.647a12.364,12.364,0,0,1,1.171-5.475,9.136,9.136,0,0,1,3.275-3.771,8.235,8.235,0,0,1,4.561-1.362,7.717,7.717,0,0,1,6.246,2.647q2.228,2.647,2.228,7.579v1.466H28.431A7.324,7.324,0,0,0,30.212-4.37a5.6,5.6,0,0,0,4.332,1.876,6.136,6.136,0,0,0,3.161-.762,7.943,7.943,0,0,0,2.266-2.019L42.123-3.6A8.652,8.652,0,0,1,34.354.381Zm-.438-18.472a4.7,4.7,0,0,0-3.58,1.552,7.544,7.544,0,0,0-1.79,4.351H38.867v-.267a6.71,6.71,0,0,0-1.447-4.161A4.424,4.424,0,0,0,33.916-18.091Zm22.509.647a10.558,10.558,0,0,0-1.733-.133,4.642,4.642,0,0,0-4.7,2.952V0H46.465V-20.6h3.428l.057,2.38a5.486,5.486,0,0,1,4.913-2.761,3.6,3.6,0,0,1,1.562.267ZM67.115-4.78l5.1-15.825h3.6L68.429,0H65.744L58.279-20.6h3.6ZM87.276.381a9,9,0,0,1-6.817-2.752,10.213,10.213,0,0,1-2.628-7.36v-.647A12.364,12.364,0,0,1,79-15.853a9.136,9.136,0,0,1,3.275-3.771,8.235,8.235,0,0,1,4.561-1.362,7.717,7.717,0,0,1,6.246,2.647q2.228,2.647,2.228,7.579v1.466H81.353A7.324,7.324,0,0,0,83.134-4.37a5.6,5.6,0,0,0,4.332,1.876,6.136,6.136,0,0,0,3.161-.762,7.943,7.943,0,0,0,2.266-2.019L95.045-3.6A8.652,8.652,0,0,1,87.276.381Zm-.438-18.472a4.7,4.7,0,0,0-3.58,1.552,7.544,7.544,0,0,0-1.79,4.351H91.789v-.267a6.71,6.71,0,0,0-1.447-4.161A4.424,4.424,0,0,0,86.838-18.091Zm22.509.647a10.558,10.558,0,0,0-1.733-.133,4.642,4.642,0,0,0-4.7,2.952V0H99.387V-20.6h3.428l.057,2.38a5.486,5.486,0,0,1,4.913-2.761,3.6,3.6,0,0,1,1.562.267ZM124.581-5.465a2.594,2.594,0,0,0-1.076-2.219,10.356,10.356,0,0,0-3.751-1.362,17.737,17.737,0,0,1-4.247-1.371,6.041,6.041,0,0,1-2.323-1.9,4.555,4.555,0,0,1-.752-2.628,5.345,5.345,0,0,1,2.142-4.285,8.367,8.367,0,0,1,5.475-1.752,8.609,8.609,0,0,1,5.684,1.809,5.746,5.746,0,0,1,2.18,4.627h-3.542a3.18,3.18,0,0,0-1.228-2.495,4.6,4.6,0,0,0-3.094-1.047,4.816,4.816,0,0,0-3.009.838,2.637,2.637,0,0,0-1.085,2.19,2.137,2.137,0,0,0,1.009,1.923A12.418,12.418,0,0,0,120.61-11.9a19,19,0,0,1,4.275,1.409,6.236,6.236,0,0,1,2.428,1.971,4.846,4.846,0,0,1,.79,2.809,5.273,5.273,0,0,1-2.209,4.427A9.266,9.266,0,0,1,120.163.381a10.376,10.376,0,0,1-4.38-.876,7.124,7.124,0,0,1-2.98-2.447,5.9,5.9,0,0,1-1.076-3.4h3.523a3.647,3.647,0,0,0,1.419,2.809,5.5,5.5,0,0,0,3.494,1.038,5.681,5.681,0,0,0,3.209-.809A2.487,2.487,0,0,0,124.581-5.465Z" transform="translate(948.038 1466.239)" fill="#fff"/>
    <path id="Trazado_684087" data-name="Trazado 684087" d="M11.706,24.641A17.192,17.192,0,0,1,4.86,21.318a6.349,6.349,0,0,1-2.142-4.865,6.707,6.707,0,0,1,2.618-5.418,10.406,10.406,0,0,1,6.808-2.142A11.359,11.359,0,0,1,17.238,10,8.376,8.376,0,0,1,20.7,13.044a7.791,7.791,0,0,1,1.228,4.247H18.256a5.07,5.07,0,0,0-1.6-3.965,6.5,6.5,0,0,0-4.513-1.443,6.66,6.66,0,0,0-4.218,1.192,3.977,3.977,0,0,0-1.514,3.31,3.579,3.579,0,0,0,1.438,2.871A14.1,14.1,0,0,0,12.743,21.4a22.708,22.708,0,0,1,5.408,2.144,8.207,8.207,0,0,1,2.895,2.733,6.975,6.975,0,0,1,.943,3.675,6.478,6.478,0,0,1-2.628,5.4,11.2,11.2,0,0,1-7.027,2.028A13.033,13.033,0,0,1,7,36.286a8.973,8.973,0,0,1-3.818-3,7.319,7.319,0,0,1-1.343-4.323H5.517a4.775,4.775,0,0,0,1.857,3.97,7.818,7.818,0,0,0,4.961,1.457,7.187,7.187,0,0,0,4.437-1.181,3.835,3.835,0,0,0,1.542-3.218,3.765,3.765,0,0,0-1.428-3.152A16.466,16.466,0,0,0,11.706,24.641Zm13.482,1.866a12.17,12.17,0,0,1,1.19-5.446,8.879,8.879,0,0,1,3.313-3.732,9.02,9.02,0,0,1,4.846-1.314,8.689,8.689,0,0,1,6.808,2.914,11.209,11.209,0,0,1,2.6,7.75v.248a12.276,12.276,0,0,1-1.152,5.4A8.748,8.748,0,0,1,39.5,36.048a9.123,9.123,0,0,1-4.923,1.333,8.668,8.668,0,0,1-6.789-2.914,11.153,11.153,0,0,1-2.6-7.712Zm3.542.419a8.815,8.815,0,0,0,1.59,5.5,5.388,5.388,0,0,0,8.522-.029,9.639,9.639,0,0,0,1.581-5.894,8.8,8.8,0,0,0-1.609-5.494,5.116,5.116,0,0,0-4.275-2.1,5.059,5.059,0,0,0-4.208,2.076A9.568,9.568,0,0,0,28.73,26.926ZM50.1,37V19.119H46.84V16.4H50.1V14.282a7.016,7.016,0,0,1,1.771-5.123A6.69,6.69,0,0,1,56.875,7.35a9.3,9.3,0,0,1,2.418.322l-.19,2.839a10.118,10.118,0,0,0-1.9-.171,3.437,3.437,0,0,0-2.647,1,4.068,4.068,0,0,0-.933,2.875V16.4h4.4v2.723h-4.4V37ZM66.683,11.406V16.4h3.847v2.723H66.683V31.913a2.86,2.86,0,0,0,.514,1.859,2.164,2.164,0,0,0,1.752.62,8.529,8.529,0,0,0,1.676-.229V37a10.273,10.273,0,0,1-2.7.378,4.387,4.387,0,0,1-3.561-1.428,6.136,6.136,0,0,1-1.2-4.056V19.119H59.408V16.4H63.16V11.406Zm26.2,20.738L96.847,16.4h3.523l-6,20.6H91.515L86.506,21.385,81.631,37H78.775L72.8,16.4h3.5L80.355,31.82l4.8-15.425h2.837ZM116.67,37a7.4,7.4,0,0,1-.5-2.171,7.86,7.86,0,0,1-5.865,2.552,7.273,7.273,0,0,1-5-1.723,5.576,5.576,0,0,1-1.952-4.37,5.825,5.825,0,0,1,2.447-5,11.537,11.537,0,0,1,6.884-1.781h3.428V22.889a3.957,3.957,0,0,0-1.1-2.942,4.439,4.439,0,0,0-3.256-1.095,5.137,5.137,0,0,0-3.161.952,2.806,2.806,0,0,0-1.276,2.3h-3.542a4.862,4.862,0,0,1,1.095-2.98,7.473,7.473,0,0,1,2.971-2.276,9.994,9.994,0,0,1,4.123-.838,8.146,8.146,0,0,1,5.58,1.781,6.423,6.423,0,0,1,2.095,4.9v9.483a11.594,11.594,0,0,0,.724,4.513V37Zm-5.846-2.685a6.192,6.192,0,0,0,3.142-.857,5.183,5.183,0,0,0,2.152-2.228V27h-2.761q-6.475,0-6.475,3.79a3.207,3.207,0,0,0,1.1,2.59A4.245,4.245,0,0,0,110.824,34.315Zm24.3-14.758a10.558,10.558,0,0,0-1.733-.133,4.642,4.642,0,0,0-4.7,2.952V37h-3.523V16.4h3.428l.057,2.38a5.486,5.486,0,0,1,4.913-2.761,3.6,3.6,0,0,1,1.562.267Zm11.114,17.824a9,9,0,0,1-6.817-2.752,10.213,10.213,0,0,1-2.628-7.36v-.647a12.364,12.364,0,0,1,1.171-5.475,9.136,9.136,0,0,1,3.275-3.771,8.235,8.235,0,0,1,4.561-1.362,7.717,7.717,0,0,1,6.246,2.647q2.228,2.647,2.228,7.579v1.466H140.314a7.324,7.324,0,0,0,1.781,4.923,5.6,5.6,0,0,0,4.332,1.876,6.136,6.136,0,0,0,3.161-.762,7.943,7.943,0,0,0,2.266-2.019l2.152,1.676A8.652,8.652,0,0,1,146.237,37.381ZM145.8,18.909a4.7,4.7,0,0,0-3.58,1.552,7.544,7.544,0,0,0-1.79,4.351H150.75v-.267a6.71,6.71,0,0,0-1.447-4.161A4.424,4.424,0,0,0,145.8,18.909Z" transform="translate(1183.381 1430.048)" fill="#fff"/>
    <path id="Trazado_684088" data-name="Trazado 684088" d="M7.141,0H3.485V-27.727H7.141Zm10.34-10.854V0H13.825V-27.727H24.051A10.274,10.274,0,0,1,31.183-25.4a7.876,7.876,0,0,1,2.58,6.151,7.772,7.772,0,0,1-2.523,6.218q-2.523,2.18-7.227,2.18Zm0-2.99h6.57a6.569,6.569,0,0,0,4.494-1.383,5.057,5.057,0,0,0,1.562-4,5.225,5.225,0,0,0-1.562-3.968,6.154,6.154,0,0,0-4.285-1.545H17.481ZM58.824-8.8a10.2,10.2,0,0,1-3.247,6.789A10.641,10.641,0,0,1,48.312.381a9.77,9.77,0,0,1-7.874-3.523q-2.961-3.523-2.961-9.426v-2.666a15.8,15.8,0,0,1,1.381-6.8,10.313,10.313,0,0,1,3.913-4.5,10.9,10.9,0,0,1,5.865-1.571,10.019,10.019,0,0,1,7.084,2.466,10.323,10.323,0,0,1,3.1,6.827H55.148a7.966,7.966,0,0,0-2.066-4.813,6.251,6.251,0,0,0-4.447-1.49,6.542,6.542,0,0,0-5.494,2.592q-1.99,2.592-1.99,7.376v2.687a12.232,12.232,0,0,0,1.885,7.185,6.092,6.092,0,0,0,5.275,2.668A7.036,7.036,0,0,0,52.987-3.99Q54.615-5.37,55.148-8.8Z" transform="translate(1150.881 1373.578)" fill="#161615"/>
    <g id="Grupo_908335" data-name="Grupo 908335" transform="translate(927.377 1209.273)">
      <g id="Grupo_908334" data-name="Grupo 908334" clip-path="url(#clip-path)">
        <line id="Línea_1055" data-name="Línea 1055" y2="122.694" transform="translate(208.258 115.166)" fill="#fff"/>
        <line id="Línea_1056" data-name="Línea 1056" y2="88.683" transform="translate(208.258 132.171)" fill="none" stroke="#161615" stroke-miterlimit="10" stroke-width="1"/>
        <path id="Trazado_675010" data-name="Trazado 675010" d="M105.595,80.809,111.171,60l5.578,20.808Z" transform="translate(97.087 55.166)" fill="#161615"/>
        <path id="Trazado_675011" data-name="Trazado 675011" d="M105.595,113.081l5.576,20.808,5.578-20.808Z" transform="translate(97.087 103.97)" fill="#161615"/>
      </g>
    </g>
  </g>
</svg>
