<svg xmlns="http://www.w3.org/2000/svg" xmlns:xlink="http://www.w3.org/1999/xlink" width="402.571" height="303.207" viewBox="0 0 402.571 303.207">
  <defs>
    <clipPath id="clip-path">
      <rect id="Rectángulo_304558" data-name="Rectángulo 304558" width="19.691" height="32.265" fill="none"/>
    </clipPath>
    <clipPath id="clip-path-3">
      <rect id="Rectángulo_304561" data-name="Rectángulo 304561" width="13.692" height="22.435" fill="none"/>
    </clipPath>
    <clipPath id="clip-path-5">
      <rect id="Rectángulo_304559" data-name="Rectángulo 304559" width="13.692" height="22.435" fill="#4dd0e1"/>
    </clipPath>
    <clipPath id="clip-path-6">
      <rect id="Rectángulo_304562" data-name="Rectángulo 304562" width="32.012" height="23.111" fill="none"/>
    </clipPath>
  </defs>
  <g id="Grupo_912186" data-name="Grupo 912186" transform="translate(0 -54.892)">
    <g id="Grupo_912187" data-name="Grupo 912187">
      <path id="Trazado_682380" data-name="Trazado 682380" d="M240.111,169.727,166.433,127.2c-1.577-.91-1.38-2.5.442-3.551l4.181-2.416a6.841,6.841,0,0,1,6.153-.255l73.678,42.523c1.577.91,1.38,2.5-.442,3.551l-4.181,2.416a6.841,6.841,0,0,1-6.153.255" transform="translate(140.468 161.408)" fill="#f2f2f2"/>
      <path id="Trazado_682381" data-name="Trazado 682381" d="M245.568,46,177.771,6.86a3.241,3.241,0,0,0-3.317-.248l-6.69,3.869,7.874,6.122,1.925-.487v160.66c0,3.767,2.292,8.145,5.118,9.776l59.445,43.514v2.681l6.92-4.04,0-.026c1-.667,1.642-2.061,1.642-4.033V55.779c0-3.769-2.292-8.146-5.118-9.778" transform="translate(142.258 76.216)" fill="#999"/>
      <path id="Trazado_682382" data-name="Trazado 682382" d="M235.2,60.343V52.761l-6.667,5.009L199.394,45.558,177.561,29.669V16.11l-1.934.484-7.86-6.115,6.684-3.869a3.279,3.279,0,0,1,3.317.241l67.792,39.156a11.064,11.064,0,0,1,4.37,5.822Z" transform="translate(142.26 76.217)" fill="#e6e6e6"/>
      <path id="Trazado_682383" data-name="Trazado 682383" d="M239.626,230.768l-67.8-39.142c-2.826-1.633-5.118-6.01-5.118-9.778V12.981c0-3.767,2.292-5.5,5.118-3.869l67.8,39.144c2.826,1.631,5.118,6.008,5.118,9.776V226.9c0,3.769-2.292,5.5-5.118,3.869" transform="translate(141.471 77.885)" fill="#ccc"/>
      <path id="Trazado_682384" data-name="Trazado 682384" d="M167.568,182.015V12.881c0-2.747,1.67-4.009,3.729-2.821l67.582,39.02c2.059,1.188,3.729,4.379,3.729,7.124V225.34c0,2.746-1.67,4.009-3.729,2.819L171.3,189.142c-2.059-1.189-3.729-4.381-3.729-7.126" transform="translate(142.111 78.716)" fill="#333"/>
      <path id="Trazado_682385" data-name="Trazado 682385" d="M239.78,56.021V219.853c0,2.438-1.72,3.4-3.829,2.183l-63.408-36.608a8.475,8.475,0,0,1-3.844-6.63V14.982c0-2.437,1.722-3.416,3.844-2.192l11.584,6.69a2.417,2.417,0,0,1,1.043,1.5l.536,2.449a9.714,9.714,0,0,0,4.4,6.2l28.271,16.322c2.154,1.244,4.008.769,4.4-1.118L223.309,43c.134-.456.559-.578,1.043-.3l11.6,6.7a8.464,8.464,0,0,1,3.829,6.621" transform="translate(142.955 80.695)" fill="#80c5ff"/>
      <path id="Trazado_682386" data-name="Trazado 682386" d="M184.192,22.48c0,1.3-.921,1.829-2.058,1.172a4.529,4.529,0,0,1-2.056-3.547c0-1.3.921-1.827,2.056-1.172a4.529,4.529,0,0,1,2.058,3.547" transform="translate(151.452 85.464)" fill="#666"/>
      <path id="Trazado_682387" data-name="Trazado 682387" d="M182.866,21.433c0,.714-.5,1-1.127.643a2.482,2.482,0,0,1-1.128-1.944c0-.714.5-1,1.128-.643a2.485,2.485,0,0,1,1.127,1.944" transform="translate(151.849 85.975)" fill="#333"/>
      <path id="Trazado_682388" data-name="Trazado 682388" d="M203.56,32.3,183.444,20.683a1.44,1.44,0,0,1-.6-1.146v-.814c0-.442.269-.646.6-.454L203.56,29.882a1.435,1.435,0,0,1,.6,1.146v.814c0,.442-.267.646-.6.454" transform="translate(153.517 85.125)"/>
      <path id="Trazado_682389" data-name="Trazado 682389" d="M215.766,49.575a1.547,1.547,0,0,0-1.561.155,4.811,4.811,0,0,0-2.187,3.788l.056,20.072a1.533,1.533,0,0,0,.643,1.4l1.217.707a1.529,1.529,0,0,1-.643-1.4l-.058-20.074a4.817,4.817,0,0,1,2.189-3.787,1.542,1.542,0,0,1,1.561-.154Z" transform="translate(175.298 108.443)" fill="#e6e6e6"/>
      <path id="Trazado_682390" data-name="Trazado 682390" d="M214.9,50.134c1.214-.7,2.2-.14,2.2,1.254l.056,20.072a4.838,4.838,0,0,1-2.187,3.788c-1.214.7-2.2.128-2.2-1.254l-.056-20.072a4.815,4.815,0,0,1,2.187-3.788" transform="translate(175.818 108.745)" fill="#bfbfbf"/>
      <path id="Trazado_682391" data-name="Trazado 682391" d="M214.938,51.4c1-.575,1.8-.114,1.806,1.029l.047,16.465A3.972,3.972,0,0,1,215,72c-.994.575-1.8.1-1.806-1.029l-.045-16.465a3.95,3.95,0,0,1,1.794-3.107" transform="translate(176.139 109.733)" fill="#ccc"/>
      <path id="Trazado_682392" data-name="Trazado 682392" d="M244.809,64.628,189.132,32.483a2.485,2.485,0,0,0-2.51-.245l-2.8,1.628a2.482,2.482,0,0,1,2.508.245l55.677,32.145a7.738,7.738,0,0,1,3.516,6.089l-.355,125.265a2.461,2.461,0,0,1-1.025,2.257l2.8-1.628a2.461,2.461,0,0,0,1.024-2.257l.356-125.265a7.743,7.743,0,0,0-3.516-6.089" transform="translate(154.246 95.431)" fill="#f2f2f2"/>
      <path id="Trazado_682393" data-name="Trazado 682393" d="M246.114,71.649l-.021,8.141-.33,117.125c-.01,2.236-1.584,3.135-3.539,2.007L186.547,166.77a7.682,7.682,0,0,1-3.516-6.071l.33-117.125.021-8.143c.01-2.234,1.593-3.144,3.539-2.017L242.6,65.557a7.733,7.733,0,0,1,3.518,6.092" transform="translate(153.656 96.126)" fill="#ccc"/>
      <path id="Trazado_682394" data-name="Trazado 682394" d="M243.869,72.1l-.019,7.736-.314,111.286c-.01,2.122-1.5,2.978-3.362,1.907l-52.9-30.55a7.3,7.3,0,0,1-3.343-5.769l.314-111.286.021-7.736c.009-2.124,1.513-2.988,3.361-1.916l52.9,30.538a7.354,7.354,0,0,1,3.341,5.79" transform="translate(154.327 97.9)" fill="#333"/>
      <path id="Trazado_682395" data-name="Trazado 682395" d="M202.364,56.072a3.96,3.96,0,0,1,1.8,3.111l-.049,17.134c0,1.142-.812,1.6-1.81,1.029l-15.88-9.17a3.955,3.955,0,0,1-1.8-3.109l.047-17.136c0-1.142.814-1.6,1.81-1.029Z" transform="translate(154.846 106.372)" fill="#ccc"/>
      <path id="Trazado_682396" data-name="Trazado 682396" d="M192.07,52.516c-2.795-1.614-5.058-.323-5.058,2.884a11.148,11.148,0,0,0,5.058,8.726c2.793,1.612,5.058.32,5.058-2.884a11.145,11.145,0,0,0-5.058-8.726m-1.235,7.767V55.065l3.939,4.885Z" transform="translate(156.628 110.23)" fill="#4d4bb7"/>
      <path id="Trazado_682397" data-name="Trazado 682397" d="M197.589,73.883a2.848,2.848,0,0,1,1.293,2.239l-.035,12.714c0,.823-.587,1.153-1.3.739l-11.063-6.387a2.844,2.844,0,0,1-1.291-2.236l.037-12.714c0-.823.582-1.156,1.3-.742Z" transform="translate(155.268 121.801)" fill="#ccc"/>
      <path id="Trazado_682398" data-name="Trazado 682398" d="M190.952,75.705l-1.039,2.789-4.33-2.5,2.688-3.792c.377-.533,1.32.012,1.7.98Z" transform="translate(155.561 125.292)" fill="#57b2ff"/>
      <path id="Trazado_682399" data-name="Trazado 682399" d="M190.808,78.494l-2.746-1.586,1.039-2.789Z" transform="translate(157.412 126.878)" fill="#4d4bb7"/>
      <path id="Trazado_682400" data-name="Trazado 682400" d="M194.693,82.695l-4.33-2.5-1.706-4.375L189.97,72.3c.395-1.055,1.975-.141,2.368,1.368Z" transform="translate(157.856 125.177)" fill="#57b2ff"/>
      <path id="Trazado_682401" data-name="Trazado 682401" d="M189.5,72.05c0,.613-.433.859-.968.552a2.132,2.132,0,0,1-.968-1.668c0-.613.433-.859.968-.552a2.131,2.131,0,0,1,.968,1.668" transform="translate(157.038 123.989)" fill="#4d4bb7"/>
      <path id="Trazado_682402" data-name="Trazado 682402" d="M227.8,70.293a2.944,2.944,0,0,1,1.338,2.321l-.012,4.639c0,.854-.6,1.2-1.348.77l-27.19-15.7A2.953,2.953,0,0,1,199.246,60l.014-4.639c0-.856.6-1.2,1.347-.77Z" transform="translate(165.762 112.162)" fill="#ccc"/>
      <path id="Trazado_682403" data-name="Trazado 682403" d="M225.957,71.34,201.02,56.873c-.286-.166-.517.009-.517.389a1.236,1.236,0,0,0,.517.989L225.957,72.72c.285.164.517-.01.517-.391a1.241,1.241,0,0,0-.517-.989" transform="translate(166.701 113.955)" fill="#4d4bb7"/>
      <path id="Trazado_682404" data-name="Trazado 682404" d="M227.8,79.582a2.947,2.947,0,0,1,1.338,2.321l-.012,4.643c0,.854-.6,1.2-1.348.767l-27.19-15.7a2.953,2.953,0,0,1-1.34-2.32l.014-4.643c0-.852.6-1.2,1.347-.77Z" transform="translate(165.762 119.099)" fill="#ccc"/>
      <path id="Trazado_682405" data-name="Trazado 682405" d="M225.957,80.481,201.02,66.014c-.286-.166-.517.009-.517.389a1.236,1.236,0,0,0,.517.989l24.937,14.469c.285.164.517-.01.517-.391a1.241,1.241,0,0,0-.517-.989" transform="translate(166.701 120.78)" fill="#4d4bb7"/>
      <path id="Trazado_682406" data-name="Trazado 682406" d="M197.589,90.928a2.848,2.848,0,0,1,1.293,2.239l-.035,12.714c0,.823-.587,1.153-1.3.739l-11.063-6.387A2.844,2.844,0,0,1,185.19,98l.037-12.714c0-.823.582-1.156,1.3-.742Z" transform="translate(155.268 134.527)" fill="#ccc"/>
      <path id="Trazado_682407" data-name="Trazado 682407" d="M196.622,93.315v.017l-5.271.444L186,87.182c0-.206.147-.29.327-.185l9.968,5.755a.719.719,0,0,1,.327.562" transform="translate(155.873 136.46)" fill="#4d4bb7"/>
      <path id="Trazado_682408" data-name="Trazado 682408" d="M191.351,93.917l5.271-.444v6.417c0,.206-.147.29-.327.185l-9.968-5.753a.722.722,0,0,1-.327-.564V87.322l5.271,6.5Z" transform="translate(155.873 136.736)" fill="#4d4bb7"/>
      <path id="Trazado_682409" data-name="Trazado 682409" d="M237.152,129.643a3.95,3.95,0,0,1,1.794,3.109l-.01,3.7c0,1.144-.81,1.607-1.806,1.032L187.9,109.068a3.963,3.963,0,0,1-1.8-3.113l.01-3.7c0-1.144.814-1.6,1.808-1.029Z" transform="translate(155.952 146.929)" fill="#ccc"/>
      <path id="Trazado_682410" data-name="Trazado 682410" d="M235.065,130.78l-47.384-27.523c-.286-.164-.517.01-.517.391a1.236,1.236,0,0,0,.517.989l47.384,27.523c.286.164.517-.01.517-.391a1.236,1.236,0,0,0-.517-.989" transform="translate(156.742 148.587)" fill="#4d4bb7"/>
      <path id="Trazado_682411" data-name="Trazado 682411" d="M209.154,97.592a2.848,2.848,0,0,1,1.292,2.239l-.035,12.714c0,.823-.587,1.153-1.3.739L198.046,106.9a2.844,2.844,0,0,1-1.291-2.236l.037-12.714c0-.823.582-1.156,1.3-.742Z" transform="translate(163.902 139.502)" fill="#ccc"/>
      <path id="Trazado_682412" data-name="Trazado 682412" d="M207.619,106.777l-9.138-5.277a2.2,2.2,0,0,1-1-1.724V94.741c0-.634.447-.889,1-.571l9.138,5.277a2.2,2.2,0,0,1,1,1.724v5.037c0,.632-.447.887-1,.569m-9.138-12.129c-.321-.185-.583-.037-.583.332v5.037a1.29,1.29,0,0,0,.583,1.006l9.138,5.275c.321.187.583.037.583-.332v-5.036a1.285,1.285,0,0,0-.583-1.006Z" transform="translate(164.445 141.746)" fill="#4d4bb7"/>
      <path id="Trazado_682413" data-name="Trazado 682413" d="M201.709,101.876a5.364,5.364,0,0,1-2.43-4.192c0-1.539,1.09-2.161,2.43-1.387a5.364,5.364,0,0,1,2.43,4.192c0,1.539-1.09,2.161-2.43,1.387m0-5.1c-1.111-.641-2.014-.126-2.014,1.148a4.442,4.442,0,0,0,2.014,3.474c1.111.641,2.014.126,2.014-1.148a4.442,4.442,0,0,0-2.014-3.474" transform="translate(165.787 143.189)" fill="#4d4bb7"/>
      <path id="Trazado_682414" data-name="Trazado 682414" d="M204.789,98.938l-5.771-3.333V94.4c0-.417.3-.585.657-.376l4.457,2.573a1.448,1.448,0,0,1,.657,1.132Zm-5.353-3.57,4.938,2.851V97.49a.53.53,0,0,0-.241-.414L199.675,94.5c-.131-.075-.239-.014-.239.138Z" transform="translate(165.592 141.673)" fill="#4d4bb7"/>
      <path id="Trazado_682415" data-name="Trazado 682415" d="M220.922,104.374a2.847,2.847,0,0,1,1.291,2.237l-.037,12.714c0,.823-.583,1.155-1.3.741l-11.065-6.387a2.844,2.844,0,0,1-1.292-2.237l.035-12.714c0-.823.585-1.155,1.3-.741Z" transform="translate(172.687 144.565)" fill="#ccc"/>
      <path id="Trazado_682416" data-name="Trazado 682416" d="M214.425,101.726c-2.529-1.46-4.578-.7-4.578,1.7A8.213,8.213,0,0,0,212,108.356c-.061.407-.323,1.258-1.481.6,0,0,1.6,1.761,3.111.933a8.418,8.418,0,0,0,.793.526c2.529,1.46,4.58.7,4.58-1.7s-2.051-5.53-4.58-6.99" transform="translate(173.677 146.937)" fill="#4d4bb7"/>
      <path id="Trazado_682417" data-name="Trazado 682417" d="M229.5,92.132a4.591,4.591,0,0,1,2.084,3.614l-.03,10.881c0,1.327-.943,1.864-2.1,1.2l-31.4-18.13a4.6,4.6,0,0,1-2.084-3.61L196,75.2c0-1.329.943-1.865,2.1-1.2Z" transform="translate(163.315 126.576)" fill="#ccc"/>
      <path id="Trazado_682418" data-name="Trazado 682418" d="M227.592,93.117,197.983,75.953c-.286-.164-.517.01-.517.391a1.239,1.239,0,0,0,.517.989L227.592,94.5c.285.164.517-.01.517-.391a1.241,1.241,0,0,0-.517-.989" transform="translate(164.433 128.202)" fill="#4d4bb7"/>
      <path id="Trazado_682419" data-name="Trazado 682419" d="M227.592,95.47,197.983,78.308c-.286-.166-.517.009-.517.391a1.233,1.233,0,0,0,.517.987L227.592,96.85c.285.166.517-.009.517-.39a1.244,1.244,0,0,0-.517-.99" transform="translate(164.433 129.959)" fill="#4d4bb7"/>
      <path id="Trazado_682420" data-name="Trazado 682420" d="M227.592,97.824,197.983,80.66c-.286-.164-.517.01-.517.391a1.239,1.239,0,0,0,.517.989L227.592,99.2c.285.164.517-.01.517-.391a1.241,1.241,0,0,0-.517-.989" transform="translate(164.433 131.716)" fill="#4d4bb7"/>
      <path id="Trazado_682421" data-name="Trazado 682421" d="M245.973,71.649l-.021,8.141L183.22,43.574l.021-8.143c.01-2.234,1.593-3.144,3.539-2.017l55.675,32.143a7.733,7.733,0,0,1,3.518,6.092" transform="translate(153.797 96.126)" fill="#ccc"/>
      <path id="Trazado_682422" data-name="Trazado 682422" d="M189.36,32.629,133.683.484a2.485,2.485,0,0,0-2.51-.245l-2.8,1.628a2.482,2.482,0,0,1,2.508.245l55.677,32.145a7.738,7.738,0,0,1,3.516,6.089L189.72,165.61a2.465,2.465,0,0,1-1.025,2.257l2.8-1.628a2.464,2.464,0,0,0,1.024-2.257l.356-125.265a7.748,7.748,0,0,0-3.516-6.089" transform="translate(112.847 71.539)" fill="#ffd166"/>
      <path id="Trazado_682423" data-name="Trazado 682423" d="M190.665,39.65l-.021,8.141-.33,117.125c-.01,2.236-1.584,3.135-3.539,2.007L131.1,134.771a7.682,7.682,0,0,1-3.516-6.071l.33-117.127.021-8.141c.01-2.234,1.593-3.144,3.539-2.017l55.675,32.141a7.738,7.738,0,0,1,3.518,6.094" transform="translate(112.256 72.234)" fill="#ffad66"/>
      <path id="Trazado_682424" data-name="Trazado 682424" d="M188.42,40.1l-.019,7.736-.314,111.286c-.01,2.122-1.5,2.978-3.362,1.907l-52.9-30.55a7.3,7.3,0,0,1-3.343-5.769L128.8,13.42l.021-7.736c.009-2.124,1.513-2.988,3.361-1.916l52.9,30.538a7.356,7.356,0,0,1,3.341,5.79" transform="translate(112.927 74.008)" fill="#333"/>
      <path id="Trazado_682425" data-name="Trazado 682425" d="M147.69,38.3a3.959,3.959,0,0,1,1.8,3.109l-.049,17.136c0,1.142-.812,1.6-1.808,1.029L131.748,50.4a3.959,3.959,0,0,1-1.8-3.109L130,30.154c0-1.142.812-1.6,1.808-1.029Z" transform="translate(114.025 93.1)" fill="#ffad66"/>
      <path id="Trazado_682426" data-name="Trazado 682426" d="M137.4,34.741c-2.795-1.614-5.058-.323-5.058,2.884a11.148,11.148,0,0,0,5.058,8.726c2.793,1.612,5.06.32,5.06-2.884a11.146,11.146,0,0,0-5.06-8.726m-1.235,7.767V37.29l3.939,4.885Z" transform="translate(115.806 96.959)" fill="#fff"/>
      <g id="Grupo_912172" data-name="Grupo 912172" transform="translate(244.888 93)">
        <g id="Grupo_912171" data-name="Grupo 912171">
          <g id="Grupo_912170" data-name="Grupo 912170" clip-path="url(#clip-path)">
            <g id="Grupo_912169" data-name="Grupo 912169" style="isolation: isolate">
              <g id="Grupo_912168" data-name="Grupo 912168">
                <g id="Grupo_912167" data-name="Grupo 912167" clip-path="url(#clip-path)">
                  <path id="Trazado_682427" data-name="Trazado 682427" d="M148.3,21.728a4.106,4.106,0,0,1,1.86,3.221l-.052,18.285c0,1.182-.842,1.656-1.872,1.062l-15.912-9.186a4.094,4.094,0,0,1-1.855-3.217l.051-18.284c0-1.182.838-1.663,1.869-1.069Z" transform="translate(-130.473 -12.288)" fill="#ffad66"/>
                  <path id="Trazado_682428" data-name="Trazado 682428" d="M138.759,24.348l-1.5,4.014-6.227-3.6,3.865-5.455c.543-.765,1.9.019,2.444,1.411Z" transform="translate(-130.052 -7.266)" fill="#fff"/>
                  <path id="Trazado_682429" data-name="Trazado 682429" d="M138.551,28.36,134.6,26.08l1.493-4.014Z" transform="translate(-127.389 -4.985)" fill="#e6e6e6"/>
                  <path id="Trazado_682430" data-name="Trazado 682430" d="M144.14,34.4l-6.228-3.6-2.452-6.291,1.888-5.067c.568-1.518,2.84-.206,3.408,1.967Z" transform="translate(-126.75 -7.431)" fill="#fff"/>
                  <path id="Trazado_682431" data-name="Trazado 682431" d="M136.664,19.091c0,.882-.622,1.237-1.39.793a3.064,3.064,0,0,1-1.39-2.4c0-.882.622-1.237,1.39-.793a3.061,3.061,0,0,1,1.39,2.4" transform="translate(-127.927 -9.14)" fill="#e6e6e6"/>
                </g>
              </g>
            </g>
          </g>
        </g>
      </g>
      <path id="Trazado_682432" data-name="Trazado 682432" d="M172.349,37.721a2.944,2.944,0,0,1,1.338,2.321l-.012,4.639c0,.854-.6,1.2-1.348.77l-27.19-15.7a2.959,2.959,0,0,1-1.34-2.323l.014-4.639c0-.856.6-1.2,1.347-.77Z" transform="translate(124.363 87.844)" fill="#ffad66"/>
      <path id="Trazado_682433" data-name="Trazado 682433" d="M170.508,38.769,145.571,24.3c-.286-.164-.517.01-.517.391a1.236,1.236,0,0,0,.517.989l24.937,14.469c.285.164.517-.01.517-.391a1.241,1.241,0,0,0-.517-.989" transform="translate(125.301 89.636)" fill="#fff"/>
      <path id="Trazado_682434" data-name="Trazado 682434" d="M172.349,43.985a2.952,2.952,0,0,1,1.338,2.321l-.012,4.644c0,.854-.6,1.195-1.348.765l-27.19-15.7a2.953,2.953,0,0,1-1.34-2.32l.014-4.643c0-.852.6-1.2,1.347-.77Z" transform="translate(124.363 92.521)" fill="#ffad66"/>
      <path id="Trazado_682435" data-name="Trazado 682435" d="M170.508,44.884,145.571,30.415c-.286-.164-.517.01-.517.391a1.236,1.236,0,0,0,.517.989l24.937,14.469c.285.164.517-.01.517-.391a1.241,1.241,0,0,0-.517-.989" transform="translate(125.301 94.202)" fill="#fff"/>
      <path id="Trazado_682436" data-name="Trazado 682436" d="M142.14,53.561a2.848,2.848,0,0,1,1.292,2.239L143.4,68.514c0,.823-.585,1.153-1.3.739l-11.065-6.387a2.844,2.844,0,0,1-1.291-2.236l.037-12.714c0-.823.583-1.156,1.3-.742Z" transform="translate(113.868 106.628)" fill="#ffad66"/>
      <path id="Trazado_682437" data-name="Trazado 682437" d="M141.173,55.947v.017l-5.271.444-5.35-6.594c0-.206.147-.29.327-.185l9.968,5.755a.719.719,0,0,1,.327.562" transform="translate(114.474 108.56)" fill="#fff"/>
      <path id="Trazado_682438" data-name="Trazado 682438" d="M135.9,56.549l5.271-.442v6.417c0,.206-.147.29-.327.185l-9.968-5.753a.722.722,0,0,1-.327-.564V49.954l5.271,6.5Z" transform="translate(114.474 108.836)" fill="#fff"/>
      <path id="Trazado_682439" data-name="Trazado 682439" d="M181.7,97.589a3.954,3.954,0,0,1,1.8,3.109l-.012,3.7c0,1.144-.81,1.607-1.806,1.032L132.454,77.014a3.968,3.968,0,0,1-1.8-3.112l.01-3.7c0-1.144.814-1.6,1.808-1.029Z" transform="translate(114.553 122.997)" fill="#ffad66"/>
      <path id="Trazado_682440" data-name="Trazado 682440" d="M179.616,98.724,132.232,71.2c-.286-.166-.517.01-.517.391a1.23,1.23,0,0,0,.517.987L179.616,100.1c.285.164.517-.01.517-.391a1.246,1.246,0,0,0-.517-.989" transform="translate(115.342 124.654)" fill="#fff"/>
      <path id="Trazado_682441" data-name="Trazado 682441" d="M181.7,90.5a3.957,3.957,0,0,1,1.8,3.109l-.012,3.7c0,1.144-.81,1.607-1.806,1.032L132.454,69.929a3.965,3.965,0,0,1-1.8-3.112l.01-3.7c0-1.144.814-1.6,1.808-1.029Z" transform="translate(114.553 117.708)" fill="#ffad66"/>
      <path id="Trazado_682442" data-name="Trazado 682442" d="M179.616,91.642,132.232,64.118c-.286-.164-.517.01-.517.391a1.239,1.239,0,0,0,.517.989l47.384,27.523c.285.164.517-.01.517-.391a1.241,1.241,0,0,0-.517-.989" transform="translate(115.342 119.365)" fill="#fff"/>
      <path id="Trazado_682443" data-name="Trazado 682443" d="M153.705,60.225A2.848,2.848,0,0,1,155,62.465l-.035,12.714c0,.823-.587,1.153-1.3.739L142.6,69.53a2.844,2.844,0,0,1-1.291-2.236l.037-12.714c0-.823.583-1.156,1.3-.742Z" transform="translate(122.503 111.603)" fill="#ffad66"/>
      <path id="Trazado_682444" data-name="Trazado 682444" d="M152.17,69.409l-9.138-5.277a2.2,2.2,0,0,1-1-1.724V57.373c0-.632.447-.889,1-.571l9.138,5.277a2.2,2.2,0,0,1,1,1.724v5.036c0,.634-.449.889-1,.571m-9.138-12.129c-.321-.185-.583-.037-.583.332V62.65a1.291,1.291,0,0,0,.583,1.006l9.138,5.275c.321.187.583.037.583-.332V63.564a1.285,1.285,0,0,0-.583-1.006Z" transform="translate(123.046 113.847)" fill="#fff"/>
      <path id="Trazado_682445" data-name="Trazado 682445" d="M146.26,64.509a5.366,5.366,0,0,1-2.431-4.192c0-1.539,1.092-2.161,2.431-1.387a5.364,5.364,0,0,1,2.43,4.192c0,1.539-1.09,2.161-2.43,1.387m0-5.1c-1.111-.641-2.014-.126-2.014,1.148a4.442,4.442,0,0,0,2.014,3.474c1.111.641,2.014.126,2.014-1.148a4.442,4.442,0,0,0-2.014-3.474" transform="translate(124.387 115.289)" fill="#fff"/>
      <path id="Trazado_682446" data-name="Trazado 682446" d="M149.34,61.569l-5.771-3.331V57.031c0-.416.3-.583.657-.374l4.457,2.573a1.448,1.448,0,0,1,.657,1.132ZM143.986,58l4.938,2.851v-.73a.53.53,0,0,0-.241-.412l-4.457-2.575c-.133-.075-.239-.014-.239.138Z" transform="translate(124.192 113.774)" fill="#fff"/>
      <path id="Trazado_682447" data-name="Trazado 682447" d="M165.473,67.007a2.847,2.847,0,0,1,1.291,2.237l-.037,12.714c0,.823-.583,1.155-1.3.741l-11.065-6.387a2.844,2.844,0,0,1-1.292-2.237l.035-12.714c0-.823.587-1.155,1.3-.741Z" transform="translate(131.288 116.666)" fill="#ffad66"/>
      <path id="Trazado_682448" data-name="Trazado 682448" d="M158.976,64.358c-2.529-1.46-4.578-.7-4.578,1.7a8.213,8.213,0,0,0,2.155,4.927c-.061.407-.323,1.258-1.481.606,0,0,1.6,1.759,3.111.931a8.415,8.415,0,0,0,.793.526c2.529,1.46,4.578.7,4.578-1.7s-2.049-5.53-4.578-6.992" transform="translate(132.278 119.037)" fill="#fff"/>
      <path id="Trazado_682449" data-name="Trazado 682449" d="M172.378,55.256a4.591,4.591,0,0,1,2.084,3.614l-.03,10.881c0,1.327-.943,1.864-2.1,1.2l-27.49-15.83a4.594,4.594,0,0,1-2.085-3.61l.031-10.881c0-1.331.943-1.865,2.1-1.2Z" transform="translate(123.588 100.762)" fill="#ffad66"/>
      <path id="Trazado_682450" data-name="Trazado 682450" d="M170.47,56.243l-25.7-14.862c-.285-.166-.517.009-.517.389a1.241,1.241,0,0,0,.517.989l25.7,14.864c.285.164.517-.01.517-.391a1.241,1.241,0,0,0-.517-.989" transform="translate(124.706 102.388)" fill="#fff"/>
      <path id="Trazado_682451" data-name="Trazado 682451" d="M170.47,58.6l-25.7-14.862c-.285-.166-.517.009-.517.389a1.241,1.241,0,0,0,.517.989l25.7,14.864c.285.164.517-.01.517-.391a1.241,1.241,0,0,0-.517-.989" transform="translate(124.706 104.145)" fill="#fff"/>
      <path id="Trazado_682452" data-name="Trazado 682452" d="M170.47,60.949l-25.7-14.862c-.285-.166-.517.009-.517.389a1.241,1.241,0,0,0,.517.989l25.7,14.864c.285.164.517-.01.517-.391a1.241,1.241,0,0,0-.517-.989" transform="translate(124.706 105.902)" fill="#fff"/>
      <path id="Trazado_682453" data-name="Trazado 682453" d="M190.524,39.65l-.021,8.141L127.771,11.573l.021-8.141c.01-2.234,1.593-3.144,3.539-2.017l55.675,32.141a7.738,7.738,0,0,1,3.518,6.094" transform="translate(112.397 72.234)" fill="#ffad66"/>
      <path id="Trazado_682454" data-name="Trazado 682454" d="M213.516,54.746,157.839,22.6a2.488,2.488,0,0,0-2.51-.243l-2.8,1.628a2.485,2.485,0,0,1,2.508.243l55.677,32.147a7.738,7.738,0,0,1,3.516,6.089l-.355,125.265a2.465,2.465,0,0,1-1.025,2.257l2.8-1.628a2.461,2.461,0,0,0,1.023-2.257l.356-125.265a7.748,7.748,0,0,0-3.516-6.089" transform="translate(130.882 88.052)" fill="#7981f2"/>
      <path id="Trazado_682455" data-name="Trazado 682455" d="M214.821,61.767l-.021,8.141-.33,117.125c-.011,2.236-1.584,3.135-3.539,2.007l-55.677-32.152a7.682,7.682,0,0,1-3.516-6.071l.33-117.127.021-8.141c.01-2.234,1.593-3.144,3.539-2.017L211.3,55.673a7.738,7.738,0,0,1,3.518,6.094" transform="translate(130.292 88.747)" fill="#4d4bb7"/>
      <path id="Trazado_682456" data-name="Trazado 682456" d="M212.576,62.213l-.019,7.736-.314,111.286c-.01,2.122-1.5,2.978-3.362,1.907l-52.9-30.55a7.3,7.3,0,0,1-3.343-5.769l.314-111.286.021-7.736c.009-2.124,1.513-2.988,3.361-1.916l52.9,30.538a7.354,7.354,0,0,1,3.341,5.79" transform="translate(130.963 90.521)" fill="#333"/>
      <path id="Trazado_682457" data-name="Trazado 682457" d="M171.988,60.082a3.96,3.96,0,0,1,1.8,3.111l-.049,17.136c0,1.141-.812,1.6-1.81,1.027l-15.88-9.17a3.959,3.959,0,0,1-1.8-3.109l.047-17.136c0-1.142.814-1.6,1.809-1.029Z" transform="translate(132.166 109.367)" fill="#4dd0e1"/>
      <path id="Trazado_682458" data-name="Trazado 682458" d="M161.693,56.527c-2.795-1.614-5.058-.323-5.058,2.884a11.148,11.148,0,0,0,5.058,8.726c2.793,1.612,5.058.32,5.058-2.884a11.145,11.145,0,0,0-5.058-8.726m-1.235,7.767V59.076l3.939,4.885Z" transform="translate(133.948 113.225)" fill="#fff"/>
      <g id="Grupo_912181" data-name="Grupo 912181" transform="translate(287.402 134.517)">
        <g id="Grupo_912180" data-name="Grupo 912180">
          <g id="Grupo_912179" data-name="Grupo 912179" clip-path="url(#clip-path-3)">
            <g id="Grupo_912178" data-name="Grupo 912178" style="isolation: isolate">
              <g id="Grupo_912177" data-name="Grupo 912177">
                <g id="Grupo_912176" data-name="Grupo 912176" clip-path="url(#clip-path-3)">
                  <g id="Grupo_912175" data-name="Grupo 912175">
                    <g id="Grupo_912174" data-name="Grupo 912174">
                      <g id="Grupo_912173" data-name="Grupo 912173" clip-path="url(#clip-path-5)">
                        <path id="Trazado_682459" data-name="Trazado 682459" d="M167.213,42.622a2.847,2.847,0,0,1,1.292,2.239l-.035,12.714c0,.823-.587,1.153-1.3.739L156.1,51.927a2.844,2.844,0,0,1-1.291-2.236l.037-12.714c0-.823.583-1.156,1.3-.742Z" transform="translate(-154.814 -36.057)" fill="#4dd0e1"/>
                      </g>
                    </g>
                  </g>
                  <path id="Trazado_682460" data-name="Trazado 682460" d="M160.576,44.444l-1.039,2.791-4.33-2.5,2.688-3.792c.377-.533,1.32.012,1.7.982Z" transform="translate(-154.521 -32.565)" fill="#fff"/>
                  <path id="Trazado_682461" data-name="Trazado 682461" d="M160.431,47.233l-2.746-1.586,1.039-2.789Z" transform="translate(-152.67 -30.979)" fill="#e6e6e6"/>
                  <path id="Trazado_682462" data-name="Trazado 682462" d="M164.317,51.434l-4.33-2.5-1.706-4.375,1.313-3.525c.395-1.055,1.975-.141,2.368,1.368Z" transform="translate(-152.225 -32.68)" fill="#fff"/>
                  <path id="Trazado_682463" data-name="Trazado 682463" d="M159.119,40.789c0,.613-.433.859-.968.552a2.134,2.134,0,0,1-.966-1.668c0-.613.433-.859.966-.552a2.131,2.131,0,0,1,.968,1.668" transform="translate(-153.044 -33.868)" fill="#e6e6e6"/>
                </g>
              </g>
            </g>
          </g>
        </g>
      </g>
      <path id="Trazado_682464" data-name="Trazado 682464" d="M196.505,73.8a2.944,2.944,0,0,1,1.338,2.321l-.012,4.639c0,.854-.6,1.2-1.348.77l-27.19-15.7a2.959,2.959,0,0,1-1.34-2.323l.014-4.639c0-.856.6-1.2,1.347-.77Z" transform="translate(142.398 114.784)" fill="#4dd0e1"/>
      <path id="Trazado_682465" data-name="Trazado 682465" d="M194.664,74.851,169.727,60.382c-.286-.164-.517.01-.517.391a1.236,1.236,0,0,0,.517.989l24.937,14.469c.285.164.517-.01.517-.391a1.241,1.241,0,0,0-.517-.989" transform="translate(143.337 116.576)" fill="#fff"/>
      <path id="Trazado_682466" data-name="Trazado 682466" d="M196.505,83.093a2.947,2.947,0,0,1,1.338,2.321l-.012,4.643c0,.852-.6,1.2-1.348.767l-27.19-15.7a2.947,2.947,0,0,1-1.34-2.318l.014-4.643c0-.852.6-1.2,1.347-.77Z" transform="translate(142.398 121.72)" fill="#4dd0e1"/>
      <path id="Trazado_682467" data-name="Trazado 682467" d="M194.664,83.992,169.727,69.523c-.286-.164-.517.01-.517.391a1.236,1.236,0,0,0,.517.989l24.937,14.467c.285.166.517-.009.517-.389a1.241,1.241,0,0,0-.517-.989" transform="translate(143.337 123.401)" fill="#fff"/>
      <path id="Trazado_682468" data-name="Trazado 682468" d="M166.3,88.259a2.848,2.848,0,0,1,1.293,2.239l-.035,12.714c0,.823-.587,1.153-1.3.739l-11.065-6.387a2.844,2.844,0,0,1-1.291-2.236l.037-12.714c0-.823.583-1.156,1.3-.742Z" transform="translate(131.904 132.534)" fill="#fd9927"/>
      <path id="Trazado_682469" data-name="Trazado 682469" d="M165.329,90.646v.017l-5.271.444-5.35-6.594c0-.206.147-.29.327-.185L165,90.083a.719.719,0,0,1,.327.562" transform="translate(132.509 134.467)" fill="#fff"/>
      <path id="Trazado_682470" data-name="Trazado 682470" d="M160.058,91.248l5.271-.444v6.417c0,.206-.147.29-.327.185l-9.968-5.753a.722.722,0,0,1-.327-.564V84.653l5.271,6.5Z" transform="translate(132.509 134.743)" fill="#fff"/>
      <path id="Trazado_682471" data-name="Trazado 682471" d="M205.859,99.118a3.95,3.95,0,0,1,1.794,3.109l-.01,3.7c0,1.144-.81,1.607-1.806,1.032L156.61,78.542a3.965,3.965,0,0,1-1.8-3.112l.011-3.7c0-1.144.814-1.6,1.808-1.029Z" transform="translate(132.588 124.139)" fill="#4dd0e1"/>
      <path id="Trazado_682472" data-name="Trazado 682472" d="M203.772,100.255,156.388,72.731c-.286-.164-.517.01-.517.391a1.239,1.239,0,0,0,.517.989l47.384,27.523c.286.164.517-.01.517-.391a1.236,1.236,0,0,0-.517-.989" transform="translate(133.377 125.796)" fill="#fff"/>
      <path id="Trazado_682473" data-name="Trazado 682473" d="M177.861,94.923a2.848,2.848,0,0,1,1.293,2.239l-.035,12.714c0,.823-.587,1.153-1.3.739l-11.065-6.387a2.844,2.844,0,0,1-1.291-2.236l.037-12.714c0-.823.582-1.156,1.3-.742Z" transform="translate(140.538 137.51)" fill="#fd9927"/>
      <path id="Trazado_682474" data-name="Trazado 682474" d="M176.326,104.107l-9.138-5.277a2.2,2.2,0,0,1-1-1.724V92.071c0-.632.447-.889,1-.571l9.138,5.277a2.2,2.2,0,0,1,1,1.724v5.037c0,.632-.449.887-1,.569m-9.138-12.129c-.321-.185-.583-.037-.583.332v5.037a1.29,1.29,0,0,0,.583,1.006l9.138,5.275c.321.187.583.037.583-.332V98.262a1.285,1.285,0,0,0-.583-1.006Z" transform="translate(141.081 139.754)" fill="#fff"/>
      <path id="Trazado_682475" data-name="Trazado 682475" d="M170.416,99.207a5.364,5.364,0,0,1-2.43-4.192c0-1.539,1.09-2.161,2.43-1.387a5.364,5.364,0,0,1,2.43,4.192c0,1.539-1.09,2.161-2.43,1.387m0-5.1c-1.111-.641-2.014-.126-2.014,1.148a4.442,4.442,0,0,0,2.014,3.474c1.111.641,2.014.126,2.014-1.148a4.442,4.442,0,0,0-2.014-3.474" transform="translate(142.423 141.196)" fill="#fff"/>
      <path id="Trazado_682476" data-name="Trazado 682476" d="M173.5,96.268l-5.771-3.331V91.73c0-.416.3-.583.657-.374l4.457,2.573a1.448,1.448,0,0,1,.657,1.132ZM168.142,92.7l4.938,2.851v-.728a.53.53,0,0,0-.241-.414l-4.457-2.575c-.131-.075-.239-.014-.239.138Z" transform="translate(142.228 139.681)" fill="#fff"/>
      <path id="Trazado_682477" data-name="Trazado 682477" d="M189.629,101.7a2.847,2.847,0,0,1,1.291,2.237l-.037,12.714c0,.823-.583,1.155-1.3.741l-11.065-6.387a2.844,2.844,0,0,1-1.292-2.237l.035-12.714c0-.823.585-1.155,1.3-.741Z" transform="translate(149.323 142.572)" fill="#fd9927"/>
      <path id="Trazado_682478" data-name="Trazado 682478" d="M183.133,99.057c-2.529-1.46-4.58-.7-4.58,1.7a8.216,8.216,0,0,0,2.157,4.927c-.061.407-.325,1.258-1.481.6,0,0,1.6,1.761,3.111.933a8.435,8.435,0,0,0,.793.526c2.529,1.46,4.578.7,4.578-1.7s-2.049-5.53-4.578-6.99" transform="translate(150.312 144.944)" fill="#fff"/>
      <path id="Trazado_682479" data-name="Trazado 682479" d="M198.207,60.371a4.6,4.6,0,0,1,2.084,3.614l-.03,10.881c0,1.327-.945,1.864-2.1,1.2l-31.4-18.13a4.6,4.6,0,0,1-2.084-3.61l.031-10.883c0-1.329.943-1.865,2.1-1.2Z" transform="translate(139.951 102.863)" fill="#4dd0e1"/>
      <path id="Trazado_682480" data-name="Trazado 682480" d="M196.3,61.356,166.69,44.192c-.286-.164-.517.01-.517.391a1.239,1.239,0,0,0,.517.989L196.3,62.736c.285.164.517-.01.517-.391a1.241,1.241,0,0,0-.517-.989" transform="translate(141.069 104.488)" fill="#fff"/>
      <path id="Trazado_682481" data-name="Trazado 682481" d="M196.3,63.709,166.69,46.545c-.286-.164-.517.01-.517.391a1.239,1.239,0,0,0,.517.989L196.3,65.089c.285.164.517-.01.517-.391a1.243,1.243,0,0,0-.517-.989" transform="translate(141.069 106.245)" fill="#fff"/>
      <path id="Trazado_682482" data-name="Trazado 682482" d="M196.3,66.062,166.69,48.9c-.286-.162-.517.01-.517.391a1.242,1.242,0,0,0,.517.99L196.3,67.444c.285.162.517-.01.517-.391a1.247,1.247,0,0,0-.517-.99" transform="translate(141.069 108.002)" fill="#fff"/>
      <path id="Trazado_682483" data-name="Trazado 682483" d="M214.68,61.767l-.021,8.141L151.927,33.69l.021-8.141c.01-2.234,1.593-3.144,3.539-2.017l55.675,32.141a7.738,7.738,0,0,1,3.518,6.094" transform="translate(130.433 88.747)" fill="#0b5999"/>
      <path id="Trazado_682484" data-name="Trazado 682484" d="M176.4,157.426c-10.068,5.813-26.442,5.783-36.574-.066s-10.183-15.3-.114-21.117,26.442-5.783,36.573.066,10.183,15.3.115,21.117" transform="translate(115.703 170.022)" fill="#f2f2f2"/>
      <path id="Trazado_682485" data-name="Trazado 682485" d="M149.079,101.28a.267.267,0,0,0-.208-.038,8.189,8.189,0,0,0-2.7.751,20.777,20.777,0,0,1-2,.98,1.929,1.929,0,0,1-1.13.222,1.685,1.685,0,0,1-.362-.185,20.911,20.911,0,0,1-4.983-5.217c-.814-1.167-1.556-2.384-2.286-3.605-.365-.611-.727-1.223-1.093-1.834-.426-.711-.9-1.252-.26-2q2.861-3.354,5.54-6.857a10.99,10.99,0,0,0,1.762-2.9,11.369,11.369,0,0,0,.48-2.37c.189-1.443.383-2.891.43-4.344.038-1.2-1.072-1.631-2.145-1.72A6.919,6.919,0,0,0,133.2,76.13c-.377.854-.665,1.75-1.113,2.573a21.13,21.13,0,0,1-2.613,3.354,46.807,46.807,0,0,0-5.315,8.419,2.518,2.518,0,0,0-.3,2.2,9.491,9.491,0,0,0,1.755,2.281q2.982,3.257,6.181,6.307a28.665,28.665,0,0,0,5.254,4.194,27.711,27.711,0,0,0,3.56,1.663c2.154.873,4.44,1.7,6.745,1.413a3.172,3.172,0,0,1,.307-1.927c.337-.459.861-.786,1.078-1.326a3.359,3.359,0,0,0,.155-.9c.079-.957.157-1.918.234-2.875a.272.272,0,0,0-.049-.225" transform="translate(109.366 125.396)" fill="#ffb78c"/>
      <path id="Trazado_682486" data-name="Trazado 682486" d="M138.777,70.437c-.4.164-.791.344-1.174.541a20.515,20.515,0,0,0-5.289,4.25,38.513,38.513,0,0,0-2.616,2.98,25.227,25.227,0,0,0-2.791,4.436c-.487,1,.781,2.293,1.443,2.933A9.634,9.634,0,0,0,133,88.243a10.842,10.842,0,0,0,3.277.077,6.673,6.673,0,0,0,2.41-.6.179.179,0,0,0,.1-.087.187.187,0,0,0-.026-.138,3.139,3.139,0,0,1-.473-1.418,4.339,4.339,0,0,1,.606-1.319,30.59,30.59,0,0,0,1.279-3.1c.514-1.469.917-2.98,1.541-4.407a10.388,10.388,0,0,0,.763-1.995,7.422,7.422,0,0,0,.061-1.939,5.96,5.96,0,0,0-.341-2.075c-.119-.262-.3-.428-.318-.718a3.244,3.244,0,0,1,.108-1q-.309.05-.618.115a14.905,14.905,0,0,0-2.59.8" transform="translate(111.67 123.448)" fill="#f2f2f2"/>
      <path id="Trazado_682487" data-name="Trazado 682487" d="M135.462,143.231c-.045,1.35.2,3.167,1.492,3.825a3.372,3.372,0,0,0,2.667.128c1.385-.51,2.314-1.78,3.406-2.774a6.709,6.709,0,0,1,2.637-1.56,16.8,16.8,0,0,1,2.365-.356,20.193,20.193,0,0,0,7.249-2.812,2.137,2.137,0,0,0,.377-3.448,4.3,4.3,0,0,0-2.81-.774,43.452,43.452,0,0,0-11.1.571,7.519,7.519,0,0,0-2.136.755,6.377,6.377,0,0,0-1.355,1.06c-.213.218-.279.405-.6.29-.072-.026-.5-.349-.407-.454a5.44,5.44,0,0,0-.968,1.834,12.551,12.551,0,0,0-.809,3.514c0,.066-.007.133-.009.2" transform="translate(118.136 172.608)" fill="#4d4bb7"/>
      <path id="Trazado_682488" data-name="Trazado 682488" d="M148.766,94.969a8.689,8.689,0,0,0-1.191-2.676,8.118,8.118,0,0,0-2.14-1.808c-1.782-1.165-4.646-2.2-6.2-.075a11.7,11.7,0,0,0-1.069,2.445c-.606,1.439-1.3,2.84-1.878,4.291a36.368,36.368,0,0,0-1.7,5.261,18.852,18.852,0,0,0,.7,11.874,20.218,20.218,0,0,1,1.235,2.885,11.521,11.521,0,0,1,.278,2.912c0,.08,0,.161,0,.241q.055,6.018-.054,12.036c-.035,2.005-.094,4.01-.148,6.017a19.109,19.109,0,0,1-.1,2.562c-.147.924-.374,1.832-.554,2.749-.309,1.574-.61,3.151-.8,4.744a31.378,31.378,0,0,0-.232,4.758c.129,3.953,1.163,7.793,1.941,11.65a42.531,42.531,0,0,1,.837,5.881c.054.952-.009,1.89-.012,2.838-.005.845.681,1.279,1.52,1.427a4.848,4.848,0,0,0,2.1-.183,11.571,11.571,0,0,0,2.681-1.1,3.4,3.4,0,0,0,1.743-1.827,4.018,4.018,0,0,0,.04-1.5c-.7-6.974-1.114-14.041-.059-20.97.135-.893.239-1.794.444-2.674a11.262,11.262,0,0,1,.9-2.176,29.547,29.547,0,0,0,1.684-5.036,89.2,89.2,0,0,0,1.663-10.64c.176-1.464.362-2.927.592-4.386a94.493,94.493,0,0,0,1.478-10.113c.32-6.613-1.7-13.091-3.689-19.405" transform="translate(117.018 138.125)" fill="#333"/>
      <path id="Trazado_682489" data-name="Trazado 682489" d="M146.162,144.6c-.363,1.219-.617,2.634.1,3.684a3.388,3.388,0,0,0,2.589,1.272,3.871,3.871,0,0,0,1.375-.11,7.873,7.873,0,0,0,1.7-.863,6.782,6.782,0,0,1,2-.805,16.237,16.237,0,0,1,3.4-.056,19.04,19.04,0,0,0,3.193-.293,14.437,14.437,0,0,0,4.305-1.242,6.253,6.253,0,0,0,3.065-3.158,2.8,2.8,0,0,0-1.747-3.857,9.944,9.944,0,0,0-3.1-.6c-2.32-.21-4.636-.5-6.962-.524a18.7,18.7,0,0,0-6.864,1.048,3.958,3.958,0,0,0-1.338.756c-.615.589-.475,1.343-.77,2.061q-.54,1.318-.948,2.683" transform="translate(125.863 174.61)" fill="#80c5ff"/>
      <path id="Trazado_682490" data-name="Trazado 682490" d="M163.913,127.451a40.421,40.421,0,0,0-.358-13.687c-1.49-7.357-3.219-14.747-3.918-22.236.154,1.666-1.579,4.643-2.9,5.6a4.828,4.828,0,0,1-2.164.48,10.547,10.547,0,0,1-4.6-.72,46.584,46.584,0,0,1-5.608-3.036c-1.436-.795-2.931-2.285-4.449-.985-2.838,2.43-4.157,7.259-4.2,10.833-.11,9.011,8.008,14.488,10.8,22.514a56.655,56.655,0,0,1,1.83,7.273q.616,2.989,1.228,5.979a26.58,26.58,0,0,1,.737,5.991c-.049,2.045-.381,4.073-.456,6.12a24.426,24.426,0,0,0,.515,4.983c.267,1.535.611,3.058,1,4.567,1.2,4.691,2.772,9.3,3.485,14.092a3.1,3.1,0,0,0,.279,1.237c.21.278.62.3.973.348a6.168,6.168,0,0,0,2.667-.265,9.29,9.29,0,0,0,3.161-1.844,2.711,2.711,0,0,0,1.223-2.6c-.285-1.38-.6-2.746-.833-4.138a60.944,60.944,0,0,1-.8-8.146c-.1-3.35.142-6.7.052-10.052-.052-1.975-.126-4.056-.038-6.07a54.516,54.516,0,0,1,.889-6.174c.524-3.35,1.048-6.7,1.49-10.062" transform="translate(118.323 139.876)" fill="#424242"/>
      <path id="Trazado_682491" data-name="Trazado 682491" d="M163.511,92.882a13.24,13.24,0,0,1,1.048-3.525,12.847,12.847,0,0,0,.711-3.977,3.832,3.832,0,0,0-.278-1.726,4.414,4.414,0,0,0-1.544-1.56q-.773-.55-1.553-1.093c-2.6-1.806-5.256-3.533-7.937-5.215q-2.012-1.263-4.04-2.5a6.644,6.644,0,0,0-1.726-.868,14.606,14.606,0,0,1-1.965-.816,34.462,34.462,0,0,0-4.239-1.313,12.562,12.562,0,0,0-2.07-.477,7.683,7.683,0,0,0-4.665.863A7.18,7.18,0,0,0,132.224,74a10.58,10.58,0,0,0-.833,3.294c-.052.508-.075,1.015-.077,1.513a14.189,14.189,0,0,0,1.6,6.412,63.052,63.052,0,0,0,4.407,7.271c1.483,2.14,1.993,5.229,2.152,7.767a50.96,50.96,0,0,1-.894,10.564,6.061,6.061,0,0,0-.082,1.878c.264,1.595,1.71,2.7,3.09,3.537a26.918,26.918,0,0,0,9.8,3.823,16.333,16.333,0,0,0,10.279-1.577,4.193,4.193,0,0,0,1.672-1.427,5.017,5.017,0,0,0,.445-2.692c-.061-3.205-.224-6.41-.176-9.617.03-2.084.377-4.146.522-6.223a8.319,8.319,0,0,0-.08-2.87,7.984,7.984,0,0,1-.536-2.768" transform="translate(115.042 123.618)" fill="#d9d9d9"/>
      <path id="Trazado_682492" data-name="Trazado 682492" d="M135.921,73.74a4.684,4.684,0,0,0-.009.681c-.023.328-.208.629-.248.961a1.775,1.775,0,0,0,.2.955,3.8,3.8,0,0,0,1.7,1.675,7.35,7.35,0,0,0,2.313.693,27.88,27.88,0,0,0,3.006.238,18.533,18.533,0,0,0,2.679-.016,2.619,2.619,0,0,0,1.586-.587c.517-.5.391-.954.362-1.574-.042-.884-.028-1.776-.072-2.665a35.5,35.5,0,0,1,.1-5.008.36.36,0,0,0-.269-.473,22.111,22.111,0,0,1-3.233-1.607,19.332,19.332,0,0,0-2.175-1.268,8.189,8.189,0,0,0-2.141-.58,4.691,4.691,0,0,0-2.375.15,2.456,2.456,0,0,0-1.394,1.389,3.609,3.609,0,0,0,.024,1.72,17,17,0,0,1-.047,5.315" transform="translate(118.284 120.133)" fill="#ffb78c"/>
      <path id="Trazado_682493" data-name="Trazado 682493" d="M154.369,63.382a2.447,2.447,0,0,1,.332,1.027c.021.547-.393,1.02-.468,1.563a2.187,2.187,0,0,0,.913,1.815,7.125,7.125,0,0,1,1.53,1.453.523.523,0,0,1,.1.267c0,.253-.3.379-.522.494a2.415,2.415,0,0,0-1.134,1.553,9.137,9.137,0,0,0-.208,1.965c-.03.6-.082,1.207-.161,1.806a10.9,10.9,0,0,0-.045,1.584.611.611,0,0,1-.024.211.561.561,0,0,1-.192.232,5.682,5.682,0,0,1-2.529,1.118,13.141,13.141,0,0,1-2.784.175,1.712,1.712,0,0,1-.646-.1c-.363-.159-.3-.463-.473-.735a2.86,2.86,0,0,0-.826-.7,4.253,4.253,0,0,0-2.026-.686c-.891-.058-1.782.168-2.674.134a9.348,9.348,0,0,1-3.224-.912,12.614,12.614,0,0,1-3.4-1.857,8.619,8.619,0,0,1-2.676-5.684,10.9,10.9,0,0,1,3.4-9.428,11.047,11.047,0,0,1,3.661-2c1.764-.592,4.358-1.188,6.1-.358A18.294,18.294,0,0,1,151.4,59.6a15.929,15.929,0,0,1,1.993,2.328,14.949,14.949,0,0,1,.98,1.458" transform="translate(116.416 113.29)" fill="#ffe5cc"/>
      <path id="Trazado_682494" data-name="Trazado 682494" d="M139.749,56.626a13.825,13.825,0,0,1,7.793-1,7.192,7.192,0,0,1,6.035,6.711,7.641,7.641,0,0,1-1.165,4.1A7.31,7.31,0,0,1,149.8,69.31c-.5.234-1.067.328-1.556.592a2.129,2.129,0,0,0-.765,2.964,9.879,9.879,0,0,0,1.151,1.628,16.639,16.639,0,0,1,2.417,4.274.786.786,0,0,1,.073.376.758.758,0,0,1-.3.435,8.31,8.31,0,0,1-3.975,1.813,16.455,16.455,0,0,1-4.4.112,23.073,23.073,0,0,1-8.384-2.225c-.877-.442-2.169-1.151-2.468-2.173a10.2,10.2,0,0,1-.164-3.058,32.919,32.919,0,0,1,1-7.077c.269-1,.362-2.04.709-3.037a11.705,11.705,0,0,1,6.6-7.306" transform="translate(115.103 112.928)" fill="#733118"/>
      <path id="Trazado_682495" data-name="Trazado 682495" d="M194.24,60.442a1.545,1.545,0,0,0-.508-1,.663.663,0,0,0-.982.183q-.115-1.03-.234-2.059a1.1,1.1,0,0,0-.2-.62c-.093-.1-.222-.171-.311-.278-.232-.285-.094-.716-.208-1.065a.749.749,0,0,0-1.46.192,1.353,1.353,0,0,0-1.235.615,3.969,3.969,0,0,0-.533,1.341L186.415,66a18.44,18.44,0,0,1-.407,1.816c-.274,1.7.124,3.657-.975,5.137-.83,1.114-11.215,12.4-11.823,12.988a10.069,10.069,0,0,1-2.857,2.232,22.127,22.127,0,0,1-3.254.873,45.154,45.154,0,0,1-5.841,1.139,25.468,25.468,0,0,1-5.615.084c-1.385-.143-2.756-.421-4.146-.5a8.017,8.017,0,0,0-4.768,1.017,5.056,5.056,0,0,0-2.281,3.78c-.145,2.412-.047,4.9,1.968,6.566a7.275,7.275,0,0,0,4.739,1.343,23.193,23.193,0,0,0,5.773-.779,125.931,125.931,0,0,0,17.449-5.844c2.885-1.149,4.847-3.858,6.541-6.346q1.721-2.528,3.289-5.156c1.551-2.6,2.987-5.264,4.59-7.83,1.212-1.939,2.913-3.359,3.6-5.626.416-1.364.522-2.8.833-4.2.465-2.078,1.394-4.16,1.008-6.256" transform="translate(124.815 112.667)" fill="#ffe5cc"/>
      <path id="Trazado_682496" data-name="Trazado 682496" d="M149.21,74.886a7.911,7.911,0,0,0-2.863.961,5.83,5.83,0,0,0-2.477,3.436,6.809,6.809,0,0,0,1.631,6.255c1.839,2.037,4.264,2.292,6.852,2.526a34.575,34.575,0,0,0,9.832-.512,2.942,2.942,0,0,0,.683-.194,2.529,2.529,0,0,0,.755-.578,8.017,8.017,0,0,0,2.005-5.191,17.163,17.163,0,0,0-.47-4.435c-.257-1.184-.293-2.237-1.694-2.192-3.053.1-6.066-.217-9.112-.328a25.445,25.445,0,0,0-5.142.253" transform="translate(124.26 127.241)" fill="#f2f2f2"/>
      <path id="Trazado_682497" data-name="Trazado 682497" d="M91.733,191.654c-8.178,4.721-21.48,4.7-29.708-.054s-8.272-12.431-.094-17.152,21.48-4.7,29.71.054,8.27,12.431.093,17.152" transform="translate(41.68 127.615)" fill="#f2f2f2"/>
      <path id="Trazado_682498" data-name="Trazado 682498" d="M168.868,197.058,118.7,168.12l8.15-4.705c1.3-.749,1.441-1.886.314-2.536L80.4,133.989a4.882,4.882,0,0,0-4.393.182l-8.076,4.663L20.3,111.362a2.865,2.865,0,0,0-2.582.107l-1.668.962c-.765.442-.847,1.109-.185,1.49L63.5,141.395l-14.2,8.2c-1.3.749-1.441,1.886-.314,2.536l46.762,26.889a4.882,4.882,0,0,0,4.393-.183l14.13-8.157,50.167,28.938a2.871,2.871,0,0,0,2.582-.107l1.668-.962c.763-.442.847-1.109.185-1.492" transform="translate(11.515 82.952)" fill="#f2f2f2"/>
      <path id="Trazado_682499" data-name="Trazado 682499" d="M105.247,162.756l-.44,2.271-1.146,2.18-2.637,1.928-1.888,1.375L90.569,175.3l-10.943,6.89-41.8-24.165.009-.016a.53.53,0,0,1-.171-.424,1.6,1.6,0,0,1,.732-1.261l20.186-11.692.9-.52a7.234,7.234,0,0,0,2.791-3.165,5.146,5.146,0,0,0,.465-3.694L51.058,103.588l1.392-1.326,41.8,24.149-.155,3.158L98.9,142.48l3.741,11.074,2.4,6.356Z" transform="translate(28.123 76.352)" fill="#ccc"/>
      <path id="Trazado_682500" data-name="Trazado 682500" d="M101.025,151.025,99.137,152.4l-8.567,4.784-10.943,6.892-41.8-24.165.007-.017a.523.523,0,0,1-.171-.423,1.6,1.6,0,0,1,.734-1.261l20.186-11.692Z" transform="translate(28.122 94.462)" fill="#e6e6e6"/>
      <path id="Trazado_682501" data-name="Trazado 682501" d="M83.386,159.645,62.327,171.833c-.4.234-.734.047-.734-.417a1.623,1.623,0,0,1,.734-1.266l21.092-12.205a7.279,7.279,0,0,0,2.786-3.17,5.145,5.145,0,0,0,.465-3.694L74.986,117.423l1.394-1.334,11.681,33.656a7.316,7.316,0,0,1-.59,5.158,10.539,10.539,0,0,1-4.085,4.742" transform="translate(45.987 86.675)" fill="#a6a6a6"/>
      <path id="Trazado_682502" data-name="Trazado 682502" d="M164.7,114.524,21.55,31.877a2.31,2.31,0,0,0-2.33-.229l-2.866,1.666a2.31,2.31,0,0,1,2.33.229L161.831,116.19a7.179,7.179,0,0,1,3.257,5.642l-.311,109.88a2.284,2.284,0,0,1-.954,2.1l2.868-1.666a2.281,2.281,0,0,0,.952-2.1l.313-109.88a7.189,7.189,0,0,0-3.257-5.642" transform="translate(12.21 23.465)" fill="#595959"/>
      <path id="Trazado_682503" data-name="Trazado 682503" d="M104.659,134.117l-.059,19.258a2.282,2.282,0,0,1-.952,2.1l-2.863,1.668a2.288,2.288,0,0,0,.952-2.1l.056-19.274Z" transform="translate(75.249 100.135)" fill="#bfbfbf"/>
      <path id="Trazado_682504" data-name="Trazado 682504" d="M165.625,121.119,165.316,231c-.009,2.075-1.472,2.9-3.278,1.871L18.894,150.223a7.152,7.152,0,0,1-3.264-5.647l.309-109.882c.009-2.066,1.474-2.9,3.287-1.864l143.145,82.65a7.155,7.155,0,0,1,3.254,5.638" transform="translate(11.67 24.178)" fill="#333"/>
      <path id="Trazado_682505" data-name="Trazado 682505" d="M165.373,172.015l-.058,19.258c-.007,2.075-1.472,2.9-3.278,1.872L18.894,110.5a7.143,7.143,0,0,1-3.263-5.647l.058-19.258Z" transform="translate(11.67 63.904)" fill="#d9d9d9"/>
      <path id="Trazado_682506" data-name="Trazado 682506" d="M159.456,199.861,18.611,118.314v-81.5l140.844,81.547Z" transform="translate(13.896 27.489)" fill="#80c5ff"/>
      <path id="Trazado_682507" data-name="Trazado 682507" d="M61.16,61.456V77.21L22.569,54.918V39.106Z" transform="translate(16.85 29.197)" fill="#a6a6a6"/>
      <path id="Trazado_682508" data-name="Trazado 682508" d="M87.566,76.747V92.416L48.972,70.138V54.4Z" transform="translate(36.564 40.614)" fill="#a6a6a6"/>
      <path id="Trazado_682509" data-name="Trazado 682509" d="M113.97,92.038v15.6L75.377,85.343V69.688Z" transform="translate(56.278 52.031)" fill="#a6a6a6"/>
      <path id="Trazado_682510" data-name="Trazado 682510" d="M61.168,118.675l-38.6-22.289v-44.3l38.6,22.287Z" transform="translate(16.847 38.892)" fill="#0b5999"/>
      <path id="Trazado_682511" data-name="Trazado 682511" d="M87.573,133.92l-38.6-22.289v-44.3l38.6,22.287Z" transform="translate(36.562 50.274)" fill="#a6a6a6"/>
      <path id="Trazado_682512" data-name="Trazado 682512" d="M113.978,149.165l-38.6-22.289V82.58l38.6,22.287Z" transform="translate(56.276 61.657)" fill="#a6a6a6"/>
      <path id="Trazado_682513" data-name="Trazado 682513" d="M61.16,103.668V111.4L22.569,89.046V81.376Z" transform="translate(16.85 60.758)" fill="#a6a6a6"/>
      <path id="Trazado_682514" data-name="Trazado 682514" d="M87.566,118.9v7.8L48.972,104.367V96.626Z" transform="translate(36.564 72.144)" fill="#a6a6a6"/>
      <path id="Trazado_682515" data-name="Trazado 682515" d="M113.97,134.161v7.87l-38.593-22.35v-7.813Z" transform="translate(56.278 83.524)" fill="#a6a6a6"/>
      <path id="Trazado_682516" data-name="Trazado 682516" d="M38.351,161.391c-8.567,4.945-22.5,4.92-31.114-.056s-8.663-13.019-.1-17.966,22.495-4.918,31.114.058,8.663,13.019.1,17.964" transform="translate(0.554 104.287)" fill="#f2f2f2"/>
      <path id="Trazado_682517" data-name="Trazado 682517" d="M44.363,81.3a1.84,1.84,0,0,0-.966-.072,27.309,27.309,0,0,1-3.76.122.777.777,0,0,0-.865.463,9.115,9.115,0,0,1-2.051,2.211,23.678,23.678,0,0,1-2.452,1.465,25.808,25.808,0,0,1-2.55,1.31c-4.269,1.867-8.745,3.212-13.063,4.962a2.564,2.564,0,0,0-.852.48,2.36,2.36,0,0,0-.4.566,5.259,5.259,0,0,0-.655,1.72,3.387,3.387,0,0,0,1.076,2.9.587.587,0,0,0,.246.138.66.66,0,0,0,.37-.068c4.29-1.679,8.524-3.493,12.756-5.31,2.1-.9,4.2-1.8,6.206-2.882a5.678,5.678,0,0,0,3.013-.66,12.6,12.6,0,0,1,1.212-.73,3.372,3.372,0,0,0,.617-.29,1.917,1.917,0,0,0,.5-.6,31.533,31.533,0,0,0,1.951-3.968,2.579,2.579,0,0,0,.215-.646,1.074,1.074,0,0,0-.543-1.12" transform="translate(12.481 60.626)" fill="#ffb78c"/>
      <g id="Grupo_912184" data-name="Grupo 912184" transform="translate(42.323 99.628)" style="isolation: isolate">
        <g id="Grupo_912183" data-name="Grupo 912183">
          <g id="Grupo_912182" data-name="Grupo 912182" clip-path="url(#clip-path-6)">
            <path id="Trazado_682518" data-name="Trazado 682518" d="M29.693,57.255a2.26,2.26,0,0,0-2.272.224A7.037,7.037,0,0,0,24.231,63a2.24,2.24,0,0,0,.933,2.051L50.781,79.934a2.228,2.228,0,0,1-.933-2.045,7.033,7.033,0,0,1,3.189-5.525,2.251,2.251,0,0,1,2.272-.222Z" transform="translate(-24.232 -57.04)" fill="#7981f2"/>
            <path id="Trazado_682519" data-name="Trazado 682519" d="M42.087,66c1.766-1.018,3.2-.2,3.207,1.832a7.017,7.017,0,0,1-3.186,5.516c-1.766,1.02-3.205.2-3.21-1.825A7.033,7.033,0,0,1,42.087,66" transform="translate(-13.281 -50.676)" fill="#1a1894"/>
            <path id="Trazado_682520" data-name="Trazado 682520" d="M41.547,66.763c1.064-.615,1.928-.119,1.932,1.1a4.226,4.226,0,0,1-1.92,3.322c-1.064.613-1.93.122-1.934-1.1a4.234,4.234,0,0,1,1.921-3.327" transform="translate(-12.737 -49.978)" fill="#80c5ff"/>
          </g>
        </g>
      </g>
      <path id="Trazado_682521" data-name="Trazado 682521" d="M30.913,101.789l-1.4-.3L33.827,81.2a3.213,3.213,0,0,1,3.212-2.562l9.7.136a1.135,1.135,0,0,0,.976-.533l4.372-7.027a.286.286,0,0,0,.04-.227.3.3,0,0,0-.136-.187l-3.514-2.152.746-1.224,3.514,2.154a1.705,1.705,0,0,1,.782,1.076,1.723,1.723,0,0,1-.213,1.319L48.933,79a2.672,2.672,0,0,1-2.216,1.21l-9.7-.136A1.86,1.86,0,0,0,35.229,81.5Z" transform="translate(22.032 50.344)" fill="#f2f2f2"/>
      <path id="Trazado_682522" data-name="Trazado 682522" d="M32.514,83.182q-.613.244-1.23.486a.953.953,0,0,0-.384.229.324.324,0,0,0-.031.414.879.879,0,0,0-.954.835,1.945,1.945,0,0,1,.012.688c-.037.1-.108.182-.148.278a.679.679,0,0,0,.2.732,1.734,1.734,0,0,0,.718.355,8.707,8.707,0,0,0,1.153.255,2.664,2.664,0,0,0,1.472-.1,1.14,1.14,0,0,0,.72-1.181,1.234,1.234,0,0,0,1.287-1.649.478.478,0,0,1-.047-.218c.019-.128.152-.2.257-.271a1.061,1.061,0,0,0,.383-1.205,4.687,4.687,0,0,1-.3-.681c-.072-.4,0-.7-.417-.912a.837.837,0,0,0-.809-.007,1.494,1.494,0,0,0-.5,1.724,2.476,2.476,0,0,0-1.382.231" transform="translate(22.203 60.571)" fill="#ffe5cc"/>
      <path id="Trazado_682523" data-name="Trazado 682523" d="M2.951,149.459a4.392,4.392,0,0,0,.721,2.83,2.511,2.511,0,0,0,2.795.735c1.252-.459,2.092-1.609,3.078-2.506a6.626,6.626,0,0,1,1.789-1.2,5.314,5.314,0,0,1,2.1-.2,11.464,11.464,0,0,0,4.513-1.109,6.142,6.142,0,0,0,2.47-1.947c.767-1.12,1.093-3.074-.538-3.481a7.148,7.148,0,0,0-1.455-.157,39.263,39.263,0,0,0-10.034.515,7.322,7.322,0,0,0-1.757.587c-.194.1-.475.386-.7.36-.1-.01-.583-.424-.512-.531a14.446,14.446,0,0,0-2.279,4.553,7.308,7.308,0,0,0-.189,1.546" transform="translate(2.202 106.278)" fill="#4d4bb7"/>
      <path id="Trazado_682524" data-name="Trazado 682524" d="M23.519,104.662a7.879,7.879,0,0,0-.678-2.561,7.39,7.39,0,0,0-1.649-1.92c-1.422-1.3-3.829-2.629-5.525-.961a10.653,10.653,0,0,0-1.3,2.028c-.749,1.2-1.567,2.347-2.3,3.56a33.029,33.029,0,0,0-2.274,4.449,17.052,17.052,0,0,0-1.085,10.7,18.256,18.256,0,0,1,.686,2.751,10.471,10.471,0,0,1-.171,2.639q-.178,1.171-.362,2.342c-.784,4.98-1.792,9.889-2.216,14.9a26.28,26.28,0,0,1-1.486,6.466,45.24,45.24,0,0,0-1.628,6.318,28.363,28.363,0,0,0-.519,4.274c-.14,3.572.545,7.1.994,10.628a38.164,38.164,0,0,1,.372,5.355c-.012.863-.129,1.7-.2,2.559-.059.763.531,1.2,1.279,1.387a4.406,4.406,0,0,0,1.9-.03,10.5,10.5,0,0,0,2.489-.819,3.079,3.079,0,0,0,1.691-1.534,3.622,3.622,0,0,0,.133-1.352c-.176-6.332-.093-12.729,1.306-18.909a85.419,85.419,0,0,1,4.11-12.057,77.9,77.9,0,0,0,3.94-11.757c.143-.674.068-1.32.269-1.991.3-.992.676-1.963,1.018-2.941a46.379,46.379,0,0,0,1.694-5.678c1.237-5.855.372-11.926-.5-17.847" transform="translate(2.236 73.499)" fill="#333"/>
      <path id="Trazado_682525" data-name="Trazado 682525" d="M30.791,81.422c.692-.362,1.563-.182,2.276-.5a2.56,2.56,0,0,1,1.015-.409.506.506,0,0,1,.168.03.468.468,0,0,1,.245.262.933.933,0,0,1-.348,1.032,2.777,2.777,0,0,1-1.074.44,2.617,2.617,0,0,0-1.064.458,4.31,4.31,0,0,0-.739,1.1,1.249,1.249,0,0,1-1.051.706.9.9,0,0,1-.718-.545c-.246-.554.028-.91.267-1.383a2.567,2.567,0,0,1,1.024-1.189" transform="translate(21.954 60.112)" fill="#ffe5cc"/>
      <path id="Trazado_682526" data-name="Trazado 682526" d="M12.362,149.9c-.047.276-.086.554-.112.831a5.08,5.08,0,0,0,.2,2.552,3.066,3.066,0,0,0,2.189,1.413,3.525,3.525,0,0,0,1.247.045,7.094,7.094,0,0,0,1.617-.6,6.148,6.148,0,0,1,1.879-.513,14.749,14.749,0,0,1,3.058.307,17.235,17.235,0,0,0,2.9.073,13.081,13.081,0,0,0,4-.662,5.653,5.653,0,0,0,3.085-2.515,2.535,2.535,0,0,0-1.163-3.645,8.974,8.974,0,0,0-2.721-.863c-2.059-.43-4.108-.931-6.2-1.2a16.939,16.939,0,0,0-6.272.22c-.337.086-.894.449-1.209.424-.133-.009-.81-.519-.685-.671a7.871,7.871,0,0,0-1.345,2.877,17.279,17.279,0,0,0-.463,1.921" transform="translate(9.097 108.217)" fill="#9996ff"/>
      <path id="Trazado_682527" data-name="Trazado 682527" d="M32.34,119.367c-.515-3.919-1.165-8.158-3.1-11.66a2.935,2.935,0,0,0-.77-.978,1.634,1.634,0,0,0-.274-.169c-.458-.22-.639.086-1.1.342a4.174,4.174,0,0,1-1.855.307,9.533,9.533,0,0,1-4.134-.8,28.693,28.693,0,0,1-4.48-2.622c-.735-.486-1.575-.9-2.274-1.429a7.009,7.009,0,0,1-1.268-1.511.453.453,0,0,0-.255-.2c-.171-.026-.3.141-.389.29a32.918,32.918,0,0,0-3.757,9.309c-.115.494-.229,1-.33,1.5-.494,2.489-.693,5.1.541,7.4a16.182,16.182,0,0,0,1.914,2.587,15.749,15.749,0,0,1,2.019,2.632c1.5,2.957,1.437,6.88,1.871,10.106.421,3.146.737,6.3,1,9.463a33.154,33.154,0,0,1-.033,8.773c-.3,1.588-.913,3.1-1.174,4.7a22.154,22.154,0,0,0-.1,4.527c.066,1.408.2,2.81.381,4.209.545,4.342,1.434,8.655,1.532,13.03a2.357,2.357,0,0,0,.176,1.207,1.573,1.573,0,0,0,1.01.493,5.43,5.43,0,0,0,2.578-.306,12.581,12.581,0,0,0,3.209-1.579c.962-.658.854-1.362.755-2.414q-.165-1.729-.22-3.465a54.835,54.835,0,0,1,.218-7c.393-4.133.725-8.627,1.975-12.556,1.75-5.5,3.6-10.974,4.849-16.61,1.237-5.582,2.236-11.861,1.485-17.573" transform="translate(5.95 75.145)" fill="#424242"/>
      <path id="Trazado_682528" data-name="Trazado 682528" d="M2.6,84.927a14.485,14.485,0,0,0-.08,7.989A39.183,39.183,0,0,0,9.905,108.7a11.08,11.08,0,0,1,2.552,4.347,9.724,9.724,0,0,1-.681,4.843l-.87,2.7a2.475,2.475,0,0,0-.171,1.048,2.153,2.153,0,0,0,.351.821,10.806,10.806,0,0,0,5.844,4.283,23.537,23.537,0,0,0,7.3.954,27.471,27.471,0,0,0,6.8-.678,10.363,10.363,0,0,0,3.867-1.479,1.5,1.5,0,0,0,.751-1.672c-.3-1.037-.8-2.082-1.134-3.128A88.609,88.609,0,0,1,31.326,107c-.272-1.841-.493-3.691-.65-5.546-.084-.976-.148-1.953-.2-2.933a11.262,11.262,0,0,0-.026-2.265c-.405-1.5-1.878-2.421-3.219-3.212q-5.439-3.217-10.555-6.938a17.24,17.24,0,0,0-7.834-3.622C6.3,82.15,3.6,82.179,2.6,84.927" transform="translate(1.488 61.477)" fill="#ffad66"/>
      <path id="Trazado_682529" data-name="Trazado 682529" d="M3.694,87.164a1.841,1.841,0,0,0-.1.2c-.29.652.124.8.566,1.175A11.829,11.829,0,0,0,5.68,89.63a11.489,11.489,0,0,0,9.544,1.053c-.65-3.263-1.3-6.634-.617-9.889A16.6,16.6,0,0,1,9.093,79c-.886-.433-1.761-.9-2.685-1.242-.4-.147-2.218-.77-2.2.049.024,1.277.431,2.517.522,3.79a15.41,15.41,0,0,1-.148,2.821,5.768,5.768,0,0,1-.564,2.227c-.1.176-.218.342-.32.517" transform="translate(2.609 57.785)" fill="#ffe5cc"/>
      <path id="Trazado_682530" data-name="Trazado 682530" d="M20.537,75.537a2.127,2.127,0,0,1,.362,1.045c0,.358-.173.7-.178,1.058a2.376,2.376,0,0,0,.784,1.506l1.713,1.927a.692.692,0,0,1,.166.255c.1.342-.32.576-.617.774a3.087,3.087,0,0,0-1.046,2.636,7.285,7.285,0,0,1-.274,2.919c-.648,1.481-2.414,2.054-3.981,2.461a2.882,2.882,0,0,1-1.1.14,2.8,2.8,0,0,1-.587-.166,4.994,4.994,0,0,1-2.7-1.706c-.243-.381-.4-.851-.786-1.085a1.614,1.614,0,0,0-.765-.187c-2.061-.11-4.173.77-6.146.175A6.642,6.642,0,0,1,1.595,83.4a9.8,9.8,0,0,1-.873-5.6,8.753,8.753,0,0,1,1.237-3.133,10.523,10.523,0,0,1,7.29-4.749,10.494,10.494,0,0,1,5.643.774,12.6,12.6,0,0,1,3.682,2.262,12.266,12.266,0,0,1,1.963,2.587" transform="translate(0.456 52.123)" fill="#ffe5cc"/>
      <path id="Trazado_682531" data-name="Trazado 682531" d="M18.28,78.963a9.206,9.206,0,0,1-.4,1.186c-.559,1.331-1.179,2.023-2.636,1.9a2.131,2.131,0,0,0-1.907,1.01,3.022,3.022,0,0,0-.355,2.185,2.076,2.076,0,0,0,.3.782,3.259,3.259,0,0,0,.9.765,6.3,6.3,0,0,1,2.161,2.325,9.044,9.044,0,0,1,.477,4.761,8.125,8.125,0,0,1-2.141.711A17.418,17.418,0,0,1,1.3,91.86a1.684,1.684,0,0,1-.475-.433A1.8,1.8,0,0,1,.61,90.7c-.141-.917-.271-1.834-.374-2.756a32.851,32.851,0,0,1-.231-4.326,27.153,27.153,0,0,1,.217-3.787,13.849,13.849,0,0,1,3.09-6.6,10.167,10.167,0,0,1,1.975-1.858,11.392,11.392,0,0,1,10.873-.763,4.194,4.194,0,0,1,2.428,3.65,13.688,13.688,0,0,1-.307,4.705" transform="translate(0 51.955)" fill="#733118"/>
      <path id="Trazado_682532" data-name="Trazado 682532" d="M51.6,77.321a1.47,1.47,0,0,1-.206-.292.961.961,0,0,1-.063-.316,4.6,4.6,0,0,0-.189-1.3c-.134-.321-.636-.2-.891-.017a1.666,1.666,0,0,0-.348.414,2.086,2.086,0,0,1-.5.482.809.809,0,0,1-.582.169c-.884-.168.1-1.726.353-2.087a.1.1,0,0,0,.021-.051.084.084,0,0,0-.019-.052.427.427,0,0,0-.473-.1,3.311,3.311,0,0,0-.978.447c-.6.437-1.193.9-1.782,1.357a2.431,2.431,0,0,0-.491.465,4.155,4.155,0,0,0-.353.618c-.161.337-.3.693-.445,1.013q-.411.9-.782,1.808c-.22.545-6.125,11.917-7.614,14.293-.475.756-.9,1.623-1.4,2.342-.376.545-1.137.479-1.724.527-1.195.1-2.393.155-3.593.164A36.222,36.222,0,0,1,22.4,96.58c-2.726-.529-5.42-1.424-8.2-1.378a3.987,3.987,0,0,0-3.528,2.091c-.709,1.581.084,3.588.926,4.943a8.9,8.9,0,0,0,2.749,2.9c1.867,1.17,4.166,1.35,6.363,1.5a25.133,25.133,0,0,0,2.706.183,18.528,18.528,0,0,0,2.83-.536q2.861-.6,5.677-1.4c1.424-.4,2.837-.844,4.222-1.366.679-.257,1.39-.424,2.047-.741a4.122,4.122,0,0,0,1.523-1.453,24.573,24.573,0,0,0,3.533-6.784c.437-1.217,2.943-9.3,3.242-10.337a3.281,3.281,0,0,1,.765-.727,5.635,5.635,0,0,1,1.258-.493,9.271,9.271,0,0,0,1.341-.555,1.663,1.663,0,0,0,.948-.924,2.888,2.888,0,0,1,.11-.475,1.244,1.244,0,0,1,.225-.3,1.372,1.372,0,0,0,.405-.772,3.2,3.2,0,0,1,.009-.608,1.579,1.579,0,0,1,.169-.334,1.584,1.584,0,0,0-.128-1.7" transform="translate(7.766 55.354)" fill="#ffe5cc"/>
      <path id="Trazado_682533" data-name="Trazado 682533" d="M14.557,86.007a4.186,4.186,0,0,0-3.429,1.226A5.124,5.124,0,0,0,9.961,90.37a7.612,7.612,0,0,0,3.8,6.854,13.728,13.728,0,0,0,6.485,1.3q1.884.042,3.771-.005a4.473,4.473,0,0,0,1.644-.133c1.31-.611,1.979-2.852,2.328-4.141.526-1.934.7-4.8-.863-6.321-.674-.657-2.119-.683-3-.87a47.4,47.4,0,0,0-6.131-.9q-1.716-.139-3.439-.15" transform="translate(7.431 64.215)" fill="#ffd166"/>
      <path id="Trazado_682534" data-name="Trazado 682534" d="M94.443,99.807l2.618-1.759,2.683,39.612-2.616,1.759Z" transform="translate(70.514 73.206)" fill="#bfbfbf"/>
      <path id="Trazado_682535" data-name="Trazado 682535" d="M73.833,87.908l2.616-1.759,36,20.785-2.616,1.759Z" transform="translate(55.125 64.321)" fill="#fff"/>
      <path id="Trazado_682536" data-name="Trazado 682536" d="M109.832,107.94l2.685,39.612-36-20.785L73.832,87.155Z" transform="translate(55.125 65.073)" fill="#d9d9d9"/>
      <path id="Trazado_682537" data-name="Trazado 682537" d="M100.017,105.027c-.117-.344-.578-.433-.927-.337a2.484,2.484,0,0,0-1.284,1.034,12.329,12.329,0,0,1-.975,1.368.693.693,0,0,1-.383.241.5.5,0,0,1-.487-.318,1.146,1.146,0,0,1-.049-.615,7.733,7.733,0,0,1,.458-1.567,37.017,37.017,0,0,0,1.5-5.325,1.158,1.158,0,0,0-.126-1.032.255.255,0,0,0-.185-.093.3.3,0,0,0-.2.128c-.751.858-.823,2.306-1.846,2.81q.215-1.944.426-3.89a1.218,1.218,0,0,0-.037-.61.6.6,0,0,0-1.149.124.674.674,0,0,0-.913.117,1.9,1.9,0,0,0-.377.938,2.089,2.089,0,0,1-.358.948.58.58,0,0,0-.751.08,1.5,1.5,0,0,0-.353.739c-.4,1.593-.365,3.268-.716,4.873a10.065,10.065,0,0,1-3.717,5.582,26.265,26.265,0,0,1-3.993,2.452c-2.686,1.378-5.512,2.482-8.106,4.035-1.247.746-2.264,1.759-3.446,2.548a8.635,8.635,0,0,1-3.333,1.4,41.607,41.607,0,0,1-4.305.112.286.286,0,0,0-.159.037.268.268,0,0,0-.084.176,5.075,5.075,0,0,0,.686,3.142,6.308,6.308,0,0,1,.8,1.532,6.966,6.966,0,0,1-.1,2.1.217.217,0,0,0,.028.162c.049.056.136.047.21.035l.749-.136c1.981-.36,3.965-.72,5.905-1.259a26.8,26.8,0,0,0,2.947-1c2.761-1.123,5.07-3.357,7.346-5.247q3.891-3.225,7.61-6.653c1.418-1.3,3.457-1.712,5.025-2.819A14.36,14.36,0,0,0,98,108.159a26.838,26.838,0,0,0,1.81-2.361.935.935,0,0,0,.21-.77" transform="translate(47.844 72.016)" fill="#ffb78c"/>
      <path id="Trazado_682538" data-name="Trazado 682538" d="M68.03,173.849a32.608,32.608,0,0,0-3.385,1.292c-.552.248-1.093.514-1.631.788-.5.258-.774.377-1.237-.051-.1-.093-.751-1.111-.463-1.205a1.25,1.25,0,0,0-.66.828,11.023,11.023,0,0,0-.685,4.171c.033,1.116.028,2.693,1,3.409a3.388,3.388,0,0,0,2.81.536c1.52-.4,2.547-1.776,3.848-2.657a15.528,15.528,0,0,1,4.232-1.675,8.5,8.5,0,0,0,3.96-2.162,2.726,2.726,0,0,0,.639-1.1,1.469,1.469,0,0,0-.19-1.228,2,2,0,0,0-.875-.606,12.041,12.041,0,0,0-3.762-.741,9.772,9.772,0,0,0-1.794-.024,9.009,9.009,0,0,0-1.811.424" transform="translate(44.771 129.459)" fill="#4d4bb7"/>
      <path id="Trazado_682539" data-name="Trazado 682539" d="M73.058,141.31a11.05,11.05,0,0,0-2.854-5.4,7.156,7.156,0,0,0-5.6-2.131c-.866.089-1.67.915-2.458.936-.562.016-1.56-1.123-1.261-1.7a15.889,15.889,0,0,0-1.764,7.076,28.152,28.152,0,0,0,1.389,7.313,26.7,26.7,0,0,1,.615,3.563c.463,3.755.8,7.528.924,11.311a71.894,71.894,0,0,1-.077,10.852,21.969,21.969,0,0,1-1.413,4.852,23.743,23.743,0,0,0-1.1,3.54,19.218,19.218,0,0,0-.293,4.068c.037,2.43.271,4.854.5,7.273q.616,6.364,1.233,12.729a2.2,2.2,0,0,0,.183.81,1.862,1.862,0,0,0,1.425.821c2.178.355,4.33-.62,6.321-1.568a.994.994,0,0,0,.405-.285,1.014,1.014,0,0,0,.089-.723,118.817,118.817,0,0,1-1.1-13.1,23.747,23.747,0,0,1,.515-5.808c.438-1.913,1.06-3.774,1.57-5.666a19.223,19.223,0,0,0,.877-4.833.375.375,0,0,0,.11-.068.7.7,0,0,0,.134-.433q.783-9.2,1.565-18.406c.25-2.955.5-5.912.557-8.876a24.927,24.927,0,0,0-.494-6.15" transform="translate(44.142 99.316)" fill="#333"/>
      <path id="Trazado_682540" data-name="Trazado 682540" d="M84.63,179.037a1.234,1.234,0,0,0-.279-1.355,3.174,3.174,0,0,0-1.913-.72,47.59,47.59,0,0,0-9.25.04,16.466,16.466,0,0,0-3.065.412,6.517,6.517,0,0,0-1.418.543c-.339.183-.562.3-.721-.189a.93.93,0,0,0-.473.541,13.715,13.715,0,0,0-1.116,2.831,4.437,4.437,0,0,0,.4,3.371,3.384,3.384,0,0,0,2.679,1.471,2.573,2.573,0,0,0,1.645-.494,6.381,6.381,0,0,1,1.776-1.165,9.716,9.716,0,0,1,2.445-.494,18.863,18.863,0,0,0,5.111-.744,7.429,7.429,0,0,0,3.071-2.337,6.173,6.173,0,0,0,1.113-1.712" transform="translate(49.457 131.964)" fill="#9996ff"/>
      <path id="Trazado_682541" data-name="Trazado 682541" d="M79.891,188.8a102.468,102.468,0,0,0-.3-11.227c.837-7.954,4.4-15.536,4.56-23.545.094-4.59-.938-9.123-2-13.589a14.442,14.442,0,0,0-1.789-4.838,4.287,4.287,0,0,1-4.246,2.615,10.516,10.516,0,0,1-4.978-1.785,20.533,20.533,0,0,0-4.756-2.405,4.207,4.207,0,0,0-2.218-.11c-.658.182-.865.569-1.483.21-.234-.133-.765-1.163-.849-1.174-.194-.026-.307.206-.355.395a22.014,22.014,0,0,0,.14,11.206,24.136,24.136,0,0,0,1.048,3.1,11.79,11.79,0,0,0,1.1,2.038,23.391,23.391,0,0,0,4.015,4.075,2.186,2.186,0,0,1,.7.854c.3.844.3,5.394.395,6.623q.28,3.691.33,7.4c.052,3.944-.316,7.97.278,11.889.348,2.3-.04,4.84-.035,7.163q.016,7.535.721,15.044.4,4.187,1,8.349c.222,1.513,3.067,1.692,4.26,1.584a7.415,7.415,0,0,0,3.848-1.553c.606-.473.842-.779.728-1.509-.136-.9-.178-16.633-.117-20.8" transform="translate(45.409 99.262)" fill="#424242"/>
      <path id="Trazado_682542" data-name="Trazado 682542" d="M86.865,128.2c0-1.591.009-3.595-.819-5.006a9.482,9.482,0,0,0-1.361-1.677,50.511,50.511,0,0,0-7.952-6.981,28.547,28.547,0,0,0-5.939-3.142,22.214,22.214,0,0,0-3.216-.957,32.7,32.7,0,0,1-3.364-.686c-.809-.262-1.624-.559-2.459-.762a4.136,4.136,0,0,0-3.64,1.025,5.088,5.088,0,0,0-.573.608,6.661,6.661,0,0,0-1.268,2.793c-.753,3.577.211,7.362,1.12,10.782,1.027,3.867,1.677,7.82,2.327,11.764,1.128,6.854,2.26,13.8,1.609,20.715a1.4,1.4,0,0,0,.04.653,1.311,1.311,0,0,0,.362.458,20.469,20.469,0,0,0,12.034,5.058,32.346,32.346,0,0,0,13.07-1.787c.969-.33.009-24.683.03-32.858" transform="translate(41.814 81.302)" fill="#ffad66"/>
      <path id="Trazado_682543" data-name="Trazado 682543" d="M75.648,106.385a2.842,2.842,0,0,0-.117.72,4.345,4.345,0,0,0,.264.9,4.644,4.644,0,0,1-.079,1.864,30.225,30.225,0,0,0,.028,4.428,3.247,3.247,0,0,1-.5,2.065c-.615.786-1.823.99-2.3,1.867a2.756,2.756,0,0,0-.262,1.093,20.791,20.791,0,0,0-.038,3.231,32.49,32.49,0,0,1-5.762.323,10.924,10.924,0,0,1-5.456-1.684,10.708,10.708,0,0,0-.606-7.862c-.788-1.593-1.96-2.962-2.849-4.5a8.829,8.829,0,0,1-1.343-4.681,7.625,7.625,0,0,1,.782-2.985A9.562,9.562,0,0,1,71.742,97.6a6.69,6.69,0,0,1,2.1,2.164c.421.842.548,1.844.913,2.719.51,1.224,1.174,2.534.889,3.9" transform="translate(42.276 71.465)" fill="#ffe5cc"/>
      <path id="Trazado_682544" data-name="Trazado 682544" d="M74.849,102.56a1.7,1.7,0,0,1,.129.838,2.238,2.238,0,0,1-.721,1.048,5.5,5.5,0,0,0-1.413,2.814c-.017.1-.042.21-.129.252s-.211-.021-.306-.077a2.277,2.277,0,0,0-2.37.157c-1.127.735-1.408,2.04-2.078,3.13a8.423,8.423,0,0,1-2.725,2.833,3.807,3.807,0,0,1-3.441.47,5.228,5.228,0,0,1-2.2-2.634q-1.019-1.989-2.033-3.979a8.2,8.2,0,0,1-1.179-3.657,6.78,6.78,0,0,1,.962-3.832,5.147,5.147,0,0,1,6.831-1.7,31.816,31.816,0,0,0,2.878,1.511,4.239,4.239,0,0,0,3.167.141c.934-.4,2.049-1.228,2.983-.3a8.38,8.38,0,0,1,1.649,2.987" transform="translate(42.09 72.862)" fill="#733118"/>
      <path id="Trazado_682545" data-name="Trazado 682545" d="M75.371,98.828a3.146,3.146,0,0,0-.456-1.855,3.955,3.955,0,0,0-2.375-1.548,14.452,14.452,0,0,0-4.9-.447,16.4,16.4,0,0,0-4.971.994,11.192,11.192,0,0,0-2.608,1.417c-.678.5-1.642,1.179-1.755,2.075-.068.521-.522.531-.9.877a3.1,3.1,0,0,0-.828,1.3,5.155,5.155,0,0,0-.089,2.538l1.616-.706c.065-.028.129-.058.192-.087a1.486,1.486,0,0,0,.858-.775.6.6,0,0,1,.108-.245c.138-.148.389-.056.547.073a3.509,3.509,0,0,0,1.672.665,31.682,31.682,0,0,0,5.226.358,20.319,20.319,0,0,0,4.094-.314,6.581,6.581,0,0,0,2.973-1.361,4.4,4.4,0,0,0,1.6-2.962" transform="translate(42.09 70.887)" fill="#8c3c1d"/>
      <path id="Trazado_682546" data-name="Trazado 682546" d="M105.378,111.147c-.645.982-.877,2.325-1.9,2.9a.215.215,0,0,1-.121.038c-.147-.007-.148-.222-.1-.362q.574-1.787,1.149-3.574a7.092,7.092,0,0,0,.428-1.937,1.255,1.255,0,0,0-.379-1.062c-.238-.182-.592-.229-.741-.491a2.62,2.62,0,0,0-.155-.349c-.211-.276-.664-.082-.887.183a6.032,6.032,0,0,0-.84,1.816,2.357,2.357,0,0,1-1.249,1.5q.249-1.307.5-2.613a.752.752,0,0,0-.1-.7.5.5,0,0,0-.608,0,1.311,1.311,0,0,0-.386.522,28.705,28.705,0,0,0-1.347,3.832c-.086.26-.318.582-.559.447-.182-.1-.166-.388-.328-.517a.377.377,0,0,0-.508.129,1.155,1.155,0,0,0-.145.561,12.062,12.062,0,0,1-.442,2.293,14.472,14.472,0,0,0-.433,1.544,5.447,5.447,0,0,0-.03,1.581c.056.5.258.989.3,1.479a4.061,4.061,0,0,1-.9,2.29,2.968,2.968,0,0,0-.231.339c-.017.019-.037.037-.052.056-.927.994-5.458,4.912-6.765,5.9-.809.608-1.621,1.21-2.426,1.82a1.879,1.879,0,0,1-2.01.5c-1.946-.735-3.678-1.935-5.664-2.6l-.52-.133a3.1,3.1,0,0,0-1.858.395,4.072,4.072,0,0,0-1.658,1.092,5.279,5.279,0,0,0-.718,1.934,35.764,35.764,0,0,1-1.432,3.684.407.407,0,0,0-.04.246.389.389,0,0,0,.2.21,5.962,5.962,0,0,0,1.575.54c2.075.517,4.092,1.244,6.155,1.806a20.788,20.788,0,0,0,5.264.845,2.963,2.963,0,0,0,2.037-.461,63.383,63.383,0,0,0,13.522-14.487,4.434,4.434,0,0,1,.339-.5,9.828,9.828,0,0,0,1.417-1.878c1.12-2.014,1.354-4.421,2.442-6.45.489-.913,1.172-1.839,1.05-2.87-.335-.082-.645.208-.835.5" transform="translate(53.911 79.278)" fill="#ffe5cc"/>
      <path id="Trazado_682547" data-name="Trazado 682547" d="M67.784,123.565c.054.121.108.238.168.353,1.444,2.88,4.26,4.8,7.072,6.37.776.435,1.56.852,2.36,1.242a1.7,1.7,0,0,0,2.155-.113,12.157,12.157,0,0,0,3.546-3.871,10.9,10.9,0,0,0,1.144-4.693,2.043,2.043,0,0,0-1.092-2.192c-1.57-1.107-3.2-2.141-4.812-3.182s-3.209-2.092-4.856-3.065a3.4,3.4,0,0,0-3.63.019c-3.259,1.75-3.411,6.09-2.056,9.133" transform="translate(50.009 85.039)" fill="#ffd166"/>
      <path id="Trazado_682548" data-name="Trazado 682548" d="M85.62,169.893a.435.435,0,0,1,.005.823l-36.082,20.9a1.569,1.569,0,0,1-1.422,0L17.931,174.2a.434.434,0,0,1-.005-.823l36.082-20.9a1.565,1.565,0,0,1,1.42,0Z" transform="translate(13.166 113.718)" fill="#f2f2f2"/>
      <path id="Trazado_682549" data-name="Trazado 682549" d="M67.414,169.586l-28.825-16.75a.227.227,0,0,1-.1-.166l28.825,16.752a.227.227,0,0,0,.1.164" transform="translate(28.736 113.987)" fill="#5067aa"/>
      <path id="Trazado_682550" data-name="Trazado 682550" d="M67.415,170.015,38.59,153.265l-.238-1.39,28.823,16.75Z" transform="translate(28.635 113.394)" fill="#5067aa"/>
      <path id="Trazado_682551" data-name="Trazado 682551" d="M37.946,151.212l28.825,16.75a1.583,1.583,0,0,1,.709,1.158L38.655,152.37a1.58,1.58,0,0,0-.709-1.158" transform="translate(28.331 112.899)" fill="#5067aa"/>
      <path id="Trazado_682552" data-name="Trazado 682552" d="M48.2,180.768l-28.825-16.75a.521.521,0,0,1-.215-.472L47.983,180.3a.515.515,0,0,0,.215.472" transform="translate(14.304 122.108)" fill="#5067aa"/>
      <path id="Trazado_682553" data-name="Trazado 682553" d="M47.988,182.132l-28.825-16.75-.012-4.293,28.825,16.75Z" transform="translate(14.299 120.273)" fill="#5067aa"/>
      <path id="Trazado_682554" data-name="Trazado 682554" d="M47.976,186.152,19.151,169.4l33.682-19.447L81.658,166.7Z" transform="translate(14.299 111.96)" fill="#6785db"/>
      <path id="Trazado_682555" data-name="Trazado 682555" d="M69.337,159.545l.81,4.679-.355.2c-.178.1-.332.044-.363-.14L69.19,162.9c-.222-1.3-1.3-1.7-2.54-.982-.056.033-.115.07-.173.108l-18.306,11.98a1.625,1.625,0,0,0-.685,1.238l0,1.212a1.613,1.613,0,0,1-.734,1.27L36.4,183.7c-.405.234-.735.047-.737-.419l-.012-4.293Z" transform="translate(26.621 119.121)" fill="#2b438a"/>
      <path id="Trazado_682556" data-name="Trazado 682556" d="M82.776,159.118,48.818,178.787a1.466,1.466,0,0,1-1.336,0L19.066,162.4a.469.469,0,0,1-.278-.39l-.007,1.179a.469.469,0,0,0,.278.39l28.414,16.389a1.469,1.469,0,0,0,1.338,0L82.769,160.3a.47.47,0,0,0,.274-.384l.007-1.179a.466.466,0,0,1-.274.384" transform="translate(14.022 118.515)" fill="#2b438a"/>
      <path id="Trazado_682557" data-name="Trazado 682557" d="M82.768,165.585a.409.409,0,0,1,.005.774L48.815,186.03a1.48,1.48,0,0,1-1.338,0L19.063,169.641a.41.41,0,0,1-.005-.775L53.016,149.2a1.469,1.469,0,0,1,1.338,0Z" transform="translate(14.025 111.274)" fill="#6785db"/>
      <path id="Trazado_682558" data-name="Trazado 682558" d="M78.766,165.772l-1.429.828L47.793,183.714a1.35,1.35,0,0,1-1.219,0L25.588,171.608l-4.931-2.844a.373.373,0,0,1-.005-.706l30.975-17.941a1.351,1.351,0,0,1,1.219,0l25.916,14.949a.373.373,0,0,1,0,.706" transform="translate(15.232 111.973)" fill="#2b438a"/>
      <path id="Trazado_682559" data-name="Trazado 682559" d="M75.121,165.592,45.575,182.706a1.351,1.351,0,0,1-1.219,0L23.37,170.6l26.039-19.134a1.343,1.343,0,0,1,1.221,0Z" transform="translate(17.449 112.979)" fill="#5067aa"/>
      <path id="Trazado_682560" data-name="Trazado 682560" d="M47.316,154.151,27.7,169.484l-.88-.507,19.616-15.335Z" transform="translate(20.024 114.714)" fill="#2b438a"/>
      <path id="Trazado_682561" data-name="Trazado 682561" d="M50.169,155.8,30.552,171.131l-.879-.508,19.615-15.334Z" transform="translate(22.155 115.943)" fill="#2b438a"/>
      <path id="Trazado_682562" data-name="Trazado 682562" d="M53.023,157.441,33.408,172.775h0l-.88-.507,19.616-15.334Z" transform="translate(24.285 117.172)" fill="#2b438a"/>
      <path id="Trazado_682563" data-name="Trazado 682563" d="M55.878,159.087,36.261,174.421l-.882-.508L55,158.581Z" transform="translate(26.415 118.401)" fill="#2b438a"/>
      <path id="Trazado_682564" data-name="Trazado 682564" d="M55.185,160.734l-6.295,4.92-5.909,3.423L54.3,160.226Z" transform="translate(32.091 119.629)" fill="#2b438a"/>
      <path id="Trazado_682565" data-name="Trazado 682565" d="M103.812,219.04,76.223,203.11c-.529-.306-.463-.84.148-1.193l27.109-15.652a2.294,2.294,0,0,1,2.065-.086l27.591,15.929c.529.306.463.84-.148,1.193l-27.109,15.652a2.3,2.3,0,0,1-2.066.086" transform="translate(56.643 138.853)" fill="#f2f2f2"/>
      <path id="Trazado_682566" data-name="Trazado 682566" d="M103.729,209.154,77.357,193.929,103.565,178.8l26.371,15.225Z" transform="translate(57.757 133.495)" fill="#f2f2f2"/>
      <path id="Trazado_682567" data-name="Trazado 682567" d="M102.49,206.783,79,193.224l23.338-13.475,23.485,13.559Z" transform="translate(58.987 134.205)" fill="#e6e6e6"/>
      <path id="Trazado_682568" data-name="Trazado 682568" d="M92.456,216.026V202.645l26.206-15.129v13.379Z" transform="translate(69.03 140.004)" fill="#bfbfbf"/>
      <path id="Trazado_682569" data-name="Trazado 682569" d="M77.357,187.461v13.381l26.372,15.225V202.686Z" transform="translate(57.757 139.963)" fill="#e6e6e6"/>
      <path id="Trazado_682570" data-name="Trazado 682570" d="M83.492,195.565,81.636,194.5l-.316-4.291-.658-9.166,1.844.9.526,7.282Z" transform="translate(60.224 135.169)" fill="#4d4d4d"/>
      <path id="Trazado_682571" data-name="Trazado 682571" d="M82.507,187.612l-1.85-.894,23-13.281,1.85.894Z" transform="translate(60.221 129.492)" fill="#737373"/>
      <path id="Trazado_682572" data-name="Trazado 682572" d="M106.709,201.4l-9.968,5.755-1.567.908-.133.079-.012-.171-.989-.566-1.857-1.067-.975-.566-1.857-1.067-.987-.566-1.857-1.079-.961-.554-1.871-1.079-.975-.566-.461-6.347-.526-7.282,23-13.287.091,1.317.145,1.869.093,1.317v.014l.133,1.869.091,1.317.145,1.883.093,1.3.131,1.883.04.461.052.856.145,1.883Z" transform="translate(61.012 129.873)" fill="#1f2125"/>
      <path id="Trazado_682573" data-name="Trazado 682573" d="M85.126,196.49l-1.871-1.079-.54-7.427-.433-5.979,1.857.894.288,4.1Z" transform="translate(61.434 135.89)" fill="#4d4d4d"/>
      <path id="Trazado_682574" data-name="Trazado 682574" d="M84.132,188.578l-1.85-.894,23-13.281,1.85.894Z" transform="translate(61.435 130.213)" fill="#737373"/>
      <path id="Trazado_682575" data-name="Trazado 682575" d="M108.338,202.366,96.841,209l-1.172-.672-1.712-.987-.131.079-.014-.171-.987-.566-1.857-1.067-.975-.566-1.857-1.067-.987-.566-1.857-1.079-.962-.554-.7-9.495-.29-4.094,20.4-11.786,2.594-1.5.093,1.329.145,1.871.093,1.3.131,1.9.1,1.3.133,1.883.091,1.3v.012l.145,1.871v.012l.026.4Z" transform="translate(62.228 130.593)" fill="#1f2125"/>
      <path id="Trazado_682576" data-name="Trazado 682576" d="M86.728,197.4l-1.857-1.079-.763-10.562-.2-2.791,1.843.9.066.908Z" transform="translate(62.65 136.61)" fill="#4d4d4d"/>
      <path id="Trazado_682577" data-name="Trazado 682577" d="M85.758,189.544l-1.85-.894,23-13.281,1.85.894Z" transform="translate(62.648 130.934)" fill="#737373"/>
      <path id="Trazado_682578" data-name="Trazado 682578" d="M109.92,202.813l-11.877,6.861-2.41-1.4-1.172-.672-1.712-.987-.133.079-.012-.171-.987-.566-1.857-1.067-.975-.566-1.857-1.067-.989-.566-.908-12.628-.066-.908,17.791-10.272,5.214-3,.093,1.3.145,1.883.093,1.3v.014l.131,1.869.093,1.317.145,1.883.25,3.542Z" transform="translate(63.438 131.319)" fill="#1f2125"/>
      <path id="Trazado_682579" data-name="Trazado 682579" d="M88.363,198.315l-1.857-1.067-.975-13.313,1.857.9Z" transform="translate(63.86 137.331)" fill="#4d4d4d"/>
      <path id="Trazado_682580" data-name="Trazado 682580" d="M87.384,190.51l-1.85-.894,23-13.281,1.85.894Z" transform="translate(63.862 131.656)" fill="#737373"/>
      <path id="Trazado_682581" data-name="Trazado 682581" d="M111.325,200.578l-2.62,1.514-11.879,6.861-2.409-1.4-1.172-.672-1.712-.987-.133.079-.012-.171-.989-.566-1.857-1.067-.975-.566-.975-13.484,12.155-7.006,3.029-1.752,2.594-1.5,2.622-1.514,2.606-1.5.093,1.3.145,1.883.093,1.3.131,1.9.487,6.69Z" transform="translate(64.653 132.039)" fill="#1f2125"/>
      <path id="Trazado_682582" data-name="Trazado 682582" d="M89.978,199.227l-1.857-1.067L87.16,184.9l1.843.9Z" transform="translate(65.076 138.051)" fill="#4d4d4d"/>
      <path id="Trazado_682583" data-name="Trazado 682583" d="M89.009,191.476l-1.85-.894,23-13.281,1.85.894Z" transform="translate(65.076 132.377)" fill="#737373"/>
      <path id="Trazado_682584" data-name="Trazado 682584" d="M112.721,198.356l-2.608,1.5-2.62,1.516-11.877,6.859-2.41-1.4-1.172-.671-1.712-.989-.133.08-.012-.173-.987-.566-.975-13.432,12.193-7.032.383-.224,2.606-1.5,2.608-1.514,2.62-1.5,2.6-1.5.091,1.3.145,1.883v.014l.711,9.823Z" transform="translate(65.864 132.76)" fill="#1f2125"/>
      <path id="Trazado_682585" data-name="Trazado 682585" d="M91.606,200.147l-1.712-.987-.131.079-.014-.171-.961-13.194,1.843.894.83,11.482Z" transform="translate(66.292 138.778)" fill="#4d4d4d"/>
      <path id="Trazado_682586" data-name="Trazado 682586" d="M90.635,192.442l-1.85-.894,23-13.281,1.85.894Z" transform="translate(66.289 133.098)" fill="#737373"/>
      <path id="Trazado_682587" data-name="Trazado 682587" d="M114.1,196.121l-2.594,1.514-2.608,1.5-2.62,1.514L94.4,207.511l-2.409-1.4-1.172-.671-.145-1.9-.83-11.482,9.968-5.755,2.278-1.317.33-.183,2.318-1.343.288-.171,2.608-1.5,2.608-1.5,2.608-1.514.934,12.97Z" transform="translate(67.08 133.481)" fill="#1f2125"/>
      <path id="Trazado_682588" data-name="Trazado 682588" d="M94.526,193.541l3.326.314v1.479l-5.589-.487,5.589-6.925V189.4Z" transform="translate(68.885 140.308)" fill="#f2f2f2"/>
      <path id="Trazado_682589" data-name="Trazado 682589" d="M97.361,198.117l-1.074.62q1.593-5.85,2.377-8.772l1.188-4.386,1.076-.62Z" transform="translate(71.89 138.096)" fill="#f2f2f2"/>
      <path id="Trazado_682590" data-name="Trazado 682590" d="M102.962,187.291l-3.338-.307v-1.465l5.6.466-5.6,6.948v-1.5Z" transform="translate(74.382 138.513)" fill="#f2f2f2"/>
    </g>
  </g>
</svg>
