<svg xmlns="http://www.w3.org/2000/svg" xmlns:xlink="http://www.w3.org/1999/xlink" width="262.567" height="398.438" viewBox="0 0 262.567 398.438">
  <defs>
    <clipPath id="clip-path">
      <rect id="Rectángulo_302452" data-name="Rectángulo 302452" width="262.567" height="398.438" fill="#feca2e" stroke="#fff" stroke-linejoin="round" stroke-width="3"/>
    </clipPath>
  </defs>
  <g id="Grupo_912649" data-name="Grupo 912649" transform="translate(-1068.835 -1795.885)">
    <g id="Grupo_908339" data-name="Grupo 908339" transform="translate(1068.835 1795.885)">
      <g id="Grupo_908338" data-name="Grupo 908338" clip-path="url(#clip-path)">
        <path id="Trazado_675012" data-name="Trazado 675012" d="M252.165,0H10.4A10.4,10.4,0,0,0,0,10.4V61.927a10.4,10.4,0,0,0,10.4,10.4H156.793V88.762h-9.159l29.256,19.191,29.256-19.191h-9.159V72.328h55.177a10.4,10.4,0,0,0,10.4-10.4V10.4A10.4,10.4,0,0,0,252.165,0" transform="translate(0.001)" fill="#feca2e" stroke="#fff" stroke-linejoin="round" stroke-width="2"/>
        <path id="Trazado_675013" data-name="Trazado 675013" d="M252.165,81.157H105.976V70.67h9.159L85.879,51.481,56.622,70.67h9.159V81.157H10.4A10.4,10.4,0,0,0,0,91.557v51.528a10.4,10.4,0,0,0,10.4,10.4H156.793V169.92h-9.159l29.256,19.191,29.256-19.191h-9.159V153.485h55.177a10.4,10.4,0,0,0,10.4-10.4V91.557a10.4,10.4,0,0,0-10.4-10.4" transform="translate(0.001 26.606)" fill="#fd9927" stroke="#f5f5f6" stroke-linejoin="round" stroke-width="2"/>
        <path id="Trazado_675014" data-name="Trazado 675014" d="M252.165,153.154H105.976V142.667h9.159L85.879,123.478,56.622,142.667h9.159v10.487H10.4A10.4,10.4,0,0,0,0,163.554v51.528a10.4,10.4,0,0,0,10.4,10.4H156.793v16.435h-9.159l29.256,19.191,29.256-19.191h-9.159V225.482h55.177a10.4,10.4,0,0,0,10.4-10.4V163.554a10.4,10.4,0,0,0-10.4-10.4" transform="translate(0.001 63.815)" fill="#0b5999" stroke="#fff" stroke-linejoin="round" stroke-width="2"/>
        <path id="Trazado_675015" data-name="Trazado 675015" d="M252.165,227.135H105.772V210.7h9.159L85.674,191.51,56.417,210.7h9.159v16.436H10.4A10.4,10.4,0,0,0,0,237.535v51.528a10.4,10.4,0,0,0,10.4,10.4H252.165a10.4,10.4,0,0,0,10.4-10.4V237.535a10.4,10.4,0,0,0-10.4-10.4" transform="translate(0.001 98.975)" fill="#4dd0e1" stroke="#fff" stroke-linejoin="round" stroke-width="2"/>
      </g>
    </g>
    <path id="Trazado_684081" data-name="Trazado 684081" d="M15.741-19.2V-6.144A6.122,6.122,0,0,1,14.034-1.7,6.88,6.88,0,0,1,9.439.237L8.767.264a7.185,7.185,0,0,1-5.023-1.7,6.082,6.082,0,0,1-1.9-4.68V-19.2h2.5v13A4.39,4.39,0,0,0,5.5-2.96a4.408,4.408,0,0,0,3.27,1.154,4.438,4.438,0,0,0,3.289-1.147,4.382,4.382,0,0,0,1.14-3.23V-19.2ZM27.659-3.784a1.8,1.8,0,0,0-.745-1.536,7.17,7.17,0,0,0-2.6-.943,12.279,12.279,0,0,1-2.94-.949A4.183,4.183,0,0,1,19.769-8.53a3.154,3.154,0,0,1-.521-1.819,3.7,3.7,0,0,1,1.483-2.966,5.792,5.792,0,0,1,3.79-1.213,5.96,5.96,0,0,1,3.935,1.252,3.978,3.978,0,0,1,1.51,3.2H27.514a2.2,2.2,0,0,0-.85-1.727,3.186,3.186,0,0,0-2.142-.725,3.334,3.334,0,0,0-2.083.58,1.826,1.826,0,0,0-.751,1.516,1.479,1.479,0,0,0,.7,1.332,8.6,8.6,0,0,0,2.525.857,13.155,13.155,0,0,1,2.96.976A4.317,4.317,0,0,1,29.551-5.9,3.355,3.355,0,0,1,30.1-3.955,3.651,3.651,0,0,1,28.569-.89,6.415,6.415,0,0,1,24.6.264a7.183,7.183,0,0,1-3.032-.606,4.932,4.932,0,0,1-2.063-1.694A4.083,4.083,0,0,1,18.76-4.39H21.2a2.525,2.525,0,0,0,.982,1.945,3.81,3.81,0,0,0,2.419.719,3.933,3.933,0,0,0,2.221-.56A1.722,1.722,0,0,0,27.659-3.784ZM42.082-1.411A5.181,5.181,0,0,1,37.9.264a4.434,4.434,0,0,1-3.474-1.325,5.735,5.735,0,0,1-1.206-3.922v-9.281h2.439v9.215q0,3.243,2.637,3.243,2.795,0,3.718-2.083V-14.265h2.439V0h-2.32ZM56.966,0a5.123,5.123,0,0,1-.343-1.5A5.442,5.442,0,0,1,52.563.264,5.035,5.035,0,0,1,49.1-.929a3.86,3.86,0,0,1-1.351-3.026,4.033,4.033,0,0,1,1.694-3.461,7.987,7.987,0,0,1,4.766-1.233h2.373V-9.769a2.739,2.739,0,0,0-.765-2.037,3.073,3.073,0,0,0-2.254-.758,3.556,3.556,0,0,0-2.188.659,1.942,1.942,0,0,0-.883,1.6H48.041a3.366,3.366,0,0,1,.758-2.063,5.174,5.174,0,0,1,2.057-1.575,6.919,6.919,0,0,1,2.854-.58A5.639,5.639,0,0,1,57.573-13.3,4.447,4.447,0,0,1,59.023-9.9v6.565a8.027,8.027,0,0,0,.5,3.125V0ZM52.919-1.859a4.287,4.287,0,0,0,2.175-.593,3.589,3.589,0,0,0,1.49-1.542V-6.921H54.672q-4.482,0-4.482,2.624A2.22,2.22,0,0,0,50.955-2.5,2.939,2.939,0,0,0,52.919-1.859ZM69.741-12.076a7.309,7.309,0,0,0-1.2-.092,3.214,3.214,0,0,0-3.256,2.043V0H62.846V-14.265h2.373l.04,1.648a3.8,3.8,0,0,1,3.4-1.912,2.492,2.492,0,0,1,1.081.185ZM74.632,0H72.193V-14.265h2.439ZM72-18.048a1.456,1.456,0,0,1,.363-1,1.361,1.361,0,0,1,1.074-.409,1.382,1.382,0,0,1,1.081.409,1.441,1.441,0,0,1,.369,1,1.393,1.393,0,0,1-.369.989,1.407,1.407,0,0,1-1.081.4,1.386,1.386,0,0,1-1.074-.4A1.408,1.408,0,0,1,72-18.048ZM77.889-7.264a8.425,8.425,0,0,1,.824-3.771,6.147,6.147,0,0,1,2.294-2.584,6.244,6.244,0,0,1,3.355-.91,6.016,6.016,0,0,1,4.713,2.017,7.76,7.76,0,0,1,1.8,5.366v.171a8.5,8.5,0,0,1-.8,3.738A6.056,6.056,0,0,1,87.8-.659a6.316,6.316,0,0,1-3.408.923,6,6,0,0,1-4.7-2.017,7.721,7.721,0,0,1-1.8-5.339Zm2.452.29a6.1,6.1,0,0,0,1.1,3.81,3.523,3.523,0,0,0,2.947,1.437,3.5,3.5,0,0,0,2.953-1.457,6.673,6.673,0,0,0,1.094-4.08,6.092,6.092,0,0,0-1.114-3.8,3.542,3.542,0,0,0-2.96-1.457,3.5,3.5,0,0,0-2.914,1.437A6.624,6.624,0,0,0,80.341-6.974Z" transform="translate(1151.833 1837.961)" fill="#161615"/>
    <path id="Trazado_684082" data-name="Trazado 684082" d="M12.353-4.837H4.608L2.869,0H.355L7.414-18.484H9.547L16.618,0h-2.5ZM5.345-6.83h6.284L8.48-15.476Zm25,.114a8.225,8.225,0,0,1-1.435,5.053A4.6,4.6,0,0,1,25.022.254a5.038,5.038,0,0,1-3.936-1.587V5.281H18.738V-13.736h2.146L21-12.213a4.838,4.838,0,0,1,3.986-1.777A4.684,4.684,0,0,1,28.9-12.124a8.315,8.315,0,0,1,1.441,5.192Zm-2.349-.267A6.069,6.069,0,0,0,27-10.651,3.19,3.19,0,0,0,24.286-12a3.453,3.453,0,0,0-3.2,1.892v6.563a3.459,3.459,0,0,0,3.225,1.879A3.175,3.175,0,0,0,27-3,6.625,6.625,0,0,0,27.993-6.982ZM35.877,0H33.528V-19.5h2.349Zm6.31,0H39.838V-13.736h2.349ZM39.647-17.38A1.4,1.4,0,0,1,40-18.345a1.311,1.311,0,0,1,1.035-.394,1.331,1.331,0,0,1,1.041.394,1.387,1.387,0,0,1,.355.965,1.342,1.342,0,0,1-.355.952,1.355,1.355,0,0,1-1.041.381A1.334,1.334,0,0,1,40-16.428,1.356,1.356,0,0,1,39.647-17.38ZM51.454-1.663a3.383,3.383,0,0,0,2.2-.762,2.68,2.68,0,0,0,1.041-1.9h2.222A4.259,4.259,0,0,1,56.1-2.082a5.351,5.351,0,0,1-2,1.7,5.769,5.769,0,0,1-2.647.635,5.659,5.659,0,0,1-4.462-1.873,7.458,7.458,0,0,1-1.657-5.123v-.394a8.27,8.27,0,0,1,.736-3.567,5.608,5.608,0,0,1,2.114-2.425,6,6,0,0,1,3.256-.863,5.509,5.509,0,0,1,3.84,1.384,4.945,4.945,0,0,1,1.631,3.593H54.691a3.237,3.237,0,0,0-1.009-2.19,3.14,3.14,0,0,0-2.241-.857,3.287,3.287,0,0,0-2.774,1.289,6.052,6.052,0,0,0-.984,3.726V-6.6a5.931,5.931,0,0,0,.978,3.656A3.3,3.3,0,0,0,51.454-1.663ZM68.034,0a4.934,4.934,0,0,1-.33-1.447,5.24,5.24,0,0,1-3.91,1.7A4.849,4.849,0,0,1,60.461-.9a3.717,3.717,0,0,1-1.3-2.914,3.883,3.883,0,0,1,1.631-3.333,7.691,7.691,0,0,1,4.589-1.187h2.285V-9.407a2.638,2.638,0,0,0-.736-1.961,2.959,2.959,0,0,0-2.171-.73,3.425,3.425,0,0,0-2.107.635A1.87,1.87,0,0,0,61.8-9.928H59.439a3.241,3.241,0,0,1,.73-1.987,4.982,4.982,0,0,1,1.98-1.517A6.663,6.663,0,0,1,64.9-13.99a5.43,5.43,0,0,1,3.72,1.187,4.282,4.282,0,0,1,1.4,3.269v6.322A7.73,7.73,0,0,0,70.5-.2V0Zm-3.9-1.79a4.128,4.128,0,0,0,2.095-.571,3.456,3.456,0,0,0,1.435-1.485V-6.665H65.825q-4.316,0-4.316,2.526a2.138,2.138,0,0,0,.736,1.727A2.83,2.83,0,0,0,64.137-1.79Zm15.069.127a3.383,3.383,0,0,0,2.2-.762,2.68,2.68,0,0,0,1.041-1.9h2.222a4.259,4.259,0,0,1-.812,2.247,5.351,5.351,0,0,1-2,1.7,5.769,5.769,0,0,1-2.647.635,5.659,5.659,0,0,1-4.462-1.873,7.458,7.458,0,0,1-1.657-5.123v-.394a8.27,8.27,0,0,1,.736-3.567,5.608,5.608,0,0,1,2.114-2.425,6,6,0,0,1,3.256-.863,5.509,5.509,0,0,1,3.84,1.384,4.945,4.945,0,0,1,1.631,3.593H82.443a3.237,3.237,0,0,0-1.009-2.19,3.14,3.14,0,0,0-2.241-.857,3.287,3.287,0,0,0-2.774,1.289,6.052,6.052,0,0,0-.984,3.726V-6.6a5.931,5.931,0,0,0,.978,3.656A3.3,3.3,0,0,0,79.206-1.663ZM89.857,0H87.509V-13.736h2.349ZM87.318-17.38a1.4,1.4,0,0,1,.349-.965,1.311,1.311,0,0,1,1.035-.394,1.331,1.331,0,0,1,1.041.394,1.387,1.387,0,0,1,.355.965,1.342,1.342,0,0,1-.355.952,1.355,1.355,0,0,1-1.041.381,1.334,1.334,0,0,1-1.035-.381A1.356,1.356,0,0,1,87.318-17.38ZM92.993-7a8.113,8.113,0,0,1,.793-3.631A5.919,5.919,0,0,1,96-13.114a6.013,6.013,0,0,1,3.231-.876,5.793,5.793,0,0,1,4.539,1.942A7.473,7.473,0,0,1,105.5-6.881v.165a8.184,8.184,0,0,1-.768,3.6,5.832,5.832,0,0,1-2.2,2.482,6.082,6.082,0,0,1-3.282.889,5.778,5.778,0,0,1-4.526-1.942A7.435,7.435,0,0,1,92.993-6.83Zm2.361.279a5.877,5.877,0,0,0,1.06,3.669,3.393,3.393,0,0,0,2.837,1.384,3.372,3.372,0,0,0,2.844-1.4A6.426,6.426,0,0,0,103.149-7a5.866,5.866,0,0,0-1.073-3.663,3.41,3.41,0,0,0-2.85-1.4,3.373,3.373,0,0,0-2.806,1.384A6.378,6.378,0,0,0,95.354-6.716Zm4.938-12.759h2.844l-3.4,3.732-1.892-.006Zm10.372,5.738.076,1.727a5.006,5.006,0,0,1,4.113-1.98q4.354,0,4.393,4.913V0H116.9V-9.09a3.162,3.162,0,0,0-.679-2.2A2.722,2.722,0,0,0,114.144-12a3.39,3.39,0,0,0-2.006.609,4.138,4.138,0,0,0-1.346,1.6V0h-2.349V-13.736Z" transform="translate(1134.851 1947.782)" fill="#161615"/>
    <path id="Trazado_684083" data-name="Trazado 684083" d="M7.884-8.556a11.9,11.9,0,0,1-4.74-2.3,4.4,4.4,0,0,1-1.483-3.368,4.643,4.643,0,0,1,1.813-3.751,7.2,7.2,0,0,1,4.713-1.483,7.864,7.864,0,0,1,3.527.765,5.8,5.8,0,0,1,2.4,2.109,5.394,5.394,0,0,1,.85,2.94H12.419a3.51,3.51,0,0,0-1.107-2.745,4.5,4.5,0,0,0-3.125-1,4.61,4.61,0,0,0-2.92.826,2.754,2.754,0,0,0-1.048,2.291,2.477,2.477,0,0,0,1,1.988A9.763,9.763,0,0,0,8.6-10.8a15.721,15.721,0,0,1,3.744,1.484,5.682,5.682,0,0,1,2,1.892A4.829,4.829,0,0,1,15-4.878,4.485,4.485,0,0,1,13.184-1.14,7.757,7.757,0,0,1,8.319.264,9.023,9.023,0,0,1,4.627-.494,6.212,6.212,0,0,1,1.984-2.571a5.067,5.067,0,0,1-.929-2.993H3.6A3.306,3.306,0,0,0,4.885-2.815,5.412,5.412,0,0,0,8.319-1.806a4.975,4.975,0,0,0,3.072-.817,2.655,2.655,0,0,0,1.068-2.228,2.606,2.606,0,0,0-.989-2.182A11.4,11.4,0,0,0,7.884-8.556ZM20.514,0H18.075V-14.265h2.439ZM17.877-18.048a1.456,1.456,0,0,1,.363-1,1.361,1.361,0,0,1,1.074-.409,1.382,1.382,0,0,1,1.081.409,1.441,1.441,0,0,1,.369,1,1.393,1.393,0,0,1-.369.989,1.407,1.407,0,0,1-1.081.4,1.386,1.386,0,0,1-1.074-.4A1.408,1.408,0,0,1,17.877-18.048ZM32.722-3.784a1.8,1.8,0,0,0-.745-1.536,7.17,7.17,0,0,0-2.6-.943,12.279,12.279,0,0,1-2.94-.949A4.183,4.183,0,0,1,24.831-8.53a3.154,3.154,0,0,1-.521-1.819,3.7,3.7,0,0,1,1.483-2.966,5.792,5.792,0,0,1,3.79-1.213,5.96,5.96,0,0,1,3.935,1.252,3.978,3.978,0,0,1,1.51,3.2H32.577a2.2,2.2,0,0,0-.85-1.727,3.186,3.186,0,0,0-2.142-.725,3.334,3.334,0,0,0-2.083.58,1.826,1.826,0,0,0-.751,1.516,1.479,1.479,0,0,0,.7,1.332,8.6,8.6,0,0,0,2.525.857,13.155,13.155,0,0,1,2.96.976A4.317,4.317,0,0,1,34.614-5.9a3.355,3.355,0,0,1,.547,1.945A3.651,3.651,0,0,1,33.631-.89,6.415,6.415,0,0,1,29.663.264a7.183,7.183,0,0,1-3.032-.606,4.932,4.932,0,0,1-2.063-1.694,4.083,4.083,0,0,1-.745-2.353h2.439a2.525,2.525,0,0,0,.982,1.945,3.81,3.81,0,0,0,2.419.719,3.933,3.933,0,0,0,2.221-.56A1.722,1.722,0,0,0,32.722-3.784Zm8.925-13.935v3.454H44.31v1.885H41.647v8.857A1.98,1.98,0,0,0,42-2.235a1.5,1.5,0,0,0,1.213.429,5.9,5.9,0,0,0,1.16-.158V0A7.112,7.112,0,0,1,42.5.264a3.037,3.037,0,0,1-2.465-.989,4.248,4.248,0,0,1-.831-2.808v-8.846h-2.6v-1.885h2.6v-3.454ZM53.077.264a6.233,6.233,0,0,1-4.72-1.905,7.071,7.071,0,0,1-1.819-5.1v-.448a8.56,8.56,0,0,1,.811-3.79,6.325,6.325,0,0,1,2.268-2.61,5.7,5.7,0,0,1,3.157-.943A5.342,5.342,0,0,1,57.1-12.7a7.934,7.934,0,0,1,1.542,5.247v1.015H48.977A5.071,5.071,0,0,0,50.21-3.026a3.875,3.875,0,0,0,3,1.3A4.248,4.248,0,0,0,55.4-2.254a5.5,5.5,0,0,0,1.569-1.4l1.49,1.16A5.99,5.99,0,0,1,53.077.264Zm-.3-12.788A3.253,3.253,0,0,0,50.3-11.45a5.222,5.222,0,0,0-1.239,3.012H56.2v-.185a4.645,4.645,0,0,0-1-2.881A3.063,3.063,0,0,0,52.774-12.524Zm10.982-1.74.066,1.582a5.268,5.268,0,0,1,4.232-1.846,4.078,4.078,0,0,1,4.074,2.294A5.4,5.4,0,0,1,73.98-13.9a5.471,5.471,0,0,1,2.7-.633q4.693,0,4.772,4.97V0H79.009V-9.413a3.275,3.275,0,0,0-.7-2.287,3.077,3.077,0,0,0-2.347-.758,3.234,3.234,0,0,0-2.254.811,3.289,3.289,0,0,0-1.042,2.182V0H70.216V-9.347q0-3.111-3.045-3.111a3.263,3.263,0,0,0-3.283,2.043V0H61.449V-14.265ZM93.933,0a5.123,5.123,0,0,1-.343-1.5A5.442,5.442,0,0,1,89.53.264,5.035,5.035,0,0,1,86.069-.929a3.86,3.86,0,0,1-1.351-3.026,4.033,4.033,0,0,1,1.694-3.461,7.987,7.987,0,0,1,4.766-1.233h2.373V-9.769a2.739,2.739,0,0,0-.765-2.037,3.073,3.073,0,0,0-2.254-.758,3.556,3.556,0,0,0-2.188.659,1.942,1.942,0,0,0-.883,1.6H85.008a3.366,3.366,0,0,1,.758-2.063,5.174,5.174,0,0,1,2.057-1.575,6.919,6.919,0,0,1,2.854-.58A5.639,5.639,0,0,1,94.54-13.3,4.447,4.447,0,0,1,95.99-9.9v6.565a8.027,8.027,0,0,0,.5,3.125V0ZM89.886-1.859a4.287,4.287,0,0,0,2.175-.593,3.589,3.589,0,0,0,1.49-1.542V-6.921H91.639q-4.482,0-4.482,2.624A2.22,2.22,0,0,0,87.921-2.5,2.939,2.939,0,0,0,89.886-1.859Zm31.759-7.119a11.874,11.874,0,0,1-.949,4.924,7.19,7.19,0,0,1-2.689,3.21A7.4,7.4,0,0,1,113.946.264,7.336,7.336,0,0,1,109.925-.85,7.362,7.362,0,0,1,107.2-4.028a11.393,11.393,0,0,1-1-4.779v-1.384a11.733,11.733,0,0,1,.962-4.891,7.336,7.336,0,0,1,2.722-3.25,7.3,7.3,0,0,1,4.028-1.127,7.441,7.441,0,0,1,4.067,1.114,7.177,7.177,0,0,1,2.709,3.23,11.932,11.932,0,0,1,.949,4.924Zm-2.518-1.239a8.606,8.606,0,0,0-1.371-5.24,4.522,4.522,0,0,0-3.836-1.826,4.474,4.474,0,0,0-3.777,1.826,8.43,8.43,0,0,0-1.417,5.069v1.411a8.619,8.619,0,0,0,1.391,5.2,4.493,4.493,0,0,0,3.83,1.892,4.475,4.475,0,0,0,3.8-1.786,8.57,8.57,0,0,0,1.384-5.122Zm17.982,3.243a8.541,8.541,0,0,1-1.49,5.247A4.775,4.775,0,0,1,131.585.264,5.231,5.231,0,0,1,127.5-1.384V5.484H125.06V-14.265h2.228l.119,1.582a5.024,5.024,0,0,1,4.14-1.846,4.864,4.864,0,0,1,4.067,1.938,8.635,8.635,0,0,1,1.5,5.392Zm-2.439-.277a6.3,6.3,0,0,0-1.028-3.81,3.313,3.313,0,0,0-2.821-1.4,3.585,3.585,0,0,0-3.322,1.964v6.816a3.592,3.592,0,0,0,3.349,1.951,3.3,3.3,0,0,0,2.788-1.391A6.88,6.88,0,0,0,134.67-7.251ZM146.127.264a6.233,6.233,0,0,1-4.72-1.905,7.071,7.071,0,0,1-1.819-5.1v-.448a8.56,8.56,0,0,1,.811-3.79,6.325,6.325,0,0,1,2.268-2.61,5.7,5.7,0,0,1,3.157-.943,5.342,5.342,0,0,1,4.324,1.833,7.934,7.934,0,0,1,1.542,5.247v1.015h-9.664a5.071,5.071,0,0,0,1.233,3.408,3.875,3.875,0,0,0,3,1.3,4.248,4.248,0,0,0,2.188-.527,5.5,5.5,0,0,0,1.569-1.4l1.49,1.16A5.99,5.99,0,0,1,146.127.264Zm-.3-12.788a3.253,3.253,0,0,0-2.479,1.074,5.222,5.222,0,0,0-1.239,3.012h7.146v-.185a4.645,4.645,0,0,0-1-2.881A3.063,3.063,0,0,0,145.824-12.524Zm15.583.448a7.309,7.309,0,0,0-1.2-.092,3.214,3.214,0,0,0-3.256,2.043V0h-2.439V-14.265h2.373l.04,1.648a3.8,3.8,0,0,1,3.4-1.912,2.492,2.492,0,0,1,1.081.185ZM171.36,0a5.123,5.123,0,0,1-.343-1.5A5.442,5.442,0,0,1,166.957.264,5.035,5.035,0,0,1,163.5-.929a3.86,3.86,0,0,1-1.351-3.026,4.033,4.033,0,0,1,1.694-3.461A7.987,7.987,0,0,1,168.6-8.648h2.373V-9.769a2.739,2.739,0,0,0-.765-2.037,3.073,3.073,0,0,0-2.254-.758,3.556,3.556,0,0,0-2.188.659,1.942,1.942,0,0,0-.883,1.6h-2.452a3.366,3.366,0,0,1,.758-2.063,5.174,5.174,0,0,1,2.057-1.575,6.919,6.919,0,0,1,2.854-.58,5.639,5.639,0,0,1,3.863,1.233,4.447,4.447,0,0,1,1.45,3.395v6.565a8.027,8.027,0,0,0,.5,3.125V0Zm-4.047-1.859a4.287,4.287,0,0,0,2.175-.593,3.589,3.589,0,0,0,1.49-1.542V-6.921h-1.912q-4.482,0-4.482,2.624a2.22,2.22,0,0,0,.765,1.793A2.939,2.939,0,0,0,167.313-1.859Zm13.236-15.86v3.454h2.663v1.885h-2.663v8.857a1.98,1.98,0,0,0,.356,1.287,1.5,1.5,0,0,0,1.213.429,5.9,5.9,0,0,0,1.16-.158V0a7.112,7.112,0,0,1-1.872.262,3.037,3.037,0,0,1-2.465-.989,4.248,4.248,0,0,1-.831-2.808v-8.846h-2.6v-1.885h2.6v-3.454ZM188.71,0h-2.439V-14.265h2.439Zm-2.637-18.048a1.456,1.456,0,0,1,.363-1,1.361,1.361,0,0,1,1.074-.409,1.382,1.382,0,0,1,1.081.409,1.441,1.441,0,0,1,.369,1,1.393,1.393,0,0,1-.369.989,1.407,1.407,0,0,1-1.081.4,1.386,1.386,0,0,1-1.074-.4A1.408,1.408,0,0,1,186.073-18.048ZM197.319-3.309l3.533-10.956h2.492L198.228,0H196.37L191.2-14.265h2.492Zm7.339-3.955a8.425,8.425,0,0,1,.824-3.771,6.147,6.147,0,0,1,2.294-2.584,6.244,6.244,0,0,1,3.355-.91,6.016,6.016,0,0,1,4.713,2.017,7.76,7.76,0,0,1,1.8,5.366v.171a8.5,8.5,0,0,1-.8,3.738,6.056,6.056,0,0,1-2.281,2.577,6.316,6.316,0,0,1-3.408.923,6,6,0,0,1-4.7-2.017,7.721,7.721,0,0,1-1.8-5.339Zm2.452.29a6.1,6.1,0,0,0,1.1,3.81,3.523,3.523,0,0,0,2.947,1.437,3.5,3.5,0,0,0,2.953-1.457,6.673,6.673,0,0,0,1.094-4.08,6.092,6.092,0,0,0-1.114-3.8,3.542,3.542,0,0,0-2.96-1.457,3.5,3.5,0,0,0-2.914,1.437A6.624,6.624,0,0,0,207.11-6.974Z" transform="translate(1087.344 2058.604)" fill="#fff"/>
    <path id="Trazado_684084" data-name="Trazado 684084" d="M16.352,0H13.9V-8.544H4.583V0H2.146V-18.484H4.583v7.947H13.9v-7.947h2.45ZM28.793,0a4.934,4.934,0,0,1-.33-1.447,5.24,5.24,0,0,1-3.91,1.7A4.849,4.849,0,0,1,21.22-.9a3.717,3.717,0,0,1-1.3-2.914A3.883,3.883,0,0,1,21.55-7.141,7.691,7.691,0,0,1,26.14-8.328h2.285V-9.407a2.638,2.638,0,0,0-.736-1.961,2.959,2.959,0,0,0-2.171-.73,3.425,3.425,0,0,0-2.107.635,1.87,1.87,0,0,0-.851,1.536H20.2a3.241,3.241,0,0,1,.73-1.987,4.982,4.982,0,0,1,1.98-1.517,6.663,6.663,0,0,1,2.749-.559,5.43,5.43,0,0,1,3.72,1.187,4.282,4.282,0,0,1,1.4,3.269v6.322A7.73,7.73,0,0,0,31.256-.2V0ZM24.9-1.79a4.128,4.128,0,0,0,2.095-.571,3.456,3.456,0,0,0,1.435-1.485V-6.665H26.584q-4.316,0-4.316,2.526A2.138,2.138,0,0,0,23-2.412,2.83,2.83,0,0,0,24.9-1.79Zm16.2-9.839a7.038,7.038,0,0,0-1.155-.089A3.1,3.1,0,0,0,36.8-9.75V0H34.455V-13.736H36.74l.038,1.587a3.657,3.657,0,0,1,3.275-1.841,2.4,2.4,0,0,1,1.041.178Zm1.112,4.646a8.047,8.047,0,0,1,1.5-5.084,4.737,4.737,0,0,1,3.923-1.923,4.764,4.764,0,0,1,3.821,1.65V-19.5H53.8V0H51.639l-.114-1.473A4.783,4.783,0,0,1,47.6.254,4.692,4.692,0,0,1,43.711-1.7a8.138,8.138,0,0,1-1.5-5.1Zm2.349.267A6.093,6.093,0,0,0,45.52-3.06a3.119,3.119,0,0,0,2.666,1.32,3.426,3.426,0,0,0,3.263-2.006v-6.31A3.453,3.453,0,0,0,48.211-12a3.134,3.134,0,0,0-2.691,1.333A6.708,6.708,0,0,0,44.555-6.716ZM69.6-3.237l2.641-10.5h2.349L70.593,0h-1.9L65.35-10.41,62.1,0H60.2L56.209-13.736h2.336l2.7,10.283,3.2-10.283H66.34ZM85.459,0a4.934,4.934,0,0,1-.33-1.447,5.24,5.24,0,0,1-3.91,1.7A4.849,4.849,0,0,1,77.887-.9a3.717,3.717,0,0,1-1.3-2.914,3.883,3.883,0,0,1,1.631-3.333,7.691,7.691,0,0,1,4.589-1.187h2.285V-9.407a2.638,2.638,0,0,0-.736-1.961,2.959,2.959,0,0,0-2.171-.73,3.425,3.425,0,0,0-2.107.635,1.87,1.87,0,0,0-.851,1.536H76.865a3.241,3.241,0,0,1,.73-1.987,4.982,4.982,0,0,1,1.98-1.517,6.663,6.663,0,0,1,2.749-.559,5.43,5.43,0,0,1,3.72,1.187,4.282,4.282,0,0,1,1.4,3.269v6.322A7.73,7.73,0,0,0,87.922-.2V0Zm-3.9-1.79a4.128,4.128,0,0,0,2.095-.571,3.456,3.456,0,0,0,1.435-1.485V-6.665H83.25q-4.316,0-4.316,2.526a2.138,2.138,0,0,0,.736,1.727A2.83,2.83,0,0,0,81.562-1.79Zm16.2-9.839a7.038,7.038,0,0,0-1.155-.089A3.1,3.1,0,0,0,93.47-9.75V0H91.121V-13.736h2.285l.038,1.587A3.657,3.657,0,0,1,96.72-13.99a2.4,2.4,0,0,1,1.041.178ZM105.17.254a6,6,0,0,1-4.545-1.834,6.809,6.809,0,0,1-1.752-4.907v-.432a8.243,8.243,0,0,1,.781-3.65,6.091,6.091,0,0,1,2.184-2.514,5.49,5.49,0,0,1,3.041-.908,5.144,5.144,0,0,1,4.164,1.765,7.64,7.64,0,0,1,1.485,5.053V-6.2h-9.306a4.883,4.883,0,0,0,1.187,3.282,3.731,3.731,0,0,0,2.888,1.25,4.091,4.091,0,0,0,2.107-.508,5.3,5.3,0,0,0,1.511-1.346L110.35-2.4A5.768,5.768,0,0,1,105.17.254Zm-.292-12.314a3.133,3.133,0,0,0-2.387,1.035,5.029,5.029,0,0,0-1.193,2.9h6.881V-8.3a4.473,4.473,0,0,0-.965-2.774A2.949,2.949,0,0,0,104.878-12.061Z" transform="translate(1139.629 2167.896)" fill="#161615"/>
  </g>
</svg>
