<svg xmlns="http://www.w3.org/2000/svg" width="360.685" height="412.384" viewBox="0 0 360.685 412.384">
  <g id="img6" transform="translate(-245.62 -5446.782)">
    <path id="Trazado_684094" data-name="Trazado 684094" d="M8.982,13H6.932L2.939,6.451V13H.889V3.047H2.939l4,6.563V3.047H8.982Zm1.354-3.767a4.387,4.387,0,0,1,.424-1.962,3.1,3.1,0,0,1,1.22-1.333,3.56,3.56,0,0,1,1.849-.472,3.368,3.368,0,0,1,2.444.916,3.676,3.676,0,0,1,1.056,2.488l.014.506a3.866,3.866,0,0,1-.95,2.731,3.3,3.3,0,0,1-2.55,1.029,3.319,3.319,0,0,1-2.553-1.025,3.934,3.934,0,0,1-.954-2.789Zm1.976.14a2.765,2.765,0,0,0,.4,1.612,1.424,1.424,0,0,0,2.256.007,3.025,3.025,0,0,0,.4-1.763,2.737,2.737,0,0,0-.4-1.6,1.311,1.311,0,0,0-1.135-.568,1.29,1.29,0,0,0-1.121.565A3.076,3.076,0,0,0,12.312,9.374Zm8.613-5.588V5.6h1.265V7.053H20.925v3.691a.881.881,0,0,0,.157.588.79.79,0,0,0,.6.178,3.15,3.15,0,0,0,.581-.048v1.5a4.067,4.067,0,0,1-1.2.178,1.886,1.886,0,0,1-2.119-2.1V7.053h-1.08V5.6h1.08V3.785ZM27.576,13a2.194,2.194,0,0,1-.2-.663,2.39,2.39,0,0,1-1.866.8,2.626,2.626,0,0,1-1.8-.629A2.023,2.023,0,0,1,23,10.922a2.09,2.09,0,0,1,.872-1.8,4.3,4.3,0,0,1,2.519-.636H27.3V8.058a1.219,1.219,0,0,0-.263-.82A1.035,1.035,0,0,0,26.2,6.93a1.177,1.177,0,0,0-.783.239.813.813,0,0,0-.284.656H23.16a1.984,1.984,0,0,1,.4-1.189,2.621,2.621,0,0,1,1.121-.858A4.086,4.086,0,0,1,26.3,5.467a3.228,3.228,0,0,1,2.17.687,2.4,2.4,0,0,1,.8,1.931v3.206a3.536,3.536,0,0,0,.294,1.593V13Zm-1.634-1.374a1.7,1.7,0,0,0,.807-.195,1.28,1.28,0,0,0,.547-.523V9.637h-.738q-1.483,0-1.579,1.025l-.007.116a.791.791,0,0,0,.26.608A1.009,1.009,0,0,0,25.942,11.626Zm4.956.4a1,1,0,0,1,.318-.766,1.235,1.235,0,0,1,1.6,0,1,1,0,0,1,.318.766.981.981,0,0,1-.314.755,1.256,1.256,0,0,1-1.606,0A.981.981,0,0,1,30.9,12.029ZM44.372,8.4H40.059v3.527h5.011V13H38.746V3.047H45V4.12H40.059V7.326h4.313ZM47.879,13H46.614V2.5h1.265Zm6.59,0a2.657,2.657,0,0,1-.178-.779,2.822,2.822,0,0,1-2.105.916,2.611,2.611,0,0,1-1.794-.619,2,2,0,0,1-.7-1.569,2.091,2.091,0,0,1,.878-1.794,4.142,4.142,0,0,1,2.471-.639h1.23V7.935a1.42,1.42,0,0,0-.4-1.056,1.593,1.593,0,0,0-1.169-.393,1.844,1.844,0,0,0-1.135.342,1.007,1.007,0,0,0-.458.827H49.841a1.745,1.745,0,0,1,.393-1.07A2.683,2.683,0,0,1,51.3,5.768a3.588,3.588,0,0,1,1.48-.3,2.924,2.924,0,0,1,2,.639,2.306,2.306,0,0,1,.752,1.76v3.4a4.162,4.162,0,0,0,.26,1.62V13Zm-2.1-.964a2.223,2.223,0,0,0,1.128-.308,1.861,1.861,0,0,0,.772-.8V9.411h-.991q-2.324,0-2.324,1.36a1.151,1.151,0,0,0,.4.93A1.524,1.524,0,0,0,52.37,12.036ZM63.779,9.384A4.4,4.4,0,0,1,63,12.108a2.49,2.49,0,0,1-2.092,1.029,2.578,2.578,0,0,1-2.167-.991L58.68,13H57.518V2.5h1.265V6.417a2.564,2.564,0,0,1,2.112-.95A2.505,2.505,0,0,1,63.01,6.485a4.53,4.53,0,0,1,.769,2.789ZM62.515,9.24a3.417,3.417,0,0,0-.5-2,1.652,1.652,0,0,0-1.436-.7,1.857,1.857,0,0,0-1.8,1.162v3.2a1.909,1.909,0,0,0,1.812,1.162,1.643,1.643,0,0,0,1.415-.7A3.634,3.634,0,0,0,62.515,9.24Zm2.522-.007a4.369,4.369,0,0,1,.427-1.955,3.187,3.187,0,0,1,1.189-1.34,3.238,3.238,0,0,1,1.74-.472,3.119,3.119,0,0,1,2.444,1.046,4.024,4.024,0,0,1,.933,2.782v.089a4.407,4.407,0,0,1-.414,1.938,3.14,3.14,0,0,1-1.183,1.336,3.275,3.275,0,0,1-1.767.479,3.111,3.111,0,0,1-2.437-1.046,4,4,0,0,1-.933-2.769Zm1.271.15a3.164,3.164,0,0,0,.571,1.976,1.934,1.934,0,0,0,3.059-.01,3.46,3.46,0,0,0,.567-2.116,3.159,3.159,0,0,0-.578-1.972,1.836,1.836,0,0,0-1.535-.755,1.816,1.816,0,0,0-1.511.745A3.435,3.435,0,0,0,66.309,9.384ZM76.932,6.738a3.79,3.79,0,0,0-.622-.048,1.667,1.667,0,0,0-1.688,1.06V13H73.356V5.6h1.23l.021.854a1.969,1.969,0,0,1,1.764-.991,1.292,1.292,0,0,1,.561.1ZM82.387,13a2.657,2.657,0,0,1-.178-.779,2.822,2.822,0,0,1-2.105.916,2.611,2.611,0,0,1-1.794-.619,2,2,0,0,1-.7-1.569,2.091,2.091,0,0,1,.878-1.794,4.141,4.141,0,0,1,2.471-.639h1.23V7.935a1.42,1.42,0,0,0-.4-1.056,1.593,1.593,0,0,0-1.169-.393,1.844,1.844,0,0,0-1.135.342,1.007,1.007,0,0,0-.458.827H77.759a1.745,1.745,0,0,1,.393-1.07,2.683,2.683,0,0,1,1.066-.817,3.588,3.588,0,0,1,1.48-.3,2.924,2.924,0,0,1,2,.639,2.306,2.306,0,0,1,.752,1.76v3.4a4.162,4.162,0,0,0,.26,1.62V13Zm-2.1-.964a2.223,2.223,0,0,0,1.128-.308,1.861,1.861,0,0,0,.772-.8V9.411H81.2q-2.324,0-2.324,1.36a1.151,1.151,0,0,0,.4.93A1.524,1.524,0,0,0,80.288,12.036ZM88.4,12.1a1.822,1.822,0,0,0,1.183-.41,1.443,1.443,0,0,0,.561-1.025h1.2a2.293,2.293,0,0,1-.437,1.21,2.882,2.882,0,0,1-1.077.916,3.107,3.107,0,0,1-1.425.342A3.047,3.047,0,0,1,86,12.128a4.016,4.016,0,0,1-.892-2.758V9.158a4.453,4.453,0,0,1,.4-1.921,3.02,3.02,0,0,1,1.138-1.306A3.233,3.233,0,0,1,88.4,5.467a2.966,2.966,0,0,1,2.068.745,2.663,2.663,0,0,1,.878,1.935h-1.2A1.743,1.743,0,0,0,89.6,6.967,1.691,1.691,0,0,0,88.4,6.506,1.77,1.77,0,0,0,86.9,7.2a3.259,3.259,0,0,0-.53,2.006v.239a3.194,3.194,0,0,0,.526,1.969A1.779,1.779,0,0,0,88.4,12.1Zm5.735.9H92.873V5.6h1.265ZM92.771,3.642a.755.755,0,0,1,.188-.52.706.706,0,0,1,.557-.212.717.717,0,0,1,.561.212.747.747,0,0,1,.191.52.722.722,0,0,1-.191.513.73.73,0,0,1-.561.205.718.718,0,0,1-.557-.205A.73.73,0,0,1,92.771,3.642Zm3.056,5.592a4.369,4.369,0,0,1,.427-1.955,3.187,3.187,0,0,1,1.189-1.34,3.238,3.238,0,0,1,1.74-.472,3.119,3.119,0,0,1,2.444,1.046,4.024,4.024,0,0,1,.933,2.782v.089a4.407,4.407,0,0,1-.414,1.938,3.14,3.14,0,0,1-1.183,1.336,3.275,3.275,0,0,1-1.767.479,3.111,3.111,0,0,1-2.437-1.046,4,4,0,0,1-.933-2.769Zm1.271.15a3.164,3.164,0,0,0,.571,1.976,1.934,1.934,0,0,0,3.059-.01,3.46,3.46,0,0,0,.567-2.116,3.159,3.159,0,0,0-.578-1.972,1.836,1.836,0,0,0-1.535-.755,1.816,1.816,0,0,0-1.511.745A3.435,3.435,0,0,0,97.1,9.384ZM99.757,2.5h1.531L99.456,4.51l-1.019,0Zm5.585,3.1.041.93A2.7,2.7,0,0,1,107.6,5.467q2.345,0,2.365,2.646V13H108.7V8.105a1.7,1.7,0,0,0-.366-1.183,1.466,1.466,0,0,0-1.118-.383,1.825,1.825,0,0,0-1.08.328,2.228,2.228,0,0,0-.725.861V13h-1.265V5.6Zm9.687,3.637a4.333,4.333,0,0,1,.807-2.738A2.745,2.745,0,0,1,120,6.355V2.5h1.265V13h-1.162l-.062-.793a2.575,2.575,0,0,1-2.112.93,2.526,2.526,0,0,1-2.1-1.053,4.382,4.382,0,0,1-.81-2.748Zm1.265.144a3.281,3.281,0,0,0,.52,1.969,1.68,1.68,0,0,0,1.436.711A1.845,1.845,0,0,0,120,10.983v-3.4a1.859,1.859,0,0,0-1.743-1.046,1.687,1.687,0,0,0-1.449.718A3.612,3.612,0,0,0,116.293,9.384ZM126.3,13.137a3.232,3.232,0,0,1-2.447-.988,3.666,3.666,0,0,1-.943-2.642V9.274a4.438,4.438,0,0,1,.42-1.965,3.28,3.28,0,0,1,1.176-1.354,2.956,2.956,0,0,1,1.637-.489,2.77,2.77,0,0,1,2.242.95,4.114,4.114,0,0,1,.8,2.721v.526h-5.011a2.629,2.629,0,0,0,.639,1.767,2.009,2.009,0,0,0,1.555.673,2.2,2.2,0,0,0,1.135-.273,2.851,2.851,0,0,0,.813-.725l.772.6A3.106,3.106,0,0,1,126.3,13.137Zm-.157-6.631a1.687,1.687,0,0,0-1.285.557,2.708,2.708,0,0,0-.643,1.562h3.705v-.1a2.409,2.409,0,0,0-.52-1.494A1.588,1.588,0,0,0,126.144,6.506ZM132.022,13h-1.265V2.5h1.265Zm8.559.137a3.232,3.232,0,0,1-2.447-.988,3.666,3.666,0,0,1-.943-2.642V9.274a4.438,4.438,0,0,1,.42-1.965,3.279,3.279,0,0,1,1.176-1.354,2.956,2.956,0,0,1,1.637-.489,2.77,2.77,0,0,1,2.242.95,4.114,4.114,0,0,1,.8,2.721v.526h-5.011a2.629,2.629,0,0,0,.639,1.767,2.009,2.009,0,0,0,1.555.673,2.2,2.2,0,0,0,1.135-.273,2.851,2.851,0,0,0,.813-.725l.772.6A3.106,3.106,0,0,1,140.581,13.137Zm-.157-6.631a1.687,1.687,0,0,0-1.285.557,2.708,2.708,0,0,0-.643,1.562H142.2v-.1a2.409,2.409,0,0,0-.52-1.494A1.588,1.588,0,0,0,140.424,6.506Zm6.986,1.8,1.641-2.7h1.477l-2.42,3.657L150.6,13H149.14l-1.709-2.769L145.722,13h-1.47l2.5-3.739L144.327,5.6h1.463Zm10.705,1.08a4.429,4.429,0,0,1-.772,2.721,2.476,2.476,0,0,1-2.092,1.032,2.713,2.713,0,0,1-2.119-.854v3.562h-1.265V5.6h1.155l.062.82a2.605,2.605,0,0,1,2.146-.957,2.522,2.522,0,0,1,2.109,1,4.477,4.477,0,0,1,.776,2.8Zm-1.265-.144a3.268,3.268,0,0,0-.533-1.976,1.718,1.718,0,0,0-1.463-.725,1.859,1.859,0,0,0-1.723,1.019v3.534a1.863,1.863,0,0,0,1.736,1.012,1.71,1.71,0,0,0,1.446-.721A3.567,3.567,0,0,0,156.851,9.24Zm5.94,3.9a3.232,3.232,0,0,1-2.447-.988,3.666,3.666,0,0,1-.943-2.642V9.274a4.438,4.438,0,0,1,.42-1.965A3.279,3.279,0,0,1,161,5.956a2.956,2.956,0,0,1,1.637-.489,2.77,2.77,0,0,1,2.242.95,4.114,4.114,0,0,1,.8,2.721v.526h-5.011a2.629,2.629,0,0,0,.639,1.767,2.009,2.009,0,0,0,1.555.673,2.2,2.2,0,0,0,1.135-.273,2.851,2.851,0,0,0,.813-.725l.772.6A3.106,3.106,0,0,1,162.791,13.137Zm-.157-6.631a1.687,1.687,0,0,0-1.285.557,2.708,2.708,0,0,0-.643,1.562h3.705v-.1a2.409,2.409,0,0,0-.52-1.494A1.588,1.588,0,0,0,162.634,6.506Zm8.08.232a3.79,3.79,0,0,0-.622-.048A1.667,1.667,0,0,0,168.4,7.75V13h-1.265V5.6h1.23l.021.854a1.969,1.969,0,0,1,1.764-.991,1.292,1.292,0,0,1,.561.1Zm3.22-2.926V5.6h1.381v.978h-1.381v4.593a1.027,1.027,0,0,0,.185.667.777.777,0,0,0,.629.222,3.062,3.062,0,0,0,.6-.082V13a3.688,3.688,0,0,1-.971.136,1.575,1.575,0,0,1-1.278-.513,2.2,2.2,0,0,1-.431-1.456V6.581h-1.347V5.6h1.347V3.813Zm2.386,5.421a4.369,4.369,0,0,1,.427-1.955,3.187,3.187,0,0,1,1.189-1.34,3.238,3.238,0,0,1,1.74-.472,3.119,3.119,0,0,1,2.444,1.046,4.024,4.024,0,0,1,.933,2.782v.089a4.407,4.407,0,0,1-.414,1.938,3.14,3.14,0,0,1-1.183,1.336,3.275,3.275,0,0,1-1.767.479,3.111,3.111,0,0,1-2.437-1.046,4,4,0,0,1-.933-2.769Zm1.271.15a3.164,3.164,0,0,0,.571,1.976,1.934,1.934,0,0,0,3.059-.01,3.46,3.46,0,0,0,.567-2.116,3.159,3.159,0,0,0-.578-1.972,1.836,1.836,0,0,0-1.535-.755,1.816,1.816,0,0,0-1.511.745A3.435,3.435,0,0,0,177.591,9.384Zm10.466-.424a10.569,10.569,0,0,1,.414-2.967A8.618,8.618,0,0,1,189.7,3.409a5.249,5.249,0,0,1,1.7-1.641l.26.834a5.444,5.444,0,0,0-1.637,2.338,10.135,10.135,0,0,0-.7,3.521l-.007.581a10.188,10.188,0,0,0,.964,4.58,5.47,5.47,0,0,0,1.381,1.818l-.26.772a5.418,5.418,0,0,1-1.736-1.7A9.5,9.5,0,0,1,188.057,8.96ZM199.281,13H192.76v-.909l3.445-3.828a8.185,8.185,0,0,0,1.056-1.412,2.356,2.356,0,0,0,.291-1.125,1.786,1.786,0,0,0-.472-1.278,1.649,1.649,0,0,0-1.258-.5,1.953,1.953,0,0,0-1.466.537,2.05,2.05,0,0,0-.523,1.494h-1.265a2.936,2.936,0,0,1,.885-2.222,3.282,3.282,0,0,1,2.369-.848,3.153,3.153,0,0,1,2.194.728,2.483,2.483,0,0,1,.807,1.938q0,1.47-1.873,3.5l-2.666,2.892h5Zm7.581-4.245a5.784,5.784,0,0,1-.759,3.3,3.153,3.153,0,0,1-4.73.024,5.49,5.49,0,0,1-.793-3.155V7.237a5.655,5.655,0,0,1,.759-3.261,3.21,3.21,0,0,1,4.744-.038,5.458,5.458,0,0,1,.779,3.175ZM205.6,7.025a4.634,4.634,0,0,0-.451-2.341,1.553,1.553,0,0,0-1.429-.735,1.532,1.532,0,0,0-1.415.731,4.525,4.525,0,0,0-.458,2.249V8.953a4.708,4.708,0,0,0,.468,2.382,1.55,1.55,0,0,0,1.418.769,1.529,1.529,0,0,0,1.391-.725A4.538,4.538,0,0,0,205.6,9.1ZM215,13h-6.521v-.909l3.445-3.828a8.185,8.185,0,0,0,1.056-1.412,2.356,2.356,0,0,0,.291-1.125,1.786,1.786,0,0,0-.472-1.278,1.649,1.649,0,0,0-1.258-.5,1.953,1.953,0,0,0-1.466.537,2.05,2.05,0,0,0-.523,1.494h-1.265a2.936,2.936,0,0,1,.885-2.222,3.282,3.282,0,0,1,2.369-.848,3.153,3.153,0,0,1,2.194.728,2.483,2.483,0,0,1,.807,1.938q0,1.47-1.873,3.5l-2.666,2.892h5Zm7.861,0h-6.521v-.909l3.445-3.828a8.185,8.185,0,0,0,1.056-1.412,2.356,2.356,0,0,0,.291-1.125,1.786,1.786,0,0,0-.472-1.278,1.649,1.649,0,0,0-1.258-.5,1.953,1.953,0,0,0-1.466.537,2.05,2.05,0,0,0-.523,1.494h-1.265a2.936,2.936,0,0,1,.885-2.222,3.282,3.282,0,0,1,2.369-.848,3.153,3.153,0,0,1,2.194.728,2.483,2.483,0,0,1,.807,1.938q0,1.47-1.873,3.5l-2.666,2.892h5Zm4.389-3.972a10.574,10.574,0,0,1-.4,2.922,8.641,8.641,0,0,1-1.224,2.581,5.361,5.361,0,0,1-1.726,1.682l-.267-.772a5.5,5.5,0,0,0,1.692-2.505,10.839,10.839,0,0,0,.653-3.77V8.946a11.254,11.254,0,0,0-.3-2.669,9.009,9.009,0,0,0-.837-2.211,5.108,5.108,0,0,0-1.207-1.524l.267-.772a5.34,5.34,0,0,1,1.719,1.668,8.66,8.66,0,0,1,1.224,2.577A10.818,10.818,0,0,1,227.254,9.028Z" transform="translate(254.62 5842.953)" fill="#12263f"/>
    <path id="Trazado_684095" data-name="Trazado 684095" d="M10,0H124a10,10,0,0,1,10,10V30a10,10,0,0,1-10,10H10A10,10,0,0,1,0,30V10A10,10,0,0,1,10,0Z" transform="translate(304.62 5446.782)" fill="#0b5999"/>
    <path id="Trazado_684096" data-name="Trazado 684096" d="M10,0H124a10,10,0,0,1,10,10V46a10,10,0,0,1-10,10H10A10,10,0,0,1,0,46V10A10,10,0,0,1,10,0Z" transform="translate(304.62 5588.411)" fill="#0b5999"/>
    <path id="Trazado_684097" data-name="Trazado 684097" d="M10,0H124a10,10,0,0,1,10,10V46a10,10,0,0,1-10,10H10A10,10,0,0,1,0,46V10A10,10,0,0,1,10,0Z" transform="translate(304.62 5674.668)" fill="#0b5999"/>
    <path id="Trazado_684098" data-name="Trazado 684098" d="M10,0H151a10,10,0,0,1,10,10V46a10,10,0,0,1-10,10H10A10,10,0,0,1,0,46V10A10,10,0,0,1,10,0Z" transform="translate(291.12 5760.926)" fill="#0b5999"/>
    <path id="Trazado_684099" data-name="Trazado 684099" d="M20,0H91a20,20,0,0,1,0,40H20A20,20,0,0,1,20,0Z" transform="translate(495.304 5768.354)" fill="#0b5999"/>
    <path id="Trazado_684100" data-name="Trazado 684100" d="M10,0H242a10,10,0,0,1,10,10V30a10,10,0,0,1-10,10H10A10,10,0,0,1,0,30V10A10,10,0,0,1,10,0Z" transform="translate(245.62 5517.782)" fill="#0b5999"/>
    <path id="Trazado_684101" data-name="Trazado 684101" d="M-33.337-3.349H-38.7L-39.9,0h-1.74l4.887-12.8h1.477l4.9,12.8h-1.731Zm-4.852-1.38h4.351l-2.18-5.985Zm17.306.079a5.694,5.694,0,0,1-.993,3.5A3.183,3.183,0,0,1-24.565.176a3.488,3.488,0,0,1-2.725-1.1V3.656h-1.626V-9.51h1.485l.079,1.055a3.35,3.35,0,0,1,2.76-1.23A3.243,3.243,0,0,1-21.88-8.394a5.756,5.756,0,0,1,1,3.595Zm-1.626-.185a4.2,4.2,0,0,0-.686-2.54,2.208,2.208,0,0,0-1.881-.932A2.39,2.39,0,0,0-27.29-7v4.544a2.4,2.4,0,0,0,2.232,1.3A2.2,2.2,0,0,0-23.2-2.079,4.587,4.587,0,0,0-22.509-4.834ZM-17.051,0h-1.626V-13.5h1.626Zm4.368,0h-1.626V-9.51h1.626ZM-14.44-12.032A.971.971,0,0,1-14.2-12.7a.907.907,0,0,1,.716-.272.922.922,0,0,1,.721.272.96.96,0,0,1,.246.668.929.929,0,0,1-.246.659.938.938,0,0,1-.721.264.924.924,0,0,1-.716-.264A.938.938,0,0,1-14.44-12.032ZM-6.267-1.151a2.342,2.342,0,0,0,1.521-.527A1.855,1.855,0,0,0-4.025-3h1.538A2.949,2.949,0,0,1-3.05-1.441,3.7,3.7,0,0,1-4.434-.264,3.994,3.994,0,0,1-6.267.176a3.918,3.918,0,0,1-3.089-1.3A5.163,5.163,0,0,1-10.5-4.667v-.272a5.725,5.725,0,0,1,.51-2.47A3.883,3.883,0,0,1-8.53-9.088a4.157,4.157,0,0,1,2.254-.6,3.814,3.814,0,0,1,2.659.958A3.424,3.424,0,0,1-2.487-6.24H-4.025a2.241,2.241,0,0,0-.7-1.516A2.174,2.174,0,0,0-6.275-8.35a2.276,2.276,0,0,0-1.92.892,4.19,4.19,0,0,0-.681,2.58v.308A4.106,4.106,0,0,0-8.2-2.039,2.287,2.287,0,0,0-6.267-1.151ZM5.212,0a3.416,3.416,0,0,1-.229-1A3.628,3.628,0,0,1,2.276.176,3.357,3.357,0,0,1-.031-.62a2.573,2.573,0,0,1-.9-2.017A2.688,2.688,0,0,1,.2-4.944a5.325,5.325,0,0,1,3.177-.822H4.957v-.747a1.826,1.826,0,0,0-.51-1.358,2.049,2.049,0,0,0-1.5-.505,2.371,2.371,0,0,0-1.459.439A1.3,1.3,0,0,0,.9-6.873H-.738A2.244,2.244,0,0,1-.233-8.249,3.449,3.449,0,0,1,1.138-9.3a4.613,4.613,0,0,1,1.9-.387,3.759,3.759,0,0,1,2.575.822A2.964,2.964,0,0,1,6.583-6.6v4.377A5.351,5.351,0,0,0,6.917-.141V0Zm-2.7-1.239a2.858,2.858,0,0,0,1.45-.4,2.392,2.392,0,0,0,.993-1.028V-4.614H3.683Q.694-4.614.694-2.865a1.48,1.48,0,0,0,.51,1.2A1.959,1.959,0,0,0,2.514-1.239Zm10.433.088a2.342,2.342,0,0,0,1.521-.527A1.855,1.855,0,0,0,15.188-3h1.538a2.949,2.949,0,0,1-.562,1.556A3.7,3.7,0,0,1,14.779-.264a3.994,3.994,0,0,1-1.833.439,3.918,3.918,0,0,1-3.089-1.3A5.163,5.163,0,0,1,8.71-4.667v-.272a5.725,5.725,0,0,1,.51-2.47,3.883,3.883,0,0,1,1.463-1.679,4.157,4.157,0,0,1,2.254-.6,3.814,3.814,0,0,1,2.659.958A3.424,3.424,0,0,1,16.726-6.24H15.188a2.241,2.241,0,0,0-.7-1.516,2.174,2.174,0,0,0-1.551-.593,2.276,2.276,0,0,0-1.92.892,4.19,4.19,0,0,0-.681,2.58v.308a4.106,4.106,0,0,0,.677,2.531A2.287,2.287,0,0,0,12.946-1.151ZM20.32,0H18.694V-9.51H20.32ZM18.563-12.032A.971.971,0,0,1,18.8-12.7a.907.907,0,0,1,.716-.272.922.922,0,0,1,.721.272.96.96,0,0,1,.246.668.929.929,0,0,1-.246.659.938.938,0,0,1-.721.264.924.924,0,0,1-.716-.264A.938.938,0,0,1,18.563-12.032Zm3.929,7.189a5.617,5.617,0,0,1,.549-2.514A4.1,4.1,0,0,1,24.57-9.079a4.163,4.163,0,0,1,2.237-.606,4.01,4.01,0,0,1,3.142,1.345,5.174,5.174,0,0,1,1.2,3.577v.114a5.666,5.666,0,0,1-.532,2.492A4.038,4.038,0,0,1,29.1-.439a4.211,4.211,0,0,1-2.272.615,4,4,0,0,1-3.133-1.345,5.147,5.147,0,0,1-1.2-3.56Zm1.635.193a4.068,4.068,0,0,0,.734,2.54,2.349,2.349,0,0,0,1.964.958,2.335,2.335,0,0,0,1.969-.971,4.449,4.449,0,0,0,.729-2.72,4.061,4.061,0,0,0-.743-2.536,2.361,2.361,0,0,0-1.973-.971,2.335,2.335,0,0,0-1.942.958A4.416,4.416,0,0,0,24.126-4.649ZM27.545-13.5h1.969l-2.355,2.584-1.31,0Zm7.181,3.99.053,1.2a3.465,3.465,0,0,1,2.848-1.371q3.015,0,3.041,3.4V0H39.041V-6.293a2.189,2.189,0,0,0-.47-1.521,1.884,1.884,0,0,0-1.437-.492,2.347,2.347,0,0,0-1.389.422,2.865,2.865,0,0,0-.932,1.107V0H33.188V-9.51Z" transform="translate(371.62 5472.782)" fill="#fff"/>
    <path id="Trazado_684102" data-name="Trazado 684102" d="M-43.7-4.061A4.708,4.708,0,0,1-45.2-.927a4.911,4.911,0,0,1-3.353,1.1A4.509,4.509,0,0,1-52.189-1.45,6.542,6.542,0,0,1-53.556-5.8v-1.23a7.291,7.291,0,0,1,.637-3.138,4.76,4.76,0,0,1,1.806-2.079,5.029,5.029,0,0,1,2.707-.725,4.624,4.624,0,0,1,3.27,1.138A4.765,4.765,0,0,1-43.7-8.684h-1.7a3.677,3.677,0,0,0-.954-2.222,2.885,2.885,0,0,0-2.052-.688,3.019,3.019,0,0,0-2.536,1.2,5.492,5.492,0,0,0-.918,3.4v1.24a5.645,5.645,0,0,0,.87,3.316A2.812,2.812,0,0,0-48.555-1.2,3.247,3.247,0,0,0-46.4-1.841a3.536,3.536,0,0,0,1-2.219Zm1.617-.782a5.617,5.617,0,0,1,.549-2.514,4.1,4.1,0,0,1,1.529-1.723,4.163,4.163,0,0,1,2.237-.606,4.01,4.01,0,0,1,3.142,1.345,5.174,5.174,0,0,1,1.2,3.577v.114a5.666,5.666,0,0,1-.532,2.492A4.038,4.038,0,0,1-35.481-.439a4.211,4.211,0,0,1-2.272.615,4,4,0,0,1-3.133-1.345,5.147,5.147,0,0,1-1.2-3.56Zm1.635.193a4.068,4.068,0,0,0,.734,2.54,2.349,2.349,0,0,0,1.964.958,2.335,2.335,0,0,0,1.969-.971,4.449,4.449,0,0,0,.729-2.72A4.061,4.061,0,0,0-35.8-7.378a2.361,2.361,0,0,0-1.973-.971,2.335,2.335,0,0,0-1.942.958A4.416,4.416,0,0,0-40.452-4.649Zm10.6-4.86.053,1.2a3.465,3.465,0,0,1,2.848-1.371q3.015,0,3.041,3.4V0h-1.626V-6.293a2.189,2.189,0,0,0-.47-1.521,1.884,1.884,0,0,0-1.437-.492,2.347,2.347,0,0,0-1.389.422,2.865,2.865,0,0,0-.932,1.107V0H-31.39V-9.51Zm10.6-2.3v2.3h1.775v1.257h-1.775v5.9a1.32,1.32,0,0,0,.237.858,1,1,0,0,0,.809.286,3.937,3.937,0,0,0,.773-.105V0a4.742,4.742,0,0,1-1.248.175,2.025,2.025,0,0,1-1.644-.659,2.832,2.832,0,0,1-.554-1.872v-5.9H-22.61V-9.51h1.731v-2.3Zm8.271,3.762a4.873,4.873,0,0,0-.8-.062A2.143,2.143,0,0,0-13.953-6.75V0h-1.626V-9.51H-14l.026,1.1A2.532,2.532,0,0,1-11.7-9.686a1.661,1.661,0,0,1,.721.123Zm.888,3.208a5.617,5.617,0,0,1,.549-2.514A4.1,4.1,0,0,1-8.016-9.079a4.163,4.163,0,0,1,2.237-.606A4.01,4.01,0,0,1-2.637-8.341a5.174,5.174,0,0,1,1.2,3.577v.114a5.666,5.666,0,0,1-.532,2.492A4.038,4.038,0,0,1-3.489-.439,4.211,4.211,0,0,1-5.761.176,4,4,0,0,1-8.895-1.169a5.147,5.147,0,0,1-1.2-3.56Zm1.635.193a4.068,4.068,0,0,0,.734,2.54,2.349,2.349,0,0,0,1.964.958,2.335,2.335,0,0,0,1.969-.971,4.449,4.449,0,0,0,.729-2.72,4.061,4.061,0,0,0-.743-2.536A2.361,2.361,0,0,0-5.779-8.35a2.335,2.335,0,0,0-1.942.958A4.416,4.416,0,0,0-8.459-4.649ZM2.369,0H.743V-13.5H2.369Zm8.473,0a3.416,3.416,0,0,1-.229-1A3.628,3.628,0,0,1,7.906.176,3.357,3.357,0,0,1,5.6-.62a2.573,2.573,0,0,1-.9-2.017A2.688,2.688,0,0,1,5.827-4.944,5.325,5.325,0,0,1,9-5.766h1.582v-.747a1.826,1.826,0,0,0-.51-1.358,2.049,2.049,0,0,0-1.5-.505,2.371,2.371,0,0,0-1.459.439,1.3,1.3,0,0,0-.589,1.063H4.891A2.244,2.244,0,0,1,5.4-8.249,3.449,3.449,0,0,1,6.768-9.3a4.613,4.613,0,0,1,1.9-.387,3.759,3.759,0,0,1,2.575.822A2.964,2.964,0,0,1,12.212-6.6v4.377a5.351,5.351,0,0,0,.334,2.083V0Zm-2.7-1.239a2.858,2.858,0,0,0,1.45-.4,2.392,2.392,0,0,0,.993-1.028V-4.614H9.312q-2.988,0-2.988,1.749a1.48,1.48,0,0,0,.51,1.2A1.959,1.959,0,0,0,8.143-1.239Zm6.223-3.595A5.571,5.571,0,0,1,15.4-8.354a3.28,3.28,0,0,1,2.716-1.332,3.3,3.3,0,0,1,2.646,1.143V-13.5H22.39V0H20.9l-.079-1.02A3.311,3.311,0,0,1,18.1.176a3.248,3.248,0,0,1-2.694-1.354,5.634,5.634,0,0,1-1.042-3.533Zm1.626.185a4.218,4.218,0,0,0,.668,2.531,2.159,2.159,0,0,0,1.846.914,2.372,2.372,0,0,0,2.259-1.389V-6.961a2.39,2.39,0,0,0-2.241-1.345,2.17,2.17,0,0,0-1.863.923A4.644,4.644,0,0,0,15.992-4.649Zm8.49-.193a5.617,5.617,0,0,1,.549-2.514,4.1,4.1,0,0,1,1.529-1.723A4.163,4.163,0,0,1,28.8-9.686a4.01,4.01,0,0,1,3.142,1.345,5.174,5.174,0,0,1,1.2,3.577v.114a5.666,5.666,0,0,1-.532,2.492A4.038,4.038,0,0,1,31.087-.439a4.211,4.211,0,0,1-2.272.615,4,4,0,0,1-3.133-1.345,5.147,5.147,0,0,1-1.2-3.56Zm1.635.193a4.068,4.068,0,0,0,.734,2.54,2.349,2.349,0,0,0,1.964.958,2.335,2.335,0,0,0,1.969-.971,4.449,4.449,0,0,0,.729-2.72,4.061,4.061,0,0,0-.743-2.536A2.361,2.361,0,0,0,28.8-8.35a2.335,2.335,0,0,0-1.942.958A4.416,4.416,0,0,0,26.117-4.649Zm13.658-3.4a4.873,4.873,0,0,0-.8-.062A2.143,2.143,0,0,0,36.8-6.75V0H35.178V-9.51H36.76l.026,1.1a2.532,2.532,0,0,1,2.268-1.274,1.661,1.661,0,0,1,.721.123ZM50.9,0H49.267V-10.837l-3.278,1.2v-1.477l4.658-1.749H50.9ZM-51.855,14.826a8.3,8.3,0,0,1,.325-2.331,6.772,6.772,0,0,1,.969-2.03,4.124,4.124,0,0,1,1.337-1.289l.2.655a4.278,4.278,0,0,0-1.286,1.837,7.963,7.963,0,0,0-.551,2.766l-.005.457a8,8,0,0,0,.757,3.6,4.3,4.3,0,0,0,1.085,1.429l-.2.607a4.257,4.257,0,0,1-1.364-1.332A7.466,7.466,0,0,1-51.855,14.826Zm9.706.693a2.877,2.877,0,0,1-.916,1.915,3,3,0,0,1-2.049.674,2.756,2.756,0,0,1-2.221-.994,4,4,0,0,1-.835-2.659V13.7a4.456,4.456,0,0,1,.389-1.917,2.909,2.909,0,0,1,1.1-1.27,3.073,3.073,0,0,1,1.654-.443,2.826,2.826,0,0,1,2,.7,2.912,2.912,0,0,1,.875,1.926h-1.037a2.247,2.247,0,0,0-.583-1.358,1.763,1.763,0,0,0-1.254-.42,1.845,1.845,0,0,0-1.55.731,3.356,3.356,0,0,0-.561,2.08v.758a3.45,3.45,0,0,0,.532,2.027,1.718,1.718,0,0,0,1.488.753,1.984,1.984,0,0,0,1.319-.389,2.161,2.161,0,0,0,.61-1.356Zm.988-.478a3.433,3.433,0,0,1,.336-1.536,2.5,2.5,0,0,1,.935-1.053,2.544,2.544,0,0,1,1.367-.371,2.451,2.451,0,0,1,1.92.822,3.162,3.162,0,0,1,.733,2.186v.07a3.463,3.463,0,0,1-.325,1.523,2.467,2.467,0,0,1-.929,1.05,2.573,2.573,0,0,1-1.388.376,2.445,2.445,0,0,1-1.915-.822,3.146,3.146,0,0,1-.733-2.175Zm1,.118a2.486,2.486,0,0,0,.448,1.552,1.435,1.435,0,0,0,1.2.585,1.427,1.427,0,0,0,1.2-.594,2.719,2.719,0,0,0,.446-1.662,2.482,2.482,0,0,0-.454-1.55,1.443,1.443,0,0,0-1.206-.594,1.427,1.427,0,0,0-1.187.585A2.7,2.7,0,0,0-40.162,15.159Zm6.478-2.97.032.73a2.118,2.118,0,0,1,1.74-.838q1.842,0,1.858,2.079V18h-.994V14.154a1.338,1.338,0,0,0-.287-.929,1.152,1.152,0,0,0-.878-.3,1.434,1.434,0,0,0-.849.258,1.751,1.751,0,0,0-.569.677V18h-.994V12.188Zm6.478-1.407v1.407h1.085v.768h-1.085v3.609a.807.807,0,0,0,.145.524.61.61,0,0,0,.494.175A2.406,2.406,0,0,0-26.1,17.2V18a2.9,2.9,0,0,1-.763.107,1.237,1.237,0,0,1-1-.4,1.731,1.731,0,0,1-.338-1.144v-3.6h-1.058v-.768H-28.2V10.781Zm5.054,2.3a2.978,2.978,0,0,0-.489-.038,1.309,1.309,0,0,0-1.327.833V18h-.994V12.188H-24l.016.671a1.547,1.547,0,0,1,1.386-.779,1.015,1.015,0,0,1,.44.075Zm.542,1.96a3.433,3.433,0,0,1,.336-1.536,2.5,2.5,0,0,1,.935-1.053,2.544,2.544,0,0,1,1.367-.371,2.451,2.451,0,0,1,1.92.822,3.162,3.162,0,0,1,.733,2.186v.07a3.462,3.462,0,0,1-.325,1.523,2.467,2.467,0,0,1-.929,1.05,2.573,2.573,0,0,1-1.388.376,2.445,2.445,0,0,1-1.915-.822,3.146,3.146,0,0,1-.733-2.175Zm1,.118a2.486,2.486,0,0,0,.448,1.552,1.435,1.435,0,0,0,1.2.585,1.427,1.427,0,0,0,1.2-.594,2.719,2.719,0,0,0,.446-1.662,2.482,2.482,0,0,0-.454-1.55,1.443,1.443,0,0,0-1.206-.594,1.427,1.427,0,0,0-1.187.585A2.7,2.7,0,0,0-20.612,15.159ZM-13.994,18h-.994V9.75h.994Zm5.178,0a2.087,2.087,0,0,1-.14-.612,2.217,2.217,0,0,1-1.654.72,2.051,2.051,0,0,1-1.41-.486,1.573,1.573,0,0,1-.551-1.233,1.643,1.643,0,0,1,.69-1.41,3.254,3.254,0,0,1,1.942-.5h.967V14.02a1.116,1.116,0,0,0-.312-.83,1.252,1.252,0,0,0-.918-.309,1.449,1.449,0,0,0-.892.269.791.791,0,0,0-.36.65h-1a1.371,1.371,0,0,1,.309-.841,2.108,2.108,0,0,1,.838-.642,2.819,2.819,0,0,1,1.163-.236,2.3,2.3,0,0,1,1.574.5,1.812,1.812,0,0,1,.591,1.383v2.675a3.27,3.27,0,0,0,.2,1.273V18Zm-1.649-.757A1.746,1.746,0,0,0-9.579,17a1.462,1.462,0,0,0,.607-.628V15.18h-.779q-1.826,0-1.826,1.069a.9.9,0,0,0,.312.73A1.2,1.2,0,0,0-10.466,17.243Zm3.8-2.2a3.4,3.4,0,0,1,.634-2.151,2,2,0,0,1,1.66-.814,2.016,2.016,0,0,1,1.617.7V9.75h.994V18h-.913l-.048-.623a2.024,2.024,0,0,1-1.66.73,1.985,1.985,0,0,1-1.646-.827,3.443,3.443,0,0,1-.636-2.159Zm.994.113a2.578,2.578,0,0,0,.408,1.547,1.32,1.32,0,0,0,1.128.559,1.45,1.45,0,0,0,1.38-.849V13.746a1.461,1.461,0,0,0-1.37-.822,1.326,1.326,0,0,0-1.139.564A2.838,2.838,0,0,0-5.669,15.159Zm5.188-.118A3.433,3.433,0,0,1-.145,13.5,2.5,2.5,0,0,1,.79,12.452a2.544,2.544,0,0,1,1.367-.371,2.451,2.451,0,0,1,1.92.822,3.162,3.162,0,0,1,.733,2.186v.07a3.462,3.462,0,0,1-.325,1.523,2.467,2.467,0,0,1-.929,1.05,2.573,2.573,0,0,1-1.388.376,2.445,2.445,0,0,1-1.915-.822A3.146,3.146,0,0,1-.481,15.11Zm1,.118a2.486,2.486,0,0,0,.448,1.552,1.435,1.435,0,0,0,1.2.585,1.427,1.427,0,0,0,1.2-.594,2.719,2.719,0,0,0,.446-1.662,2.482,2.482,0,0,0-.454-1.55A1.443,1.443,0,0,0,2.156,12.9a1.427,1.427,0,0,0-1.187.585A2.7,2.7,0,0,0,.518,15.159ZM8.865,13.08a2.978,2.978,0,0,0-.489-.038,1.309,1.309,0,0,0-1.327.833V18H6.056V12.188h.967l.016.671a1.547,1.547,0,0,1,1.386-.779,1.015,1.015,0,0,1,.44.075Zm3.395,1.966a3.4,3.4,0,0,1,.634-2.151,2.156,2.156,0,0,1,3.276-.115V9.75h.994V18H16.25l-.048-.623a2.024,2.024,0,0,1-1.66.73A1.985,1.985,0,0,1,12.9,17.28a3.443,3.443,0,0,1-.636-2.159Zm.994.113a2.578,2.578,0,0,0,.408,1.547,1.32,1.32,0,0,0,1.128.559,1.45,1.45,0,0,0,1.38-.849V13.746a1.461,1.461,0,0,0-1.37-.822,1.326,1.326,0,0,0-1.139.564A2.838,2.838,0,0,0,13.253,15.159Zm7.863,2.949a2.539,2.539,0,0,1-1.923-.776,2.881,2.881,0,0,1-.741-2.076v-.183a3.487,3.487,0,0,1,.33-1.544,2.577,2.577,0,0,1,.924-1.063,2.323,2.323,0,0,1,1.286-.384,2.177,2.177,0,0,1,1.762.747,3.232,3.232,0,0,1,.628,2.138v.414H19.446a2.066,2.066,0,0,0,.5,1.388,1.579,1.579,0,0,0,1.222.529,1.731,1.731,0,0,0,.892-.215,2.24,2.24,0,0,0,.639-.569l.607.473A2.44,2.44,0,0,1,21.116,18.107Zm-.124-5.21a1.325,1.325,0,0,0-1.01.438,2.128,2.128,0,0,0-.5,1.227h2.911v-.075a1.893,1.893,0,0,0-.408-1.174A1.248,1.248,0,0,0,20.993,12.9Zm6.6,5.1V12.957H26.67v-.768h.918v-.494a2.019,2.019,0,0,1,.556-1.515,2.156,2.156,0,0,1,1.571-.542,4.731,4.731,0,0,1,1.52.328l-.167.838a3.443,3.443,0,0,0-1.278-.269,1.251,1.251,0,0,0-.921.287,1.185,1.185,0,0,0-.282.862v.5h1.187v.768H28.588V18Zm4.141,0h-1V12.188h1Zm2.7,0h-.994V9.75h.994Zm2.938-7.219v1.407h1.085v.768H37.364v3.609a.807.807,0,0,0,.145.524.61.61,0,0,0,.494.175,2.406,2.406,0,0,0,.473-.064V18a2.9,2.9,0,0,1-.763.107,1.237,1.237,0,0,1-1-.4,1.731,1.731,0,0,1-.338-1.144v-3.6H35.312v-.768H36.37V10.781Zm5.054,2.3a2.978,2.978,0,0,0-.489-.038,1.309,1.309,0,0,0-1.327.833V18h-.994V12.188h.967l.016.671a1.547,1.547,0,0,1,1.386-.779,1.015,1.015,0,0,1,.44.075Zm.542,1.96A3.433,3.433,0,0,1,43.3,13.5a2.5,2.5,0,0,1,.935-1.053,2.544,2.544,0,0,1,1.367-.371,2.451,2.451,0,0,1,1.92.822,3.162,3.162,0,0,1,.733,2.186v.07a3.463,3.463,0,0,1-.325,1.523A2.467,2.467,0,0,1,47,17.731a2.573,2.573,0,0,1-1.388.376,2.445,2.445,0,0,1-1.915-.822,3.146,3.146,0,0,1-.733-2.175Zm1,.118a2.486,2.486,0,0,0,.448,1.552,1.52,1.52,0,0,0,2.4-.008,2.719,2.719,0,0,0,.446-1.662,2.482,2.482,0,0,0-.454-1.55A1.443,1.443,0,0,0,45.6,12.9a1.427,1.427,0,0,0-1.187.585A2.7,2.7,0,0,0,43.96,15.159Zm7.831-.279a8.308,8.308,0,0,1-.314,2.3,6.79,6.79,0,0,1-.961,2.028,4.212,4.212,0,0,1-1.356,1.321l-.209-.607a4.318,4.318,0,0,0,1.329-1.969,8.516,8.516,0,0,0,.513-2.962v-.172a8.842,8.842,0,0,0-.236-2.1A7.079,7.079,0,0,0,49.9,10.98a4.013,4.013,0,0,0-.948-1.2l.209-.607a4.2,4.2,0,0,1,1.351,1.311,6.8,6.8,0,0,1,.961,2.025A8.5,8.5,0,0,1,51.791,14.879Z" transform="translate(371.62 5613.411)" fill="#fff"/>
    <path id="Trazado_684103" data-name="Trazado 684103" d="M-43.7-4.061A4.708,4.708,0,0,1-45.2-.927a4.911,4.911,0,0,1-3.353,1.1A4.509,4.509,0,0,1-52.189-1.45,6.542,6.542,0,0,1-53.556-5.8v-1.23a7.291,7.291,0,0,1,.637-3.138,4.76,4.76,0,0,1,1.806-2.079,5.029,5.029,0,0,1,2.707-.725,4.624,4.624,0,0,1,3.27,1.138A4.765,4.765,0,0,1-43.7-8.684h-1.7a3.677,3.677,0,0,0-.954-2.222,2.885,2.885,0,0,0-2.052-.688,3.019,3.019,0,0,0-2.536,1.2,5.492,5.492,0,0,0-.918,3.4v1.24a5.645,5.645,0,0,0,.87,3.316A2.812,2.812,0,0,0-48.555-1.2,3.247,3.247,0,0,0-46.4-1.841a3.536,3.536,0,0,0,1-2.219Zm1.617-.782a5.617,5.617,0,0,1,.549-2.514,4.1,4.1,0,0,1,1.529-1.723,4.163,4.163,0,0,1,2.237-.606,4.01,4.01,0,0,1,3.142,1.345,5.174,5.174,0,0,1,1.2,3.577v.114a5.666,5.666,0,0,1-.532,2.492A4.038,4.038,0,0,1-35.481-.439a4.211,4.211,0,0,1-2.272.615,4,4,0,0,1-3.133-1.345,5.147,5.147,0,0,1-1.2-3.56Zm1.635.193a4.068,4.068,0,0,0,.734,2.54,2.349,2.349,0,0,0,1.964.958,2.335,2.335,0,0,0,1.969-.971,4.449,4.449,0,0,0,.729-2.72A4.061,4.061,0,0,0-35.8-7.378a2.361,2.361,0,0,0-1.973-.971,2.335,2.335,0,0,0-1.942.958A4.416,4.416,0,0,0-40.452-4.649Zm10.6-4.86.053,1.2a3.465,3.465,0,0,1,2.848-1.371q3.015,0,3.041,3.4V0h-1.626V-6.293a2.189,2.189,0,0,0-.47-1.521,1.884,1.884,0,0,0-1.437-.492,2.347,2.347,0,0,0-1.389.422,2.865,2.865,0,0,0-.932,1.107V0H-31.39V-9.51Zm10.6-2.3v2.3h1.775v1.257h-1.775v5.9a1.32,1.32,0,0,0,.237.858,1,1,0,0,0,.809.286,3.937,3.937,0,0,0,.773-.105V0a4.742,4.742,0,0,1-1.248.175,2.025,2.025,0,0,1-1.644-.659,2.832,2.832,0,0,1-.554-1.872v-5.9H-22.61V-9.51h1.731v-2.3Zm8.271,3.762a4.873,4.873,0,0,0-.8-.062A2.143,2.143,0,0,0-13.953-6.75V0h-1.626V-9.51H-14l.026,1.1A2.532,2.532,0,0,1-11.7-9.686a1.661,1.661,0,0,1,.721.123Zm.888,3.208a5.617,5.617,0,0,1,.549-2.514A4.1,4.1,0,0,1-8.016-9.079a4.163,4.163,0,0,1,2.237-.606A4.01,4.01,0,0,1-2.637-8.341a5.174,5.174,0,0,1,1.2,3.577v.114a5.666,5.666,0,0,1-.532,2.492A4.038,4.038,0,0,1-3.489-.439,4.211,4.211,0,0,1-5.761.176,4,4,0,0,1-8.895-1.169a5.147,5.147,0,0,1-1.2-3.56Zm1.635.193a4.068,4.068,0,0,0,.734,2.54,2.349,2.349,0,0,0,1.964.958,2.335,2.335,0,0,0,1.969-.971,4.449,4.449,0,0,0,.729-2.72,4.061,4.061,0,0,0-.743-2.536A2.361,2.361,0,0,0-5.779-8.35a2.335,2.335,0,0,0-1.942.958A4.416,4.416,0,0,0-8.459-4.649ZM2.369,0H.743V-13.5H2.369Zm8.473,0a3.416,3.416,0,0,1-.229-1A3.628,3.628,0,0,1,7.906.176,3.357,3.357,0,0,1,5.6-.62a2.573,2.573,0,0,1-.9-2.017A2.688,2.688,0,0,1,5.827-4.944,5.325,5.325,0,0,1,9-5.766h1.582v-.747a1.826,1.826,0,0,0-.51-1.358,2.049,2.049,0,0,0-1.5-.505,2.371,2.371,0,0,0-1.459.439,1.3,1.3,0,0,0-.589,1.063H4.891A2.244,2.244,0,0,1,5.4-8.249,3.449,3.449,0,0,1,6.768-9.3a4.613,4.613,0,0,1,1.9-.387,3.759,3.759,0,0,1,2.575.822A2.964,2.964,0,0,1,12.212-6.6v4.377a5.351,5.351,0,0,0,.334,2.083V0Zm-2.7-1.239a2.858,2.858,0,0,0,1.45-.4,2.392,2.392,0,0,0,.993-1.028V-4.614H9.312q-2.988,0-2.988,1.749a1.48,1.48,0,0,0,.51,1.2A1.959,1.959,0,0,0,8.143-1.239Zm6.223-3.595A5.571,5.571,0,0,1,15.4-8.354a3.28,3.28,0,0,1,2.716-1.332,3.3,3.3,0,0,1,2.646,1.143V-13.5H22.39V0H20.9l-.079-1.02A3.311,3.311,0,0,1,18.1.176a3.248,3.248,0,0,1-2.694-1.354,5.634,5.634,0,0,1-1.042-3.533Zm1.626.185a4.218,4.218,0,0,0,.668,2.531,2.159,2.159,0,0,0,1.846.914,2.372,2.372,0,0,0,2.259-1.389V-6.961a2.39,2.39,0,0,0-2.241-1.345,2.17,2.17,0,0,0-1.863.923A4.644,4.644,0,0,0,15.992-4.649Zm8.49-.193a5.617,5.617,0,0,1,.549-2.514,4.1,4.1,0,0,1,1.529-1.723A4.163,4.163,0,0,1,28.8-9.686a4.01,4.01,0,0,1,3.142,1.345,5.174,5.174,0,0,1,1.2,3.577v.114a5.666,5.666,0,0,1-.532,2.492A4.038,4.038,0,0,1,31.087-.439a4.211,4.211,0,0,1-2.272.615,4,4,0,0,1-3.133-1.345,5.147,5.147,0,0,1-1.2-3.56Zm1.635.193a4.068,4.068,0,0,0,.734,2.54,2.349,2.349,0,0,0,1.964.958,2.335,2.335,0,0,0,1.969-.971,4.449,4.449,0,0,0,.729-2.72,4.061,4.061,0,0,0-.743-2.536A2.361,2.361,0,0,0,28.8-8.35a2.335,2.335,0,0,0-1.942.958A4.416,4.416,0,0,0,26.117-4.649Zm13.658-3.4a4.873,4.873,0,0,0-.8-.062A2.143,2.143,0,0,0,36.8-6.75V0H35.178V-9.51H36.76l.026,1.1a2.532,2.532,0,0,1,2.268-1.274,1.661,1.661,0,0,1,.721.123ZM53.943,0H45.558V-1.169l4.43-4.922a10.524,10.524,0,0,0,1.358-1.815,3.029,3.029,0,0,0,.374-1.446A2.3,2.3,0,0,0,51.113-11a2.12,2.12,0,0,0-1.617-.642,2.511,2.511,0,0,0-1.885.69,2.635,2.635,0,0,0-.672,1.92H45.312a3.774,3.774,0,0,1,1.138-2.856,4.219,4.219,0,0,1,3.045-1.09,4.054,4.054,0,0,1,2.821.936,3.193,3.193,0,0,1,1.037,2.492q0,1.89-2.408,4.5L47.518-1.327h6.425Zm-105.8,14.826a8.3,8.3,0,0,1,.325-2.331,6.772,6.772,0,0,1,.969-2.03,4.124,4.124,0,0,1,1.337-1.289l.2.655a4.278,4.278,0,0,0-1.286,1.837,7.963,7.963,0,0,0-.551,2.766l-.005.457a8,8,0,0,0,.757,3.6,4.3,4.3,0,0,0,1.085,1.429l-.2.607a4.257,4.257,0,0,1-1.364-1.332A7.466,7.466,0,0,1-51.855,14.826Zm9.706.693a2.877,2.877,0,0,1-.916,1.915,3,3,0,0,1-2.049.674,2.756,2.756,0,0,1-2.221-.994,4,4,0,0,1-.835-2.659V13.7a4.456,4.456,0,0,1,.389-1.917,2.909,2.909,0,0,1,1.1-1.27,3.073,3.073,0,0,1,1.654-.443,2.826,2.826,0,0,1,2,.7,2.912,2.912,0,0,1,.875,1.926h-1.037a2.247,2.247,0,0,0-.583-1.358,1.763,1.763,0,0,0-1.254-.42,1.845,1.845,0,0,0-1.55.731,3.356,3.356,0,0,0-.561,2.08v.758a3.45,3.45,0,0,0,.532,2.027,1.718,1.718,0,0,0,1.488.753,1.984,1.984,0,0,0,1.319-.389,2.161,2.161,0,0,0,.61-1.356Zm.988-.478a3.433,3.433,0,0,1,.336-1.536,2.5,2.5,0,0,1,.935-1.053,2.544,2.544,0,0,1,1.367-.371,2.451,2.451,0,0,1,1.92.822,3.162,3.162,0,0,1,.733,2.186v.07a3.463,3.463,0,0,1-.325,1.523,2.467,2.467,0,0,1-.929,1.05,2.573,2.573,0,0,1-1.388.376,2.445,2.445,0,0,1-1.915-.822,3.146,3.146,0,0,1-.733-2.175Zm1,.118a2.486,2.486,0,0,0,.448,1.552,1.435,1.435,0,0,0,1.2.585,1.427,1.427,0,0,0,1.2-.594,2.719,2.719,0,0,0,.446-1.662,2.482,2.482,0,0,0-.454-1.55,1.443,1.443,0,0,0-1.206-.594,1.427,1.427,0,0,0-1.187.585A2.7,2.7,0,0,0-40.162,15.159Zm6.478-2.97.032.73a2.118,2.118,0,0,1,1.74-.838q1.842,0,1.858,2.079V18h-.994V14.154a1.338,1.338,0,0,0-.287-.929,1.152,1.152,0,0,0-.878-.3,1.434,1.434,0,0,0-.849.258,1.751,1.751,0,0,0-.569.677V18h-.994V12.188Zm6.478-1.407v1.407h1.085v.768h-1.085v3.609a.807.807,0,0,0,.145.524.61.61,0,0,0,.494.175A2.406,2.406,0,0,0-26.1,17.2V18a2.9,2.9,0,0,1-.763.107,1.237,1.237,0,0,1-1-.4,1.731,1.731,0,0,1-.338-1.144v-3.6h-1.058v-.768H-28.2V10.781Zm5.054,2.3a2.978,2.978,0,0,0-.489-.038,1.309,1.309,0,0,0-1.327.833V18h-.994V12.188H-24l.016.671a1.547,1.547,0,0,1,1.386-.779,1.015,1.015,0,0,1,.44.075Zm.542,1.96a3.433,3.433,0,0,1,.336-1.536,2.5,2.5,0,0,1,.935-1.053,2.544,2.544,0,0,1,1.367-.371,2.451,2.451,0,0,1,1.92.822,3.162,3.162,0,0,1,.733,2.186v.07a3.462,3.462,0,0,1-.325,1.523,2.467,2.467,0,0,1-.929,1.05,2.573,2.573,0,0,1-1.388.376,2.445,2.445,0,0,1-1.915-.822,3.146,3.146,0,0,1-.733-2.175Zm1,.118a2.486,2.486,0,0,0,.448,1.552,1.435,1.435,0,0,0,1.2.585,1.427,1.427,0,0,0,1.2-.594,2.719,2.719,0,0,0,.446-1.662,2.482,2.482,0,0,0-.454-1.55,1.443,1.443,0,0,0-1.206-.594,1.427,1.427,0,0,0-1.187.585A2.7,2.7,0,0,0-20.612,15.159ZM-13.994,18h-.994V9.75h.994Zm5.178,0a2.087,2.087,0,0,1-.14-.612,2.217,2.217,0,0,1-1.654.72,2.051,2.051,0,0,1-1.41-.486,1.573,1.573,0,0,1-.551-1.233,1.643,1.643,0,0,1,.69-1.41,3.254,3.254,0,0,1,1.942-.5h.967V14.02a1.116,1.116,0,0,0-.312-.83,1.252,1.252,0,0,0-.918-.309,1.449,1.449,0,0,0-.892.269.791.791,0,0,0-.36.65h-1a1.371,1.371,0,0,1,.309-.841,2.108,2.108,0,0,1,.838-.642,2.819,2.819,0,0,1,1.163-.236,2.3,2.3,0,0,1,1.574.5,1.812,1.812,0,0,1,.591,1.383v2.675a3.27,3.27,0,0,0,.2,1.273V18Zm-1.649-.757A1.746,1.746,0,0,0-9.579,17a1.462,1.462,0,0,0,.607-.628V15.18h-.779q-1.826,0-1.826,1.069a.9.9,0,0,0,.312.73A1.2,1.2,0,0,0-10.466,17.243Zm3.8-2.2a3.4,3.4,0,0,1,.634-2.151,2,2,0,0,1,1.66-.814,2.016,2.016,0,0,1,1.617.7V9.75h.994V18h-.913l-.048-.623a2.024,2.024,0,0,1-1.66.73,1.985,1.985,0,0,1-1.646-.827,3.443,3.443,0,0,1-.636-2.159Zm.994.113a2.578,2.578,0,0,0,.408,1.547,1.32,1.32,0,0,0,1.128.559,1.45,1.45,0,0,0,1.38-.849V13.746a1.461,1.461,0,0,0-1.37-.822,1.326,1.326,0,0,0-1.139.564A2.838,2.838,0,0,0-5.669,15.159Zm5.188-.118A3.433,3.433,0,0,1-.145,13.5,2.5,2.5,0,0,1,.79,12.452a2.544,2.544,0,0,1,1.367-.371,2.451,2.451,0,0,1,1.92.822,3.162,3.162,0,0,1,.733,2.186v.07a3.462,3.462,0,0,1-.325,1.523,2.467,2.467,0,0,1-.929,1.05,2.573,2.573,0,0,1-1.388.376,2.445,2.445,0,0,1-1.915-.822A3.146,3.146,0,0,1-.481,15.11Zm1,.118a2.486,2.486,0,0,0,.448,1.552,1.435,1.435,0,0,0,1.2.585,1.427,1.427,0,0,0,1.2-.594,2.719,2.719,0,0,0,.446-1.662,2.482,2.482,0,0,0-.454-1.55A1.443,1.443,0,0,0,2.156,12.9a1.427,1.427,0,0,0-1.187.585A2.7,2.7,0,0,0,.518,15.159ZM8.865,13.08a2.978,2.978,0,0,0-.489-.038,1.309,1.309,0,0,0-1.327.833V18H6.056V12.188h.967l.016.671a1.547,1.547,0,0,1,1.386-.779,1.015,1.015,0,0,1,.44.075Zm3.395,1.966a3.4,3.4,0,0,1,.634-2.151,2.156,2.156,0,0,1,3.276-.115V9.75h.994V18H16.25l-.048-.623a2.024,2.024,0,0,1-1.66.73A1.985,1.985,0,0,1,12.9,17.28a3.443,3.443,0,0,1-.636-2.159Zm.994.113a2.578,2.578,0,0,0,.408,1.547,1.32,1.32,0,0,0,1.128.559,1.45,1.45,0,0,0,1.38-.849V13.746a1.461,1.461,0,0,0-1.37-.822,1.326,1.326,0,0,0-1.139.564A2.838,2.838,0,0,0,13.253,15.159Zm7.863,2.949a2.539,2.539,0,0,1-1.923-.776,2.881,2.881,0,0,1-.741-2.076v-.183a3.487,3.487,0,0,1,.33-1.544,2.577,2.577,0,0,1,.924-1.063,2.323,2.323,0,0,1,1.286-.384,2.177,2.177,0,0,1,1.762.747,3.232,3.232,0,0,1,.628,2.138v.414H19.446a2.066,2.066,0,0,0,.5,1.388,1.579,1.579,0,0,0,1.222.529,1.731,1.731,0,0,0,.892-.215,2.24,2.24,0,0,0,.639-.569l.607.473A2.44,2.44,0,0,1,21.116,18.107Zm-.124-5.21a1.325,1.325,0,0,0-1.01.438,2.128,2.128,0,0,0-.5,1.227h2.911v-.075a1.893,1.893,0,0,0-.408-1.174A1.248,1.248,0,0,0,20.993,12.9Zm6.6,5.1V12.957H26.67v-.768h.918v-.494a2.019,2.019,0,0,1,.556-1.515,2.156,2.156,0,0,1,1.571-.542,4.731,4.731,0,0,1,1.52.328l-.167.838a3.443,3.443,0,0,0-1.278-.269,1.251,1.251,0,0,0-.921.287,1.185,1.185,0,0,0-.282.862v.5h1.187v.768H28.588V18Zm4.141,0h-1V12.188h1Zm2.7,0h-.994V9.75h.994Zm2.938-7.219v1.407h1.085v.768H37.364v3.609a.807.807,0,0,0,.145.524.61.61,0,0,0,.494.175,2.406,2.406,0,0,0,.473-.064V18a2.9,2.9,0,0,1-.763.107,1.237,1.237,0,0,1-1-.4,1.731,1.731,0,0,1-.338-1.144v-3.6H35.312v-.768H36.37V10.781Zm5.054,2.3a2.978,2.978,0,0,0-.489-.038,1.309,1.309,0,0,0-1.327.833V18h-.994V12.188h.967l.016.671a1.547,1.547,0,0,1,1.386-.779,1.015,1.015,0,0,1,.44.075Zm.542,1.96A3.433,3.433,0,0,1,43.3,13.5a2.5,2.5,0,0,1,.935-1.053,2.544,2.544,0,0,1,1.367-.371,2.451,2.451,0,0,1,1.92.822,3.162,3.162,0,0,1,.733,2.186v.07a3.463,3.463,0,0,1-.325,1.523A2.467,2.467,0,0,1,47,17.731a2.573,2.573,0,0,1-1.388.376,2.445,2.445,0,0,1-1.915-.822,3.146,3.146,0,0,1-.733-2.175Zm1,.118a2.486,2.486,0,0,0,.448,1.552,1.52,1.52,0,0,0,2.4-.008,2.719,2.719,0,0,0,.446-1.662,2.482,2.482,0,0,0-.454-1.55A1.443,1.443,0,0,0,45.6,12.9a1.427,1.427,0,0,0-1.187.585A2.7,2.7,0,0,0,43.96,15.159Zm7.831-.279a8.308,8.308,0,0,1-.314,2.3,6.79,6.79,0,0,1-.961,2.028,4.212,4.212,0,0,1-1.356,1.321l-.209-.607a4.318,4.318,0,0,0,1.329-1.969,8.516,8.516,0,0,0,.513-2.962v-.172a8.842,8.842,0,0,0-.236-2.1A7.079,7.079,0,0,0,49.9,10.98a4.013,4.013,0,0,0-.948-1.2l.209-.607a4.2,4.2,0,0,1,1.351,1.311,6.8,6.8,0,0,1,.961,2.025A8.5,8.5,0,0,1,51.791,14.879Z" transform="translate(371.62 5699.668)" fill="#fff"/>
    <path id="Trazado_684104" data-name="Trazado 684104" d="M-43.7-4.061A4.708,4.708,0,0,1-45.2-.927a4.911,4.911,0,0,1-3.353,1.1A4.509,4.509,0,0,1-52.189-1.45,6.542,6.542,0,0,1-53.556-5.8v-1.23a7.291,7.291,0,0,1,.637-3.138,4.76,4.76,0,0,1,1.806-2.079,5.029,5.029,0,0,1,2.707-.725,4.624,4.624,0,0,1,3.27,1.138A4.765,4.765,0,0,1-43.7-8.684h-1.7a3.677,3.677,0,0,0-.954-2.222,2.885,2.885,0,0,0-2.052-.688,3.019,3.019,0,0,0-2.536,1.2,5.492,5.492,0,0,0-.918,3.4v1.24a5.645,5.645,0,0,0,.87,3.316A2.812,2.812,0,0,0-48.555-1.2,3.247,3.247,0,0,0-46.4-1.841a3.536,3.536,0,0,0,1-2.219Zm1.617-.782a5.617,5.617,0,0,1,.549-2.514,4.1,4.1,0,0,1,1.529-1.723,4.163,4.163,0,0,1,2.237-.606,4.01,4.01,0,0,1,3.142,1.345,5.174,5.174,0,0,1,1.2,3.577v.114a5.666,5.666,0,0,1-.532,2.492A4.038,4.038,0,0,1-35.481-.439a4.211,4.211,0,0,1-2.272.615,4,4,0,0,1-3.133-1.345,5.147,5.147,0,0,1-1.2-3.56Zm1.635.193a4.068,4.068,0,0,0,.734,2.54,2.349,2.349,0,0,0,1.964.958,2.335,2.335,0,0,0,1.969-.971,4.449,4.449,0,0,0,.729-2.72A4.061,4.061,0,0,0-35.8-7.378a2.361,2.361,0,0,0-1.973-.971,2.335,2.335,0,0,0-1.942.958A4.416,4.416,0,0,0-40.452-4.649Zm10.6-4.86.053,1.2a3.465,3.465,0,0,1,2.848-1.371q3.015,0,3.041,3.4V0h-1.626V-6.293a2.189,2.189,0,0,0-.47-1.521,1.884,1.884,0,0,0-1.437-.492,2.347,2.347,0,0,0-1.389.422,2.865,2.865,0,0,0-.932,1.107V0H-31.39V-9.51Zm10.6-2.3v2.3h1.775v1.257h-1.775v5.9a1.32,1.32,0,0,0,.237.858,1,1,0,0,0,.809.286,3.937,3.937,0,0,0,.773-.105V0a4.742,4.742,0,0,1-1.248.175,2.025,2.025,0,0,1-1.644-.659,2.832,2.832,0,0,1-.554-1.872v-5.9H-22.61V-9.51h1.731v-2.3Zm8.271,3.762a4.873,4.873,0,0,0-.8-.062A2.143,2.143,0,0,0-13.953-6.75V0h-1.626V-9.51H-14l.026,1.1A2.532,2.532,0,0,1-11.7-9.686a1.661,1.661,0,0,1,.721.123Zm.888,3.208a5.617,5.617,0,0,1,.549-2.514A4.1,4.1,0,0,1-8.016-9.079a4.163,4.163,0,0,1,2.237-.606A4.01,4.01,0,0,1-2.637-8.341a5.174,5.174,0,0,1,1.2,3.577v.114a5.666,5.666,0,0,1-.532,2.492A4.038,4.038,0,0,1-3.489-.439,4.211,4.211,0,0,1-5.761.176,4,4,0,0,1-8.895-1.169a5.147,5.147,0,0,1-1.2-3.56Zm1.635.193a4.068,4.068,0,0,0,.734,2.54,2.349,2.349,0,0,0,1.964.958,2.335,2.335,0,0,0,1.969-.971,4.449,4.449,0,0,0,.729-2.72,4.061,4.061,0,0,0-.743-2.536A2.361,2.361,0,0,0-5.779-8.35a2.335,2.335,0,0,0-1.942.958A4.416,4.416,0,0,0-8.459-4.649ZM2.369,0H.743V-13.5H2.369Zm8.473,0a3.416,3.416,0,0,1-.229-1A3.628,3.628,0,0,1,7.906.176,3.357,3.357,0,0,1,5.6-.62a2.573,2.573,0,0,1-.9-2.017A2.688,2.688,0,0,1,5.827-4.944,5.325,5.325,0,0,1,9-5.766h1.582v-.747a1.826,1.826,0,0,0-.51-1.358,2.049,2.049,0,0,0-1.5-.505,2.371,2.371,0,0,0-1.459.439,1.3,1.3,0,0,0-.589,1.063H4.891A2.244,2.244,0,0,1,5.4-8.249,3.449,3.449,0,0,1,6.768-9.3a4.613,4.613,0,0,1,1.9-.387,3.759,3.759,0,0,1,2.575.822A2.964,2.964,0,0,1,12.212-6.6v4.377a5.351,5.351,0,0,0,.334,2.083V0Zm-2.7-1.239a2.858,2.858,0,0,0,1.45-.4,2.392,2.392,0,0,0,.993-1.028V-4.614H9.312q-2.988,0-2.988,1.749a1.48,1.48,0,0,0,.51,1.2A1.959,1.959,0,0,0,8.143-1.239Zm6.223-3.595A5.571,5.571,0,0,1,15.4-8.354a3.28,3.28,0,0,1,2.716-1.332,3.3,3.3,0,0,1,2.646,1.143V-13.5H22.39V0H20.9l-.079-1.02A3.311,3.311,0,0,1,18.1.176a3.248,3.248,0,0,1-2.694-1.354,5.634,5.634,0,0,1-1.042-3.533Zm1.626.185a4.218,4.218,0,0,0,.668,2.531,2.159,2.159,0,0,0,1.846.914,2.372,2.372,0,0,0,2.259-1.389V-6.961a2.39,2.39,0,0,0-2.241-1.345,2.17,2.17,0,0,0-1.863.923A4.644,4.644,0,0,0,15.992-4.649Zm8.49-.193a5.617,5.617,0,0,1,.549-2.514,4.1,4.1,0,0,1,1.529-1.723A4.163,4.163,0,0,1,28.8-9.686a4.01,4.01,0,0,1,3.142,1.345,5.174,5.174,0,0,1,1.2,3.577v.114a5.666,5.666,0,0,1-.532,2.492A4.038,4.038,0,0,1,31.087-.439a4.211,4.211,0,0,1-2.272.615,4,4,0,0,1-3.133-1.345,5.147,5.147,0,0,1-1.2-3.56Zm1.635.193a4.068,4.068,0,0,0,.734,2.54,2.349,2.349,0,0,0,1.964.958,2.335,2.335,0,0,0,1.969-.971,4.449,4.449,0,0,0,.729-2.72,4.061,4.061,0,0,0-.743-2.536A2.361,2.361,0,0,0,28.8-8.35a2.335,2.335,0,0,0-1.942.958A4.416,4.416,0,0,0,26.117-4.649Zm13.658-3.4a4.873,4.873,0,0,0-.8-.062A2.143,2.143,0,0,0,36.8-6.75V0H35.178V-9.51H36.76l.026,1.1a2.532,2.532,0,0,1,2.268-1.274,1.661,1.661,0,0,1,.721.123Zm8.147.861h1.222A2.685,2.685,0,0,0,50.955-7.8a2.026,2.026,0,0,0,.659-1.591,1.985,1.985,0,0,0-2.241-2.25,2.331,2.331,0,0,0-1.683.6,2.107,2.107,0,0,0-.628,1.6H45.435a3.264,3.264,0,0,1,1.112-2.527,4.05,4.05,0,0,1,2.826-1.006,4,4,0,0,1,2.839.958A3.461,3.461,0,0,1,53.24-9.352,2.809,2.809,0,0,1,52.7-7.734a3.264,3.264,0,0,1-1.472,1.169,3.145,3.145,0,0,1,1.63,1.107,3.076,3.076,0,0,1,.576,1.89A3.491,3.491,0,0,1,52.308-.835,4.213,4.213,0,0,1,49.381.176,4.324,4.324,0,0,1,46.45-.8a3.236,3.236,0,0,1-1.129-2.575h1.635a2.092,2.092,0,0,0,.659,1.617,2.507,2.507,0,0,0,1.767.606,2.46,2.46,0,0,0,1.8-.615,2.371,2.371,0,0,0,.624-1.767,2.151,2.151,0,0,0-.686-1.714,2.987,2.987,0,0,0-1.978-.615H47.922ZM-59.1,14.826a8.3,8.3,0,0,1,.325-2.331,6.772,6.772,0,0,1,.969-2.03,4.124,4.124,0,0,1,1.337-1.289l.2.655a4.278,4.278,0,0,0-1.286,1.837,7.963,7.963,0,0,0-.551,2.766l-.005.457a8,8,0,0,0,.757,3.6,4.3,4.3,0,0,0,1.085,1.429l-.2.607a4.257,4.257,0,0,1-1.364-1.332A7.466,7.466,0,0,1-59.1,14.826Zm9.706.693a2.877,2.877,0,0,1-.916,1.915,3,3,0,0,1-2.049.674,2.756,2.756,0,0,1-2.221-.994,4,4,0,0,1-.835-2.659V13.7a4.456,4.456,0,0,1,.389-1.917,2.909,2.909,0,0,1,1.1-1.27,3.073,3.073,0,0,1,1.654-.443,2.826,2.826,0,0,1,2,.7,2.912,2.912,0,0,1,.875,1.926h-1.037a2.247,2.247,0,0,0-.583-1.358,1.763,1.763,0,0,0-1.254-.42,1.845,1.845,0,0,0-1.55.731,3.356,3.356,0,0,0-.561,2.08v.758a3.45,3.45,0,0,0,.532,2.027,1.718,1.718,0,0,0,1.488.753,1.984,1.984,0,0,0,1.319-.389,2.161,2.161,0,0,0,.61-1.356Zm.988-.478a3.433,3.433,0,0,1,.336-1.536,2.5,2.5,0,0,1,.935-1.053,2.544,2.544,0,0,1,1.367-.371,2.451,2.451,0,0,1,1.92.822,3.162,3.162,0,0,1,.733,2.186v.07a3.463,3.463,0,0,1-.325,1.523,2.467,2.467,0,0,1-.929,1.05,2.573,2.573,0,0,1-1.388.376,2.445,2.445,0,0,1-1.915-.822A3.146,3.146,0,0,1-48.4,15.11Zm1,.118a2.486,2.486,0,0,0,.448,1.552,1.435,1.435,0,0,0,1.2.585,1.427,1.427,0,0,0,1.2-.594,2.719,2.719,0,0,0,.446-1.662,2.482,2.482,0,0,0-.454-1.55,1.443,1.443,0,0,0-1.206-.594,1.427,1.427,0,0,0-1.187.585A2.7,2.7,0,0,0-47.4,15.159Zm6.478-2.97.032.73a2.118,2.118,0,0,1,1.74-.838q1.842,0,1.858,2.079V18h-.994V14.154a1.338,1.338,0,0,0-.287-.929,1.152,1.152,0,0,0-.878-.3,1.434,1.434,0,0,0-.849.258,1.751,1.751,0,0,0-.569.677V18h-.994V12.188Zm6.478-1.407v1.407h1.085v.768h-1.085v3.609a.807.807,0,0,0,.145.524.61.61,0,0,0,.494.175,2.406,2.406,0,0,0,.473-.064V18a2.9,2.9,0,0,1-.763.107,1.237,1.237,0,0,1-1-.4,1.731,1.731,0,0,1-.338-1.144v-3.6H-36.5v-.768h1.058V10.781Zm5.054,2.3a2.978,2.978,0,0,0-.489-.038,1.309,1.309,0,0,0-1.327.833V18H-32.2V12.188h.967l.016.671a1.547,1.547,0,0,1,1.386-.779,1.015,1.015,0,0,1,.44.075Zm.542,1.96a3.433,3.433,0,0,1,.336-1.536,2.5,2.5,0,0,1,.935-1.053,2.544,2.544,0,0,1,1.367-.371,2.451,2.451,0,0,1,1.92.822,3.162,3.162,0,0,1,.733,2.186v.07a3.462,3.462,0,0,1-.325,1.523,2.467,2.467,0,0,1-.929,1.05,2.573,2.573,0,0,1-1.388.376,2.445,2.445,0,0,1-1.915-.822,3.146,3.146,0,0,1-.733-2.175Zm1,.118a2.486,2.486,0,0,0,.448,1.552,1.435,1.435,0,0,0,1.2.585A1.427,1.427,0,0,0-25,16.7a2.719,2.719,0,0,0,.446-1.662,2.482,2.482,0,0,0-.454-1.55,1.443,1.443,0,0,0-1.206-.594,1.427,1.427,0,0,0-1.187.585A2.7,2.7,0,0,0-27.852,15.159ZM-21.235,18h-.994V9.75h.994Zm5.178,0a2.087,2.087,0,0,1-.14-.612,2.217,2.217,0,0,1-1.654.72,2.051,2.051,0,0,1-1.41-.486,1.573,1.573,0,0,1-.551-1.233,1.643,1.643,0,0,1,.69-1.41,3.254,3.254,0,0,1,1.942-.5h.967V14.02a1.116,1.116,0,0,0-.312-.83,1.252,1.252,0,0,0-.918-.309,1.449,1.449,0,0,0-.892.269.791.791,0,0,0-.36.65h-1a1.371,1.371,0,0,1,.309-.841,2.108,2.108,0,0,1,.838-.642,2.819,2.819,0,0,1,1.163-.236,2.3,2.3,0,0,1,1.574.5,1.812,1.812,0,0,1,.591,1.383v2.675a3.27,3.27,0,0,0,.2,1.273V18Zm-1.649-.757A1.746,1.746,0,0,0-16.82,17a1.462,1.462,0,0,0,.607-.628V15.18h-.779q-1.826,0-1.826,1.069a.9.9,0,0,0,.312.73A1.2,1.2,0,0,0-17.706,17.243Zm3.8-2.2a3.4,3.4,0,0,1,.634-2.151,2,2,0,0,1,1.66-.814,2.016,2.016,0,0,1,1.617.7V9.75H-9V18h-.913l-.048-.623a2.024,2.024,0,0,1-1.66.73,1.985,1.985,0,0,1-1.646-.827,3.443,3.443,0,0,1-.636-2.159Zm.994.113a2.578,2.578,0,0,0,.408,1.547,1.32,1.32,0,0,0,1.128.559,1.45,1.45,0,0,0,1.38-.849V13.746a1.461,1.461,0,0,0-1.37-.822,1.326,1.326,0,0,0-1.139.564A2.838,2.838,0,0,0-12.909,15.159Zm5.188-.118A3.433,3.433,0,0,1-7.385,13.5a2.5,2.5,0,0,1,.935-1.053,2.544,2.544,0,0,1,1.367-.371,2.451,2.451,0,0,1,1.92.822,3.162,3.162,0,0,1,.733,2.186v.07a3.462,3.462,0,0,1-.325,1.523,2.467,2.467,0,0,1-.929,1.05,2.573,2.573,0,0,1-1.388.376,2.445,2.445,0,0,1-1.915-.822,3.146,3.146,0,0,1-.733-2.175Zm1,.118a2.486,2.486,0,0,0,.448,1.552,1.435,1.435,0,0,0,1.2.585,1.427,1.427,0,0,0,1.2-.594,2.719,2.719,0,0,0,.446-1.662,2.482,2.482,0,0,0-.454-1.55A1.443,1.443,0,0,0-5.084,12.9a1.427,1.427,0,0,0-1.187.585A2.7,2.7,0,0,0-6.722,15.159ZM1.625,13.08a2.978,2.978,0,0,0-.489-.038,1.309,1.309,0,0,0-1.327.833V18h-.994V12.188h.967l.016.671a1.547,1.547,0,0,1,1.386-.779,1.015,1.015,0,0,1,.44.075Zm3.395,1.966a3.4,3.4,0,0,1,.634-2.151,2,2,0,0,1,1.66-.814,2.016,2.016,0,0,1,1.617.7V9.75h.994V18H9.01l-.048-.623a2.024,2.024,0,0,1-1.66.73,1.985,1.985,0,0,1-1.646-.827,3.443,3.443,0,0,1-.636-2.159Zm.994.113a2.578,2.578,0,0,0,.408,1.547,1.32,1.32,0,0,0,1.128.559,1.45,1.45,0,0,0,1.38-.849V13.746a1.461,1.461,0,0,0-1.37-.822,1.326,1.326,0,0,0-1.139.564A2.838,2.838,0,0,0,6.013,15.159Zm7.863,2.949a2.539,2.539,0,0,1-1.923-.776,2.881,2.881,0,0,1-.741-2.076v-.183a3.487,3.487,0,0,1,.33-1.544,2.577,2.577,0,0,1,.924-1.063,2.323,2.323,0,0,1,1.286-.384,2.177,2.177,0,0,1,1.762.747,3.232,3.232,0,0,1,.628,2.138v.414H12.206a2.066,2.066,0,0,0,.5,1.388,1.579,1.579,0,0,0,1.222.529,1.731,1.731,0,0,0,.892-.215,2.24,2.24,0,0,0,.639-.569l.607.473A2.44,2.44,0,0,1,13.876,18.107Zm-.124-5.21a1.325,1.325,0,0,0-1.01.438,2.128,2.128,0,0,0-.5,1.227h2.911v-.075a1.893,1.893,0,0,0-.408-1.174A1.248,1.248,0,0,0,13.753,12.9ZM20.5,18V12.957h-.918v-.768H20.5v-.6a1.979,1.979,0,0,1,.5-1.445,1.887,1.887,0,0,1,1.413-.51,2.624,2.624,0,0,1,.682.091l-.054.8a2.854,2.854,0,0,0-.537-.048.97.97,0,0,0-.747.283,1.147,1.147,0,0,0-.263.811v.614h1.241v.768H21.5V18Zm6.918-.575a2.111,2.111,0,0,1-1.7.682,1.807,1.807,0,0,1-1.415-.54,2.336,2.336,0,0,1-.491-1.6V12.188h.994v3.754q0,1.321,1.074,1.321a1.487,1.487,0,0,0,1.515-.849V12.188h.994V18h-.945Zm3.416-5.237.032.73a2.118,2.118,0,0,1,1.74-.838q1.842,0,1.858,2.079V18h-.994V14.154a1.338,1.338,0,0,0-.287-.929,1.152,1.152,0,0,0-.878-.3,1.434,1.434,0,0,0-.849.258,1.751,1.751,0,0,0-.569.677V18H29.9V12.188ZM38.3,17.3a1.431,1.431,0,0,0,.929-.322,1.134,1.134,0,0,0,.44-.806h.94a1.8,1.8,0,0,1-.344.951,2.264,2.264,0,0,1-.846.72,2.441,2.441,0,0,1-1.12.269,2.394,2.394,0,0,1-1.888-.792,3.155,3.155,0,0,1-.7-2.167v-.167a3.5,3.5,0,0,1,.312-1.509,2.373,2.373,0,0,1,.894-1.026,2.54,2.54,0,0,1,1.378-.365,2.331,2.331,0,0,1,1.625.585,2.092,2.092,0,0,1,.69,1.52h-.94a1.369,1.369,0,0,0-.427-.927,1.328,1.328,0,0,0-.948-.363,1.391,1.391,0,0,0-1.174.545,2.56,2.56,0,0,0-.416,1.576v.188a2.509,2.509,0,0,0,.414,1.547A1.4,1.4,0,0,0,38.3,17.3ZM42.8,18h-.994V12.188H42.8Zm-1.074-7.353a.593.593,0,0,1,.148-.408.555.555,0,0,1,.438-.167.563.563,0,0,1,.44.167.587.587,0,0,1,.15.408.568.568,0,0,1-.15.4.573.573,0,0,1-.44.161.565.565,0,0,1-.438-.161A.573.573,0,0,1,41.731,10.647Zm2.4,4.394a3.433,3.433,0,0,1,.336-1.536,2.5,2.5,0,0,1,.935-1.053,2.544,2.544,0,0,1,1.367-.371,2.451,2.451,0,0,1,1.92.822,3.162,3.162,0,0,1,.733,2.186v.07a3.463,3.463,0,0,1-.325,1.523,2.467,2.467,0,0,1-.929,1.05,2.573,2.573,0,0,1-1.388.376,2.445,2.445,0,0,1-1.915-.822,3.146,3.146,0,0,1-.733-2.175Zm1,.118a2.486,2.486,0,0,0,.448,1.552,1.52,1.52,0,0,0,2.4-.008,2.719,2.719,0,0,0,.446-1.662,2.482,2.482,0,0,0-.454-1.55,1.443,1.443,0,0,0-1.206-.594,1.427,1.427,0,0,0-1.187.585A2.7,2.7,0,0,0,45.131,15.159ZM47.22,9.75h1.2l-1.439,1.579-.8,0Zm4.388,2.438.032.73a2.118,2.118,0,0,1,1.74-.838q1.842,0,1.858,2.079V18h-.994V14.154a1.338,1.338,0,0,0-.287-.929,1.152,1.152,0,0,0-.878-.3,1.434,1.434,0,0,0-.849.258,1.751,1.751,0,0,0-.569.677V18h-.994V12.188Zm7.423,2.691a8.308,8.308,0,0,1-.314,2.3,6.79,6.79,0,0,1-.961,2.028A4.212,4.212,0,0,1,56.4,20.524l-.209-.607a4.318,4.318,0,0,0,1.329-1.969,8.516,8.516,0,0,0,.513-2.962v-.172a8.842,8.842,0,0,0-.236-2.1,7.079,7.079,0,0,0-.658-1.738,4.013,4.013,0,0,0-.948-1.2l.209-.607a4.2,4.2,0,0,1,1.351,1.311,6.8,6.8,0,0,1,.961,2.025A8.5,8.5,0,0,1,59.031,14.879Z" transform="translate(371.62 5785.926)" fill="#fff"/>
    <path id="Trazado_684105" data-name="Trazado 684105" d="M-42.8,0V-12.8h3.612a5.815,5.815,0,0,1,2.953.738,4.993,4.993,0,0,1,1.982,2.1,6.837,6.837,0,0,1,.708,3.129v.817a6.861,6.861,0,0,1-.7,3.173,4.915,4.915,0,0,1-2,2.092A6.185,6.185,0,0,1-39.256,0Zm1.688-11.417V-1.38h1.775A3.863,3.863,0,0,0-36.3-2.594a5.016,5.016,0,0,0,1.085-3.457V-6.8a5.1,5.1,0,0,0-1.024-3.391,3.644,3.644,0,0,0-2.9-1.227ZM-29.483,0h-1.626V-9.51h1.626Zm-1.758-12.032A.971.971,0,0,1-31-12.7a.907.907,0,0,1,.716-.272.922.922,0,0,1,.721.272.96.96,0,0,1,.246.668.929.929,0,0,1-.246.659.938.938,0,0,1-.721.264A.924.924,0,0,1-31-11.373.938.938,0,0,1-31.241-12.032Zm9.9,9.51a1.2,1.2,0,0,0-.5-1.024,4.78,4.78,0,0,0-1.731-.628,8.186,8.186,0,0,1-1.96-.633A2.788,2.788,0,0,1-26.6-5.687,2.1,2.1,0,0,1-26.952-6.9a2.467,2.467,0,0,1,.989-1.978,3.861,3.861,0,0,1,2.527-.809,3.974,3.974,0,0,1,2.624.835,2.652,2.652,0,0,1,1.006,2.136h-1.635a1.468,1.468,0,0,0-.567-1.151,2.124,2.124,0,0,0-1.428-.483,2.223,2.223,0,0,0-1.389.387,1.217,1.217,0,0,0-.5,1.011.986.986,0,0,0,.466.888,5.731,5.731,0,0,0,1.683.571,8.77,8.77,0,0,1,1.973.65,2.878,2.878,0,0,1,1.121.91,2.237,2.237,0,0,1,.365,1.3,2.434,2.434,0,0,1-1.02,2.043,4.277,4.277,0,0,1-2.646.769,4.789,4.789,0,0,1-2.021-.4A3.288,3.288,0,0,1-26.78-1.358a2.722,2.722,0,0,1-.5-1.569h1.626A1.683,1.683,0,0,0-25-1.63a2.54,2.54,0,0,0,1.613.479A2.622,2.622,0,0,0-21.9-1.525,1.148,1.148,0,0,0-21.344-2.522ZM-9.567-4.649a5.694,5.694,0,0,1-.993,3.5A3.183,3.183,0,0,1-13.25.176a3.488,3.488,0,0,1-2.725-1.1V3.656H-17.6V-9.51h1.485l.079,1.055a3.35,3.35,0,0,1,2.76-1.23,3.243,3.243,0,0,1,2.711,1.292,5.756,5.756,0,0,1,1,3.595Zm-1.626-.185a4.2,4.2,0,0,0-.686-2.54,2.208,2.208,0,0,0-1.881-.932A2.39,2.39,0,0,0-15.974-7v4.544a2.4,2.4,0,0,0,2.232,1.3,2.2,2.2,0,0,0,1.859-.927A4.587,4.587,0,0,0-11.193-4.834Zm3.261-.009a5.617,5.617,0,0,1,.549-2.514A4.1,4.1,0,0,1-5.854-9.079a4.163,4.163,0,0,1,2.237-.606A4.01,4.01,0,0,1-.475-8.341a5.174,5.174,0,0,1,1.2,3.577v.114A5.666,5.666,0,0,1,.193-2.158,4.038,4.038,0,0,1-1.327-.439,4.211,4.211,0,0,1-3.6.176,4,4,0,0,1-6.732-1.169a5.147,5.147,0,0,1-1.2-3.56Zm1.635.193a4.068,4.068,0,0,0,.734,2.54A2.349,2.349,0,0,0-3.6-1.151,2.335,2.335,0,0,0-1.63-2.123,4.449,4.449,0,0,0-.9-4.843a4.061,4.061,0,0,0-.743-2.536A2.361,2.361,0,0,0-3.617-8.35a2.335,2.335,0,0,0-1.942.958A4.416,4.416,0,0,0-6.3-4.649ZM8.3-2.522a1.2,1.2,0,0,0-.5-1.024,4.78,4.78,0,0,0-1.731-.628,8.186,8.186,0,0,1-1.96-.633,2.788,2.788,0,0,1-1.072-.879A2.1,2.1,0,0,1,2.694-6.9a2.467,2.467,0,0,1,.989-1.978,3.861,3.861,0,0,1,2.527-.809,3.974,3.974,0,0,1,2.624.835A2.652,2.652,0,0,1,9.839-6.715H8.2a1.468,1.468,0,0,0-.567-1.151A2.124,2.124,0,0,0,6.209-8.35a2.223,2.223,0,0,0-1.389.387,1.217,1.217,0,0,0-.5,1.011.986.986,0,0,0,.466.888,5.731,5.731,0,0,0,1.683.571,8.77,8.77,0,0,1,1.973.65,2.878,2.878,0,0,1,1.121.91,2.237,2.237,0,0,1,.365,1.3A2.434,2.434,0,0,1,8.908-.593,4.277,4.277,0,0,1,6.262.176a4.789,4.789,0,0,1-2.021-.4A3.288,3.288,0,0,1,2.865-1.358a2.722,2.722,0,0,1-.5-1.569H3.995a1.683,1.683,0,0,0,.655,1.3,2.54,2.54,0,0,0,1.613.479,2.622,2.622,0,0,0,1.481-.374A1.148,1.148,0,0,0,8.3-2.522ZM13.812,0H12.186V-9.51h1.626ZM12.054-12.032A.971.971,0,0,1,12.3-12.7a.907.907,0,0,1,.716-.272.922.922,0,0,1,.721.272.96.96,0,0,1,.246.668.929.929,0,0,1-.246.659.938.938,0,0,1-.721.264.924.924,0,0,1-.716-.264A.938.938,0,0,1,12.054-12.032Zm6.565.22v2.3H20.4v1.257H18.62v5.9a1.32,1.32,0,0,0,.237.858,1,1,0,0,0,.809.286,3.937,3.937,0,0,0,.773-.105V0a4.742,4.742,0,0,1-1.248.175,2.025,2.025,0,0,1-1.644-.659,2.832,2.832,0,0,1-.554-1.872v-5.9H15.262V-9.51h1.731v-2.3ZM24.06,0H22.434V-9.51H24.06ZM22.3-12.032a.971.971,0,0,1,.242-.668.907.907,0,0,1,.716-.272.922.922,0,0,1,.721.272.96.96,0,0,1,.246.668.929.929,0,0,1-.246.659.938.938,0,0,1-.721.264.924.924,0,0,1-.716-.264A.938.938,0,0,1,22.3-12.032Zm7.5,9.826,2.355-7.3h1.661L30.406,0H29.167L25.721-9.51h1.661Zm5.019-2.637a5.617,5.617,0,0,1,.549-2.514A4.1,4.1,0,0,1,36.9-9.079a4.163,4.163,0,0,1,2.237-.606,4.01,4.01,0,0,1,3.142,1.345,5.174,5.174,0,0,1,1.2,3.577v.114a5.666,5.666,0,0,1-.532,2.492A4.038,4.038,0,0,1,41.423-.439a4.211,4.211,0,0,1-2.272.615,4,4,0,0,1-3.133-1.345,5.147,5.147,0,0,1-1.2-3.56Zm1.635.193a4.068,4.068,0,0,0,.734,2.54,2.349,2.349,0,0,0,1.964.958,2.335,2.335,0,0,0,1.969-.971,4.449,4.449,0,0,0,.729-2.72,4.061,4.061,0,0,0-.743-2.536,2.361,2.361,0,0,0-1.973-.971,2.335,2.335,0,0,0-1.942.958A4.416,4.416,0,0,0,36.453-4.649Z" transform="translate(551.343 5794.354)" fill="#fff"/>
    <path id="Trazado_684106" data-name="Trazado 684106" d="M-106.923-5.7a7.935,7.935,0,0,1-3.16-1.534,2.93,2.93,0,0,1-.989-2.246,3.1,3.1,0,0,1,1.208-2.5,4.8,4.8,0,0,1,3.142-.989,5.243,5.243,0,0,1,2.351.51,3.866,3.866,0,0,1,1.6,1.406A3.6,3.6,0,0,1-102.2-9.1h-1.7a2.34,2.34,0,0,0-.738-1.83,3,3,0,0,0-2.083-.666,3.074,3.074,0,0,0-1.947.55,1.836,1.836,0,0,0-.7,1.528A1.652,1.652,0,0,0-108.7-8.19a6.509,6.509,0,0,0,2.259.991,10.481,10.481,0,0,1,2.5.99,3.788,3.788,0,0,1,1.336,1.261,3.219,3.219,0,0,1,.435,1.7A2.99,2.99,0,0,1-103.39-.76a5.171,5.171,0,0,1-3.243.936,6.015,6.015,0,0,1-2.461-.505,4.142,4.142,0,0,1-1.762-1.384,3.378,3.378,0,0,1-.62-2h1.7a2.2,2.2,0,0,0,.857,1.833,3.608,3.608,0,0,0,2.29.672,3.317,3.317,0,0,0,2.048-.545,1.77,1.77,0,0,0,.712-1.485,1.738,1.738,0,0,0-.659-1.455A7.6,7.6,0,0,0-106.923-5.7ZM-98.5,0h-1.626V-9.51H-98.5Zm-1.758-12.032a.971.971,0,0,1,.242-.668.907.907,0,0,1,.716-.272.922.922,0,0,1,.721.272.96.96,0,0,1,.246.668.929.929,0,0,1-.246.659.938.938,0,0,1-.721.264.924.924,0,0,1-.716-.264A.938.938,0,0,1-100.261-12.032Zm9.9,9.51a1.2,1.2,0,0,0-.5-1.024,4.78,4.78,0,0,0-1.731-.628,8.186,8.186,0,0,1-1.96-.633,2.788,2.788,0,0,1-1.072-.879A2.1,2.1,0,0,1-95.972-6.9a2.467,2.467,0,0,1,.989-1.978,3.861,3.861,0,0,1,2.527-.809,3.974,3.974,0,0,1,2.624.835,2.652,2.652,0,0,1,1.006,2.136h-1.635a1.468,1.468,0,0,0-.567-1.151,2.124,2.124,0,0,0-1.428-.483,2.223,2.223,0,0,0-1.389.387,1.217,1.217,0,0,0-.5,1.011.986.986,0,0,0,.466.888,5.731,5.731,0,0,0,1.683.571,8.77,8.77,0,0,1,1.973.65,2.878,2.878,0,0,1,1.121.91,2.237,2.237,0,0,1,.365,1.3,2.434,2.434,0,0,1-1.02,2.043A4.277,4.277,0,0,1-92.4.176a4.789,4.789,0,0,1-2.021-.4A3.288,3.288,0,0,1-95.8-1.358a2.722,2.722,0,0,1-.5-1.569h1.626a1.683,1.683,0,0,0,.655,1.3,2.54,2.54,0,0,0,1.613.479,2.622,2.622,0,0,0,1.481-.374A1.148,1.148,0,0,0-90.365-2.522Zm5.95-9.29v2.3h1.775v1.257h-1.775v5.9a1.32,1.32,0,0,0,.237.858,1,1,0,0,0,.809.286A3.937,3.937,0,0,0-82.6-1.31V0a4.742,4.742,0,0,1-1.248.175,2.025,2.025,0,0,1-1.644-.659,2.832,2.832,0,0,1-.554-1.872v-5.9h-1.731V-9.51h1.731v-2.3ZM-76.794.176a4.155,4.155,0,0,1-3.146-1.27,4.714,4.714,0,0,1-1.213-3.4v-.3a5.707,5.707,0,0,1,.541-2.527A4.217,4.217,0,0,1-79.1-9.057,3.8,3.8,0,0,1-77-9.686a3.562,3.562,0,0,1,2.883,1.222,5.289,5.289,0,0,1,1.028,3.5v.677h-6.442a3.38,3.38,0,0,0,.822,2.272,2.583,2.583,0,0,0,2,.866A2.832,2.832,0,0,0-75.248-1.5,3.666,3.666,0,0,0-74.2-2.435l.993.773A3.993,3.993,0,0,1-76.794.176ZM-77-8.35a2.169,2.169,0,0,0-1.652.716,3.482,3.482,0,0,0-.826,2.008h4.764v-.123a3.1,3.1,0,0,0-.668-1.92A2.042,2.042,0,0,0-77-8.35Zm7.321-1.16.044,1.055a3.512,3.512,0,0,1,2.821-1.23,2.719,2.719,0,0,1,2.716,1.529,3.6,3.6,0,0,1,1.235-1.107,3.647,3.647,0,0,1,1.8-.422q3.129,0,3.182,3.313V0h-1.626V-6.275A2.184,2.184,0,0,0-59.972-7.8a2.051,2.051,0,0,0-1.564-.505,2.156,2.156,0,0,0-1.5.541,2.193,2.193,0,0,0-.694,1.455V0h-1.635V-6.231A1.814,1.814,0,0,0-67.4-8.306a2.175,2.175,0,0,0-2.188,1.362V0h-1.626V-9.51ZM-49.557,0a3.416,3.416,0,0,1-.229-1A3.628,3.628,0,0,1-52.493.176,3.357,3.357,0,0,1-54.8-.62a2.573,2.573,0,0,1-.9-2.017,2.688,2.688,0,0,1,1.129-2.307,5.325,5.325,0,0,1,3.177-.822h1.582v-.747a1.826,1.826,0,0,0-.51-1.358,2.049,2.049,0,0,0-1.5-.505,2.371,2.371,0,0,0-1.459.439,1.3,1.3,0,0,0-.589,1.063h-1.635A2.244,2.244,0,0,1-55-8.249,3.449,3.449,0,0,1-53.631-9.3a4.613,4.613,0,0,1,1.9-.387,3.759,3.759,0,0,1,2.575.822A2.964,2.964,0,0,1-48.186-6.6v4.377a5.351,5.351,0,0,0,.334,2.083V0Zm-2.7-1.239a2.858,2.858,0,0,0,1.45-.4,2.392,2.392,0,0,0,.993-1.028V-4.614h-1.274q-2.988,0-2.988,1.749a1.48,1.48,0,0,0,.51,1.2A1.959,1.959,0,0,0-52.255-1.239Zm21.173-4.746A7.916,7.916,0,0,1-31.715-2.7a4.793,4.793,0,0,1-1.793,2.14,4.933,4.933,0,0,1-2.707.738A4.891,4.891,0,0,1-38.9-.567a4.908,4.908,0,0,1-1.815-2.118,7.6,7.6,0,0,1-.664-3.186v-.923a7.822,7.822,0,0,1,.642-3.261,4.891,4.891,0,0,1,1.815-2.167,4.87,4.87,0,0,1,2.685-.751,4.961,4.961,0,0,1,2.711.743,4.784,4.784,0,0,1,1.806,2.153,7.955,7.955,0,0,1,.633,3.283Zm-1.679-.826a5.738,5.738,0,0,0-.914-3.494,3.015,3.015,0,0,0-2.558-1.217,2.982,2.982,0,0,0-2.518,1.217A5.62,5.62,0,0,0-39.7-6.926v.94a5.746,5.746,0,0,0,.927,3.467,3,3,0,0,0,2.553,1.261,2.983,2.983,0,0,0,2.531-1.191,5.714,5.714,0,0,0,.923-3.415Zm11.988,2.162a5.694,5.694,0,0,1-.993,3.5A3.183,3.183,0,0,1-24.456.176a3.488,3.488,0,0,1-2.725-1.1V3.656h-1.626V-9.51h1.485l.079,1.055a3.35,3.35,0,0,1,2.76-1.23,3.243,3.243,0,0,1,2.711,1.292,5.756,5.756,0,0,1,1,3.595ZM-22.4-4.834a4.2,4.2,0,0,0-.686-2.54,2.208,2.208,0,0,0-1.881-.932A2.39,2.39,0,0,0-27.18-7v4.544a2.4,2.4,0,0,0,2.232,1.3,2.2,2.2,0,0,0,1.859-.927A4.587,4.587,0,0,0-22.4-4.834Zm7.638,5.01a4.155,4.155,0,0,1-3.146-1.27,4.714,4.714,0,0,1-1.213-3.4v-.3a5.707,5.707,0,0,1,.541-2.527,4.217,4.217,0,0,1,1.512-1.74,3.8,3.8,0,0,1,2.1-.628,3.562,3.562,0,0,1,2.883,1.222,5.289,5.289,0,0,1,1.028,3.5v.677h-6.442a3.38,3.38,0,0,0,.822,2.272,2.583,2.583,0,0,0,2,.866A2.832,2.832,0,0,0-13.214-1.5a3.666,3.666,0,0,0,1.046-.932l.993.773A3.993,3.993,0,0,1-14.761.176Zm-.2-8.525a2.169,2.169,0,0,0-1.652.716,3.482,3.482,0,0,0-.826,2.008h4.764v-.123a3.1,3.1,0,0,0-.668-1.92A2.042,2.042,0,0,0-14.963-8.35Zm10.389.3a4.873,4.873,0,0,0-.8-.062A2.143,2.143,0,0,0-7.545-6.75V0H-9.171V-9.51h1.582l.026,1.1A2.532,2.532,0,0,1-5.3-9.686a1.661,1.661,0,0,1,.721.123ZM2.439,0A3.416,3.416,0,0,1,2.21-1,3.628,3.628,0,0,1-.5.176,3.357,3.357,0,0,1-2.8-.62a2.573,2.573,0,0,1-.9-2.017A2.688,2.688,0,0,1-2.575-4.944,5.325,5.325,0,0,1,.6-5.766H2.184v-.747a1.826,1.826,0,0,0-.51-1.358,2.049,2.049,0,0,0-1.5-.505,2.371,2.371,0,0,0-1.459.439,1.3,1.3,0,0,0-.589,1.063H-3.511a2.244,2.244,0,0,1,.505-1.375A3.449,3.449,0,0,1-1.635-9.3a4.613,4.613,0,0,1,1.9-.387,3.759,3.759,0,0,1,2.575.822A2.964,2.964,0,0,1,3.81-6.6v4.377A5.351,5.351,0,0,0,4.144-.141V0Zm-2.7-1.239a2.858,2.858,0,0,0,1.45-.4,2.392,2.392,0,0,0,.993-1.028V-4.614H.91q-2.988,0-2.988,1.749a1.48,1.48,0,0,0,.51,1.2A1.959,1.959,0,0,0-.259-1.239ZM8.565-11.812v2.3H10.34v1.257H8.565v5.9A1.32,1.32,0,0,0,8.8-1.49a1,1,0,0,0,.809.286,3.937,3.937,0,0,0,.773-.105V0A4.742,4.742,0,0,1,9.136.176,2.025,2.025,0,0,1,7.493-.483a2.832,2.832,0,0,1-.554-1.872v-5.9H5.208V-9.51H6.939v-2.3ZM14.005,0H12.379V-9.51h1.626ZM12.248-12.032a.971.971,0,0,1,.242-.668.907.907,0,0,1,.716-.272.922.922,0,0,1,.721.272.96.96,0,0,1,.246.668.929.929,0,0,1-.246.659.938.938,0,0,1-.721.264.924.924,0,0,1-.716-.264A.938.938,0,0,1,12.248-12.032Zm7.5,9.826L22.1-9.51h1.661L20.351,0H19.112L15.667-9.51h1.661Zm5.019-2.637a5.617,5.617,0,0,1,.549-2.514,4.1,4.1,0,0,1,1.529-1.723,4.163,4.163,0,0,1,2.237-.606,4.01,4.01,0,0,1,3.142,1.345,5.174,5.174,0,0,1,1.2,3.577v.114a5.666,5.666,0,0,1-.532,2.492A4.038,4.038,0,0,1,31.368-.439,4.211,4.211,0,0,1,29.1.176a4,4,0,0,1-3.133-1.345,5.147,5.147,0,0,1-1.2-3.56Zm1.635.193a4.068,4.068,0,0,0,.734,2.54,2.349,2.349,0,0,0,1.964.958,2.335,2.335,0,0,0,1.969-.971,4.449,4.449,0,0,0,.729-2.72,4.061,4.061,0,0,0-.743-2.536,2.361,2.361,0,0,0-1.973-.971,2.335,2.335,0,0,0-1.942.958A4.416,4.416,0,0,0,26.4-4.649Zm16.532.615.246,1.688.36-1.521,2.531-8.93h1.424l2.47,8.93.352,1.547.272-1.723L52.572-12.8h1.7L51.166,0H49.627L46.991-9.325l-.2-.976-.2.976L43.853,0H42.315L39.221-12.8h1.688ZM57.652,0H56.026V-9.51h1.626ZM55.894-12.032a.971.971,0,0,1,.242-.668.907.907,0,0,1,.716-.272.922.922,0,0,1,.721.272.96.96,0,0,1,.246.668.929.929,0,0,1-.246.659.938.938,0,0,1-.721.264.924.924,0,0,1-.716-.264A.938.938,0,0,1,55.894-12.032Zm5.9,2.522.053,1.2a3.465,3.465,0,0,1,2.848-1.371q3.015,0,3.041,3.4V0H66.107V-6.293a2.189,2.189,0,0,0-.47-1.521A1.884,1.884,0,0,0,64.2-8.306a2.347,2.347,0,0,0-1.389.422,2.865,2.865,0,0,0-.932,1.107V0H60.253V-9.51Zm8,4.676a5.571,5.571,0,0,1,1.037-3.52,3.28,3.28,0,0,1,2.716-1.332,3.3,3.3,0,0,1,2.646,1.143V-13.5h1.626V0H76.32l-.079-1.02a3.311,3.311,0,0,1-2.716,1.2,3.248,3.248,0,0,1-2.694-1.354A5.634,5.634,0,0,1,69.79-4.711Zm1.626.185a4.218,4.218,0,0,0,.668,2.531,2.159,2.159,0,0,0,1.846.914,2.372,2.372,0,0,0,2.259-1.389V-6.961a2.39,2.39,0,0,0-2.241-1.345,2.17,2.17,0,0,0-1.863.923A4.644,4.644,0,0,0,71.416-4.649Zm8.49-.193a5.617,5.617,0,0,1,.549-2.514,4.1,4.1,0,0,1,1.529-1.723,4.163,4.163,0,0,1,2.237-.606,4.01,4.01,0,0,1,3.142,1.345,5.174,5.174,0,0,1,1.2,3.577v.114a5.666,5.666,0,0,1-.532,2.492A4.038,4.038,0,0,1,86.511-.439a4.211,4.211,0,0,1-2.272.615,4,4,0,0,1-3.133-1.345,5.147,5.147,0,0,1-1.2-3.56Zm1.635.193a4.068,4.068,0,0,0,.734,2.54,2.349,2.349,0,0,0,1.964.958,2.335,2.335,0,0,0,1.969-.971,4.449,4.449,0,0,0,.729-2.72,4.061,4.061,0,0,0-.743-2.536,2.361,2.361,0,0,0-1.973-.971,2.335,2.335,0,0,0-1.942.958A4.416,4.416,0,0,0,81.541-4.649ZM99.022-2.241,100.85-9.51h1.626L99.708,0H98.389L96.078-7.207,93.828,0H92.509L89.75-9.51h1.617l1.872,7.119L95.454-9.51h1.31Zm10.644-.281a1.2,1.2,0,0,0-.5-1.024,4.78,4.78,0,0,0-1.731-.628,8.186,8.186,0,0,1-1.96-.633,2.788,2.788,0,0,1-1.072-.879,2.1,2.1,0,0,1-.347-1.213,2.467,2.467,0,0,1,.989-1.978,3.861,3.861,0,0,1,2.527-.809,3.974,3.974,0,0,1,2.624.835A2.652,2.652,0,0,1,111.2-6.715h-1.635A1.468,1.468,0,0,0,109-7.866a2.124,2.124,0,0,0-1.428-.483,2.223,2.223,0,0,0-1.389.387,1.217,1.217,0,0,0-.5,1.011.986.986,0,0,0,.466.888,5.731,5.731,0,0,0,1.683.571,8.77,8.77,0,0,1,1.973.65,2.878,2.878,0,0,1,1.121.91,2.237,2.237,0,0,1,.365,1.3,2.434,2.434,0,0,1-1.02,2.043,4.277,4.277,0,0,1-2.646.769,4.789,4.789,0,0,1-2.021-.4,3.288,3.288,0,0,1-1.375-1.129,2.722,2.722,0,0,1-.5-1.569h1.626a1.683,1.683,0,0,0,.655,1.3,2.54,2.54,0,0,0,1.613.479,2.622,2.622,0,0,0,1.481-.374A1.148,1.148,0,0,0,109.666-2.522Z" transform="translate(371.62 5543.782)" fill="#fff"/>
    <g id="Grupo_909047" data-name="Grupo 909047" transform="translate(368.62 5486.782)">
      <line id="Lnea_1057" data-name="Lnea 1057" y2="23" transform="translate(3.5 4.5)" fill="none" stroke="#707070" stroke-width="2"/>
      <path id="Polgono_5" data-name="Polgono 5" d="M3.5,0,7,7H0Z" fill="#707070"/>
      <path id="Polgono_6" data-name="Polgono 6" d="M3.5,0,7,7H0Z" transform="translate(7 31) rotate(180)" fill="#707070"/>
    </g>
    <g id="Grupo_909048" data-name="Grupo 909048" transform="translate(368.62 5557.782)">
      <line id="Lnea_1057-2" data-name="Lnea 1057" y2="23" transform="translate(3.5 4.5)" fill="none" stroke="#707070" stroke-width="2"/>
      <path id="Polgono_5-2" data-name="Polgono 5" d="M3.5,0,7,7H0Z" fill="#707070"/>
      <path id="Polgono_6-2" data-name="Polgono 6" d="M3.5,0,7,7H0Z" transform="translate(7 31) rotate(180)" fill="#707070"/>
    </g>
    <g id="Grupo_909050" data-name="Grupo 909050" transform="translate(368.62 5644.04)">
      <line id="Lnea_1057-3" data-name="Lnea 1057" y2="23" transform="translate(3.5 4.5)" fill="none" stroke="#707070" stroke-width="2"/>
      <path id="Polgono_5-3" data-name="Polgono 5" d="M3.5,0,7,7H0Z" fill="#707070"/>
      <path id="Polgono_6-3" data-name="Polgono 6" d="M3.5,0,7,7H0Z" transform="translate(7 31) rotate(180)" fill="#707070"/>
    </g>
    <g id="Grupo_909051" data-name="Grupo 909051" transform="translate(368.62 5730.297)">
      <line id="Lnea_1057-4" data-name="Lnea 1057" y2="23" transform="translate(3.5 4.5)" fill="none" stroke="#707070" stroke-width="2"/>
      <path id="Polgono_5-4" data-name="Polgono 5" d="M3.5,0,7,7H0Z" fill="#707070"/>
      <path id="Polgono_6-4" data-name="Polgono 6" d="M3.5,0,7,7H0Z" transform="translate(7 31) rotate(180)" fill="#707070"/>
    </g>
    <g id="Grupo_909049" data-name="Grupo 909049" transform="translate(495.108 5785.354) rotate(90)">
      <line id="Lnea_1057-5" data-name="Lnea 1057" y2="9" transform="translate(3.5 28.5)" fill="none" stroke="#707070" stroke-width="2"/>
      <line id="Lnea_1058" data-name="Lnea 1058" y2="9" transform="translate(3.5 15.5)" fill="none" stroke="#707070" stroke-width="2"/>
      <line id="Lnea_1059" data-name="Lnea 1059" y2="9" transform="translate(3.5 3.5)" fill="none" stroke="#707070" stroke-width="2"/>
      <path id="Polgono_5-5" data-name="Polgono 5" d="M3.5,0,7,7H0Z" transform="translate(0 0)" fill="#707070"/>
      <path id="Polgono_6-5" data-name="Polgono 6" d="M3.5,0,7,7H0Z" transform="translate(7 42) rotate(180)" fill="#707070"/>
    </g>
  </g>
</svg>
